<svg xmlns="http://www.w3.org/2000/svg" xmlns:xlink="http://www.w3.org/1999/xlink" viewBox="0 0 135.03 130.88"><defs><style>.cls-1{fill:url(#linear-gradient);}</style><linearGradient id="linear-gradient" x1="1" y1="65.44" x2="133.81" y2="65.44" gradientUnits="userSpaceOnUse"><stop offset="0.03" stop-color="#bbb"/><stop offset="0.06" stop-color="#a2a2a2"/><stop offset="0.12" stop-color="#7c7c7c"/><stop offset="0.18" stop-color="#5a5a5a"/><stop offset="0.25" stop-color="#3e3e3e"/><stop offset="0.32" stop-color="#272727"/><stop offset="0.41" stop-color="#151515"/><stop offset="0.51" stop-color="#090909"/><stop offset="0.66" stop-color="#020202"/><stop offset="1"/></linearGradient></defs><title>Asset 2</title><g id="Layer_2" data-name="Layer 2"><g id="Layer_1-2" data-name="Layer 1"><path class="cls-1" d="M3,129.43A52,52,0,0,1,5.62,111.7,83.89,83.89,0,0,1,9,103c1.32-2.67,3-5.17,4.38-7.83a93.15,93.15,0,0,1,9.74-14.75,77.24,77.24,0,0,1,13-12.52c5.27-4.18,10.55-8.33,15.78-12.55A53.82,53.82,0,0,1,59.54,50c2.68-1.48,5.41-2.87,8.05-4.41Q76,40.67,84,35.08c5.26-3.69,10.46-7.48,15.92-10.89C106,20.39,112.29,17,118.22,13a45.59,45.59,0,0,1,4.07-2.34,45.66,45.66,0,0,0,4-2.74C129,6,132,4.67,134.54,2.51c1.47-1.27-.66-3.38-2.12-2.13-2.24,1.94-5,3.14-7.43,4.8-1.17.8-2.24,1.72-3.48,2.44s-2.76,1.43-4.08,2.26c-2.73,1.74-5.36,3.62-8.14,5.29s-5.38,3.14-8.07,4.72C90,26.52,79.78,34.85,68.54,41.55c-2.76,1.64-5.54,3.21-8.38,4.71a50.58,50.58,0,0,0-7.81,4.84C47,55.3,41.76,59.58,36.44,63.79c-4.93,3.91-9.8,7.71-13.88,12.54a103.08,103.08,0,0,0-10.22,14.4c-1.77,3-3.33,6.17-5.12,9.19a54,54,0,0,0-3.84,9.26A50.45,50.45,0,0,0,.69,119,70.2,70.2,0,0,0,0,129.43a1.5,1.5,0,0,0,3,0Z"/></g></g></svg>