<svg version="1.1" xmlns="http://www.w3.org/2000/svg" xmlns:xlink="http://www.w3.org/1999/xlink" width="400" height="400" style="width: 400px; height: 400px;"><defs><clipPath id="LCfEOSktldQD"><path fill="none" stroke="none" d=" M 5 5 L 395 5 L 395 395 L 5 395 L 5 5 Z"/></clipPath><clipPath id="tDinQyfGZXPJ"><path fill="none" stroke="none" d=" M 5 5 L 395 5 L 395 395 L 5 395 L 5 5 Z"/></clipPath><clipPath id="QQDBNXxAdxvw"><path fill="none" stroke="none" d=" M 5 5 L 395 5 L 395 395 L 5 395 L 5 5 Z"/></clipPath></defs><g><g transform="scale(1,1) translate(0.5,0.5)"><rect fill="#FFFFFF" stroke="none" x="0" y="0" width="400" height="400"/><g clip-path="url(#LCfEOSktldQD)"><g><g/></g></g><g clip-path="url(#tDinQyfGZXPJ)"><g><g/></g></g><g clip-path="url(#QQDBNXxAdxvw)"><g><g><path fill="none" stroke="none"/><path fill="black" stroke="none" paint-order="stroke fill markers" d=" M 68.15129325009751 279.5775152433599 A 1 1 0 1 1 68.15129275009755 279.5765152435266" fill-opacity="0.5"/><path fill="black" stroke="none" paint-order="stroke fill markers" d=" M 96.64864079074916 274.0002849364761 A 1 1 0 1 1 96.6486402907492 273.99928493664277" fill-opacity="0.5"/><path fill="black" stroke="none" paint-order="stroke fill markers" d=" M 122.00712898327964 290.5083572894027 A 1 1 0 1 1 122.00712848327969 290.50735728956937" fill-opacity="0.5"/><path fill="black" stroke="none" paint-order="stroke fill markers" d=" M 94.75425616282189 307.9712877843573 A 1 1 0 1 1 94.75425566282193 307.970287784524" fill-opacity="0.5"/><path fill="black" stroke="none" paint-order="stroke fill markers" d=" M 122.48901697138331 293.80683767094797 A 1 1 0 1 1 122.48901647138335 293.80583767111466" fill-opacity="0.5"/><path fill="black" stroke="none" paint-order="stroke fill markers" d=" M 126.00987762093155 295.3388646450871 A 1 1 0 1 1 126.00987712093159 295.3378646452538" fill-opacity="0.5"/><path fill="black" stroke="none" paint-order="stroke fill markers" d=" M 141.35133715979867 318.6821835889217 A 1 1 0 1 1 141.3513366597987 318.6811835890884" fill-opacity="0.5"/><path fill="black" stroke="none" paint-order="stroke fill markers" d=" M 108.03414953176812 298.38763413319094 A 1 1 0 1 1 108.03414903176817 298.38663413335763" fill-opacity="0.5"/><path fill="black" stroke="none" paint-order="stroke fill markers" d=" M 119.29047346747454 293.0523166943476 A 1 1 0 1 1 119.29047296747459 293.0513166945143" fill-opacity="0.5"/><path fill="black" stroke="none" paint-order="stroke fill markers" d=" M 111.19380231378074 221.45910501399075 A 1 1 0 1 1 111.19380181378078 221.4581050141574" fill-opacity="0.5"/><path fill="black" stroke="none" paint-order="stroke fill markers" d=" M 101.9149169128613 300.51751500001865 A 1 1 0 1 1 101.91491641286134 300.51651500018534" fill-opacity="0.5"/><path fill="black" stroke="none" paint-order="stroke fill markers" d=" M 137.73864357397704 282.99705792568625 A 1 1 0 1 1 137.73864307397707 282.99605792585294" fill-opacity="0.5"/><path fill="black" stroke="none" paint-order="stroke fill markers" d=" M 142.95094395912201 281.29825346381955 A 1 1 0 1 1 142.95094345912204 281.29725346398624" fill-opacity="0.5"/><path fill="black" stroke="none" paint-order="stroke fill markers" d=" M 178.5427461013585 331.7741212179256 A 1 1 0 1 1 178.54274560135852 331.7731212180923" fill-opacity="0.5"/><path fill="black" stroke="none" paint-order="stroke fill markers" d=" M 148.11416226975365 276.2125319090069 A 1 1 0 1 1 148.11416176975368 276.2115319091736" fill-opacity="0.5"/><path fill="black" stroke="none" paint-order="stroke fill markers" d=" M 150.6008042192027 272.9479648918537 A 1 1 0 1 1 150.60080371920273 272.9469648920204" fill-opacity="0.5"/><path fill="black" stroke="none" paint-order="stroke fill markers" d=" M 215.18047231624573 205.23989209714694 A 1 1 0 1 1 215.18047181624576 205.2388920973136" fill-opacity="0.5"/><path fill="black" stroke="none" paint-order="stroke fill markers" d=" M 152.86936797501178 265.2412306459632 A 1 1 0 1 1 152.8693674750118 265.2402306461299" fill-opacity="0.5"/><path fill="black" stroke="none" paint-order="stroke fill markers" d=" M 150.16707002731368 262.30274259382173 A 1 1 0 1 1 150.1670695273137 262.3017425939884" fill-opacity="0.5"/><path fill="black" stroke="none" paint-order="stroke fill markers" d=" M 154.2851716493873 169.74264931626416 A 1 1 0 1 1 154.28517114938734 169.74164931643082" fill-opacity="0.5"/><path fill="black" stroke="none" paint-order="stroke fill markers" d=" M 152.64750207086564 255.96550099234037 A 1 1 0 1 1 152.64750157086567 255.96450099250703" fill-opacity="0.5"/><path fill="black" stroke="none" paint-order="stroke fill markers" d=" M 153.83085079833694 253.86066403706118 A 1 1 0 1 1 153.83085029833697 253.85966403722784" fill-opacity="0.5"/><path fill="black" stroke="none" paint-order="stroke fill markers" d=" M 153.50232571766722 250.0759218161856 A 1 1 0 1 1 153.50232521766725 250.07492181635226" fill-opacity="0.5"/><path fill="black" stroke="none" paint-order="stroke fill markers" d=" M 250.6216095692585 216.95883131692005 A 1 1 0 1 1 250.62160906925854 216.95783131708671" fill-opacity="0.5"/><path fill="black" stroke="none" paint-order="stroke fill markers" d=" M 153.0563998910966 239.2300706993417 A 1 1 0 1 1 153.05639939109662 239.22907069950836" fill-opacity="0.5"/><path fill="black" stroke="none" paint-order="stroke fill markers" d=" M 170.5999160859462 302.0528531514871 A 1 1 0 1 1 170.59991558594623 302.0518531516538" fill-opacity="0.5"/><path fill="black" stroke="none" paint-order="stroke fill markers" d=" M 139.96939368663786 101.73828903834158 A 1 1 0 1 1 139.9693931866379 101.73728903850824" fill-opacity="0.5"/><path fill="black" stroke="none" paint-order="stroke fill markers" d=" M 154.24856157152766 234.65517019254702 A 1 1 0 1 1 154.2485610715277 234.65417019271368" fill-opacity="0.5"/><path fill="black" stroke="none" paint-order="stroke fill markers" d=" M 154.78012035671648 237.2188435434412 A 1 1 0 1 1 154.7801198567165 237.21784354360787" fill-opacity="0.5"/><path fill="black" stroke="none" paint-order="stroke fill markers" d=" M 154.4548601402065 246.22262464448175 A 1 1 0 1 1 154.45485964020654 246.22162464464841" fill-opacity="0.5"/><path fill="black" stroke="none" paint-order="stroke fill markers" d=" M 178.8748419000913 235.48583548788687 A 1 1 0 1 1 178.87484140009133 235.48483548805353" fill-opacity="0.5"/><path fill="black" stroke="none" paint-order="stroke fill markers" d=" M 151.79038261051156 239.13858267833422 A 1 1 0 1 1 151.7903821105116 239.13758267850088" fill-opacity="0.5"/><path fill="black" stroke="none" paint-order="stroke fill markers" d=" M 128.9030423974823 244.40630944535133 A 1 1 0 1 1 128.90304189748235 244.405309445518" fill-opacity="0.5"/><path fill="black" stroke="none" paint-order="stroke fill markers" d=" M 148.02918243178243 222.0783361883364 A 1 1 0 1 1 148.02918193178246 222.07733618850307" fill-opacity="0.5"/><path fill="black" stroke="none" paint-order="stroke fill markers" d=" M 146.01908229694845 213.2048585280948 A 1 1 0 1 1 146.01908179694848 213.20385852826146" fill-opacity="0.5"/><path fill="black" stroke="none" paint-order="stroke fill markers" d=" M 198.97256136090868 54.54882977902801 A 1 1 0 1 1 198.97256086090871 54.54782977919468" fill-opacity="0.5"/><path fill="black" stroke="none" paint-order="stroke fill markers" d=" M 139.04109489089694 92.92700281664816 A 1 1 0 1 1 139.04109439089697 92.92600281681482" fill-opacity="0.5"/><path fill="black" stroke="none" paint-order="stroke fill markers" d=" M 142.9545648357471 22.72727272727269 A 1 1 0 1 1 142.95456433574714 22.72627272743936" fill-opacity="0.5"/><path fill="black" stroke="none" paint-order="stroke fill markers" d=" M 134.780115391648 72.22815797101197 A 1 1 0 1 1 134.78011489164803 72.22715797117863" fill-opacity="0.5"/><path fill="black" stroke="none" paint-order="stroke fill markers" d=" M 150.18862303329925 153.56525584907075 A 1 1 0 1 1 150.18862253329928 153.5642558492374" fill-opacity="0.5"/><path fill="black" stroke="none" paint-order="stroke fill markers" d=" M 122.45461351919106 156.62265827735177 A 1 1 0 1 1 122.4546130191911 156.62165827751843" fill-opacity="0.5"/><path fill="black" stroke="none" paint-order="stroke fill markers" d=" M 157.82894153848514 200.744164547205 A 1 1 0 1 1 157.82894103848517 200.74316454737166" fill-opacity="0.5"/><path fill="black" stroke="none" paint-order="stroke fill markers" d=" M 117.91592784022052 183.20348837414738 A 1 1 0 1 1 117.91592734022056 183.20248837431404" fill-opacity="0.5"/><path fill="black" stroke="none" paint-order="stroke fill markers" d=" M 155.19942228464393 194.89520175049014 A 1 1 0 1 1 155.19942178464396 194.8942017506568" fill-opacity="0.5"/><path fill="black" stroke="none" paint-order="stroke fill markers" d=" M 142.1540018639913 242.36961730332865 A 1 1 0 1 1 142.15400136399134 242.3686173034953" fill-opacity="0.5"/><path fill="black" stroke="none" paint-order="stroke fill markers" d=" M 147.775354486787 247.76453046559934 A 1 1 0 1 1 147.77535398678702 247.763530465766" fill-opacity="0.5"/><path fill="black" stroke="none" paint-order="stroke fill markers" d=" M 154.6948282841604 253.98264624223748 A 1 1 0 1 1 154.69482778416042 253.98164624240414" fill-opacity="0.5"/><path fill="black" stroke="none" paint-order="stroke fill markers" d=" M 185.53076364311676 283.8258755512653 A 1 1 0 1 1 185.5307631431168 283.824875551432" fill-opacity="0.5"/><path fill="black" stroke="none" paint-order="stroke fill markers" d=" M 249.01462463269712 236.9382255940087 A 1 1 0 1 1 249.01462413269715 236.93722559417537" fill-opacity="0.5"/><path fill="black" stroke="none" paint-order="stroke fill markers" d=" M 174.24933086340658 322.2033622920154 A 1 1 0 1 1 174.2493303634066 322.2023622921821" fill-opacity="0.5"/><path fill="black" stroke="none" paint-order="stroke fill markers" d=" M 167.93790088341896 278.98631156050675 A 1 1 0 1 1 167.937900383419 278.98531156067344" fill-opacity="0.5"/><path fill="black" stroke="none" paint-order="stroke fill markers" d=" M 288.3250623388225 338.1879218328024 A 1 1 0 1 1 288.32506183882253 338.18692183296906" fill-opacity="0.5"/><path fill="black" stroke="none" paint-order="stroke fill markers" d=" M 173.6213196517089 301.70240426766975 A 1 1 0 1 1 173.62131915170892 301.70140426783644" fill-opacity="0.5"/><path fill="black" stroke="none" paint-order="stroke fill markers" d=" M 149.1827453988809 318.9745223587383 A 1 1 0 1 1 149.18274489888094 318.973522358905" fill-opacity="0.5"/><path fill="black" stroke="none" paint-order="stroke fill markers" d=" M 135.07208749416685 298.0545732595826 A 1 1 0 1 1 135.07208699416688 298.05357325974927" fill-opacity="0.5"/><path fill="black" stroke="none" paint-order="stroke fill markers" d=" M 135.2123674916461 301.6626537342147 A 1 1 0 1 1 135.21236699164612 301.6616537343814" fill-opacity="0.5"/><path fill="black" stroke="none" paint-order="stroke fill markers" d=" M 140.8780973355481 293.2548982237096 A 1 1 0 1 1 140.87809683554812 293.25389822387626" fill-opacity="0.5"/><path fill="black" stroke="none" paint-order="stroke fill markers" d=" M 137.67740952847794 290.685271498107 A 1 1 0 1 1 137.67740902847797 290.6842714982737" fill-opacity="0.5"/><path fill="black" stroke="none" paint-order="stroke fill markers" d=" M 153.82346837446346 294.0182034356802 A 1 1 0 1 1 153.8234678744635 294.0172034358469" fill-opacity="0.5"/><path fill="black" stroke="none" paint-order="stroke fill markers" d=" M 146.76404238404402 290.41129048600243 A 1 1 0 1 1 146.76404188404405 290.4102904861691" fill-opacity="0.5"/><path fill="black" stroke="none" paint-order="stroke fill markers" d=" M 153.02320024439234 291.0180680608358 A 1 1 0 1 1 153.02319974439237 291.0170680610025" fill-opacity="0.5"/><path fill="black" stroke="none" paint-order="stroke fill markers" d=" M 205.27983360013414 282.0884287818406 A 1 1 0 1 1 205.27983310013417 282.0874287820073" fill-opacity="0.5"/><path fill="black" stroke="none" paint-order="stroke fill markers" d=" M 167.83864802752976 296.27020139737454 A 1 1 0 1 1 167.8386475275298 296.2692013975412" fill-opacity="0.5"/><path fill="black" stroke="none" paint-order="stroke fill markers" d=" M 170.6713734121059 299.7995755605689 A 1 1 0 1 1 170.67137291210594 299.79857556073557" fill-opacity="0.5"/><path fill="black" stroke="none" paint-order="stroke fill markers" d=" M 185.22924623814274 339.614296457039 A 1 1 0 1 1 185.22924573814277 339.6132964572057" fill-opacity="0.5"/><path fill="black" stroke="none" paint-order="stroke fill markers" d=" M 158.12435516874334 307.87941332261556 A 1 1 0 1 1 158.12435466874336 307.87841332278225" fill-opacity="0.5"/><path fill="black" stroke="none" paint-order="stroke fill markers" d=" M 155.38607914476216 308.1061920572946 A 1 1 0 1 1 155.3860786447622 308.1051920574613" fill-opacity="0.5"/><path fill="black" stroke="none" paint-order="stroke fill markers" d=" M 153.4633469472934 307.825914977755 A 1 1 0 1 1 153.46334644729342 307.8249149779217" fill-opacity="0.5"/><path fill="black" stroke="none" paint-order="stroke fill markers" d=" M 150.65994323321235 323.8646418433529 A 1 1 0 1 1 150.65994273321238 323.8636418435196" fill-opacity="0.5"/><path fill="black" stroke="none" paint-order="stroke fill markers" d=" M 158.58499169349352 308.01240726588526 A 1 1 0 1 1 158.58499119349355 308.01140726605195" fill-opacity="0.5"/><path fill="black" stroke="none" paint-order="stroke fill markers" d=" M 163.69169184888756 308.66480854420126 A 1 1 0 1 1 163.6916913488876 308.66380854436795" fill-opacity="0.5"/><path fill="black" stroke="none" paint-order="stroke fill markers" d=" M 149.02721365099293 336.68305234583164 A 1 1 0 1 1 149.02721315099296 336.68205234599833" fill-opacity="0.5"/><path fill="black" stroke="none" paint-order="stroke fill markers" d=" M 176.36786769959983 310.4287628466702 A 1 1 0 1 1 176.36786719959986 310.4277628468369" fill-opacity="0.5"/><path fill="black" stroke="none" paint-order="stroke fill markers" d=" M 186.50972317773892 311.84891613965164 A 1 1 0 1 1 186.50972267773895 311.8479161398183" fill-opacity="0.5"/><path fill="black" stroke="none" paint-order="stroke fill markers" d=" M 274.3528964611575 343.065328875526 A 1 1 0 1 1 274.35289596115757 343.0643288756927" fill-opacity="0.5"/><path fill="black" stroke="none" paint-order="stroke fill markers" d=" M 289.9493467564771 347.8305806092927 A 1 1 0 1 1 289.94934625647716 347.8295806094594" fill-opacity="0.5"/><path fill="black" stroke="none" paint-order="stroke fill markers" d=" M 264.4040992187508 320.7223172408799 A 1 1 0 1 1 264.40409871875084 320.72131724104656" fill-opacity="0.5"/><path fill="black" stroke="none" paint-order="stroke fill markers" d=" M 280.9979279821714 327.918725964688 A 1 1 0 1 1 280.99792748217146 327.9177259648547" fill-opacity="0.5"/><path fill="black" stroke="none" paint-order="stroke fill markers" d=" M 207.4554751215473 292.01440523832963 A 1 1 0 1 1 207.45547462154732 292.0134052384963" fill-opacity="0.5"/><path fill="black" stroke="none" paint-order="stroke fill markers" d=" M 225.47469787762986 285.35726179937564 A 1 1 0 1 1 225.4746973776299 285.3562617995423" fill-opacity="0.5"/><path fill="black" stroke="none" paint-order="stroke fill markers" d=" M 169.42754671294094 278.8572416084549 A 1 1 0 1 1 169.42754621294097 278.8562416086216" fill-opacity="0.5"/><path fill="black" stroke="none" paint-order="stroke fill markers" d=" M 149.90964643278917 304.73934903387135 A 1 1 0 1 1 149.9096459327892 304.73834903403804" fill-opacity="0.5"/><path fill="black" stroke="none" paint-order="stroke fill markers" d=" M 145.6618382368744 237.1536626577033 A 1 1 0 1 1 145.66183773687442 237.15266265786997" fill-opacity="0.5"/><path fill="black" stroke="none" paint-order="stroke fill markers" d=" M 133.39135429578877 292.517850019083 A 1 1 0 1 1 133.3913537957888 292.5168500192497" fill-opacity="0.5"/><path fill="black" stroke="none" paint-order="stroke fill markers" d=" M 133.8680565389676 289.8670680050309 A 1 1 0 1 1 133.86805603896764 289.8660680051976" fill-opacity="0.5"/><path fill="black" stroke="none" paint-order="stroke fill markers" d=" M 138.1116703359963 283.7745101496322 A 1 1 0 1 1 138.11166983599634 283.7735101497989" fill-opacity="0.5"/><path fill="black" stroke="none" paint-order="stroke fill markers" d=" M 114.17436163439953 292.83048877586816 A 1 1 0 1 1 114.17436113439958 292.82948877603485" fill-opacity="0.5"/><path fill="black" stroke="none" paint-order="stroke fill markers" d=" M 131.84133056533875 237.4067230079808 A 1 1 0 1 1 131.84133006533878 237.40572300814745" fill-opacity="0.5"/><path fill="black" stroke="none" paint-order="stroke fill markers" d=" M 140.5568302677803 289.4919589161488 A 1 1 0 1 1 140.55682976778033 289.4909589163155" fill-opacity="0.5"/><path fill="black" stroke="none" paint-order="stroke fill markers" d=" M 143.01582805007598 295.12297005014574 A 1 1 0 1 1 143.015827550076 295.1219700503124" fill-opacity="0.5"/><path fill="black" stroke="none" paint-order="stroke fill markers" d=" M 146.66680217740887 299.25035578113966 A 1 1 0 1 1 146.6668016774089 299.24935578130635" fill-opacity="0.5"/><path fill="black" stroke="none" paint-order="stroke fill markers" d=" M 167.9011891519412 332.6266933280985 A 1 1 0 1 1 167.90118865194123 332.6256933282652" fill-opacity="0.5"/><path fill="black" stroke="none" paint-order="stroke fill markers" d=" M 150.9746126270251 307.83603535019245 A 1 1 0 1 1 150.97461212702513 307.83503535035914" fill-opacity="0.5"/><path fill="black" stroke="none" paint-order="stroke fill markers" d=" M 156.9901470998033 354.10050131832844 A 1 1 0 1 1 156.99014659980332 354.09950131849513" fill-opacity="0.5"/><path fill="black" stroke="none" paint-order="stroke fill markers" d=" M 153.7629813860538 314.33630025653105 A 1 1 0 1 1 153.76298088605384 314.33530025669774" fill-opacity="0.5"/><path fill="black" stroke="none" paint-order="stroke fill markers" d=" M 155.84668482544572 316.74650924224056 A 1 1 0 1 1 155.84668432544575 316.74550924240725" fill-opacity="0.5"/><path fill="black" stroke="none" paint-order="stroke fill markers" d=" M 153.8259114610433 319.213244299507 A 1 1 0 1 1 153.82591096104332 319.21224429967367" fill-opacity="0.5"/><path fill="black" stroke="none" paint-order="stroke fill markers" d=" M 169.69600400858556 366.4625654159612 A 1 1 0 1 1 169.6960035085856 366.4615654161279" fill-opacity="0.5"/><path fill="black" stroke="none" paint-order="stroke fill markers" d=" M 168.10164681027385 377.27272727272725 A 1 1 0 1 1 168.10164631027388 377.27172727289394" fill-opacity="0.5"/><path fill="black" stroke="none" paint-order="stroke fill markers" d=" M 157.56131121858178 368.24477904312494 A 1 1 0 1 1 157.5613107185818 368.2437790432916" fill-opacity="0.5"/><path fill="black" stroke="none" paint-order="stroke fill markers" d=" M 152.7722981498181 326.9441989918436 A 1 1 0 1 1 152.77229764981814 326.9431989920103" fill-opacity="0.5"/><path fill="black" stroke="none" paint-order="stroke fill markers" d=" M 166.7256726987079 341.601396586718 A 1 1 0 1 1 166.72567219870794 341.6003965868847" fill-opacity="0.5"/><path fill="black" stroke="none" paint-order="stroke fill markers" d=" M 150.40438092536579 309.8847071549779 A 1 1 0 1 1 150.40438042536582 309.8837071551446" fill-opacity="0.5"/><path fill="black" stroke="none" paint-order="stroke fill markers" d=" M 148.591690700327 300.1780742086274 A 1 1 0 1 1 148.59169020032704 300.17707420879407" fill-opacity="0.5"/><path fill="black" stroke="none" paint-order="stroke fill markers" d=" M 148.47582225415067 295.91810467193557 A 1 1 0 1 1 148.4758217541507 295.91710467210225" fill-opacity="0.5"/><path fill="black" stroke="none" paint-order="stroke fill markers" d=" M 146.5971887942986 291.1543613330161 A 1 1 0 1 1 146.59718829429863 291.1533613331828" fill-opacity="0.5"/><path fill="black" stroke="none" paint-order="stroke fill markers" d=" M 145.99212950989528 287.7108745344326 A 1 1 0 1 1 145.9921290098953 287.7098745345993" fill-opacity="0.5"/><path fill="black" stroke="none" paint-order="stroke fill markers" d=" M 146.1201136631068 286.171199405997 A 1 1 0 1 1 146.12011316310682 286.1701994061637" fill-opacity="0.5"/><path fill="black" stroke="none" paint-order="stroke fill markers" d=" M 146.36887411518993 285.88807414887583 A 1 1 0 1 1 146.36887361518995 285.8870741490425" fill-opacity="0.5"/><path fill="black" stroke="none" paint-order="stroke fill markers" d=" M 147.0151789132332 283.807618960821 A 1 1 0 1 1 147.01517841323323 283.8066189609877" fill-opacity="0.5"/><path fill="black" stroke="none" paint-order="stroke fill markers" d=" M 147.41019030108396 285.0976570205781 A 1 1 0 1 1 147.410189801084 285.0966570207448" fill-opacity="0.5"/><path fill="black" stroke="none" paint-order="stroke fill markers" d=" M 147.11293154525617 285.0939926692286 A 1 1 0 1 1 147.1129310452562 285.0929926693953" fill-opacity="0.5"/><path fill="black" stroke="none" paint-order="stroke fill markers" d=" M 143.92795943065744 285.36465202271035 A 1 1 0 1 1 143.92795893065747 285.36365202287703" fill-opacity="0.5"/><path fill="black" stroke="none" paint-order="stroke fill markers" d=" M 174.58118069795322 301.8770517827275 A 1 1 0 1 1 174.58118019795324 301.8760517828942" fill-opacity="0.5"/><path fill="black" stroke="none" paint-order="stroke fill markers" d=" M 143.3264713570339 286.31469150397857 A 1 1 0 1 1 143.32647085703394 286.31369150414525" fill-opacity="0.5"/><path fill="black" stroke="none" paint-order="stroke fill markers" d=" M 148.32727998855273 271.9413410083517 A 1 1 0 1 1 148.32727948855276 271.9403410085184" fill-opacity="0.5"/><path fill="black" stroke="none" paint-order="stroke fill markers" d=" M 120.36873000540395 299.1475279119814 A 1 1 0 1 1 120.36872950540399 299.1465279121481" fill-opacity="0.5"/><path fill="black" stroke="none" paint-order="stroke fill markers" d=" M 142.64473194924872 287.8148959039247 A 1 1 0 1 1 142.64473144924875 287.8138959040914" fill-opacity="0.5"/><path fill="black" stroke="none" paint-order="stroke fill markers" d=" M 143.6740155986897 287.9919290525249 A 1 1 0 1 1 143.67401509868972 287.99092905269157" fill-opacity="0.5"/><path fill="black" stroke="none" paint-order="stroke fill markers" d=" M 142.95617542815842 287.7579410107511 A 1 1 0 1 1 142.95617492815845 287.7569410109178" fill-opacity="0.5"/><path fill="black" stroke="none" paint-order="stroke fill markers" d=" M 143.5315589758323 287.06070713875744 A 1 1 0 1 1 143.53155847583233 287.0597071389241" fill-opacity="0.5"/><path fill="black" stroke="none" paint-order="stroke fill markers" d=" M 143.77599613433566 288.5670868434091 A 1 1 0 1 1 143.7759956343357 288.56608684357576" fill-opacity="0.5"/><path fill="black" stroke="none" paint-order="stroke fill markers" d=" M 141.57723713281052 289.1450645579534 A 1 1 0 1 1 141.57723663281055 289.1440645581201" fill-opacity="0.5"/><path fill="black" stroke="none" paint-order="stroke fill markers" d=" M 141.70807115952516 289.8461190892822 A 1 1 0 1 1 141.7080706595252 289.8451190894489" fill-opacity="0.5"/><path fill="black" stroke="none" paint-order="stroke fill markers" d=" M 137.73214602005933 291.5886122597461 A 1 1 0 1 1 137.73214552005936 291.5876122599128" fill-opacity="0.5"/><path fill="black" stroke="none" paint-order="stroke fill markers" d=" M 134.13143215145845 294.6747635089739 A 1 1 0 1 1 134.13143165145848 294.6737635091406" fill-opacity="0.5"/><path fill="black" stroke="none" paint-order="stroke fill markers" d=" M 124.77507749205989 315.3678454660185 A 1 1 0 1 1 124.77507699205994 315.36684546618517" fill-opacity="0.5"/><path fill="black" stroke="none" paint-order="stroke fill markers" d=" M 132.4170192032051 298.5225201777917 A 1 1 0 1 1 132.41701870320512 298.5215201779584" fill-opacity="0.5"/><path fill="black" stroke="none" paint-order="stroke fill markers" d=" M 136.00111314561173 305.5164321340027 A 1 1 0 1 1 136.00111264561176 305.5154321341694" fill-opacity="0.5"/><path fill="black" stroke="none" paint-order="stroke fill markers" d=" M 136.89432420418095 309.53993639798733 A 1 1 0 1 1 136.89432370418098 309.538936398154" fill-opacity="0.5"/><path fill="black" stroke="none" paint-order="stroke fill markers" d=" M 131.42878555740992 316.51658065101043 A 1 1 0 1 1 131.42878505740995 316.5155806511771" fill-opacity="0.5"/><path fill="black" stroke="none" paint-order="stroke fill markers" d=" M 135.53666811770984 313.4173660644136 A 1 1 0 1 1 135.53666761770987 313.4163660645803" fill-opacity="0.5"/><path fill="black" stroke="none" paint-order="stroke fill markers" d=" M 123.3608433359982 341.31926568535414 A 1 1 0 1 1 123.36084283599824 341.3182656855208" fill-opacity="0.5"/><path fill="black" stroke="none" paint-order="stroke fill markers" d=" M 123.94160577355083 340.66197009868176 A 1 1 0 1 1 123.94160527355088 340.66097009884845" fill-opacity="0.5"/><path fill="black" stroke="none" paint-order="stroke fill markers" d=" M 144.41558815979835 311.1916497183177 A 1 1 0 1 1 144.41558765979838 311.1906497184844" fill-opacity="0.5"/><path fill="black" stroke="none" paint-order="stroke fill markers" d=" M 148.10873726159 311.5875181482487 A 1 1 0 1 1 148.10873676159002 311.5865181484154" fill-opacity="0.5"/><path fill="black" stroke="none" paint-order="stroke fill markers" d=" M 153.81180318296032 312.6881560444918 A 1 1 0 1 1 153.81180268296035 312.6871560446585" fill-opacity="0.5"/><path fill="black" stroke="none" paint-order="stroke fill markers" d=" M 159.87582672104466 315.25663803056074 A 1 1 0 1 1 159.8758262210447 315.2556380307274" fill-opacity="0.5"/><path fill="black" stroke="none" paint-order="stroke fill markers" d=" M 171.61982392748337 323.67608063902736 A 1 1 0 1 1 171.6198234274834 323.67508063919405" fill-opacity="0.5"/><path fill="black" stroke="none" paint-order="stroke fill markers" d=" M 231.29578090888086 374.67900997757636 A 1 1 0 1 1 231.2957804088809 374.67800997774305" fill-opacity="0.5"/><path fill="black" stroke="none" paint-order="stroke fill markers" d=" M 171.93857459242352 321.84626553386823 A 1 1 0 1 1 171.93857409242355 321.8452655340349" fill-opacity="0.5"/><path fill="black" stroke="none" paint-order="stroke fill markers" d=" M 207.56353538733322 308.11039186602943 A 1 1 0 1 1 207.56353488733325 308.1093918661961" fill-opacity="0.5"/><path fill="black" stroke="none" paint-order="stroke fill markers" d=" M 161.77219995365007 306.7366333351656 A 1 1 0 1 1 161.7721994536501 306.7356333353323" fill-opacity="0.5"/><path fill="black" stroke="none" paint-order="stroke fill markers" d=" M 156.4239420762589 301.5305803219394 A 1 1 0 1 1 156.42394157625893 301.5295803221061" fill-opacity="0.5"/><path fill="black" stroke="none" paint-order="stroke fill markers" d=" M 154.09851733291913 296.13584762020025 A 1 1 0 1 1 154.09851683291916 296.13484762036694" fill-opacity="0.5"/><path fill="black" stroke="none" paint-order="stroke fill markers" d=" M 150.02000236431255 287.2801425880683 A 1 1 0 1 1 150.02000186431258 287.279142588235" fill-opacity="0.5"/><path fill="black" stroke="none" paint-order="stroke fill markers" d=" M 149.26716629900602 284.1739476878543 A 1 1 0 1 1 149.26716579900605 284.172947688021" fill-opacity="0.5"/><path fill="black" stroke="none" paint-order="stroke fill markers" d=" M 149.68062894255243 282.6462415130338 A 1 1 0 1 1 149.68062844255246 282.64524151320046" fill-opacity="0.5"/><path fill="black" stroke="none" paint-order="stroke fill markers" d=" M 177.95407812259177 244.58904122765688 A 1 1 0 1 1 177.9540776225918 244.58804122782354" fill-opacity="0.5"/><path fill="black" stroke="none" paint-order="stroke fill markers" d=" M 146.19353318432852 283.76552152903866 A 1 1 0 1 1 146.19353268432855 283.76452152920535" fill-opacity="0.5"/><path fill="black" stroke="none" paint-order="stroke fill markers" d=" M 143.2711309918416 296.24493145445314 A 1 1 0 1 1 143.27113049184163 296.2439314546198" fill-opacity="0.5"/><path fill="black" stroke="none" paint-order="stroke fill markers" d=" M 143.59369725505425 286.2388338258309 A 1 1 0 1 1 143.59369675505428 286.2378338259976" fill-opacity="0.5"/><path fill="black" stroke="none" paint-order="stroke fill markers" d=" M 143.40232450467448 290.70911416227875 A 1 1 0 1 1 143.4023240046745 290.70811416244544" fill-opacity="0.5"/><path fill="black" stroke="none" paint-order="stroke fill markers" d=" M 143.90037754289736 292.0922101585263 A 1 1 0 1 1 143.9003770428974 292.091210158693" fill-opacity="0.5"/><path fill="black" stroke="none" paint-order="stroke fill markers" d=" M 145.96339032910544 291.2902973298005 A 1 1 0 1 1 145.96338982910547 291.2892973299672" fill-opacity="0.5"/><path fill="black" stroke="none" paint-order="stroke fill markers" d=" M 148.00656436933693 291.86464851679364 A 1 1 0 1 1 148.00656386933696 291.8636485169603" fill-opacity="0.5"/><path fill="black" stroke="none" paint-order="stroke fill markers" d=" M 193.26692382780237 299.09156509602303 A 1 1 0 1 1 193.2669233278024 299.0905650961897" fill-opacity="0.5"/><path fill="black" stroke="none" paint-order="stroke fill markers" d=" M 151.6039665903256 291.88693721527676 A 1 1 0 1 1 151.60396609032563 291.88593721544345" fill-opacity="0.5"/><path fill="black" stroke="none" paint-order="stroke fill markers" d=" M 181.34177281573736 304.55270727338166 A 1 1 0 1 1 181.3417723157374 304.55170727354835" fill-opacity="0.5"/><path fill="black" stroke="none" paint-order="stroke fill markers" d=" M 151.67225555089502 291.91807850539215 A 1 1 0 1 1 151.67225505089505 291.91707850555883" fill-opacity="0.5"/><path fill="black" stroke="none" paint-order="stroke fill markers" d=" M 158.50215182277657 303.731088701458 A 1 1 0 1 1 158.5021513227766 303.7300887016247" fill-opacity="0.5"/><path fill="black" stroke="none" paint-order="stroke fill markers" d=" M 153.62417993290515 293.8367266743443 A 1 1 0 1 1 153.62417943290518 293.83572667451097" fill-opacity="0.5"/><path fill="black" stroke="none" paint-order="stroke fill markers" d=" M 153.64399823113789 293.29475812718374 A 1 1 0 1 1 153.64399773113792 293.29375812735043" fill-opacity="0.5"/><path fill="black" stroke="none" paint-order="stroke fill markers" d=" M 155.40440465915114 292.9365084267515 A 1 1 0 1 1 155.40440415915117 292.9355084269182" fill-opacity="0.5"/><path fill="black" stroke="none" paint-order="stroke fill markers" d=" M 160.96589151077657 292.8330343630635 A 1 1 0 1 1 160.9658910107766 292.8320343632302" fill-opacity="0.5"/><path fill="black" stroke="none" paint-order="stroke fill markers" d=" M 170.2614535988563 291.6373967567818 A 1 1 0 1 1 170.26145309885632 291.6363967569485" fill-opacity="0.5"/><path fill="black" stroke="none" paint-order="stroke fill markers" d=" M 189.29729521383288 293.0815266922084 A 1 1 0 1 1 189.2972947138329 293.0805266923751" fill-opacity="0.5"/><path fill="black" stroke="none" paint-order="stroke fill markers" d=" M 198.73204307410214 290.4428601420261 A 1 1 0 1 1 198.73204257410217 290.4418601421928" fill-opacity="0.5"/><path fill="black" stroke="none" paint-order="stroke fill markers" d=" M 258.31110593308796 292.2059467756766 A 1 1 0 1 1 258.311105433088 292.20494677584327" fill-opacity="0.5"/><path fill="black" stroke="none" paint-order="stroke fill markers" d=" M 282.303795993908 302.8276212528801 A 1 1 0 1 1 282.30379549390807 302.82662125304677" fill-opacity="0.5"/><path fill="black" stroke="none" paint-order="stroke fill markers" d=" M 378.27272727272725 309.76797288788646 A 1 1 0 1 1 378.2727267727273 309.76697288805315" fill-opacity="0.5"/><path fill="black" stroke="none" paint-order="stroke fill markers" d=" M 207.19380706811808 202.82984352079882 A 1 1 0 1 1 207.1938065681181 202.82884352096548" fill-opacity="0.5"/><path fill="black" stroke="none" paint-order="stroke fill markers" d=" M 241.4776260642863 284.61410846913924 A 1 1 0 1 1 241.47762556428634 284.6131084693059" fill-opacity="0.5"/><path fill="black" stroke="none" paint-order="stroke fill markers" d=" M 177.04447260499893 292.3635097823284 A 1 1 0 1 1 177.04447210499896 292.36250978249507" fill-opacity="0.5"/><path fill="black" stroke="none" paint-order="stroke fill markers" d=" M 162.55708270853822 305.8707982873388 A 1 1 0 1 1 162.55708220853825 305.8697982875055" fill-opacity="0.5"/><path fill="black" stroke="none" paint-order="stroke fill markers" d=" M 158.57642709439597 296.65657650964454 A 1 1 0 1 1 158.576426594396 296.6555765098112" fill-opacity="0.5"/><path fill="black" stroke="none" paint-order="stroke fill markers" d=" M 153.40366269296243 294.47682655975797 A 1 1 0 1 1 153.40366219296246 294.47582655992466" fill-opacity="0.5"/><path fill="black" stroke="none" paint-order="stroke fill markers" d=" M 147.31606012237955 289.79936887460235 A 1 1 0 1 1 147.31605962237958 289.79836887476904" fill-opacity="0.5"/><path fill="black" stroke="none" paint-order="stroke fill markers" d=" M 141.918475388809 286.3668491546878 A 1 1 0 1 1 141.91847488880902 286.3658491548545" fill-opacity="0.5"/><path fill="black" stroke="none" paint-order="stroke fill markers" d=" M 138.24932198540932 284.7307137707498 A 1 1 0 1 1 138.24932148540935 284.7297137709165" fill-opacity="0.5"/><path fill="black" stroke="none" paint-order="stroke fill markers" d=" M 133.573375677014 282.2322658510908 A 1 1 0 1 1 133.57337517701404 282.2312658512575" fill-opacity="0.5"/><path fill="black" stroke="none" paint-order="stroke fill markers" d=" M 111.02508980239762 285.0470952607314 A 1 1 0 1 1 111.02508930239766 285.0460952608981" fill-opacity="0.5"/><path fill="black" stroke="none" paint-order="stroke fill markers" d=" M 134.51252527742892 281.89448509152123 A 1 1 0 1 1 134.51252477742895 281.8934850916879" fill-opacity="0.5"/><path fill="black" stroke="none" paint-order="stroke fill markers" d=" M 135.42911870061826 281.3063665546245 A 1 1 0 1 1 135.4291182006183 281.3053665547912" fill-opacity="0.5"/><path fill="black" stroke="none" paint-order="stroke fill markers" d=" M 138.0430021806399 282.995473427534 A 1 1 0 1 1 138.04300168063992 282.9944734277007" fill-opacity="0.5"/><path fill="black" stroke="none" paint-order="stroke fill markers" d=" M 129.92149337422453 257.88863424349387 A 1 1 0 1 1 129.92149287422455 257.88763424366056" fill-opacity="0.5"/><path fill="black" stroke="none" paint-order="stroke fill markers" d=" M 140.85407325667305 282.4948720394239 A 1 1 0 1 1 140.85407275667308 282.4938720395906" fill-opacity="0.5"/><path fill="black" stroke="none" paint-order="stroke fill markers" d=" M 143.09026532695265 283.37406071087884 A 1 1 0 1 1 143.09026482695268 283.3730607110455" fill-opacity="0.5"/><path fill="black" stroke="none" paint-order="stroke fill markers" d=" M 144.32054822894386 282.08216848751607 A 1 1 0 1 1 144.3205477289439 282.08116848768276" fill-opacity="0.5"/><path fill="black" stroke="none" paint-order="stroke fill markers" d=" M 141.40353123310967 282.95775649287225 A 1 1 0 1 1 141.4035307331097 282.95675649303894" fill-opacity="0.5"/><path fill="black" stroke="none" paint-order="stroke fill markers" d=" M 141.5882353583269 283.97914145543615 A 1 1 0 1 1 141.58823485832693 283.97814145560284" fill-opacity="0.5"/><path fill="black" stroke="none" paint-order="stroke fill markers" d=" M 137.73926006113595 284.5395336101743 A 1 1 0 1 1 137.73925956113598 284.538533610341" fill-opacity="0.5"/><path fill="black" stroke="none" paint-order="stroke fill markers" d=" M 120.18695931844537 291.33407267995983 A 1 1 0 1 1 120.18695881844542 291.3330726801265" fill-opacity="0.5"/><path fill="black" stroke="none" paint-order="stroke fill markers" d=" M 115.36146678486531 294.19247453558876 A 1 1 0 1 1 115.36146628486536 294.19147453575545" fill-opacity="0.5"/><path fill="black" stroke="none" paint-order="stroke fill markers" d=" M 73.06065641777082 313.17110123799176 A 1 1 0 1 1 73.06065591777086 313.17010123815845" fill-opacity="0.5"/><path fill="black" stroke="none" paint-order="stroke fill markers" d=" M 37.095073065674825 326.7382807654812 A 1 1 0 1 1 37.09507256567487 326.7372807656479" fill-opacity="0.5"/><path fill="black" stroke="none" paint-order="stroke fill markers" d=" M 48.215164376119134 313.67164406757075 A 1 1 0 1 1 48.21516387611918 313.67064406773744" fill-opacity="0.5"/><path fill="black" stroke="none" paint-order="stroke fill markers" d=" M 23.727272727272748 343.8873903960272 A 1 1 0 1 1 23.72727222727279 343.88639039619386" fill-opacity="0.5"/><path fill="black" stroke="none" paint-order="stroke fill markers" d=" M 111.34026452647747 299.39013431126307 A 1 1 0 1 1 111.34026402647751 299.38913431142976" fill-opacity="0.5"/><path fill="black" stroke="none" paint-order="stroke fill markers" d=" M 115.26164947270277 298.1773812084034 A 1 1 0 1 1 115.26164897270282 298.1763812085701" fill-opacity="0.5"/><path fill="black" stroke="none" paint-order="stroke fill markers" d=" M 125.82545493550427 295.6143194181995 A 1 1 0 1 1 125.82545443550431 295.6133194183662" fill-opacity="0.5"/><path fill="black" stroke="none" paint-order="stroke fill markers" d=" M 132.71438202080392 293.8415015870964 A 1 1 0 1 1 132.71438152080395 293.8405015872631" fill-opacity="0.5"/><path fill="black" stroke="none" paint-order="stroke fill markers" d=" M 138.67060660541432 292.19038524478714 A 1 1 0 1 1 138.67060610541435 292.1893852449538" fill-opacity="0.5"/><path fill="black" stroke="none" paint-order="stroke fill markers" d=" M 142.13367197798917 292.59642052941365 A 1 1 0 1 1 142.1336714779892 292.59542052958034" fill-opacity="0.5"/><path fill="black" stroke="none" paint-order="stroke fill markers" d=" M 143.53695520933954 292.6686257046306 A 1 1 0 1 1 143.53695470933957 292.6676257047973" fill-opacity="0.5"/><path fill="black" stroke="none" paint-order="stroke fill markers" d=" M 142.89018528671346 288.4526657522224 A 1 1 0 1 1 142.8901847867135 288.4516657523891" fill-opacity="0.5"/><path fill="black" stroke="none" paint-order="stroke fill markers" d=" M 140.20609795186544 286.3999773334842 A 1 1 0 1 1 140.20609745186547 286.39897733365086" fill-opacity="0.5"/><path fill="black" stroke="none" paint-order="stroke fill markers" d=" M 132.75203976838228 283.9322438190847 A 1 1 0 1 1 132.7520392683823 283.9312438192514" fill-opacity="0.5"/><path fill="black" stroke="none" paint-order="stroke fill markers" d=" M 127.46460441948645 283.36262015116876 A 1 1 0 1 1 127.46460391948649 283.36162015133544" fill-opacity="0.5"/><path fill="black" stroke="none" paint-order="stroke fill markers" d=" M 120.3003298879427 283.9193155992602 A 1 1 0 1 1 120.30032938794274 283.9183155994269" fill-opacity="0.5"/><path fill="black" stroke="none" paint-order="stroke fill markers" d=" M 58.252079864910854 314.89634766785474 A 1 1 0 1 1 58.2520793649109 314.89534766802143" fill-opacity="0.5"/><path fill="black" stroke="none" paint-order="stroke fill markers" d=" M 96.05044327646226 304.0118852885884 A 1 1 0 1 1 96.0504427764623 304.0108852887551" fill-opacity="0.5"/><path fill="black" stroke="none" paint-order="stroke fill markers" d=" M 99.87050674492501 305.3812434990157 A 1 1 0 1 1 99.87050624492505 305.38024349918237" fill-opacity="0.5"/><path fill="black" stroke="none" paint-order="stroke fill markers" d=" M 108.17138493409689 301.04404050047714 A 1 1 0 1 1 108.17138443409694 301.0430405006438" fill-opacity="0.5"/><path fill="black" stroke="none" paint-order="stroke fill markers" d=" M 112.94630660032524 299.3552124641529 A 1 1 0 1 1 112.94630610032529 299.3542124643196" fill-opacity="0.5"/><path fill="black" stroke="none" paint-order="stroke fill markers" d=" M 115.19172942270654 299.62100166182415 A 1 1 0 1 1 115.19172892270659 299.62000166199084" fill-opacity="0.5"/><path fill="black" stroke="none" paint-order="stroke fill markers" d=" M 117.13771292214818 298.0835417319845 A 1 1 0 1 1 117.13771242214823 298.0825417321512" fill-opacity="0.5"/><path fill="black" stroke="none" paint-order="stroke fill markers" d=" M 87.54704511385839 310.37225864911716 A 1 1 0 1 1 87.54704461385843 310.37125864928385" fill-opacity="0.5"/><path fill="black" stroke="none" paint-order="stroke fill markers" d=" M 116.8068721714422 296.05277926783265 A 1 1 0 1 1 116.80687167144224 296.05177926799934" fill-opacity="0.5"/><path fill="black" stroke="none" paint-order="stroke fill markers" d=" M 99.71727105694791 296.2211507666256 A 1 1 0 1 1 99.71727055694795 296.2201507667923" fill-opacity="0.5"/><path fill="black" stroke="none" paint-order="stroke fill markers" d=" M 116.7319067022427 295.7733917311154 A 1 1 0 1 1 116.73190620224274 295.7723917312821" fill-opacity="0.5"/><path fill="black" stroke="none" paint-order="stroke fill markers" d=" M 75.6025953733409 316.1364359841639 A 1 1 0 1 1 75.60259487334095 316.13543598433057" fill-opacity="0.5"/><path fill="black" stroke="none" paint-order="stroke fill markers" d=" M 117.8866896359376 293.7025551805352 A 1 1 0 1 1 117.88668913593764 293.7015551807019" fill-opacity="0.5"/><path fill="black" stroke="none" paint-order="stroke fill markers" d=" M 117.7871119811872 294.368770803685 A 1 1 0 1 1 117.78711148118724 294.36777080385167" fill-opacity="0.5"/><path fill="black" stroke="none" paint-order="stroke fill markers" d=" M 116.02134770229912 295.57145457344956 A 1 1 0 1 1 116.02134720229917 295.57045457361625" fill-opacity="0.5"/><path fill="black" stroke="none" paint-order="stroke fill markers" d=" M 107.56899026171027 300.24090363895385 A 1 1 0 1 1 107.56898976171031 300.23990363912054" fill-opacity="0.5"/><path fill="black" stroke="none" paint-order="stroke fill markers" d=" M 51.178736400957916 333.14320053480407 A 1 1 0 1 1 51.17873590095796 333.14220053497075" fill-opacity="0.5"/><path fill="black" stroke="none" paint-order="stroke fill markers" d=" M 103.89490969111992 302.44332234814004 A 1 1 0 1 1 103.89490919111996 302.44232234830673" fill-opacity="0.5"/><path fill="black" stroke="none" paint-order="stroke fill markers" d=" M 97.85662136316846 298.17479460745085 A 1 1 0 1 1 97.8566208631685 298.17379460761754" fill-opacity="0.5"/><path fill="black" stroke="none" paint-order="stroke fill markers" d=" M 112.47986074837056 299.37817834533786 A 1 1 0 1 1 112.4798602483706 299.37717834550455" fill-opacity="0.5"/><path fill="black" stroke="none" paint-order="stroke fill markers" d=" M 120.68147977487922 296.37736761062524 A 1 1 0 1 1 120.68147927487927 296.37636761079193" fill-opacity="0.5"/><path fill="black" stroke="none" paint-order="stroke fill markers" d=" M 128.51940133481418 291.2214707767581 A 1 1 0 1 1 128.5194008348142 291.2204707769248" fill-opacity="0.5"/><path fill="black" stroke="none" paint-order="stroke fill markers" d=" M 131.55688875098076 289.6722125561041 A 1 1 0 1 1 131.5568882509808 289.6712125562708" fill-opacity="0.5"/><path fill="black" stroke="none" paint-order="stroke fill markers" d=" M 134.96506311601112 287.2210372068934 A 1 1 0 1 1 134.96506261601115 287.2200372070601" fill-opacity="0.5"/><path fill="black" stroke="none" paint-order="stroke fill markers" d=" M 137.4469962703194 285.11135105839077 A 1 1 0 1 1 137.44699577031943 285.11035105855746" fill-opacity="0.5"/><path fill="black" stroke="none" paint-order="stroke fill markers" d=" M 135.9551225728805 283.1027424030318 A 1 1 0 1 1 135.95512207288053 283.1017424031985" fill-opacity="0.5"/><path fill="black" stroke="none" paint-order="stroke fill markers" d=" M 136.56379090870766 280.1352560153465 A 1 1 0 1 1 136.5637904087077 280.1342560155132" fill-opacity="0.5"/><path fill="black" stroke="none" paint-order="stroke fill markers" d=" M 131.629892813465 280.8672601117168 A 1 1 0 1 1 131.62989231346504 280.8662601118835" fill-opacity="0.5"/><path fill="black" stroke="none" paint-order="stroke fill markers" d=" M 110.35243766760556 265.5938951840849 A 1 1 0 1 1 110.3524371676056 265.5928951842516" fill-opacity="0.5"/><path fill="black" stroke="none" paint-order="stroke fill markers" d=" M 107.22851906710005 284.0283921421784 A 1 1 0 1 1 107.2285185671001 284.0273921423451" fill-opacity="0.5"/><path fill="black" stroke="none" paint-order="stroke fill markers" d=" M 126.7446735533728 280.95596005168954 A 1 1 0 1 1 126.74467305337285 280.95496005185623" fill-opacity="0.5"/><path fill="black" stroke="none" paint-order="stroke fill markers" d=" M 124.05805404876214 280.69614561854024 A 1 1 0 1 1 124.05805354876219 280.69514561870693" fill-opacity="0.5"/><path fill="black" stroke="none" paint-order="stroke fill markers" d=" M 121.13634323637542 282.35773980805516 A 1 1 0 1 1 121.13634273637547 282.35673980822185" fill-opacity="0.5"/><path fill="black" stroke="none" paint-order="stroke fill markers" d=" M 105.92981239724507 299.2272823527692 A 1 1 0 1 1 105.92981189724512 299.22628235293587" fill-opacity="0.5"/><path fill="black" stroke="none" paint-order="stroke fill markers" d=" M 81.94886239623357 292.0617806849521 A 1 1 0 1 1 81.94886189623361 292.0607806851188" fill-opacity="0.5"/><path fill="black" stroke="none" paint-order="stroke fill markers" d=" M 71.81160613303695 295.1047690561278 A 1 1 0 1 1 71.81160563303699 295.1037690562945" fill-opacity="0.5"/><path fill="black" stroke="none" paint-order="stroke fill markers" d=" M 112.18752600634647 287.17651950772927 A 1 1 0 1 1 112.18752550634652 287.17551950789596" fill-opacity="0.5"/><path fill="black" stroke="none" paint-order="stroke fill markers" d=" M 81.39921442823007 295.9075668705918 A 1 1 0 1 1 81.39921392823011 295.90656687075847" fill-opacity="0.5"/><path fill="black" stroke="none" paint-order="stroke fill markers" d=" M 134.4834053251586 316.61086854450775 A 1 1 0 1 1 134.48340482515863 316.60986854467444" fill-opacity="0.5"/><path fill="black" stroke="none" paint-order="stroke fill markers" d=" M 116.9469771559428 289.3179019991944 A 1 1 0 1 1 116.94697665594285 289.3169019993611" fill-opacity="0.5"/><path fill="black" stroke="none" paint-order="stroke fill markers" d=" M 117.25384270527229 291.71775090984124 A 1 1 0 1 1 117.25384220527233 291.71675091000793" fill-opacity="0.5"/><path fill="black" stroke="none" paint-order="stroke fill markers" d=" M 113.19520658978323 296.02772259644854 A 1 1 0 1 1 113.19520608978327 296.02672259661523" fill-opacity="0.5"/><path fill="black" stroke="none" paint-order="stroke fill markers" d=" M 109.09610936567098 297.85583152930917 A 1 1 0 1 1 109.09610886567103 297.85483152947586" fill-opacity="0.5"/><path fill="black" stroke="none" paint-order="stroke fill markers" d=" M 105.81200816562287 301.7460939446474 A 1 1 0 1 1 105.81200766562291 301.7450939448141" fill-opacity="0.5"/><path fill="black" stroke="none" paint-order="stroke fill markers" d=" M 53.736038658001945 328.139985159068 A 1 1 0 1 1 53.73603815800199 328.13898515923466" fill-opacity="0.5"/><path fill="black" stroke="none" paint-order="stroke fill markers" d=" M 95.365117679309 305.510952696044 A 1 1 0 1 1 95.36511717930904 305.5099526962107" fill-opacity="0.5"/><path fill="black" stroke="none" paint-order="stroke fill markers" d=" M 97.04966332257253 311.1542378804385 A 1 1 0 1 1 97.04966282257257 311.15323788060516" fill-opacity="0.5"/><path fill="black" stroke="none" paint-order="stroke fill markers" d=" M 77.80878060125582 346.92441354407583 A 1 1 0 1 1 77.80878010125586 346.9234135442425" fill-opacity="0.5"/><path fill="black" stroke="none" paint-order="stroke fill markers" d=" M 87.51223802812987 347.8488964418308 A 1 1 0 1 1 87.51223752812992 347.8478964419975" fill-opacity="0.5"/><path fill="black" stroke="none" paint-order="stroke fill markers" d=" M 129.99818059272712 314.2320633369596 A 1 1 0 1 1 129.99818009272715 314.2310633371263" fill-opacity="0.5"/><path fill="black" stroke="none" paint-order="stroke fill markers" d=" M 132.13248121054355 312.5288877769583 A 1 1 0 1 1 132.13248071054358 312.527887777125" fill-opacity="0.5"/><path fill="black" stroke="none" paint-order="stroke fill markers" d=" M 117.18269598773227 319.0348034676189 A 1 1 0 1 1 117.18269548773232 319.03380346778556" fill-opacity="0.5"/><path fill="black" stroke="none" paint-order="stroke fill markers" d=" M 120.39023295137085 327.86706321331536 A 1 1 0 1 1 120.39023245137089 327.86606321348205" fill-opacity="0.5"/><path fill="black" stroke="none" paint-order="stroke fill markers" d=" M 132.01889621073008 301.14162590005145 A 1 1 0 1 1 132.0188957107301 301.14062590021814" fill-opacity="0.5"/><path fill="black" stroke="none" paint-order="stroke fill markers" d=" M 130.055958526072 295.4690751213697 A 1 1 0 1 1 130.05595802607203 295.4680751215364" fill-opacity="0.5"/><path fill="black" stroke="none" paint-order="stroke fill markers" d=" M 125.16148092174183 293.4282378556218 A 1 1 0 1 1 125.16148042174187 293.42723785578846" fill-opacity="0.5"/><path fill="black" stroke="none" paint-order="stroke fill markers" d=" M 125.95319864295689 288.3953996102026 A 1 1 0 1 1 125.95319814295694 288.3943996103693" fill-opacity="0.5"/><path fill="black" stroke="none" paint-order="stroke fill markers" d=" M 121.57751469150877 282.0939834116875 A 1 1 0 1 1 121.57751419150881 282.09298341185416" fill-opacity="0.5"/><path fill="black" stroke="none" paint-order="stroke fill markers" d=" M 101.69125347958064 268.8808370286113 A 1 1 0 1 1 101.69125297958068 268.879837028778" fill-opacity="0.5"/><path fill="black" stroke="none" paint-order="stroke fill markers" d=" M 104.59765459807245 260.95788509051465 A 1 1 0 1 1 104.5976540980725 260.95688509068134" fill-opacity="0.5"/><path fill="black" stroke="none" paint-order="stroke fill markers" d=" M 126.74159584765881 272.5302721303125 A 1 1 0 1 1 126.74159534765886 272.52927213047917" fill-opacity="0.5"/><path fill="black" stroke="none" paint-order="stroke fill markers" d=" M 128.0859052236438 271.30529237073017 A 1 1 0 1 1 128.08590472364384 271.30429237089686" fill-opacity="0.5"/><path fill="black" stroke="none" paint-order="stroke fill markers" d=" M 135.3974902289878 272.6367429325248 A 1 1 0 1 1 135.39748972898784 272.63574293269147" fill-opacity="0.5"/><path fill="black" stroke="none" paint-order="stroke fill markers" d=" M 140.1911918915068 274.0195864663115 A 1 1 0 1 1 140.19119139150683 274.0185864664782" fill-opacity="0.5"/><path fill="black" stroke="none" paint-order="stroke fill markers" d=" M 144.27798775292408 276.60218105837055 A 1 1 0 1 1 144.2779872529241 276.60118105853724" fill-opacity="0.5"/><path fill="black" stroke="none" paint-order="stroke fill markers" d=" M 144.73309796695318 280.5568903556021 A 1 1 0 1 1 144.7330974669532 280.5558903557688" fill-opacity="0.5"/><path fill="black" stroke="none" paint-order="stroke fill markers" d=" M 143.87631720007178 283.58993525464996 A 1 1 0 1 1 143.8763167000718 283.58893525481665" fill-opacity="0.5"/><path fill="black" stroke="none" paint-order="stroke fill markers" d=" M 215.0125670719351 255.89243088255543 A 1 1 0 1 1 215.01256657193514 255.8914308827221" fill-opacity="0.5"/><path fill="black" stroke="none" paint-order="stroke fill markers" d=" M 138.8742003071205 288.74980130879493 A 1 1 0 1 1 138.87419980712053 288.7488013089616" fill-opacity="0.5"/><path fill="black" stroke="none" paint-order="stroke fill markers" d=" M 100.40766099362642 302.57728603891275 A 1 1 0 1 1 100.40766049362647 302.57628603907943" fill-opacity="0.5"/><path fill="black" stroke="none" paint-order="stroke fill markers" d=" M 131.05680729656882 291.3239723586926 A 1 1 0 1 1 131.05680679656885 291.32297235885926" fill-opacity="0.5"/><path fill="black" stroke="none" paint-order="stroke fill markers" d=" M 128.55984509980883 290.818541600675 A 1 1 0 1 1 128.55984459980886 290.8175416008417" fill-opacity="0.5"/><path fill="black" stroke="none" paint-order="stroke fill markers" d=" M 125.14899981598775 291.6720123678385 A 1 1 0 1 1 125.1489993159878 291.67101236800517" fill-opacity="0.5"/><path fill="black" stroke="none" paint-order="stroke fill markers" d=" M 120.82231949855131 292.0935608782626 A 1 1 0 1 1 120.82231899855135 292.0925608784293" fill-opacity="0.5"/><path fill="black" stroke="none" paint-order="stroke fill markers" d=" M 121.54226297821296 288.91294583209003 A 1 1 0 1 1 121.542262478213 288.9119458322567" fill-opacity="0.5"/><path fill="black" stroke="none" paint-order="stroke fill markers" d=" M 119.95513176621643 280.84521721095894 A 1 1 0 1 1 119.95513126621647 280.8442172111256" fill-opacity="0.5"/><path fill="black" stroke="none" paint-order="stroke fill markers" d=" M 130.59780816801947 263.5684927622876 A 1 1 0 1 1 130.5978076680195 263.56749276245426" fill-opacity="0.5"/><path fill="black" stroke="none" paint-order="stroke fill markers" d=" M 132.07914482279105 258.47141785896235 A 1 1 0 1 1 132.07914432279108 258.47041785912904" fill-opacity="0.5"/><path fill="black" stroke="none" paint-order="stroke fill markers" d=" M 131.35603061249887 213.285916294944 A 1 1 0 1 1 131.3560301124989 213.28491629511066" fill-opacity="0.5"/><path fill="black" stroke="none" paint-order="stroke fill markers" d=" M 158.82493527551895 171.22550261838273 A 1 1 0 1 1 158.82493477551898 171.2245026185494" fill-opacity="0.5"/><path fill="black" stroke="none" paint-order="stroke fill markers" d=" M 139.6886870591838 244.01203781769973 A 1 1 0 1 1 139.68868655918382 244.0110378178664" fill-opacity="0.5"/><path fill="black" stroke="none" paint-order="stroke fill markers" d=" M 170.66681676788798 222.47245834362852 A 1 1 0 1 1 170.666816267888 222.47145834379518" fill-opacity="0.5"/><path fill="black" stroke="none" paint-order="stroke fill markers" d=" M 143.40472502052978 233.8647093162416 A 1 1 0 1 1 143.4047245205298 233.86370931640826" fill-opacity="0.5"/><path fill="black" stroke="none" paint-order="stroke fill markers" d=" M 143.17501575601943 230.32501062324081 A 1 1 0 1 1 143.17501525601946 230.32401062340747" fill-opacity="0.5"/><path fill="black" stroke="none" paint-order="stroke fill markers" d=" M 136.48417419368016 191.1051660206884 A 1 1 0 1 1 136.4841736936802 191.10416602085505" fill-opacity="0.5"/><path fill="black" stroke="none" paint-order="stroke fill markers" d=" M 147.92737414990145 232.15878127742542 A 1 1 0 1 1 147.92737364990148 232.15778127759208" fill-opacity="0.5"/><path fill="black" stroke="none" paint-order="stroke fill markers" d=" M 150.40559931526872 234.08059115134736 A 1 1 0 1 1 150.40559881526875 234.07959115151402" fill-opacity="0.5"/><path fill="black" stroke="none" paint-order="stroke fill markers" d=" M 153.58020575407502 241.95115667311143 A 1 1 0 1 1 153.58020525407505 241.9501566732781" fill-opacity="0.5"/><path fill="black" stroke="none" paint-order="stroke fill markers" d=" M 154.07670096984722 247.96247561756672 A 1 1 0 1 1 154.07670046984725 247.96147561773338" fill-opacity="0.5"/><path fill="black" stroke="none" paint-order="stroke fill markers" d=" M 212.10575601313303 257.26378327299824 A 1 1 0 1 1 212.10575551313306 257.2627832731649" fill-opacity="0.5"/><path fill="black" stroke="none" paint-order="stroke fill markers" d=" M 152.7986416433765 229.69214100750887 A 1 1 0 1 1 152.79864114337653 229.69114100767553" fill-opacity="0.5"/><path fill="black" stroke="none" paint-order="stroke fill markers" d=" M 150.58947646474462 255.91237450554493 A 1 1 0 1 1 150.58947596474465 255.9113745057116" fill-opacity="0.5"/><path fill="black" stroke="none" paint-order="stroke fill markers" d=" M 147.18814613202883 217.78967889562514 A 1 1 0 1 1 147.18814563202886 217.7886788957918" fill-opacity="0.5"/><path fill="black" stroke="none" paint-order="stroke fill markers" d=" M 140.11189524526003 243.19578019954741 A 1 1 0 1 1 140.11189474526006 243.19478019971407" fill-opacity="0.5"/><path fill="black" stroke="none" paint-order="stroke fill markers" d=" M 139.83824589791652 244.99991522421337 A 1 1 0 1 1 139.83824539791655 244.99891522438003" fill-opacity="0.5"/><path fill="black" stroke="none" paint-order="stroke fill markers" d=" M 142.41512989989647 246.90777677502817 A 1 1 0 1 1 142.4151293998965 246.90677677519483" fill-opacity="0.5"/><path fill="black" stroke="none" paint-order="stroke fill markers" d=" M 153.19019524383614 246.74513991090524 A 1 1 0 1 1 153.19019474383617 246.7441399110719" fill-opacity="0.5"/><path fill="black" stroke="none" paint-order="stroke fill markers" d=" M 157.07645293700887 247.02132472889542 A 1 1 0 1 1 157.0764524370089 247.02032472906208" fill-opacity="0.5"/><path fill="black" stroke="none" paint-order="stroke fill markers" d=" M 161.9863078359678 250.62347552565666 A 1 1 0 1 1 161.98630733596784 250.62247552582332" fill-opacity="0.5"/><path fill="black" stroke="none" paint-order="stroke fill markers" d=" M 232.34513350154955 235.65752818959427 A 1 1 0 1 1 232.34513300154958 235.65652818976093" fill-opacity="0.5"/><path fill="black" stroke="none" paint-order="stroke fill markers" d=" M 171.00042619238175 257.2684952979894 A 1 1 0 1 1 171.00042569238178 257.26749529815606" fill-opacity="0.5"/><path fill="black" stroke="none" paint-order="stroke fill markers" d=" M 171.3001572036191 261.6064365441571 A 1 1 0 1 1 171.30015670361914 261.60543654432377" fill-opacity="0.5"/><path fill="black" stroke="none" paint-order="stroke fill markers" d=" M 172.3615273541526 264.1562363081239 A 1 1 0 1 1 172.36152685415263 264.15523630829057" fill-opacity="0.5"/><path fill="black" stroke="none" paint-order="stroke fill markers" d=" M 224.70188471149203 267.5798897651538 A 1 1 0 1 1 224.70188421149206 267.57888976532047" fill-opacity="0.5"/><path fill="black" stroke="none" paint-order="stroke fill markers" d=" M 170.6322193823951 274.3140611414602 A 1 1 0 1 1 170.63221888239514 274.31306114162686" fill-opacity="0.5"/><path fill="black" stroke="none" paint-order="stroke fill markers" d=" M 170.02098734293526 277.2966950347008 A 1 1 0 1 1 170.0209868429353 277.2956950348675" fill-opacity="0.5"/><path fill="black" stroke="none" paint-order="stroke fill markers" d=" M 167.7074371710684 276.0108909618095 A 1 1 0 1 1 167.70743667106842 276.00989096197617" fill-opacity="0.5"/><path fill="black" stroke="none" paint-order="stroke fill markers" d=" M 168.0489789405658 276.18447166347227 A 1 1 0 1 1 168.04897844056583 276.18347166363895" fill-opacity="0.5"/><path fill="black" stroke="none" paint-order="stroke fill markers" d=" M 166.17110308194097 275.4762884854378 A 1 1 0 1 1 166.171102581941 275.4752884856045" fill-opacity="0.5"/><path fill="black" stroke="none" paint-order="stroke fill markers" d=" M 203.48649610530023 281.3586572152268 A 1 1 0 1 1 203.48649560530026 281.3576572153935" fill-opacity="0.5"/><path fill="black" stroke="none" paint-order="stroke fill markers" d=" M 226.06618498437643 235.14019706207787 A 1 1 0 1 1 226.06618448437646 235.13919706224453" fill-opacity="0.5"/><path fill="black" stroke="none" paint-order="stroke fill markers" d=" M 205.52150287319645 227.22707931153522 A 1 1 0 1 1 205.52150237319648 227.22607931170188" fill-opacity="0.5"/><path fill="black" stroke="none" paint-order="stroke fill markers" d=" M 153.79602385612463 280.40382802492394 A 1 1 0 1 1 153.79602335612466 280.4028280250906" fill-opacity="0.5"/><path fill="black" stroke="none" paint-order="stroke fill markers" d=" M 153.32762950663272 285.44813780398437 A 1 1 0 1 1 153.32762900663275 285.44713780415105" fill-opacity="0.5"/><path fill="black" stroke="none" paint-order="stroke fill markers" d=" M 150.3574766587507 291.26559975664594 A 1 1 0 1 1 150.35747615875073 291.26459975681263" fill-opacity="0.5"/><path fill="black" stroke="none" paint-order="stroke fill markers" d=" M 155.69273065794886 292.3817527015203 A 1 1 0 1 1 155.6927301579489 292.380752701687" fill-opacity="0.5"/><path fill="black" stroke="none" paint-order="stroke fill markers" d=" M 179.4209517678785 311.4793621363248 A 1 1 0 1 1 179.42095126787854 311.4783621364915" fill-opacity="0.5"/><path fill="black" stroke="none" paint-order="stroke fill markers" d=" M 168.75842321820414 290.70569726059756 A 1 1 0 1 1 168.75842271820417 290.70469726076425" fill-opacity="0.5"/><path fill="black" stroke="none" paint-order="stroke fill markers" d=" M 174.7560013199593 290.066739380467 A 1 1 0 1 1 174.75600081995933 290.0657393806337" fill-opacity="0.5"/><path fill="black" stroke="none" paint-order="stroke fill markers" d=" M 181.91391073983942 286.6182051555004 A 1 1 0 1 1 181.91391023983945 286.6172051556671" fill-opacity="0.5"/><path fill="black" stroke="none" paint-order="stroke fill markers" d=" M 220.00053787079526 282.53387840104045 A 1 1 0 1 1 220.00053737079529 282.53287840120714" fill-opacity="0.5"/><path fill="black" stroke="none" paint-order="stroke fill markers" d=" M 187.90654748416236 276.71474194781507 A 1 1 0 1 1 187.9065469841624 276.71374194798176" fill-opacity="0.5"/><path fill="black" stroke="none" paint-order="stroke fill markers" d=" M 191.26480373295044 272.7208101977339 A 1 1 0 1 1 191.26480323295047 272.7198101979006" fill-opacity="0.5"/><path fill="black" stroke="none" paint-order="stroke fill markers" d=" M 211.86121715789886 285.49643833868544 A 1 1 0 1 1 211.8612166578989 285.4954383388521" fill-opacity="0.5"/><path fill="black" stroke="none" paint-order="stroke fill markers" d=" M 331.41192063730244 330.6868045900133 A 1 1 0 1 1 331.4119201373025 330.68580459018" fill-opacity="0.5"/><path fill="black" stroke="none" paint-order="stroke fill markers" d=" M 338.0293032610824 335.545932256872 A 1 1 0 1 1 338.0293027610825 335.5449322570387" fill-opacity="0.5"/><path fill="black" stroke="none" paint-order="stroke fill markers" d=" M 215.84812002586554 298.9407675364716 A 1 1 0 1 1 215.84811952586557 298.93976753663827" fill-opacity="0.5"/><path fill="black" stroke="none" paint-order="stroke fill markers" d=" M 206.00485718625606 301.67198117401335 A 1 1 0 1 1 206.0048566862561 301.67098117418004" fill-opacity="0.5"/><path fill="black" stroke="none" paint-order="stroke fill markers" d=" M 204.46291716338578 303.17389402480006 A 1 1 0 1 1 204.4629166633858 303.17289402496675" fill-opacity="0.5"/><path fill="black" stroke="none" paint-order="stroke fill markers" d=" M 201.98976619187818 304.1616875809657 A 1 1 0 1 1 201.9897656918782 304.1606875811324" fill-opacity="0.5"/><path fill="black" stroke="none" paint-order="stroke fill markers" d=" M 207.53156634990654 270.69574317732855 A 1 1 0 1 1 207.53156584990657 270.69474317749524" fill-opacity="0.5"/><path fill="black" stroke="none" paint-order="stroke fill markers" d=" M 203.1345623489376 305.29742231634964 A 1 1 0 1 1 203.13456184893764 305.2964223165163" fill-opacity="0.5"/><path fill="black" stroke="none" paint-order="stroke fill markers" d=" M 208.5123706159249 307.1237047698907 A 1 1 0 1 1 208.51237011592494 307.1227047700574" fill-opacity="0.5"/><path fill="black" stroke="none" paint-order="stroke fill markers" d=" M 238.40436031919455 356.5459711982075 A 1 1 0 1 1 238.40435981919458 356.5449711983742" fill-opacity="0.5"/><path fill="black" stroke="none" paint-order="stroke fill markers" d=" M 289.9500783422616 337.31525480444685 A 1 1 0 1 1 289.95007784226163 337.31425480461354" fill-opacity="0.5"/><path fill="black" stroke="none" paint-order="stroke fill markers" d=" M 219.4967401498014 291.594877339009 A 1 1 0 1 1 219.49673964980144 291.59387733917566" fill-opacity="0.5"/><path fill="black" stroke="none" paint-order="stroke fill markers" d=" M 268.568121527848 282.89222699019837 A 1 1 0 1 1 268.56812102784806 282.89122699036506" fill-opacity="0.5"/><path fill="black" stroke="none" paint-order="stroke fill markers" d=" M 208.49090235721502 283.48878325318077 A 1 1 0 1 1 208.49090185721505 283.48778325334746" fill-opacity="0.5"/><path fill="black" stroke="none" paint-order="stroke fill markers" d=" M 224.1805037045748 210.1783567758871 A 1 1 0 1 1 224.18050320457482 210.17735677605376" fill-opacity="0.5"/><path fill="black" stroke="none" paint-order="stroke fill markers" d=" M 207.56525082986232 284.56876730487267 A 1 1 0 1 1 207.56525032986235 284.56776730503935" fill-opacity="0.5"/><path fill="black" stroke="none" paint-order="stroke fill markers" d=" M 200.9515986629057 286.3576493132448 A 1 1 0 1 1 200.95159816290573 286.3566493134115" fill-opacity="0.5"/><path fill="black" stroke="none" paint-order="stroke fill markers" d=" M 199.5804681537749 287.2477467326917 A 1 1 0 1 1 199.58046765377492 287.2467467328584" fill-opacity="0.5"/><path fill="black" stroke="none" paint-order="stroke fill markers" d=" M 191.1998029666774 272.0744516129751 A 1 1 0 1 1 191.19980246667743 272.0734516131418" fill-opacity="0.5"/><path fill="black" stroke="none" paint-order="stroke fill markers" d=" M 210.09461407806828 271.35966840999424 A 1 1 0 1 1 210.0946135780683 271.35866841016093" fill-opacity="0.5"/><path fill="black" stroke="none" paint-order="stroke fill markers" d=" M 213.17287478817124 236.0257187133492 A 1 1 0 1 1 213.17287428817127 236.02471871351585" fill-opacity="0.5"/><path fill="black" stroke="none" paint-order="stroke fill markers" d=" M 186.88765660993334 288.5349940341272 A 1 1 0 1 1 186.88765610993337 288.53399403429387" fill-opacity="0.5"/><path fill="black" stroke="none" paint-order="stroke fill markers" d=" M 181.82367972416307 287.4948017575018 A 1 1 0 1 1 181.8236792241631 287.4938017576685" fill-opacity="0.5"/><path fill="black" stroke="none" paint-order="stroke fill markers" d=" M 176.9122227075204 288.2449611488807 A 1 1 0 1 1 176.91222220752044 288.2439611490474" fill-opacity="0.5"/><path fill="black" stroke="none" paint-order="stroke fill markers" d=" M 171.3777525975783 285.4258454598339 A 1 1 0 1 1 171.37775209757834 285.4248454600006" fill-opacity="0.5"/><path fill="black" stroke="none" paint-order="stroke fill markers" d=" M 200.40887553275869 317.96820152133097 A 1 1 0 1 1 200.40887503275871 317.96720152149766" fill-opacity="0.5"/><path fill="black" stroke="none" paint-order="stroke fill markers" d=" M 159.7046076611683 278.2186173068827 A 1 1 0 1 1 159.70460716116833 278.2176173070494" fill-opacity="0.5"/><path fill="black" stroke="none" paint-order="stroke fill markers" d=" M 154.35830658359106 271.1239067510768 A 1 1 0 1 1 154.3583060835911 271.1229067512435" fill-opacity="0.5"/><path fill="black" stroke="none" paint-order="stroke fill markers" d=" M 150.35277456455728 256.09405998133406 A 1 1 0 1 1 150.3527740645573 256.09305998150074" fill-opacity="0.5"/><path fill="black" stroke="none" paint-order="stroke fill markers" d=" M 151.07020459769163 200.2093451536287 A 1 1 0 1 1 151.07020409769166 200.20834515379536" fill-opacity="0.5"/><path fill="black" stroke="none" paint-order="stroke fill markers" d=" M 160.6242283358796 105.28679201788285 A 1 1 0 1 1 160.62422783587962 105.2857920180495" fill-opacity="0.5"/><path fill="black" stroke="none" paint-order="stroke fill markers" d=" M 156.28478350203227 192.3619442019177 A 1 1 0 1 1 156.2847830020323 192.36094420208437" fill-opacity="0.5"/><path fill="black" stroke="none" paint-order="stroke fill markers" d=" M 161.55192719974335 227.33347082048365 A 1 1 0 1 1 161.55192669974338 227.33247082065031" fill-opacity="0.5"/><path fill="black" stroke="none" paint-order="stroke fill markers" d=" M 186.17698724144472 226.97909373014568 A 1 1 0 1 1 186.17698674144475 226.97809373031234" fill-opacity="0.5"/><path fill="black" stroke="none" paint-order="stroke fill markers" d=" M 200.34517080854346 228.09871097037623 A 1 1 0 1 1 200.3451703085435 228.0977109705429" fill-opacity="0.5"/><path fill="black" stroke="none" paint-order="stroke fill markers" d=" M 203.46515713545745 227.21474966471123 A 1 1 0 1 1 203.46515663545748 227.2137496648779" fill-opacity="0.5"/><path fill="black" stroke="none" paint-order="stroke fill markers" d=" M 185.8760689800011 235.68629615029442 A 1 1 0 1 1 185.87606848000112 235.68529615046108" fill-opacity="0.5"/><path fill="black" stroke="none" paint-order="stroke fill markers" d=" M 230.41455429761288 191.40580962062472 A 1 1 0 1 1 230.4145537976129 191.40480962079138" fill-opacity="0.5"/><path fill="black" stroke="none" paint-order="stroke fill markers" d=" M 195.87010471233907 246.75380566208813 A 1 1 0 1 1 195.8701042123391 246.7528056622548" fill-opacity="0.5"/><path fill="black" stroke="none" paint-order="stroke fill markers" d=" M 181.03895936870552 253.54054892805127 A 1 1 0 1 1 181.03895886870555 253.53954892821793" fill-opacity="0.5"/><path fill="black" stroke="none" paint-order="stroke fill markers" d=" M 179.2321805617754 254.50158328620157 A 1 1 0 1 1 179.23218006177544 254.50058328636823" fill-opacity="0.5"/><path fill="black" stroke="none" paint-order="stroke fill markers" d=" M 177.1275611991157 255.9052873283049 A 1 1 0 1 1 177.12756069911572 255.90428732847155" fill-opacity="0.5"/><path fill="black" stroke="none" paint-order="stroke fill markers" d=" M 175.30007567643668 263.28823391108455 A 1 1 0 1 1 175.3000751764367 263.28723391125123" fill-opacity="0.5"/><path fill="black" stroke="none" paint-order="stroke fill markers" d=" M 175.24192406673208 266.33683022999145 A 1 1 0 1 1 175.2419235667321 266.33583023015814" fill-opacity="0.5"/><path fill="black" stroke="none" paint-order="stroke fill markers" d=" M 174.7659045318392 267.40500801597176 A 1 1 0 1 1 174.76590403183923 267.40400801613845" fill-opacity="0.5"/><path fill="black" stroke="none" paint-order="stroke fill markers" d=" M 175.96667330818485 269.7710160198642 A 1 1 0 1 1 175.96667280818488 269.7700160200309" fill-opacity="0.5"/><path fill="black" stroke="none" paint-order="stroke fill markers" d=" M 174.76720215059055 270.6780398168977 A 1 1 0 1 1 174.76720165059058 270.6770398170644" fill-opacity="0.5"/><path fill="black" stroke="none" paint-order="stroke fill markers" d=" M 207.49294366590556 267.7584982977379 A 1 1 0 1 1 207.4929431659056 267.7574982979046" fill-opacity="0.5"/><path fill="black" stroke="none" paint-order="stroke fill markers" d=" M 174.99323693089673 267.73019060253495 A 1 1 0 1 1 174.99323643089676 267.72919060270164" fill-opacity="0.5"/><path fill="black" stroke="none" paint-order="stroke fill markers" d=" M 146.1987536165104 281.6366825255703 A 1 1 0 1 1 146.19875311651043 281.63568252573697" fill-opacity="0.5"/><path fill="black" stroke="none" paint-order="stroke fill markers" d=" M 142.2695127949163 283.6460142762537 A 1 1 0 1 1 142.26951229491632 283.6450142764204" fill-opacity="0.5"/><path fill="black" stroke="none" paint-order="stroke fill markers" d=" M 137.4526897105516 284.3570643159147 A 1 1 0 1 1 137.45268921055163 284.3560643160814" fill-opacity="0.5"/><path fill="black" stroke="none" paint-order="stroke fill markers" d=" M 131.0592243677059 285.12426583481715 A 1 1 0 1 1 131.05922386770592 285.12326583498384" fill-opacity="0.5"/><path fill="black" stroke="none" paint-order="stroke fill markers" d=" M 91.95317186342419 288.1961629805926 A 1 1 0 1 1 91.95317136342423 288.1951629807593" fill-opacity="0.5"/><path fill="black" stroke="none" paint-order="stroke fill markers" d=" M 126.30934217096724 282.1969051567788 A 1 1 0 1 1 126.30934167096729 282.1959051569455" fill-opacity="0.5"/><path fill="black" stroke="none" paint-order="stroke fill markers" d=" M 130.26598040718184 278.3162598978629 A 1 1 0 1 1 130.26597990718187 278.3152598980296" fill-opacity="0.5"/><path fill="black" stroke="none" paint-order="stroke fill markers" d=" M 134.689652602027 274.9117149781555 A 1 1 0 1 1 134.68965210202703 274.9107149783222" fill-opacity="0.5"/><path fill="black" stroke="none" paint-order="stroke fill markers" d=" M 138.06932665533293 269.44894409892856 A 1 1 0 1 1 138.06932615533296 269.44794409909525" fill-opacity="0.5"/><path fill="black" stroke="none" paint-order="stroke fill markers" d=" M 139.12561669940612 263.8426323609199 A 1 1 0 1 1 139.12561619940615 263.84163236108657" fill-opacity="0.5"/><path fill="black" stroke="none" paint-order="stroke fill markers" d=" M 133.98826049809836 228.46865141443732 A 1 1 0 1 1 133.98825999809839 228.46765141460398" fill-opacity="0.5"/><path fill="black" stroke="none" paint-order="stroke fill markers" d=" M 135.52195914403882 230.1216625923281 A 1 1 0 1 1 135.52195864403885 230.12066259249477" fill-opacity="0.5"/><path fill="black" stroke="none" paint-order="stroke fill markers" d=" M 139.98162882820577 249.70393432993302 A 1 1 0 1 1 139.9816283282058 249.70293433009968" fill-opacity="0.5"/><path fill="black" stroke="none" paint-order="stroke fill markers" d=" M 138.9178100726652 248.99165843464084 A 1 1 0 1 1 138.91780957266522 248.9906584348075" fill-opacity="0.5"/><path fill="black" stroke="none" paint-order="stroke fill markers" d=" M 132.1483254035353 193.89876067147816 A 1 1 0 1 1 132.14832490353533 193.89776067164482" fill-opacity="0.5"/><path fill="black" stroke="none" paint-order="stroke fill markers" d=" M 132.3141967132296 195.7307522400181 A 1 1 0 1 1 132.31419621322962 195.72975224018475" fill-opacity="0.5"/><path fill="black" stroke="none" paint-order="stroke fill markers" d=" M 135.7574036311591 250.92467873552425 A 1 1 0 1 1 135.75740313115912 250.9236787356909" fill-opacity="0.5"/><path fill="black" stroke="none" paint-order="stroke fill markers" d=" M 134.16110867653464 253.7639280779688 A 1 1 0 1 1 134.16110817653467 253.76292807813547" fill-opacity="0.5"/><path fill="black" stroke="none" paint-order="stroke fill markers" d=" M 132.80191846728704 256.9909980397696 A 1 1 0 1 1 132.80191796728707 256.98999803993627" fill-opacity="0.5"/><path fill="black" stroke="none" paint-order="stroke fill markers" d=" M 112.58485907537747 250.58868309973576 A 1 1 0 1 1 112.58485857537751 250.58768309990242" fill-opacity="0.5"/><path fill="black" stroke="none" paint-order="stroke fill markers" d=" M 129.4219243452004 274.9404323552218 A 1 1 0 1 1 129.42192384520044 274.9394323553885" fill-opacity="0.5"/><path fill="black" stroke="none" paint-order="stroke fill markers" d=" M 147.7780861082775 295.201317263354 A 1 1 0 1 1 147.77808560827754 295.2003172635207" fill-opacity="0.5"/><path fill="black" stroke="none" paint-order="stroke fill markers" d=" M 157.1790410909128 300.83966621421814 A 1 1 0 1 1 157.17904059091282 300.83866621438483" fill-opacity="0.5"/><path fill="black" stroke="none" paint-order="stroke fill markers" d=" M 169.77404245341853 310.3804942115581 A 1 1 0 1 1 169.77404195341856 310.37949421172476" fill-opacity="0.5"/><path fill="black" stroke="none" paint-order="stroke fill markers" d=" M 202.2494066174651 348.0306402482968 A 1 1 0 1 1 202.24940611746513 348.02964024846347" fill-opacity="0.5"/><path fill="black" stroke="none" paint-order="stroke fill markers" d=" M 175.83808922309618 319.89489294377375 A 1 1 0 1 1 175.8380887230962 319.89389294394044" fill-opacity="0.5"/><path fill="black" stroke="none" paint-order="stroke fill markers" d=" M 171.77937111954506 318.72443687298136 A 1 1 0 1 1 171.7793706195451 318.72343687314805" fill-opacity="0.5"/><path fill="black" stroke="none" paint-order="stroke fill markers" d=" M 167.84020737740227 316.46300756997016 A 1 1 0 1 1 167.8402068774023 316.46200757013685" fill-opacity="0.5"/><path fill="black" stroke="none" paint-order="stroke fill markers" d=" M 167.5604199622593 314.38450691529897 A 1 1 0 1 1 167.56041946225932 314.38350691546566" fill-opacity="0.5"/><path fill="black" stroke="none" paint-order="stroke fill markers" d=" M 167.66119905745748 287.64055690346265 A 1 1 0 1 1 167.6611985574575 287.63955690362934" fill-opacity="0.5"/><path fill="black" stroke="none" paint-order="stroke fill markers" d=" M 167.96762470930017 303.15668282945535 A 1 1 0 1 1 167.9676242093002 303.15568282962204" fill-opacity="0.5"/><path fill="black" stroke="none" paint-order="stroke fill markers" d=" M 242.87692893289335 305.66264162125134 A 1 1 0 1 1 242.87692843289338 305.661641621418" fill-opacity="0.5"/><path fill="black" stroke="none" paint-order="stroke fill markers" d=" M 179.25973485739922 315.709911137869 A 1 1 0 1 1 179.25973435739925 315.7089111380357" fill-opacity="0.5"/><path fill="black" stroke="none" paint-order="stroke fill markers" d=" M 167.70644227746925 300.78051343936835 A 1 1 0 1 1 167.70644177746928 300.77951343953504" fill-opacity="0.5"/><path fill="black" stroke="none" paint-order="stroke fill markers" d=" M 162.32025546121756 295.6977878825538 A 1 1 0 1 1 162.32025496121759 295.6967878827205" fill-opacity="0.5"/><path fill="black" stroke="none" paint-order="stroke fill markers" d=" M 159.13425691914964 297.37308502467727 A 1 1 0 1 1 159.13425641914966 297.37208502484395" fill-opacity="0.5"/><path fill="black" stroke="none" paint-order="stroke fill markers" d=" M 175.18789708722613 299.671588941342 A 1 1 0 1 1 175.18789658722616 299.6705889415087" fill-opacity="0.5"/><path fill="black" stroke="none" paint-order="stroke fill markers" d=" M 153.00515745085679 292.06215618868447 A 1 1 0 1 1 153.00515695085682 292.06115618885116" fill-opacity="0.5"/><path fill="black" stroke="none" paint-order="stroke fill markers" d=" M 151.96363521083086 289.221994517997 A 1 1 0 1 1 151.9636347108309 289.2209945181637" fill-opacity="0.5"/><path fill="black" stroke="none" paint-order="stroke fill markers" d=" M 150.48879433619678 287.46871062802 A 1 1 0 1 1 150.4887938361968 287.4677106281867" fill-opacity="0.5"/><path fill="black" stroke="none" paint-order="stroke fill markers" d=" M 149.97266017107756 286.6277116887054 A 1 1 0 1 1 149.9726596710776 286.6267116888721" fill-opacity="0.5"/><path fill="black" stroke="none" paint-order="stroke fill markers" d=" M 149.71215256406506 285.9137879517916 A 1 1 0 1 1 149.7121520640651 285.9127879519583" fill-opacity="0.5"/><path fill="black" stroke="none" paint-order="stroke fill markers" d=" M 148.32567846212908 285.2917313852849 A 1 1 0 1 1 148.3256779621291 285.2907313854516" fill-opacity="0.5"/><path fill="black" stroke="none" paint-order="stroke fill markers" d=" M 149.24672170855166 285.2318020832992 A 1 1 0 1 1 149.2467212085517 285.2308020834659" fill-opacity="0.5"/><path fill="black" stroke="none" paint-order="stroke fill markers" d=" M 149.28898261280625 283.7834545665097 A 1 1 0 1 1 149.28898211280628 283.7824545666764" fill-opacity="0.5"/><path fill="black" stroke="none" paint-order="stroke fill markers" d=" M 149.91445258875368 282.90656995679126 A 1 1 0 1 1 149.9144520887537 282.90556995695795" fill-opacity="0.5"/><path fill="black" stroke="none" paint-order="stroke fill markers" d=" M 150.42213370584054 281.1789052532708 A 1 1 0 1 1 150.42213320584057 281.1779052534375" fill-opacity="0.5"/><path fill="black" stroke="none" paint-order="stroke fill markers" d=" M 149.5272344027051 272.841808072738 A 1 1 0 1 1 149.52723390270512 272.8408080729047" fill-opacity="0.5"/><path fill="black" stroke="none" paint-order="stroke fill markers" d=" M 148.5582513962106 265.16320425147774 A 1 1 0 1 1 148.55825089621064 265.1622042516444" fill-opacity="0.5"/><path fill="black" stroke="none" paint-order="stroke fill markers" d=" M 148.33300378013482 258.9298915106806 A 1 1 0 1 1 148.33300328013485 258.9288915108473" fill-opacity="0.5"/><path fill="black" stroke="none" paint-order="stroke fill markers" d=" M 147.34240745912837 248.43851227152462 A 1 1 0 1 1 147.3424069591284 248.43751227169128" fill-opacity="0.5"/><path fill="black" stroke="none" paint-order="stroke fill markers" d=" M 144.42168681026027 239.0204193096594 A 1 1 0 1 1 144.4216863102603 239.01941930982605" fill-opacity="0.5"/><path fill="black" stroke="none" paint-order="stroke fill markers" d=" M 141.42199037227286 226.04003910017445 A 1 1 0 1 1 141.4219898722729 226.0390391003411" fill-opacity="0.5"/><path fill="black" stroke="none" paint-order="stroke fill markers" d=" M 138.75880210978085 226.5481867917507 A 1 1 0 1 1 138.75880160978087 226.54718679191737" fill-opacity="0.5"/><path fill="black" stroke="none" paint-order="stroke fill markers" d=" M 164.82269745624035 247.89134500278783 A 1 1 0 1 1 164.82269695624038 247.8903450029545" fill-opacity="0.5"/><path fill="black" stroke="none" paint-order="stroke fill markers" d=" M 153.3131085536617 266.9193458889131 A 1 1 0 1 1 153.31310805366172 266.9183458890798" fill-opacity="0.5"/><path fill="black" stroke="none" paint-order="stroke fill markers" d=" M 167.0540695744873 262.38556668648 A 1 1 0 1 1 167.05406907448733 262.3845666866467" fill-opacity="0.5"/><path fill="black" stroke="none" paint-order="stroke fill markers" d=" M 180.19390683643144 271.1012279661921 A 1 1 0 1 1 180.19390633643147 271.1002279663588" fill-opacity="0.5"/><path fill="black" stroke="none" paint-order="stroke fill markers" d=" M 221.4970722742232 309.2966118022467 A 1 1 0 1 1 221.49707177422323 309.29561180241336" fill-opacity="0.5"/><path fill="black" stroke="none" paint-order="stroke fill markers" d=" M 199.64557928859298 304.58220072187544 A 1 1 0 1 1 199.645578788593 304.5812007220421" fill-opacity="0.5"/><path fill="black" stroke="none" paint-order="stroke fill markers" d=" M 202.57710344133005 306.88213556295716 A 1 1 0 1 1 202.57710294133008 306.88113556312385" fill-opacity="0.5"/><path fill="black" stroke="none" paint-order="stroke fill markers" d=" M 247.95885805086627 296.11518397791815 A 1 1 0 1 1 247.9588575508663 296.11418397808484" fill-opacity="0.5"/><path fill="black" stroke="none" paint-order="stroke fill markers" d=" M 198.02509470227588 285.1954192350167 A 1 1 0 1 1 198.0250942022759 285.1944192351834" fill-opacity="0.5"/><path fill="black" stroke="none" paint-order="stroke fill markers" d=" M 187.95845223421594 291.58909531066394 A 1 1 0 1 1 187.95845173421597 291.5880953108306" fill-opacity="0.5"/><path fill="black" stroke="none" paint-order="stroke fill markers" d=" M 174.39780020693013 293.3431179039785 A 1 1 0 1 1 174.39779970693016 293.3421179041452" fill-opacity="0.5"/><path fill="black" stroke="none" paint-order="stroke fill markers" d=" M 166.03287436270656 286.43896273251374 A 1 1 0 1 1 166.0328738627066 286.43796273268043" fill-opacity="0.5"/></g></g></g><g/><g/><g/></g></g></svg>