<svg version="1.1" xmlns="http://www.w3.org/2000/svg" xmlns:xlink="http://www.w3.org/1999/xlink" width="300" height="300" style="width: 300px; height: 300px;"><defs><clipPath id="oHreOmHypvDz"><path fill="none" stroke="none" d=" M 5 5 L 295 5 L 295 295 L 5 295 L 5 5 Z"/></clipPath><clipPath id="bxSTlBirKRQZ"><path fill="none" stroke="none" d=" M 5 5 L 295 5 L 295 295 L 5 295 L 5 5 Z"/></clipPath><clipPath id="hltgTvLesrCn"><path fill="none" stroke="none" d=" M 5 5 L 295 5 L 295 295 L 5 295 L 5 5 Z"/></clipPath></defs><g><g transform="scale(1,1) translate(0.5,0.5)"><rect fill="#FFFFFF" stroke="none" x="0" y="0" width="300" height="300"/><g clip-path="url(#oHreOmHypvDz)"><g><g/></g></g><g clip-path="url(#bxSTlBirKRQZ)"><g><g/></g></g><g clip-path="url(#hltgTvLesrCn)"><g><g><path fill="none" stroke="none"/><path fill="black" stroke="none" paint-order="stroke fill markers" d=" M 217.7624602818745 160.94991149463436 A 0.5 0.5 0 1 1 217.76246003187453 160.9494114947177"/><path fill="black" stroke="none" paint-order="stroke fill markers" d=" M 203.6752938491845 163.5142565948331 A 0.5 0.5 0 1 1 203.67529359918453 163.51375659491646"/><path fill="black" stroke="none" paint-order="stroke fill markers" d=" M 187.3478450540316 162.76521474935313 A 0.5 0.5 0 1 1 187.34784480403164 162.76471474943648"/><path fill="black" stroke="none" paint-order="stroke fill markers" d=" M 207.644986387294 154.18571348369338 A 0.5 0.5 0 1 1 207.64498613729404 154.18521348377672"/><path fill="black" stroke="none" paint-order="stroke fill markers" d=" M 189.0898101552004 161.02281249191591 A 0.5 0.5 0 1 1 189.08980990520044 161.02231249199926"/><path fill="black" stroke="none" paint-order="stroke fill markers" d=" M 188.43422469641143 160.3193685571479 A 0.5 0.5 0 1 1 188.43422444641146 160.31886855723124"/><path fill="black" stroke="none" paint-order="stroke fill markers" d=" M 188.01169334423892 146.40232843966913 A 0.5 0.5 0 1 1 188.01169309423895 146.40182843975248"/><path fill="black" stroke="none" paint-order="stroke fill markers" d=" M 204.91200096936308 157.6179239052002 A 0.5 0.5 0 1 1 204.9120007193631 157.61742390528354"/><path fill="black" stroke="none" paint-order="stroke fill markers" d=" M 195.68916970240298 160.34941524813152 A 0.5 0.5 0 1 1 195.689169452403 160.34891524821487"/><path fill="black" stroke="none" paint-order="stroke fill markers" d=" M 192.86341048699484 183.227887831558 A 0.5 0.5 0 1 1 192.86341023699487 183.22738783164135"/><path fill="black" stroke="none" paint-order="stroke fill markers" d=" M 200.16739835423022 157.98074980777054 A 0.5 0.5 0 1 1 200.16739810423024 157.98024980785388"/><path fill="black" stroke="none" paint-order="stroke fill markers" d=" M 180.44571605290557 164.72646516835007 A 0.5 0.5 0 1 1 180.4457158029056 164.72596516843342"/><path fill="black" stroke="none" paint-order="stroke fill markers" d=" M 177.4343652210651 165.56598098572576 A 0.5 0.5 0 1 1 177.43436497106512 165.5654809858091"/><path fill="black" stroke="none" paint-order="stroke fill markers" d=" M 171.56839395915623 139.66738659837222 A 0.5 0.5 0 1 1 171.56839370915625 139.66688659845556"/><path fill="black" stroke="none" paint-order="stroke fill markers" d=" M 173.76164817668453 167.28271155286737 A 0.5 0.5 0 1 1 173.76164792668456 167.2822115529507"/><path fill="black" stroke="none" paint-order="stroke fill markers" d=" M 172.27315764523388 168.15241333987217 A 0.5 0.5 0 1 1 172.2731573952339 168.1519133399555"/><path fill="black" stroke="none" paint-order="stroke fill markers" d=" M 139.82248046030801 189.6411432163224 A 0.5 0.5 0 1 1 139.82248021030804 189.64064321640575"/><path fill="black" stroke="none" paint-order="stroke fill markers" d=" M 169.9204855147023 170.48007968785348 A 0.5 0.5 0 1 1 169.92048526470234 170.47957968793682"/><path fill="black" stroke="none" paint-order="stroke fill markers" d=" M 170.47790637918882 171.69419524790035 A 0.5 0.5 0 1 1 170.47790612918885 171.6936952479837"/><path fill="black" stroke="none" paint-order="stroke fill markers" d=" M 168.1500696991555 201.73067068683577 A 0.5 0.5 0 1 1 168.15006944915552 201.7301706869191"/><path fill="black" stroke="none" paint-order="stroke fill markers" d=" M 168.37692081267778 173.36597931902608 A 0.5 0.5 0 1 1 168.3769205626778 173.36547931910943"/><path fill="black" stroke="none" paint-order="stroke fill markers" d=" M 167.56137230824982 174.01345964061758 A 0.5 0.5 0 1 1 167.56137205824984 174.01295964070093"/><path fill="black" stroke="none" paint-order="stroke fill markers" d=" M 167.6772903060678 175.47073928950226 A 0.5 0.5 0 1 1 167.67729005606782 175.4702392895856"/><path fill="black" stroke="none" paint-order="stroke fill markers" d=" M 119.18451310540146 173.90209726893798 A 0.5 0.5 0 1 1 119.18451285540148 173.90159726902132"/><path fill="black" stroke="none" paint-order="stroke fill markers" d=" M 167.69113753710315 179.45416187125002 A 0.5 0.5 0 1 1 167.69113728710317 179.45366187133337"/><path fill="black" stroke="none" paint-order="stroke fill markers" d=" M 165.64902281021963 166.16640147070854 A 0.5 0.5 0 1 1 165.64902256021966 166.16590147079188"/><path fill="black" stroke="none" paint-order="stroke fill markers" d=" M 175.29422511780325 226.4766415736342 A 0.5 0.5 0 1 1 175.29422486780328 226.47614157371754"/><path fill="black" stroke="none" paint-order="stroke fill markers" d=" M 166.67748644914704 181.29703567569828 A 0.5 0.5 0 1 1 166.67748619914707 181.29653567578163"/><path fill="black" stroke="none" paint-order="stroke fill markers" d=" M 165.9655109616339 180.3078533651028 A 0.5 0.5 0 1 1 165.96551071163393 180.30735336518615"/><path fill="black" stroke="none" paint-order="stroke fill markers" d=" M 165.52107649380991 177.30781937750126 A 0.5 0.5 0 1 1 165.52107624380994 177.3073193775846"/><path fill="black" stroke="none" paint-order="stroke fill markers" d=" M 151.6840456934441 178.08452069776132 A 0.5 0.5 0 1 1 151.68404544344412 178.08402069784466"/><path fill="black" stroke="none" paint-order="stroke fill markers" d=" M 166.23506146434983 179.629738793586 A 0.5 0.5 0 1 1 166.23506121434986 179.62923879366934"/><path fill="black" stroke="none" paint-order="stroke fill markers" d=" M 172.75649733233385 179.8751306527436 A 0.5 0.5 0 1 1 172.75649708233388 179.87463065282694"/><path fill="black" stroke="none" paint-order="stroke fill markers" d=" M 167.72631546700904 185.4623084378968 A 0.5 0.5 0 1 1 167.72631521700907 185.46180843798015"/><path fill="black" stroke="none" paint-order="stroke fill markers" d=" M 169.34844695160425 189.16443064024935 A 0.5 0.5 0 1 1 169.34844670160427 189.1639306403327"/><path fill="black" stroke="none" paint-order="stroke fill markers" d=" M 146.75670405365253 246.97012503584523 A 0.5 0.5 0 1 1 146.75670380365256 246.96962503592857"/><path fill="black" stroke="none" paint-order="stroke fill markers" d=" M 173.58069495664952 229.46777617609484 A 0.5 0.5 0 1 1 173.58069470664955 229.4672761761782"/><path fill="black" stroke="none" paint-order="stroke fill markers" d=" M 171.7709320103857 251.09000577376423 A 0.5 0.5 0 1 1 171.77093176038574 251.08950577384758"/><path fill="black" stroke="none" paint-order="stroke fill markers" d=" M 177.50924795619662 235.39962264130173 A 0.5 0.5 0 1 1 177.50924770619665 235.39912264138508"/><path fill="black" stroke="none" paint-order="stroke fill markers" d=" M 171.06108237621785 200.12789795903765 A 0.5 0.5 0 1 1 171.06108212621788 200.127397959121"/><path fill="black" stroke="none" paint-order="stroke fill markers" d=" M 185.27429403944836 202.3537060796251 A 0.5 0.5 0 1 1 185.2742937894484 202.35320607970846"/><path fill="black" stroke="none" paint-order="stroke fill markers" d=" M 164.325304854301 186.1619108792799 A 0.5 0.5 0 1 1 164.32530460430104 186.16141087936325"/><path fill="black" stroke="none" paint-order="stroke fill markers" d=" M 186.33154907199133 194.80105832162343 A 0.5 0.5 0 1 1 186.33154882199136 194.80055832170677"/><path fill="black" stroke="none" paint-order="stroke fill markers" d=" M 164.4665624402516 188.09495640505295 A 0.5 0.5 0 1 1 164.46656219025164 188.0944564051363"/><path fill="black" stroke="none" paint-order="stroke fill markers" d=" M 174.68225320463964 174.94097578266428 A 0.5 0.5 0 1 1 174.68225295463967 174.94047578274763"/><path fill="black" stroke="none" paint-order="stroke fill markers" d=" M 172.0897124426991 172.7557573896201 A 0.5 0.5 0 1 1 172.08971219269912 172.75525738970344"/><path fill="black" stroke="none" paint-order="stroke fill markers" d=" M 168.7592999913546 170.2719716771822 A 0.5 0.5 0 1 1 168.75929974135462 170.27147167726554"/><path fill="black" stroke="none" paint-order="stroke fill markers" d=" M 158.79242925907874 149.96863233340986 A 0.5 0.5 0 1 1 158.79242900907877 149.9681323334932"/><path fill="black" stroke="none" paint-order="stroke fill markers" d=" M 115.84662268890656 157.9290817733437 A 0.5 0.5 0 1 1 115.84662243890658 157.92858177342706"/><path fill="black" stroke="none" paint-order="stroke fill markers" d=" M 164.52097482127306 151.10741788347784 A 0.5 0.5 0 1 1 164.5209745712731 151.10691788356118"/><path fill="black" stroke="none" paint-order="stroke fill markers" d=" M 161.19102386175612 159.83625888149695 A 0.5 0.5 0 1 1 161.19102361175615 159.8357588815803"/><path fill="black" stroke="none" paint-order="stroke fill markers" d=" M 100.03453627132475 105.51944613694445 A 0.5 0.5 0 1 1 100.03453602132477 105.51894613702778"/><path fill="black" stroke="none" paint-order="stroke fill markers" d=" M 160.86754523720447 147.88203715353976 A 0.5 0.5 0 1 1 160.8675449872045 147.8815371536231"/><path fill="black" stroke="none" paint-order="stroke fill markers" d=" M 167.02616399372047 151.7069233982758 A 0.5 0.5 0 1 1 167.0261637437205 151.70642339835914"/><path fill="black" stroke="none" paint-order="stroke fill markers" d=" M 175.98498373750465 155.51223305972627 A 0.5 0.5 0 1 1 175.98498348750468 155.51173305980961"/><path fill="black" stroke="none" paint-order="stroke fill markers" d=" M 177.92916589995926 152.62634306066747 A 0.5 0.5 0 1 1 177.9291656499593 152.6258430607508"/><path fill="black" stroke="none" paint-order="stroke fill markers" d=" M 173.78481081101924 158.84061823860011 A 0.5 0.5 0 1 1 173.78481056101927 158.84011823868346"/><path fill="black" stroke="none" paint-order="stroke fill markers" d=" M 176.27743749175295 160.408502418211 A 0.5 0.5 0 1 1 176.27743724175298 160.40800241829433"/><path fill="black" stroke="none" paint-order="stroke fill markers" d=" M 163.84810909814556 156.71293383728553 A 0.5 0.5 0 1 1 163.84810884814559 156.71243383736888"/><path fill="black" stroke="none" paint-order="stroke fill markers" d=" M 171.73391031424342 160.24866127378377 A 0.5 0.5 0 1 1 171.73391006424345 160.2481612738671"/><path fill="black" stroke="none" paint-order="stroke fill markers" d=" M 169.351956380514 159.97374560982013 A 0.5 0.5 0 1 1 169.35195613051403 159.97324560990347"/><path fill="black" stroke="none" paint-order="stroke fill markers" d=" M 144.00690683327795 159.72837095086575 A 0.5 0.5 0 1 1 144.00690658327798 159.7278709509491"/><path fill="black" stroke="none" paint-order="stroke fill markers" d=" M 163.6848259159521 155.45124870723274 A 0.5 0.5 0 1 1 163.68482566595213 155.45074870731608"/><path fill="black" stroke="none" paint-order="stroke fill markers" d=" M 163.97660962662087 153.34229395119766 A 0.5 0.5 0 1 1 163.9766093766209 153.341793951281"/><path fill="black" stroke="none" paint-order="stroke fill markers" d=" M 166.78672060520327 139.27792446111076 A 0.5 0.5 0 1 1 166.7867203552033 139.2774244611941"/><path fill="black" stroke="none" paint-order="stroke fill markers" d=" M 171.32040703351495 152.5162094715052 A 0.5 0.5 0 1 1 171.32040678351498 152.51570947158854"/><path fill="black" stroke="none" paint-order="stroke fill markers" d=" M 171.44850366492972 152.79228924522207 A 0.5 0.5 0 1 1 171.44850341492975 152.7917892453054"/><path fill="black" stroke="none" paint-order="stroke fill markers" d=" M 171.33813374900944 152.95097969605453 A 0.5 0.5 0 1 1 171.33813349900947 152.95047969613788"/><path fill="black" stroke="none" paint-order="stroke fill markers" d=" M 172.8341171028593 142.67189057478402 A 0.5 0.5 0 1 1 172.83411685285932 142.67139057486736"/><path fill="black" stroke="none" paint-order="stroke fill markers" d=" M 165.4233679803617 150.90620990632632 A 0.5 0.5 0 1 1 165.42336773036172 150.90570990640967"/><path fill="black" stroke="none" paint-order="stroke fill markers" d=" M 162.20059042719464 148.498031471143 A 0.5 0.5 0 1 1 162.20059017719467 148.49753147122635"/><path fill="black" stroke="none" paint-order="stroke fill markers" d=" M 167.66399416890997 143.5185354893857 A 0.5 0.5 0 1 1 167.66399391891 143.51803548946904"/><path fill="black" stroke="none" paint-order="stroke fill markers" d=" M 154.84871232774736 144.8760126791642 A 0.5 0.5 0 1 1 154.8487120777474 144.87551267924755"/><path fill="black" stroke="none" paint-order="stroke fill markers" d=" M 149.74616153710696 142.62960284317984 A 0.5 0.5 0 1 1 149.746161287107 142.62910284326318"/><path fill="black" stroke="none" paint-order="stroke fill markers" d=" M 104.04368379277236 107.0218137105159 A 0.5 0.5 0 1 1 104.04368354277237 107.02131371059923"/><path fill="black" stroke="none" paint-order="stroke fill markers" d=" M 96.51822973930956 101.66666666666667 A 0.5 0.5 0 1 1 96.51822948930958 101.66616666675"/><path fill="black" stroke="none" paint-order="stroke fill markers" d=" M 109.304631931818 122.92962392374889 A 0.5 0.5 0 1 1 109.30463168181801 122.92912392383222"/><path fill="black" stroke="none" paint-order="stroke fill markers" d=" M 113.64096468626383 140.66361686423508 A 0.5 0.5 0 1 1 113.64096443626384 140.66311686431843"/><path fill="black" stroke="none" paint-order="stroke fill markers" d=" M 139.24293476783038 147.83793720852537 A 0.5 0.5 0 1 1 139.2429345178304 147.83743720860872"/><path fill="black" stroke="none" paint-order="stroke fill markers" d=" M 128.3695504661262 142.75966114774067 A 0.5 0.5 0 1 1 128.36955021612624 142.75916114782402"/><path fill="black" stroke="none" paint-order="stroke fill markers" d=" M 156.16483492790763 159.37392636331563 A 0.5 0.5 0 1 1 156.16483467790766 159.37342636339898"/><path fill="black" stroke="none" paint-order="stroke fill markers" d=" M 167.03206039556272 153.88766973848536 A 0.5 0.5 0 1 1 167.03206014556275 153.8871697385687"/><path fill="black" stroke="none" paint-order="stroke fill markers" d=" M 163.33574880195042 174.0980440479316 A 0.5 0.5 0 1 1 163.33574855195045 174.09754404801495"/><path fill="black" stroke="none" paint-order="stroke fill markers" d=" M 171.43441238982575 164.05699627897684 A 0.5 0.5 0 1 1 171.43441213982578 164.05649627906018"/><path fill="black" stroke="none" paint-order="stroke fill markers" d=" M 171.13953488636858 161.6431691250573 A 0.5 0.5 0 1 1 171.1395346363686 161.64266912514066"/><path fill="black" stroke="none" paint-order="stroke fill markers" d=" M 170.3738748224075 165.8683855629544 A 0.5 0.5 0 1 1 170.37387457240752 165.86788556303773"/><path fill="black" stroke="none" paint-order="stroke fill markers" d=" M 175.97282867374085 166.9428464595652 A 0.5 0.5 0 1 1 175.97282842374088 166.94234645964855"/><path fill="black" stroke="none" paint-order="stroke fill markers" d=" M 170.50129645782644 185.8733368779512 A 0.5 0.5 0 1 1 170.50129620782647 185.87283687803455"/><path fill="black" stroke="none" paint-order="stroke fill markers" d=" M 171.02114792561537 165.7363092660522 A 0.5 0.5 0 1 1 171.0211476756154 165.73580926613553"/><path fill="black" stroke="none" paint-order="stroke fill markers" d=" M 171.34182568363002 164.3516591522419 A 0.5 0.5 0 1 1 171.34182543363005 164.35115915232524"/><path fill="black" stroke="none" paint-order="stroke fill markers" d=" M 170.6017545711321 162.70125200967175 A 0.5 0.5 0 1 1 170.60175432113212 162.7007520097551"/><path fill="black" stroke="none" paint-order="stroke fill markers" d=" M 168.98331520458032 150.66121158781817 A 0.5 0.5 0 1 1 168.98331495458035 150.66071158790152"/><path fill="black" stroke="none" paint-order="stroke fill markers" d=" M 171.20102225259402 160.3252943711578 A 0.5 0.5 0 1 1 171.20102200259404 160.32479437124115"/><path fill="black" stroke="none" paint-order="stroke fill markers" d=" M 175.68371248121537 148.50717097112073 A 0.5 0.5 0 1 1 175.6837122312154 148.50667097120407"/><path fill="black" stroke="none" paint-order="stroke fill markers" d=" M 171.36225898632946 158.34023267884496 A 0.5 0.5 0 1 1 171.3622587363295 158.3397326789283"/><path fill="black" stroke="none" paint-order="stroke fill markers" d=" M 171.39253292358748 158.04440913586728 A 0.5 0.5 0 1 1 171.3925326735875 158.04390913595063"/><path fill="black" stroke="none" paint-order="stroke fill markers" d=" M 172.9069572414122 157.68345599142248 A 0.5 0.5 0 1 1 172.90695699141222 157.68295599150582"/><path fill="black" stroke="none" paint-order="stroke fill markers" d=" M 173.41273320846008 145.17235704429507 A 0.5 0.5 0 1 1 173.4127329584601 145.1718570443784"/><path fill="black" stroke="none" paint-order="stroke fill markers" d=" M 172.6408470401289 145.58561325466923 A 0.5 0.5 0 1 1 172.64084679012893 145.58511325475257"/><path fill="black" stroke="none" paint-order="stroke fill markers" d=" M 178.42162830468098 146.98384116589307 A 0.5 0.5 0 1 1 178.421628054681 146.9833411659764"/><path fill="black" stroke="none" paint-order="stroke fill markers" d=" M 172.94654575656685 154.82843210102823 A 0.5 0.5 0 1 1 172.94654550656688 154.82793210111157"/><path fill="black" stroke="none" paint-order="stroke fill markers" d=" M 170.69859485263842 149.4809983163065 A 0.5 0.5 0 1 1 170.69859460263845 149.48049831638986"/><path fill="black" stroke="none" paint-order="stroke fill markers" d=" M 171.25944719133406 157.69597842736755 A 0.5 0.5 0 1 1 171.2594469413341 157.6954784274509"/><path fill="black" stroke="none" paint-order="stroke fill markers" d=" M 170.8937512357006 160.15721467339705 A 0.5 0.5 0 1 1 170.89375098570062 160.1567146734804"/><path fill="black" stroke="none" paint-order="stroke fill markers" d=" M 170.47161644367563 161.1085916253449 A 0.5 0.5 0 1 1 170.47161619367566 161.10809162542824"/><path fill="black" stroke="none" paint-order="stroke fill markers" d=" M 170.70821317873313 162.59772501856247 A 0.5 0.5 0 1 1 170.70821292873316 162.59722501864582"/><path fill="black" stroke="none" paint-order="stroke fill markers" d=" M 170.46848578289936 163.50658994825628 A 0.5 0.5 0 1 1 170.4684855328994 163.50608994833962"/><path fill="black" stroke="none" paint-order="stroke fill markers" d=" M 170.09677759390968 164.28769452053814 A 0.5 0.5 0 1 1 170.0967773439097 164.28719452062148"/><path fill="black" stroke="none" paint-order="stroke fill markers" d=" M 169.75918128136726 164.9976280059763 A 0.5 0.5 0 1 1 169.7591810313673 164.99712800605965"/><path fill="black" stroke="none" paint-order="stroke fill markers" d=" M 168.99539341418046 165.92495172074962 A 0.5 0.5 0 1 1 168.99539316418048 165.92445172083296"/><path fill="black" stroke="none" paint-order="stroke fill markers" d=" M 168.61261474059089 165.8522276705586 A 0.5 0.5 0 1 1 168.61261449059091 165.85172767064194"/><path fill="black" stroke="none" paint-order="stroke fill markers" d=" M 168.1337306690432 166.2458207698749 A 0.5 0.5 0 1 1 168.13373041904322 166.24532076995825"/><path fill="black" stroke="none" paint-order="stroke fill markers" d=" M 169.36623364636247 166.72501878606195 A 0.5 0.5 0 1 1 169.3662333963625 166.7245187861453"/><path fill="black" stroke="none" paint-order="stroke fill markers" d=" M 151.96036851077497 168.06348760126792 A 0.5 0.5 0 1 1 151.960368260775 168.06298760135127"/><path fill="black" stroke="none" paint-order="stroke fill markers" d=" M 169.93072894578447 167.01237604501554 A 0.5 0.5 0 1 1 169.9307286957845 167.0118760450989"/><path fill="black" stroke="none" paint-order="stroke fill markers" d=" M 156.63819641333035 172.32758791505466 A 0.5 0.5 0 1 1 156.63819616333038 172.327087915138"/><path fill="black" stroke="none" paint-order="stroke fill markers" d=" M 183.60712729891165 162.14723896834008 A 0.5 0.5 0 1 1 183.60712704891168 162.14673896842342"/><path fill="black" stroke="none" paint-order="stroke fill markers" d=" M 170.84300437641295 165.92010367147282 A 0.5 0.5 0 1 1 170.84300412641298 165.91960367155616"/><path fill="black" stroke="none" paint-order="stroke fill markers" d=" M 170.81304592641385 165.59245949455345 A 0.5 0.5 0 1 1 170.81304567641388 165.5919594946368"/><path fill="black" stroke="none" paint-order="stroke fill markers" d=" M 171.36563323261726 165.35311139979933 A 0.5 0.5 0 1 1 171.36563298261729 165.35261139988268"/><path fill="black" stroke="none" paint-order="stroke fill markers" d=" M 171.2358098587284 164.93863827504805 A 0.5 0.5 0 1 1 171.23580960872843 164.9381382751314"/><path fill="black" stroke="none" paint-order="stroke fill markers" d=" M 171.04757108408637 164.30394802456354 A 0.5 0.5 0 1 1 171.0475708340864 164.30344802464688"/><path fill="black" stroke="none" paint-order="stroke fill markers" d=" M 171.45649209580196 163.6538907685271 A 0.5 0.5 0 1 1 171.456491845802 163.65339076861045"/><path fill="black" stroke="none" paint-order="stroke fill markers" d=" M 171.08800848007488 163.4161084512717 A 0.5 0.5 0 1 1 171.0880082300749 163.41560845135504"/><path fill="black" stroke="none" paint-order="stroke fill markers" d=" M 172.00341493832525 162.6770884761941 A 0.5 0.5 0 1 1 172.00341468832528 162.67658847627743"/><path fill="black" stroke="none" paint-order="stroke fill markers" d=" M 172.98433085850655 162.72907058633155 A 0.5 0.5 0 1 1 172.98433060850658 162.7285705864149"/><path fill="black" stroke="none" paint-order="stroke fill markers" d=" M 176.88764047519274 157.63158017854087 A 0.5 0.5 0 1 1 176.88764022519277 157.63108017862422"/><path fill="black" stroke="none" paint-order="stroke fill markers" d=" M 174.5514573229329 162.3432136116629 A 0.5 0.5 0 1 1 174.55145707293292 162.34271361174623"/><path fill="black" stroke="none" paint-order="stroke fill markers" d=" M 173.09672429503172 161.57814513283785 A 0.5 0.5 0 1 1 173.09672404503175 161.5776451329212"/><path fill="black" stroke="none" paint-order="stroke fill markers" d=" M 171.99894419038992 161.1362468000742 A 0.5 0.5 0 1 1 171.99894394038995 161.13574680015753"/><path fill="black" stroke="none" paint-order="stroke fill markers" d=" M 168.52364494908036 158.97531991001955 A 0.5 0.5 0 1 1 168.5236446990804 158.9748199101029"/><path fill="black" stroke="none" paint-order="stroke fill markers" d=" M 171.27626009431467 161.0953460928569 A 0.5 0.5 0 1 1 171.2762598443147 161.09484609294023"/><path fill="black" stroke="none" paint-order="stroke fill markers" d=" M 172.52175170042574 156.22215975108418 A 0.5 0.5 0 1 1 172.52175145042577 156.22165975116752"/><path fill="black" stroke="none" paint-order="stroke fill markers" d=" M 173.15207103192347 156.30165358625612 A 0.5 0.5 0 1 1 173.1520707819235 156.30115358633947"/><path fill="black" stroke="none" paint-order="stroke fill markers" d=" M 169.75512396847938 160.47196187994643 A 0.5 0.5 0 1 1 169.7551237184794 160.47146188002978"/><path fill="black" stroke="none" paint-order="stroke fill markers" d=" M 169.83541877748388 160.14525778013353 A 0.5 0.5 0 1 1 169.8354185274839 160.14475778021688"/><path fill="black" stroke="none" paint-order="stroke fill markers" d=" M 169.22630991119493 159.45837523302836 A 0.5 0.5 0 1 1 169.22630966119496 159.4578752331117"/><path fill="black" stroke="none" paint-order="stroke fill markers" d=" M 168.75594463761777 158.8078704277044 A 0.5 0.5 0 1 1 168.7559443876178 158.80737042778773"/><path fill="black" stroke="none" paint-order="stroke fill markers" d=" M 167.3920845047474 157.53314547959397 A 0.5 0.5 0 1 1 167.39208425474743 157.5326454796773"/><path fill="black" stroke="none" paint-order="stroke fill markers" d=" M 153.71442631194708 147.4801028049266 A 0.5 0.5 0 1 1 153.7144260619471 147.47960280500993"/><path fill="black" stroke="none" paint-order="stroke fill markers" d=" M 167.33225839904753 157.78624096576527 A 0.5 0.5 0 1 1 167.33225814904756 157.78574096584862"/><path fill="black" stroke="none" paint-order="stroke fill markers" d=" M 151.92964151913932 166.2867009981003 A 0.5 0.5 0 1 1 151.92964126913935 166.28620099818363"/><path fill="black" stroke="none" paint-order="stroke fill markers" d=" M 168.32439291775987 159.910566511397 A 0.5 0.5 0 1 1 168.3243926677599 159.91006651148035"/><path fill="black" stroke="none" paint-order="stroke fill markers" d=" M 168.74487231878967 160.42378273473875 A 0.5 0.5 0 1 1 168.7448720687897 160.4232827348221"/><path fill="black" stroke="none" paint-order="stroke fill markers" d=" M 168.49722784356257 161.59670415210155 A 0.5 0.5 0 1 1 168.4972275935626 161.5962041521849"/><path fill="black" stroke="none" paint-order="stroke fill markers" d=" M 167.5990358008566 163.26105102736125 A 0.5 0.5 0 1 1 167.59903555085663 163.2605510274446"/><path fill="black" stroke="none" paint-order="stroke fill markers" d=" M 166.81767153318035 164.51560495316315 A 0.5 0.5 0 1 1 166.81767128318037 164.5151049532465"/><path fill="black" stroke="none" paint-order="stroke fill markers" d=" M 165.18259397388874 164.90266663006463 A 0.5 0.5 0 1 1 165.18259372388877 164.90216663014797"/><path fill="black" stroke="none" paint-order="stroke fill markers" d=" M 147.57496648219848 176.16933448698538 A 0.5 0.5 0 1 1 147.5749662321985 176.16883448706872"/><path fill="black" stroke="none" paint-order="stroke fill markers" d=" M 164.4894625965238 164.9605113434652 A 0.5 0.5 0 1 1 164.48946234652382 164.96001134354856"/><path fill="black" stroke="none" paint-order="stroke fill markers" d=" M 159.9291496626118 161.71627136471642 A 0.5 0.5 0 1 1 159.92914941261182 161.71577136479976"/><path fill="black" stroke="none" paint-order="stroke fill markers" d=" M 165.18838921804306 164.81671919264724 A 0.5 0.5 0 1 1 165.18838896804309 164.81621919273059"/><path fill="black" stroke="none" paint-order="stroke fill markers" d=" M 165.60052994231637 163.49524211418844 A 0.5 0.5 0 1 1 165.6005296923164 163.4947421142718"/><path fill="black" stroke="none" paint-order="stroke fill markers" d=" M 165.0370287028942 163.31611489790785 A 0.5 0.5 0 1 1 165.03702845289422 163.3156148979912"/><path fill="black" stroke="none" paint-order="stroke fill markers" d=" M 164.368692423006 163.62583242103454 A 0.5 0.5 0 1 1 164.36869217300602 163.6253324211179"/><path fill="black" stroke="none" paint-order="stroke fill markers" d=" M 163.52587206269598 163.71344716015014 A 0.5 0.5 0 1 1 163.525871812696 163.71294716023348"/><path fill="black" stroke="none" paint-order="stroke fill markers" d=" M 138.25386020039528 155.48023173764983 A 0.5 0.5 0 1 1 138.2538599503953 155.47973173773318"/><path fill="black" stroke="none" paint-order="stroke fill markers" d=" M 161.99289892827537 165.04484892786317 A 0.5 0.5 0 1 1 161.9928986782754 165.04434892794652"/><path fill="black" stroke="none" paint-order="stroke fill markers" d=" M 148.3317191669343 166.63067975650293 A 0.5 0.5 0 1 1 148.33171891693434 166.63017975658627"/><path fill="black" stroke="none" paint-order="stroke fill markers" d=" M 162.84364333804606 165.70468596144184 A 0.5 0.5 0 1 1 162.8436430880461 165.70418596152518"/><path fill="black" stroke="none" paint-order="stroke fill markers" d=" M 156.8995548629105 165.15001492633635 A 0.5 0.5 0 1 1 156.89955461291052 165.1495149264197"/><path fill="black" stroke="none" paint-order="stroke fill markers" d=" M 162.57857277733459 166.30792172731046 A 0.5 0.5 0 1 1 162.57857252733461 166.3074217273938"/><path fill="black" stroke="none" paint-order="stroke fill markers" d=" M 162.85633069484786 166.5223269473795 A 0.5 0.5 0 1 1 162.85633044484788 166.52182694746284"/><path fill="black" stroke="none" paint-order="stroke fill markers" d=" M 162.42119085768826 166.55379209612136 A 0.5 0.5 0 1 1 162.4211906076883 166.5532920962047"/><path fill="black" stroke="none" paint-order="stroke fill markers" d=" M 160.3333563408805 166.64601304965657 A 0.5 0.5 0 1 1 160.33335609088053 166.64551304973992"/><path fill="black" stroke="none" paint-order="stroke fill markers" d=" M 157.0668834355082 167.6342508540933 A 0.5 0.5 0 1 1 157.06688318550823 167.63375085417664"/><path fill="black" stroke="none" paint-order="stroke fill markers" d=" M 150.43300811479781 169.54753764642876 A 0.5 0.5 0 1 1 150.43300786479784 169.5470376465121"/><path fill="black" stroke="none" paint-order="stroke fill markers" d=" M 147.20170250080756 170.49498331993095 A 0.5 0.5 0 1 1 147.20170225080759 170.4944833200143"/><path fill="black" stroke="none" paint-order="stroke fill markers" d=" M 122.39112267024043 176.446296975131 A 0.5 0.5 0 1 1 122.39112242024045 176.44579697521434"/><path fill="black" stroke="none" paint-order="stroke fill markers" d=" M 114.5646585545911 175.2212517179563 A 0.5 0.5 0 1 1 114.56465830459112 175.22075171803965"/><path fill="black" stroke="none" paint-order="stroke fill markers" d=" M 76.00011819513843 178.34642612801684 A 0.5 0.5 0 1 1 76.00011794513844 178.3459261281002"/><path fill="black" stroke="none" paint-order="stroke fill markers" d=" M 143.43943476482983 199.13415828259963 A 0.5 0.5 0 1 1 143.43943451482986 199.13365828268297"/><path fill="black" stroke="none" paint-order="stroke fill markers" d=" M 121.91216898973066 159.52178412616638 A 0.5 0.5 0 1 1 121.91216873973067 159.52128412624972"/><path fill="black" stroke="none" paint-order="stroke fill markers" d=" M 156.84682593657644 167.59338678330883 A 0.5 0.5 0 1 1 156.84682568657647 167.59288678339217"/><path fill="black" stroke="none" paint-order="stroke fill markers" d=" M 163.29974913778875 163.71830329352244 A 0.5 0.5 0 1 1 163.29974888778878 163.71780329360578"/><path fill="black" stroke="none" paint-order="stroke fill markers" d=" M 165.08948277012507 164.68943287283574 A 0.5 0.5 0 1 1 165.0894825201251 164.68893287291908"/><path fill="black" stroke="none" paint-order="stroke fill markers" d=" M 166.9426455056396 165.1008092730011 A 0.5 0.5 0 1 1 166.94264525563963 165.10030927308443"/><path fill="black" stroke="none" paint-order="stroke fill markers" d=" M 168.2377305853872 166.38649223407384 A 0.5 0.5 0 1 1 168.23773033538723 166.3859922341572"/><path fill="black" stroke="none" paint-order="stroke fill markers" d=" M 169.59363466151396 167.58446503790375 A 0.5 0.5 0 1 1 169.593634411514 167.5839650379871"/><path fill="black" stroke="none" paint-order="stroke fill markers" d=" M 170.48080079136653 168.34944355966599 A 0.5 0.5 0 1 1 170.48080054136656 168.34894355974933"/><path fill="black" stroke="none" paint-order="stroke fill markers" d=" M 170.9958814314785 169.53399455042523 A 0.5 0.5 0 1 1 170.99588118147852 169.53349455050858"/><path fill="black" stroke="none" paint-order="stroke fill markers" d=" M 176.32515677389196 170.64233574081138 A 0.5 0.5 0 1 1 176.325156523892 170.64183574089472"/><path fill="black" stroke="none" paint-order="stroke fill markers" d=" M 170.7917017459657 169.86423501201813 A 0.5 0.5 0 1 1 170.79170149596573 169.86373501210147"/><path fill="black" stroke="none" paint-order="stroke fill markers" d=" M 170.62809335510363 169.9970085406577 A 0.5 0.5 0 1 1 170.62809310510366 169.99650854074105"/><path fill="black" stroke="none" paint-order="stroke fill markers" d=" M 170.2301956883219 169.88080052772975 A 0.5 0.5 0 1 1 170.23019543832194 169.8803005278131"/><path fill="black" stroke="none" paint-order="stroke fill markers" d=" M 173.21982668976872 177.48965166974068 A 0.5 0.5 0 1 1 173.21982643976875 177.48915166982403"/><path fill="black" stroke="none" paint-order="stroke fill markers" d=" M 170.37777659273982 169.18802484700075 A 0.5 0.5 0 1 1 170.37777634273985 169.1875248470841"/><path fill="black" stroke="none" paint-order="stroke fill markers" d=" M 170.23593021952115 167.78895206179524 A 0.5 0.5 0 1 1 170.23592996952118 167.7884520618786"/><path fill="black" stroke="none" paint-order="stroke fill markers" d=" M 170.13461148632084 167.66149064391507 A 0.5 0.5 0 1 1 170.13461123632086 167.66099064399842"/><path fill="black" stroke="none" paint-order="stroke fill markers" d=" M 171.2249677355456 166.97415624747157 A 0.5 0.5 0 1 1 171.22496748554562 166.9736562475549"/><path fill="black" stroke="none" paint-order="stroke fill markers" d=" M 171.7067930838028 166.36924477330544 A 0.5 0.5 0 1 1 171.70679283380284 166.36874477338878"/><path fill="black" stroke="none" paint-order="stroke fill markers" d=" M 173.60790976803304 165.5700475007692 A 0.5 0.5 0 1 1 173.60790951803307 165.56954750085254"/><path fill="black" stroke="none" paint-order="stroke fill markers" d=" M 182.73471551767523 163.30502764691863 A 0.5 0.5 0 1 1 182.73471526767526 163.30452764700198"/><path fill="black" stroke="none" paint-order="stroke fill markers" d=" M 185.47159683640814 161.9552757564099 A 0.5 0.5 0 1 1 185.47159658640817 161.95477575649323"/><path fill="black" stroke="none" paint-order="stroke fill markers" d=" M 208.31616425358635 155.26553467313283 A 0.5 0.5 0 1 1 208.31616400358638 155.26503467321618"/><path fill="black" stroke="none" paint-order="stroke fill markers" d=" M 226.6803489012811 149.9694139106437 A 0.5 0.5 0 1 1 226.68034865128112 149.96891391072705"/><path fill="black" stroke="none" paint-order="stroke fill markers" d=" M 219.55163401603764 154.25270621117227 A 0.5 0.5 0 1 1 219.55163376603767 154.2522062112556"/><path fill="black" stroke="none" paint-order="stroke fill markers" d=" M 231.05555555555554 145.49073005368115 A 0.5 0.5 0 1 1 231.05555530555557 145.4902300537645"/><path fill="black" stroke="none" paint-order="stroke fill markers" d=" M 188.47442951225793 159.93344002963389 A 0.5 0.5 0 1 1 188.47442926225796 159.93294002971723"/><path fill="black" stroke="none" paint-order="stroke fill markers" d=" M 186.61018154953396 159.81956092422058 A 0.5 0.5 0 1 1 186.610181299534 159.81906092430393"/><path fill="black" stroke="none" paint-order="stroke fill markers" d=" M 181.723319126135 159.96289365761083 A 0.5 0.5 0 1 1 181.72331887613504 159.96239365769418"/><path fill="black" stroke="none" paint-order="stroke fill markers" d=" M 178.33673068330717 160.34305495698848 A 0.5 0.5 0 1 1 178.3367304333072 160.34255495707183"/><path fill="black" stroke="none" paint-order="stroke fill markers" d=" M 175.66286831138802 160.67907778289657 A 0.5 0.5 0 1 1 175.66286806138805 160.67857778297991"/><path fill="black" stroke="none" paint-order="stroke fill markers" d=" M 173.7778862325317 160.4100184441219 A 0.5 0.5 0 1 1 173.77788598253173 160.40951844420525"/><path fill="black" stroke="none" paint-order="stroke fill markers" d=" M 173.35485083443623 160.03816587490692 A 0.5 0.5 0 1 1 173.35485058443626 160.03766587499027"/><path fill="black" stroke="none" paint-order="stroke fill markers" d=" M 173.39485315148394 161.30376645921845 A 0.5 0.5 0 1 1 173.39485290148397 161.3032664593018"/><path fill="black" stroke="none" paint-order="stroke fill markers" d=" M 174.94089479533662 162.4007025388601 A 0.5 0.5 0 1 1 174.94089454533665 162.40020253894343"/><path fill="black" stroke="none" paint-order="stroke fill markers" d=" M 178.5219547203983 163.39568492998004 A 0.5 0.5 0 1 1 178.52195447039833 163.39518493006338"/><path fill="black" stroke="none" paint-order="stroke fill markers" d=" M 180.83047550958176 164.06314380360615 A 0.5 0.5 0 1 1 180.8304752595818 164.0626438036895"/><path fill="black" stroke="none" paint-order="stroke fill markers" d=" M 184.39712353644146 163.97061169839486 A 0.5 0.5 0 1 1 184.39712328644148 163.9701116984782"/><path fill="black" stroke="none" paint-order="stroke fill markers" d=" M 214.29441596356017 155.08761233108712 A 0.5 0.5 0 1 1 214.2944157135602 155.08711233117046"/><path fill="black" stroke="none" paint-order="stroke fill markers" d=" M 195.49175685174825 158.78771385356654 A 0.5 0.5 0 1 1 195.49175660174828 158.7872138536499"/><path fill="black" stroke="none" paint-order="stroke fill markers" d=" M 193.4990630205508 158.10601200766826 A 0.5 0.5 0 1 1 193.49906277055084 158.1055120077516"/><path fill="black" stroke="none" paint-order="stroke fill markers" d=" M 189.4980433313224 159.26117421521664 A 0.5 0.5 0 1 1 189.49804308132244 159.26067421529999"/><path fill="black" stroke="none" paint-order="stroke fill markers" d=" M 188.16929317020129 159.99560225204326 A 0.5 0.5 0 1 1 188.16929292020131 159.9951022521266"/><path fill="black" stroke="none" paint-order="stroke fill markers" d=" M 187.6347697106446 159.42519397701173 A 0.5 0.5 0 1 1 187.63476946064463 159.42469397709507"/><path fill="black" stroke="none" paint-order="stroke fill markers" d=" M 187.2103028808232 159.79573107468522 A 0.5 0.5 0 1 1 187.21030263082324 159.79523107476857"/><path fill="black" stroke="none" paint-order="stroke fill markers" d=" M 203.02368793200566 155.19700424748697 A 0.5 0.5 0 1 1 203.0236876820057 155.19650424757032"/><path fill="black" stroke="none" paint-order="stroke fill markers" d=" M 187.31612757914124 160.38715421399476 A 0.5 0.5 0 1 1 187.31612732914127 160.3866542140781"/><path fill="black" stroke="none" paint-order="stroke fill markers" d=" M 192.3276808389413 152.6512957394684 A 0.5 0.5 0 1 1 192.32768058894132 152.65079573955174"/><path fill="black" stroke="none" paint-order="stroke fill markers" d=" M 187.08575144576906 160.23994765083754 A 0.5 0.5 0 1 1 187.0857511957691 160.23944765092088"/><path fill="black" stroke="none" paint-order="stroke fill markers" d=" M 208.40934304866101 153.69451833651743 A 0.5 0.5 0 1 1 208.40934279866104 153.69401833660078"/><path fill="black" stroke="none" paint-order="stroke fill markers" d=" M 186.97577845684197 160.47337780067468 A 0.5 0.5 0 1 1 186.975778206842 160.47287780075803"/><path fill="black" stroke="none" paint-order="stroke fill markers" d=" M 186.7726956398224 160.57208839088108 A 0.5 0.5 0 1 1 186.77269538982242 160.57158839096442"/><path fill="black" stroke="none" paint-order="stroke fill markers" d=" M 187.56097210494548 160.30421380210356 A 0.5 0.5 0 1 1 187.5609718549455 160.3037138021869"/><path fill="black" stroke="none" paint-order="stroke fill markers" d=" M 191.26736484629558 159.61714411678744 A 0.5 0.5 0 1 1 191.2673645962956 159.6166441168708"/><path fill="black" stroke="none" paint-order="stroke fill markers" d=" M 217.74050823818445 149.85017109386138 A 0.5 0.5 0 1 1 217.74050798818448 149.84967109394472"/><path fill="black" stroke="none" paint-order="stroke fill markers" d=" M 193.0183602199823 159.67158688799614 A 0.5 0.5 0 1 1 193.01835996998233 159.6710868880795"/><path fill="black" stroke="none" paint-order="stroke fill markers" d=" M 200.94487635080284 159.2328248402858 A 0.5 0.5 0 1 1 200.94487610080287 159.23232484036913"/><path fill="black" stroke="none" paint-order="stroke fill markers" d=" M 189.36495026215601 160.6203414969626 A 0.5 0.5 0 1 1 189.36495001215604 160.61984149704594"/><path fill="black" stroke="none" paint-order="stroke fill markers" d=" M 185.25342932626464 161.6994213576437 A 0.5 0.5 0 1 1 185.25342907626467 161.69892135772704"/><path fill="black" stroke="none" paint-order="stroke fill markers" d=" M 180.3926422916606 163.06429669882692 A 0.5 0.5 0 1 1 180.39264204166062 163.06379669891027"/><path fill="black" stroke="none" paint-order="stroke fill markers" d=" M 178.35338694319523 163.498192121041 A 0.5 0.5 0 1 1 178.35338669319526 163.49769212112435"/><path fill="black" stroke="none" paint-order="stroke fill markers" d=" M 176.0090708228771 164.316820828648 A 0.5 0.5 0 1 1 176.00907057287714 164.31632082873134"/><path fill="black" stroke="none" paint-order="stroke fill markers" d=" M 174.34699589996097 164.79725733471705 A 0.5 0.5 0 1 1 174.346995649961 164.7967573348004"/><path fill="black" stroke="none" paint-order="stroke fill markers" d=" M 173.6941419738812 165.12669084877638 A 0.5 0.5 0 1 1 173.69414172388122 165.12619084885972"/><path fill="black" stroke="none" paint-order="stroke fill markers" d=" M 172.70324014826394 165.85084049566996 A 0.5 0.5 0 1 1 172.70323989826397 165.8503404957533"/><path fill="black" stroke="none" paint-order="stroke fill markers" d=" M 173.8477982091071 165.75830516542055 A 0.5 0.5 0 1 1 173.84779795910714 165.7578051655039"/><path fill="black" stroke="none" paint-order="stroke fill markers" d=" M 171.79562989376524 172.27671315399988 A 0.5 0.5 0 1 1 171.79562964376527 172.27621315408322"/><path fill="black" stroke="none" paint-order="stroke fill markers" d=" M 179.66562024577524 165.9104038533753 A 0.5 0.5 0 1 1 179.66561999577527 165.90990385345864"/><path fill="black" stroke="none" paint-order="stroke fill markers" d=" M 175.90404658176715 163.98756731471528 A 0.5 0.5 0 1 1 175.90404633176718 163.98706731479862"/><path fill="black" stroke="none" paint-order="stroke fill markers" d=" M 177.4390938614923 162.34280665485494 A 0.5 0.5 0 1 1 177.43909361149232 162.34230665493828"/><path fill="black" stroke="none" paint-order="stroke fill markers" d=" M 179.0799218180575 160.52336159120318 A 0.5 0.5 0 1 1 179.07992156805753 160.52286159128653"/><path fill="black" stroke="none" paint-order="stroke fill markers" d=" M 185.9961949200611 149.62198218994638 A 0.5 0.5 0 1 1 185.99619467006113 149.62148219002972"/><path fill="black" stroke="none" paint-order="stroke fill markers" d=" M 197.0822910034034 146.01133754834632 A 0.5 0.5 0 1 1 197.08229075340344 146.01083754842966"/><path fill="black" stroke="none" paint-order="stroke fill markers" d=" M 202.25863573128646 140.10133534121627 A 0.5 0.5 0 1 1 202.2586354812865 140.10083534129961"/><path fill="black" stroke="none" paint-order="stroke fill markers" d=" M 184.63802520520056 155.39808975919166 A 0.5 0.5 0 1 1 184.6380249552006 155.397589759275"/><path fill="black" stroke="none" paint-order="stroke fill markers" d=" M 197.95897286800465 143.44826096313432 A 0.5 0.5 0 1 1 197.95897261800468 143.44776096321766"/><path fill="black" stroke="none" paint-order="stroke fill markers" d=" M 178.29208776878818 143.8810607324039 A 0.5 0.5 0 1 1 178.2920875187882 143.88056073248725"/><path fill="black" stroke="none" paint-order="stroke fill markers" d=" M 182.18327900627554 155.94970853223649 A 0.5 0.5 0 1 1 182.18327875627557 155.94920853231983"/><path fill="black" stroke="none" paint-order="stroke fill markers" d=" M 182.3758715050906 156.77001511966662 A 0.5 0.5 0 1 1 182.37587125509063 156.76951511974997"/><path fill="black" stroke="none" paint-order="stroke fill markers" d=" M 184.7434478406863 157.60099064914394 A 0.5 0.5 0 1 1 184.74344759068632 157.60049064922728"/><path fill="black" stroke="none" paint-order="stroke fill markers" d=" M 186.90959656683475 157.93681016865006 A 0.5 0.5 0 1 1 186.90959631683478 157.9363101687334"/><path fill="black" stroke="none" paint-order="stroke fill markers" d=" M 188.48311054771716 158.19076291294937 A 0.5 0.5 0 1 1 188.4831102977172 158.1902629130327"/><path fill="black" stroke="none" paint-order="stroke fill markers" d=" M 215.5124256946546 151.5047907381997 A 0.5 0.5 0 1 1 215.51242544465464 151.50429073828303"/><path fill="black" stroke="none" paint-order="stroke fill markers" d=" M 195.36482238735235 159.1896234338871 A 0.5 0.5 0 1 1 195.36482213735238 159.18912343397045"/><path fill="black" stroke="none" paint-order="stroke fill markers" d=" M 193.78774706890073 158.74613752236715 A 0.5 0.5 0 1 1 193.78774681890076 158.7456375224505"/><path fill="black" stroke="none" paint-order="stroke fill markers" d=" M 200.41481666911415 152.997169809763 A 0.5 0.5 0 1 1 200.41481641911417 152.99666980984634"/><path fill="black" stroke="none" paint-order="stroke fill markers" d=" M 194.33211079617033 153.9653169598407 A 0.5 0.5 0 1 1 194.33211054617036 153.96481695992404"/><path fill="black" stroke="none" paint-order="stroke fill markers" d=" M 174.23014895724606 162.45103308548528 A 0.5 0.5 0 1 1 174.2301487072461 162.45053308556862"/><path fill="black" stroke="none" paint-order="stroke fill markers" d=" M 171.63794495961213 163.27448490207442 A 0.5 0.5 0 1 1 171.63794470961216 163.27398490215776"/><path fill="black" stroke="none" paint-order="stroke fill markers" d=" M 170.90721080259544 162.97350129813373 A 0.5 0.5 0 1 1 170.90721055259547 162.97300129821707"/><path fill="black" stroke="none" paint-order="stroke fill markers" d=" M 169.9539704519339 163.6815137788764 A 0.5 0.5 0 1 1 169.95397020193394 163.68101377895974"/><path fill="black" stroke="none" paint-order="stroke fill markers" d=" M 169.544042815755 165.8450746865504 A 0.5 0.5 0 1 1 169.54404256575503 165.84457468663373"/><path fill="black" stroke="none" paint-order="stroke fill markers" d=" M 170.55329646185416 165.91598097626564 A 0.5 0.5 0 1 1 170.5532962118542 165.915480976349"/><path fill="black" stroke="none" paint-order="stroke fill markers" d=" M 172.4453663655122 166.3433392032467 A 0.5 0.5 0 1 1 172.44536611551223 166.34283920333004"/><path fill="black" stroke="none" paint-order="stroke fill markers" d=" M 172.66943825639083 167.13909432811604 A 0.5 0.5 0 1 1 172.66943800639086 167.1385943281994"/><path fill="black" stroke="none" paint-order="stroke fill markers" d=" M 175.14672675365654 168.79855187361125 A 0.5 0.5 0 1 1 175.14672650365657 168.7980518736946"/><path fill="black" stroke="none" paint-order="stroke fill markers" d=" M 180.42406482264846 174.78173079728035 A 0.5 0.5 0 1 1 180.4240645726485 174.7812307973637"/><path fill="black" stroke="none" paint-order="stroke fill markers" d=" M 180.31637067889852 176.9278194160297 A 0.5 0.5 0 1 1 180.31637042889855 176.92731941611305"/><path fill="black" stroke="none" paint-order="stroke fill markers" d=" M 176.00767093987707 170.7185319530239 A 0.5 0.5 0 1 1 176.0076706898771 170.71803195310724"/><path fill="black" stroke="none" paint-order="stroke fill markers" d=" M 175.87866233017667 170.23571124078688 A 0.5 0.5 0 1 1 175.8786620801767 170.23521124087023"/><path fill="black" stroke="none" paint-order="stroke fill markers" d=" M 173.21682075651344 168.8094843227716 A 0.5 0.5 0 1 1 173.21682050651347 168.80898432285494"/><path fill="black" stroke="none" paint-order="stroke fill markers" d=" M 171.26399497685588 168.11513946750372 A 0.5 0.5 0 1 1 171.2639947268559 168.11463946758707"/><path fill="black" stroke="none" paint-order="stroke fill markers" d=" M 168.591075398257 167.09826577575117 A 0.5 0.5 0 1 1 168.59107514825703 167.09776577583452"/><path fill="black" stroke="none" paint-order="stroke fill markers" d=" M 167.92671829313326 165.86998784788443 A 0.5 0.5 0 1 1 167.9267180431333 165.86948784796778"/><path fill="black" stroke="none" paint-order="stroke fill markers" d=" M 167.13722766062043 165.47034871588787 A 0.5 0.5 0 1 1 167.13722741062045 165.4698487159712"/><path fill="black" stroke="none" paint-order="stroke fill markers" d=" M 129.49318988747513 160.76898014903907 A 0.5 0.5 0 1 1 129.49318963747515 160.7684801491224"/><path fill="black" stroke="none" paint-order="stroke fill markers" d=" M 168.09206773344977 164.7631654999425 A 0.5 0.5 0 1 1 168.0920674834498 164.76266550002583"/><path fill="black" stroke="none" paint-order="stroke fill markers" d=" M 178.2229190214995 164.23055768150067 A 0.5 0.5 0 1 1 178.22291877149954 164.23005768158401"/><path fill="black" stroke="none" paint-order="stroke fill markers" d=" M 171.17239912076053 165.55592845596115 A 0.5 0.5 0 1 1 171.17239887076056 165.5554284560445"/><path fill="black" stroke="none" paint-order="stroke fill markers" d=" M 172.45139840853352 166.20689629075554 A 0.5 0.5 0 1 1 172.45139815853355 166.20639629083888"/><path fill="black" stroke="none" paint-order="stroke fill markers" d=" M 174.0678065507218 166.1631653653509 A 0.5 0.5 0 1 1 174.06780630072183 166.16266536543424"/><path fill="black" stroke="none" paint-order="stroke fill markers" d=" M 175.40745789717536 166.14461546488246 A 0.5 0.5 0 1 1 175.4074576471754 166.1441154649658"/><path fill="black" stroke="none" paint-order="stroke fill markers" d=" M 174.72012781691794 167.1368426495138 A 0.5 0.5 0 1 1 174.72012756691797 167.13634264959714"/><path fill="black" stroke="none" paint-order="stroke fill markers" d=" M 175.46469315547282 170.1539373466774 A 0.5 0.5 0 1 1 175.46469290547284 170.15343734676074"/><path fill="black" stroke="none" paint-order="stroke fill markers" d=" M 172.91597357379544 175.41989342478888 A 0.5 0.5 0 1 1 172.91597332379547 175.41939342487223"/><path fill="black" stroke="none" paint-order="stroke fill markers" d=" M 172.78692607845613 176.83904297518933 A 0.5 0.5 0 1 1 172.78692582845616 176.83854297527267"/><path fill="black" stroke="none" paint-order="stroke fill markers" d=" M 173.93841422047157 198.77351267778818 A 0.5 0.5 0 1 1 173.9384139704716 198.77301267787152"/><path fill="black" stroke="none" paint-order="stroke fill markers" d=" M 158.31532594802707 205.7131892259028 A 0.5 0.5 0 1 1 158.3153256980271 205.71268922598614"/><path fill="black" stroke="none" paint-order="stroke fill markers" d=" M 170.75008274013885 181.13073585496568 A 0.5 0.5 0 1 1 170.75008249013888 181.13023585504902"/><path fill="black" stroke="none" paint-order="stroke fill markers" d=" M 153.24564746238292 180.26513218837772 A 0.5 0.5 0 1 1 153.24564721238295 180.26463218846106"/><path fill="black" stroke="none" paint-order="stroke fill markers" d=" M 170.58963802616154 184.17832290037808 A 0.5 0.5 0 1 1 170.58963777616157 184.17782290046142"/><path fill="black" stroke="none" paint-order="stroke fill markers" d=" M 171.07895399574406 185.7132786669595 A 0.5 0.5 0 1 1 171.0789537457441 185.71277866704284"/><path fill="black" stroke="none" paint-order="stroke fill markers" d=" M 174.13791002072642 207.13345541349565 A 0.5 0.5 0 1 1 174.13790977072645 207.132955413579"/><path fill="black" stroke="none" paint-order="stroke fill markers" d=" M 170.03554298433704 185.7653168497594 A 0.5 0.5 0 1 1 170.03554273433707 185.76481684984273"/><path fill="black" stroke="none" paint-order="stroke fill markers" d=" M 169.1804476017357 186.32710988700705 A 0.5 0.5 0 1 1 169.18044735173572 186.3266098870904"/><path fill="black" stroke="none" paint-order="stroke fill markers" d=" M 168.3751043764423 184.56960825917983 A 0.5 0.5 0 1 1 168.37510412644232 184.56910825926317"/><path fill="black" stroke="none" paint-order="stroke fill markers" d=" M 168.1952311500006 183.69017562921096 A 0.5 0.5 0 1 1 168.19523090000064 183.6896756292943"/><path fill="black" stroke="none" paint-order="stroke fill markers" d=" M 143.2254947839558 187.78518074523942 A 0.5 0.5 0 1 1 143.22549453395584 187.78468074532276"/><path fill="black" stroke="none" paint-order="stroke fill markers" d=" M 168.69391268902507 197.53389540845393 A 0.5 0.5 0 1 1 168.6939124390251 197.53339540853727"/><path fill="black" stroke="none" paint-order="stroke fill markers" d=" M 169.05395573661642 182.54414260151836 A 0.5 0.5 0 1 1 169.05395548661645 182.5436426016017"/><path fill="black" stroke="none" paint-order="stroke fill markers" d=" M 170.09928498392674 200.65680558376388 A 0.5 0.5 0 1 1 170.09928473392677 200.65630558384723"/><path fill="black" stroke="none" paint-order="stroke fill markers" d=" M 172.0970831054969 185.58444364085096 A 0.5 0.5 0 1 1 172.09708285549692 185.5839436409343"/><path fill="black" stroke="none" paint-order="stroke fill markers" d=" M 172.09141423966898 184.99967938821217 A 0.5 0.5 0 1 1 172.091413989669 184.99917938829552"/><path fill="black" stroke="none" paint-order="stroke fill markers" d=" M 171.0342443153168 183.80405748665677 A 0.5 0.5 0 1 1 171.03424406531684 183.80355748674012"/><path fill="black" stroke="none" paint-order="stroke fill markers" d=" M 167.97389675307295 184.59595071440012 A 0.5 0.5 0 1 1 167.97389650307298 184.59545071448346"/><path fill="black" stroke="none" paint-order="stroke fill markers" d=" M 166.70709946811107 184.3342337983718 A 0.5 0.5 0 1 1 166.7070992181111 184.33373379845514"/><path fill="black" stroke="none" paint-order="stroke fill markers" d=" M 165.03951518270924 183.4466400159838 A 0.5 0.5 0 1 1 165.03951493270927 183.44614001606715"/><path fill="black" stroke="none" paint-order="stroke fill markers" d=" M 140.602247573736 196.3971105860233 A 0.5 0.5 0 1 1 140.60224732373604 196.39661058610665"/><path fill="black" stroke="none" paint-order="stroke fill markers" d=" M 162.1088459986111 180.11252648143287 A 0.5 0.5 0 1 1 162.10884574861112 180.1120264815162"/><path fill="black" stroke="none" paint-order="stroke fill markers" d=" M 161.9566450400783 177.8413800011999 A 0.5 0.5 0 1 1 161.95664479007834 177.84088000128324"/><path fill="black" stroke="none" paint-order="stroke fill markers" d=" M 161.24529280612848 176.5035213632028 A 0.5 0.5 0 1 1 161.2452925561285 176.50302136328614"/><path fill="black" stroke="none" paint-order="stroke fill markers" d=" M 143.58835649009814 181.64190525412545 A 0.5 0.5 0 1 1 143.58835624009816 181.6414052542088"/><path fill="black" stroke="none" paint-order="stroke fill markers" d=" M 161.22948909553077 172.0241316099005 A 0.5 0.5 0 1 1 161.2294888455308 172.02363160998385"/><path fill="black" stroke="none" paint-order="stroke fill markers" d=" M 160.89173760727846 170.40332446903662 A 0.5 0.5 0 1 1 160.8917373572785 170.40282446911996"/><path fill="black" stroke="none" paint-order="stroke fill markers" d=" M 160.7328145690569 169.70406087165676 A 0.5 0.5 0 1 1 160.73281431905693 169.7035608717401"/><path fill="black" stroke="none" paint-order="stroke fill markers" d=" M 159.51117453341104 169.3598748293052 A 0.5 0.5 0 1 1 159.51117428341107 169.35937482938854"/><path fill="black" stroke="none" paint-order="stroke fill markers" d=" M 159.61508062898008 169.352934891314 A 0.5 0.5 0 1 1 159.6150803789801 169.35243489139734"/><path fill="black" stroke="none" paint-order="stroke fill markers" d=" M 142.09992575448842 169.14982594770368 A 0.5 0.5 0 1 1 142.09992550448845 169.14932594778702"/><path fill="black" stroke="none" paint-order="stroke fill markers" d=" M 124.44743927619137 171.0189400381652 A 0.5 0.5 0 1 1 124.44743902619139 171.01844003824854"/><path fill="black" stroke="none" paint-order="stroke fill markers" d=" M 135.37116067059225 178.32960295326114 A 0.5 0.5 0 1 1 135.37116042059228 178.3291029533445"/><path fill="black" stroke="none" paint-order="stroke fill markers" d=" M 163.64836622734546 166.2828562689271 A 0.5 0.5 0 1 1 163.6483659773455 166.28235626901045"/><path fill="black" stroke="none" paint-order="stroke fill markers" d=" M 164.0302351237233 163.91515411519677 A 0.5 0.5 0 1 1 164.03023487372332 163.91465411528011"/><path fill="black" stroke="none" paint-order="stroke fill markers" d=" M 166.7025339593588 161.30744179864038 A 0.5 0.5 0 1 1 166.70253370935882 161.30694179872373"/><path fill="black" stroke="none" paint-order="stroke fill markers" d=" M 165.42473503067603 160.49473976505348 A 0.5 0.5 0 1 1 165.42473478067606 160.49423976513683"/><path fill="black" stroke="none" paint-order="stroke fill markers" d=" M 155.32696459937455 151.58339291483725 A 0.5 0.5 0 1 1 155.32696434937458 151.5828929149206"/><path fill="black" stroke="none" paint-order="stroke fill markers" d=" M 160.84134181927774 161.72927059029448 A 0.5 0.5 0 1 1 160.84134156927777 161.72877059037782"/><path fill="black" stroke="none" paint-order="stroke fill markers" d=" M 158.12522139640967 162.31544938764526 A 0.5 0.5 0 1 1 158.1252211464097 162.3149493877286"/><path fill="black" stroke="none" paint-order="stroke fill markers" d=" M 155.92972134981267 165.2178251794738 A 0.5 0.5 0 1 1 155.9297210998127 165.21732517955715"/><path fill="black" stroke="none" paint-order="stroke fill markers" d=" M 135.45741341979678 161.4227488649242 A 0.5 0.5 0 1 1 135.4574131697968 161.42224886500753"/><path fill="black" stroke="none" paint-order="stroke fill markers" d=" M 154.53752743461519 171.1802160235442 A 0.5 0.5 0 1 1 154.53752718461521 171.17971602362755"/><path fill="black" stroke="none" paint-order="stroke fill markers" d=" M 153.68182694011432 173.80721337994177 A 0.5 0.5 0 1 1 153.68182669011435 173.80671338002512"/><path fill="black" stroke="none" paint-order="stroke fill markers" d=" M 147.98830028023667 173.95167375865447 A 0.5 0.5 0 1 1 147.9883000302367 173.9511737587378"/><path fill="black" stroke="none" paint-order="stroke fill markers" d=" M 101.16718542183521 167.0335845835817 A 0.5 0.5 0 1 1 101.16718517183523 167.03308458366504"/><path fill="black" stroke="none" paint-order="stroke fill markers" d=" M 99.15248085164377 164.78028529220256 A 0.5 0.5 0 1 1 99.15248060164379 164.7797852922859"/><path fill="black" stroke="none" paint-order="stroke fill markers" d=" M 146.69952162112867 167.70858755233678 A 0.5 0.5 0 1 1 146.6995213711287 167.70808755242012"/><path fill="black" stroke="none" paint-order="stroke fill markers" d=" M 150.19314535291923 165.2846337787773 A 0.5 0.5 0 1 1 150.19314510291926 165.28413377886065"/><path fill="black" stroke="none" paint-order="stroke fill markers" d=" M 150.68255266706856 163.6947269749824 A 0.5 0.5 0 1 1 150.6825524170686 163.69422697506573"/><path fill="black" stroke="none" paint-order="stroke fill markers" d=" M 150.7610855164166 162.67728215048226 A 0.5 0.5 0 1 1 150.76108526641664 162.6767821505656"/><path fill="black" stroke="none" paint-order="stroke fill markers" d=" M 142.48861632914895 167.04764084764804 A 0.5 0.5 0 1 1 142.48861607914898 167.04714084773138"/><path fill="black" stroke="none" paint-order="stroke fill markers" d=" M 149.80548047869584 161.8723976092543 A 0.5 0.5 0 1 1 149.80548022869587 161.87189760933765"/><path fill="black" stroke="none" paint-order="stroke fill markers" d=" M 147.65819495586524 162.37053751047836 A 0.5 0.5 0 1 1 147.65819470586527 162.3700375105617"/><path fill="black" stroke="none" paint-order="stroke fill markers" d=" M 139.80802087217154 142.0359839259285 A 0.5 0.5 0 1 1 139.80802062217157 142.03548392601184"/><path fill="black" stroke="none" paint-order="stroke fill markers" d=" M 117.23194925353792 159.21316913606543 A 0.5 0.5 0 1 1 117.23194900353793 159.21266913614878"/><path fill="black" stroke="none" paint-order="stroke fill markers" d=" M 140.29386538136905 172.5214686056387 A 0.5 0.5 0 1 1 140.29386513136907 172.52096860572203"/><path fill="black" stroke="none" paint-order="stroke fill markers" d=" M 116.24083795905457 177.9410888912006 A 0.5 0.5 0 1 1 116.24083770905459 177.94058889128394"/><path fill="black" stroke="none" paint-order="stroke fill markers" d=" M 143.88660934038006 173.30366779885284 A 0.5 0.5 0 1 1 143.8866090903801 173.3031677989362"/><path fill="black" stroke="none" paint-order="stroke fill markers" d=" M 130.07869021854196 191.27846496029645 A 0.5 0.5 0 1 1 130.078689968542 191.2779649603798"/><path fill="black" stroke="none" paint-order="stroke fill markers" d=" M 143.64102085159783 171.5557019636853 A 0.5 0.5 0 1 1 143.64102060159786 171.55520196376864"/><path fill="black" stroke="none" paint-order="stroke fill markers" d=" M 146.34949364320244 168.577696792341 A 0.5 0.5 0 1 1 146.34949339320247 168.57719679242433"/><path fill="black" stroke="none" paint-order="stroke fill markers" d=" M 146.64954110240367 168.15141762010833 A 0.5 0.5 0 1 1 146.6495408524037 168.15091762019168"/><path fill="black" stroke="none" paint-order="stroke fill markers" d=" M 148.05621514909402 168.03532020448702 A 0.5 0.5 0 1 1 148.05621489909404 168.03482020457037"/><path fill="black" stroke="none" paint-order="stroke fill markers" d=" M 137.58023767469203 168.63560351247415 A 0.5 0.5 0 1 1 137.58023742469206 168.6351035125575"/><path fill="black" stroke="none" paint-order="stroke fill markers" d=" M 132.58633849494777 177.88199449703578 A 0.5 0.5 0 1 1 132.5863382449478 177.88149449711912"/><path fill="black" stroke="none" paint-order="stroke fill markers" d=" M 153.0360406623255 168.13229546619155 A 0.5 0.5 0 1 1 153.03604041232552 168.1317954662749"/><path fill="black" stroke="none" paint-order="stroke fill markers" d=" M 155.128147463572 167.27669887783122 A 0.5 0.5 0 1 1 155.12814721357202 167.27619887791457"/><path fill="black" stroke="none" paint-order="stroke fill markers" d=" M 157.0496629670106 166.60368442456928 A 0.5 0.5 0 1 1 157.04966271701062 166.60318442465262"/><path fill="black" stroke="none" paint-order="stroke fill markers" d=" M 158.91467543606893 167.1660087760941 A 0.5 0.5 0 1 1 158.91467518606896 167.16550877617743"/><path fill="black" stroke="none" paint-order="stroke fill markers" d=" M 143.9872585802693 147.265890098132 A 0.5 0.5 0 1 1 143.98725833026933 147.26539009821533"/><path fill="black" stroke="none" paint-order="stroke fill markers" d=" M 162.61356911864377 169.08645248698426 A 0.5 0.5 0 1 1 162.6135688686438 169.0859524870676"/><path fill="black" stroke="none" paint-order="stroke fill markers" d=" M 163.7340800802903 171.096750661451 A 0.5 0.5 0 1 1 163.73407983029034 171.09625066153436"/><path fill="black" stroke="none" paint-order="stroke fill markers" d=" M 165.3618059610465 176.7902721429912 A 0.5 0.5 0 1 1 165.36180571104654 176.78977214307454"/><path fill="black" stroke="none" paint-order="stroke fill markers" d=" M 165.75770982172102 196.2936781960317 A 0.5 0.5 0 1 1 165.75770957172105 196.29317819611504"/><path fill="black" stroke="none" paint-order="stroke fill markers" d=" M 162.06372398367336 228.08914548840045 A 0.5 0.5 0 1 1 162.06372373367338 228.0886454884838"/><path fill="black" stroke="none" paint-order="stroke fill markers" d=" M 165.00079535805355 195.9746846033138 A 0.5 0.5 0 1 1 165.00079510805358 195.97418460339713"/><path fill="black" stroke="none" paint-order="stroke fill markers" d=" M 160.27987097881635 181.93610028186316 A 0.5 0.5 0 1 1 160.27987072881638 181.9356002819465"/><path fill="black" stroke="none" paint-order="stroke fill markers" d=" M 144.03199760834852 181.65369771344626 A 0.5 0.5 0 1 1 144.03199735834855 181.6531977135296"/><path fill="black" stroke="none" paint-order="stroke fill markers" d=" M 137.03224657763622 176.6272128405434 A 0.5 0.5 0 1 1 137.03224632763624 176.62671284062674"/><path fill="black" stroke="none" paint-order="stroke fill markers" d=" M 135.58800166686567 177.27816829119146 A 0.5 0.5 0 1 1 135.5880014168657 177.2776682912748"/><path fill="black" stroke="none" paint-order="stroke fill markers" d=" M 148.35512978892837 180.37603909867633 A 0.5 0.5 0 1 1 148.3551295389284 180.37553909875967"/><path fill="black" stroke="none" paint-order="stroke fill markers" d=" M 126.74393119651461 195.233295300244 A 0.5 0.5 0 1 1 126.74393094651462 195.23279530032735"/><path fill="black" stroke="none" paint-order="stroke fill markers" d=" M 146.07977111280456 177.5715205089719 A 0.5 0.5 0 1 1 146.0797708628046 177.57102050905524"/><path fill="black" stroke="none" paint-order="stroke fill markers" d=" M 151.21486918319545 170.78220332126293 A 0.5 0.5 0 1 1 151.21486893319548 170.78170332134627"/><path fill="black" stroke="none" paint-order="stroke fill markers" d=" M 151.59221835774366 169.60108944711118 A 0.5 0.5 0 1 1 151.5922181077437 169.60058944719452"/><path fill="black" stroke="none" paint-order="stroke fill markers" d=" M 152.20994681284552 168.57064488102688 A 0.5 0.5 0 1 1 152.20994656284554 168.57014488111022"/><path fill="black" stroke="none" paint-order="stroke fill markers" d=" M 153.4984041151642 169.86063432147813 A 0.5 0.5 0 1 1 153.49840386516422 169.86013432156147"/><path fill="black" stroke="none" paint-order="stroke fill markers" d=" M 154.13605962596864 169.23017360096298 A 0.5 0.5 0 1 1 154.13605937596867 169.22967360104633"/><path fill="black" stroke="none" paint-order="stroke fill markers" d=" M 154.67884224848717 169.03323746628072 A 0.5 0.5 0 1 1 154.6788419984872 169.03273746636407"/><path fill="black" stroke="none" paint-order="stroke fill markers" d=" M 153.54113869861237 169.4918399483939 A 0.5 0.5 0 1 1 153.5411384486124 169.49133994847725"/><path fill="black" stroke="none" paint-order="stroke fill markers" d=" M 153.38343028633767 169.7256330225188 A 0.5 0.5 0 1 1 153.3834300363377 169.72513302260214"/><path fill="black" stroke="none" paint-order="stroke fill markers" d=" M 127.70236681527003 159.89713934476308 A 0.5 0.5 0 1 1 127.70236656527004 159.89663934484642"/><path fill="black" stroke="none" paint-order="stroke fill markers" d=" M 143.22481098366438 171.24922564685147 A 0.5 0.5 0 1 1 143.2248107336644 171.24872564693482"/><path fill="black" stroke="none" paint-order="stroke fill markers" d=" M 164.5900410352026 166.3978666639559 A 0.5 0.5 0 1 1 164.59004078520263 166.39736666403925"/><path fill="black" stroke="none" paint-order="stroke fill markers" d=" M 168.46483353844812 165.01899194837847 A 0.5 0.5 0 1 1 168.46483328844815 165.01849194846181"/><path fill="black" stroke="none" paint-order="stroke fill markers" d=" M 173.54424810764064 164.19990158731733 A 0.5 0.5 0 1 1 173.54424785764067 164.19940158740067"/><path fill="black" stroke="none" paint-order="stroke fill markers" d=" M 179.62180126658598 163.77905183122996 A 0.5 0.5 0 1 1 179.621801016586 163.7785518313133"/><path fill="black" stroke="none" paint-order="stroke fill markers" d=" M 204.5010135161016 160.87939719755025 A 0.5 0.5 0 1 1 204.50101326610164 160.8788971976336"/><path fill="black" stroke="none" paint-order="stroke fill markers" d=" M 182.9172109568224 164.73135114407495 A 0.5 0.5 0 1 1 182.91721070682243 164.7308511441583"/><path fill="black" stroke="none" paint-order="stroke fill markers" d=" M 180.2690666660352 165.39441768780833 A 0.5 0.5 0 1 1 180.26906641603523 165.39391768789167"/><path fill="black" stroke="none" paint-order="stroke fill markers" d=" M 176.79675079697344 166.20319358151025 A 0.5 0.5 0 1 1 176.79675054697347 166.2026935815936"/><path fill="black" stroke="none" paint-order="stroke fill markers" d=" M 174.23210864670781 167.70188566515802 A 0.5 0.5 0 1 1 174.23210839670784 167.70138566524136"/><path fill="black" stroke="none" paint-order="stroke fill markers" d=" M 172.7125873754234 169.53688831261329 A 0.5 0.5 0 1 1 172.71258712542343 169.53638831269663"/><path fill="black" stroke="none" paint-order="stroke fill markers" d=" M 170.72256344686593 178.32790770123276 A 0.5 0.5 0 1 1 170.72256319686596 178.3274077013161"/><path fill="black" stroke="none" paint-order="stroke fill markers" d=" M 168.93043422072435 177.42476493514286 A 0.5 0.5 0 1 1 168.93043397072438 177.4242649352262"/><path fill="black" stroke="none" paint-order="stroke fill markers" d=" M 170.86899685809098 174.2056423271407 A 0.5 0.5 0 1 1 170.868996608091 174.20514232722405"/><path fill="black" stroke="none" paint-order="stroke fill markers" d=" M 171.38966235637702 174.73546087462896 A 0.5 0.5 0 1 1 171.38966210637705 174.7349608747123"/><path fill="black" stroke="none" paint-order="stroke fill markers" d=" M 173.0975159479442 190.61415183183541 A 0.5 0.5 0 1 1 173.09751569794423 190.61365183191876"/><path fill="black" stroke="none" paint-order="stroke fill markers" d=" M 174.20110285237826 191.22998240350412 A 0.5 0.5 0 1 1 174.20110260237828 191.22948240358747"/><path fill="black" stroke="none" paint-order="stroke fill markers" d=" M 175.07396145161624 174.5808248556972 A 0.5 0.5 0 1 1 175.07396120161627 174.58032485578053"/><path fill="black" stroke="none" paint-order="stroke fill markers" d=" M 176.78778729036378 174.14006758441448 A 0.5 0.5 0 1 1 176.7877870403638 174.13956758449783"/><path fill="black" stroke="none" paint-order="stroke fill markers" d=" M 178.76376249791264 173.04715979236465 A 0.5 0.5 0 1 1 178.76376224791267 173.046659792448"/><path fill="black" stroke="none" paint-order="stroke fill markers" d=" M 192.89292248583803 174.08417449207113 A 0.5 0.5 0 1 1 192.89292223583806 174.08367449215447"/><path fill="black" stroke="none" paint-order="stroke fill markers" d=" M 183.44531315012324 167.92280713921267 A 0.5 0.5 0 1 1 183.44531290012327 167.922307139296"/><path fill="black" stroke="none" paint-order="stroke fill markers" d=" M 175.73045815499955 160.6283653917601 A 0.5 0.5 0 1 1 175.73045790499958 160.62786539184344"/><path fill="black" stroke="none" paint-order="stroke fill markers" d=" M 172.0984499723884 158.41678871930864 A 0.5 0.5 0 1 1 172.09844972238844 158.41628871939199"/><path fill="black" stroke="none" paint-order="stroke fill markers" d=" M 167.2010530717398 155.0536439937716 A 0.5 0.5 0 1 1 167.20105282173984 155.05314399385495"/><path fill="black" stroke="none" paint-order="stroke fill markers" d=" M 162.001046203314 140.32306935287056 A 0.5 0.5 0 1 1 162.00104595331402 140.3225693529539"/><path fill="black" stroke="none" paint-order="stroke fill markers" d=" M 166.2278347884696 152.48365843093416 A 0.5 0.5 0 1 1 166.22783453846964 152.4831584310175"/><path fill="black" stroke="none" paint-order="stroke fill markers" d=" M 167.460517267951 153.3473356747626 A 0.5 0.5 0 1 1 167.46051701795102 153.34683567484595"/><path fill="black" stroke="none" paint-order="stroke fill markers" d=" M 166.37452462480394 154.17069701828285 A 0.5 0.5 0 1 1 166.37452437480397 154.1701970183662"/><path fill="black" stroke="none" paint-order="stroke fill markers" d=" M 165.45434846234141 154.55603385880642 A 0.5 0.5 0 1 1 165.45434821234144 154.55553385888976"/><path fill="black" stroke="none" paint-order="stroke fill markers" d=" M 156.76956604163354 157.6679489762164 A 0.5 0.5 0 1 1 156.76956579163357 157.66744897629974"/><path fill="black" stroke="none" paint-order="stroke fill markers" d=" M 160.6287250506629 156.29571401208364 A 0.5 0.5 0 1 1 160.62872480066292 156.29521401216698"/><path fill="black" stroke="none" paint-order="stroke fill markers" d=" M 118.53869161043025 140.47123052730595 A 0.5 0.5 0 1 1 118.53869136043026 140.4707305273893"/><path fill="black" stroke="none" paint-order="stroke fill markers" d=" M 154.91391914201714 149.1676849186967 A 0.5 0.5 0 1 1 154.91391889201716 149.16718491878004"/><path fill="black" stroke="none" paint-order="stroke fill markers" d=" M 160.23640270406838 156.92638973513888 A 0.5 0.5 0 1 1 160.2364024540684 156.92588973522223"/><path fill="black" stroke="none" paint-order="stroke fill markers" d=" M 162.3694703900458 156.90242090796158 A 0.5 0.5 0 1 1 162.36947014004582 156.90192090804493"/><path fill="black" stroke="none" paint-order="stroke fill markers" d=" M 163.8719492963956 159.1491616758557 A 0.5 0.5 0 1 1 163.87194904639563 159.14866167593905"/><path fill="black" stroke="none" paint-order="stroke fill markers" d=" M 154.3465512577336 154.92010643210543 A 0.5 0.5 0 1 1 154.34655100773364 154.91960643218877"/><path fill="black" stroke="none" paint-order="stroke fill markers" d=" M 166.09864264130496 160.87864692468622 A 0.5 0.5 0 1 1 166.098642391305 160.87814692476957"/><path fill="black" stroke="none" paint-order="stroke fill markers" d=" M 167.02196961812663 162.22341178827622 A 0.5 0.5 0 1 1 167.02196936812666 162.22291178835957"/><path fill="black" stroke="none" paint-order="stroke fill markers" d=" M 167.4366959622519 162.93814800045573 A 0.5 0.5 0 1 1 167.43669571225192 162.93764800053907"/><path fill="black" stroke="none" paint-order="stroke fill markers" d=" M 168.1720892424451 163.5379006821738 A 0.5 0.5 0 1 1 168.17208899244514 163.53740068225716"/><path fill="black" stroke="none" paint-order="stroke fill markers" d=" M 168.791464834515 163.6912334417084 A 0.5 0.5 0 1 1 168.79146458451504 163.69073344179174"/><path fill="black" stroke="none" paint-order="stroke fill markers" d=" M 169.38933960304428 163.60002076408531 A 0.5 0.5 0 1 1 169.3893393530443 163.59952076416866"/><path fill="black" stroke="none" paint-order="stroke fill markers" d=" M 169.19691475269124 163.350424143251 A 0.5 0.5 0 1 1 169.19691450269127 163.34992414333433"/><path fill="black" stroke="none" paint-order="stroke fill markers" d=" M 168.92406522997362 163.87692373952783 A 0.5 0.5 0 1 1 168.92406497997365 163.87642373961117"/><path fill="black" stroke="none" paint-order="stroke fill markers" d=" M 168.76644137562118 164.1350353209613 A 0.5 0.5 0 1 1 168.7664411256212 164.13453532104464"/><path fill="black" stroke="none" paint-order="stroke fill markers" d=" M 168.2408493236798 164.18727956219567 A 0.5 0.5 0 1 1 168.24084907367984 164.186779562279"/><path fill="black" stroke="none" paint-order="stroke fill markers" d=" M 168.39455489964567 167.14520126026576 A 0.5 0.5 0 1 1 168.3945546496457 167.1447012603491"/><path fill="black" stroke="none" paint-order="stroke fill markers" d=" M 168.5455080327003 169.73146664343952 A 0.5 0.5 0 1 1 168.54550778270033 169.73096664352286"/><path fill="black" stroke="none" paint-order="stroke fill markers" d=" M 168.61004406969923 172.19403177716904 A 0.5 0.5 0 1 1 168.61004381969926 172.1935317772524"/><path fill="black" stroke="none" paint-order="stroke fill markers" d=" M 168.81599708708362 175.63925518441644 A 0.5 0.5 0 1 1 168.81599683708365 175.6387551844998"/><path fill="black" stroke="none" paint-order="stroke fill markers" d=" M 169.64441765509812 178.97041234803964 A 0.5 0.5 0 1 1 169.64441740509815 178.969912348123"/><path fill="black" stroke="none" paint-order="stroke fill markers" d=" M 170.46792707697458 183.0649331063457 A 0.5 0.5 0 1 1 170.4679268269746 183.06443310642905"/><path fill="black" stroke="none" paint-order="stroke fill markers" d=" M 170.00182583380905 182.42883381521423 A 0.5 0.5 0 1 1 170.00182558380908 182.42833381529758"/><path fill="black" stroke="none" paint-order="stroke fill markers" d=" M 155.97138401027183 170.85518997555644 A 0.5 0.5 0 1 1 155.97138376027186 170.8546899756398"/><path fill="black" stroke="none" paint-order="stroke fill markers" d=" M 163.4821811126385 168.14675997708108 A 0.5 0.5 0 1 1 163.48218086263853 168.14625997716442"/><path fill="black" stroke="none" paint-order="stroke fill markers" d=" M 158.1695664322609 168.8373147675716 A 0.5 0.5 0 1 1 158.16956618226092 168.83681476765494"/><path fill="black" stroke="none" paint-order="stroke fill markers" d=" M 151.80295064025495 164.91223045905554 A 0.5 0.5 0 1 1 151.80295039025498 164.91173045913888"/><path fill="black" stroke="none" paint-order="stroke fill markers" d=" M 128.92444413093057 141.2666092042278 A 0.5 0.5 0 1 1 128.9244438809306 141.26610920431114"/><path fill="black" stroke="none" paint-order="stroke fill markers" d=" M 141.6733576327844 144.26909731682335 A 0.5 0.5 0 1 1 141.67335738278442 144.2685973169067"/><path fill="black" stroke="none" paint-order="stroke fill markers" d=" M 140.27456930018428 141.77314005258583 A 0.5 0.5 0 1 1 140.2745690501843 141.77264005266917"/><path fill="black" stroke="none" paint-order="stroke fill markers" d=" M 114.96679769077697 140.47080946633136 A 0.5 0.5 0 1 1 114.96679744077699 140.4703094664147"/><path fill="black" stroke="none" paint-order="stroke fill markers" d=" M 140.97974935607456 154.8289088906612 A 0.5 0.5 0 1 1 140.9797491060746 154.82840889074456"/><path fill="black" stroke="none" paint-order="stroke fill markers" d=" M 146.46952260508462 156.36103419180236 A 0.5 0.5 0 1 1 146.46952235508465 156.3605341918857"/><path fill="black" stroke="none" paint-order="stroke fill markers" d=" M 154.08030348933158 157.3000902941868 A 0.5 0.5 0 1 1 154.0803032393316 157.29959029427013"/><path fill="black" stroke="none" paint-order="stroke fill markers" d=" M 158.5925115863265 161.8938104862346 A 0.5 0.5 0 1 1 158.59251133632654 161.89331048631794"/></g></g></g><g/><g/><g/></g></g></svg>