<?xml version="1.0" encoding="utf-8"?>
<!-- Generator: Adobe Illustrator 24.0.3, SVG Export Plug-In . SVG Version: 6.00 Build 0)  -->
<svg version="1.1" id="Layer_1" xmlns="http://www.w3.org/2000/svg" xmlns:xlink="http://www.w3.org/1999/xlink" x="0px" y="0px"
	 viewBox="0 0 300 300" style="enable-background:new 0 0 300 300;" xml:space="preserve">
<style type="text/css">
	.st0{fill:none;}
</style>
<g>
	<defs>
		<rect id="SVGID_1_" x="5.5" y="5.5" width="290" height="290"/>
	</defs>
	<clipPath id="SVGID_2_">
		<use xlink:href="#SVGID_1_"  style="overflow:visible;"/>
	</clipPath>
</g>
<g>
	<g>
		<path class="st0" d="M5.5,5.5"/>
		<path d="M215.7,182.7c0,0.3-0.2,0.5-0.5,0.5c-0.3,0-0.5-0.2-0.5-0.5s0.2-0.5,0.5-0.5C215.4,182.2,215.7,182.4,215.7,182.7"/>
		<path d="M200.7,180.2c0,0.3-0.2,0.5-0.5,0.5c-0.3,0-0.5-0.2-0.5-0.5s0.2-0.5,0.5-0.5C200.5,179.7,200.7,180,200.7,180.2"/>
		<path d="M188.3,171.4c0,0.3-0.2,0.5-0.5,0.5c-0.3,0-0.5-0.2-0.5-0.5s0.2-0.5,0.5-0.5C188.1,170.9,188.3,171.1,188.3,171.4"/>
		<path d="M209,181.4c0,0.3-0.2,0.5-0.5,0.5c-0.3,0-0.5-0.2-0.5-0.5s0.2-0.5,0.5-0.5C208.8,180.9,209,181.1,209,181.4"/>
		<path d="M187.9,172.6c0,0.3-0.2,0.5-0.5,0.5c-0.3,0-0.5-0.2-0.5-0.5s0.2-0.5,0.5-0.5C187.7,172.1,187.9,172.4,187.9,172.6"/>
		<path d="M188.2,172.5c0,0.3-0.2,0.5-0.5,0.5c-0.3,0-0.5-0.2-0.5-0.5s0.2-0.5,0.5-0.5C188,172,188.2,172.2,188.2,172.5"/>
		<path d="M188.6,187.6c0,0.3-0.2,0.5-0.5,0.5c-0.3,0-0.5-0.2-0.5-0.5s0.2-0.5,0.5-0.5C188.4,187.1,188.6,187.3,188.6,187.6"/>
		<path d="M204.1,175.1c0,0.3-0.2,0.5-0.5,0.5c-0.3,0-0.5-0.2-0.5-0.5s0.2-0.5,0.5-0.5C203.9,174.6,204.1,174.9,204.1,175.1"/>
		<path d="M193.6,172.3c0,0.3-0.2,0.5-0.5,0.5c-0.3,0-0.5-0.2-0.5-0.5s0.2-0.5,0.5-0.5C193.4,171.8,193.6,172.1,193.6,172.3"/>
		<path d="M192.4,152.6c0,0.3-0.2,0.5-0.5,0.5c-0.3,0-0.5-0.2-0.5-0.5s0.2-0.5,0.5-0.5C192.2,152.1,192.4,152.3,192.4,152.6"/>
		<path d="M201.1,175.9c0,0.3-0.2,0.5-0.5,0.5c-0.3,0-0.5-0.2-0.5-0.5s0.2-0.5,0.5-0.5C200.9,175.4,201.1,175.7,201.1,175.9"/>
		<path d="M182.7,168c0,0.3-0.2,0.5-0.5,0.5c-0.3,0-0.5-0.2-0.5-0.5s0.2-0.5,0.5-0.5C182.5,167.5,182.7,167.7,182.7,168"/>
		<path d="M179.3,168c0,0.3-0.2,0.5-0.5,0.5c-0.3,0-0.5-0.2-0.5-0.5s0.2-0.5,0.5-0.5C179.1,167.5,179.3,167.7,179.3,168"/>
		<path d="M173.9,193.7c0,0.3-0.2,0.5-0.5,0.5c-0.3,0-0.5-0.2-0.5-0.5s0.2-0.5,0.5-0.5C173.7,193.2,173.9,193.4,173.9,193.7"/>
		<path d="M174.8,166.9c0,0.3-0.2,0.5-0.5,0.5c-0.3,0-0.5-0.2-0.5-0.5s0.2-0.5,0.5-0.5C174.6,166.4,174.8,166.6,174.8,166.9"/>
		<path d="M172.9,166.2c0,0.3-0.2,0.5-0.5,0.5s-0.5-0.2-0.5-0.5s0.2-0.5,0.5-0.5C172.7,165.7,172.9,165.9,172.9,166.2"/>
		<path d="M135.5,148.1c0,0.3-0.2,0.5-0.5,0.5c-0.3,0-0.5-0.2-0.5-0.5s0.2-0.5,0.5-0.5C135.3,147.6,135.5,147.9,135.5,148.1"/>
		<path d="M171.6,164.2c0,0.3-0.2,0.5-0.5,0.5c-0.3,0-0.5-0.2-0.5-0.5s0.2-0.5,0.5-0.5C171.4,163.7,171.6,163.9,171.6,164.2"/>
		<path d="M171.2,163c0,0.3-0.2,0.5-0.5,0.5c-0.3,0-0.5-0.2-0.5-0.5s0.2-0.5,0.5-0.5C170.9,162.5,171.2,162.7,171.2,163"/>
		<path d="M163.5,140.2c0,0.3-0.2,0.5-0.5,0.5c-0.3,0-0.5-0.2-0.5-0.5s0.2-0.5,0.5-0.5C163.3,139.7,163.5,139.9,163.5,140.2"/>
		<path d="M169.1,160.6c0,0.3-0.2,0.5-0.5,0.5c-0.3,0-0.5-0.2-0.5-0.5s0.2-0.5,0.5-0.5C168.9,160.1,169.1,160.3,169.1,160.6"/>
		<path d="M168.2,159.4c0,0.3-0.2,0.5-0.5,0.5c-0.3,0-0.5-0.2-0.5-0.5s0.2-0.5,0.5-0.5C168,158.9,168.2,159.1,168.2,159.4"/>
		<path d="M167.6,157c0,0.3-0.2,0.5-0.5,0.5c-0.3,0-0.5-0.2-0.5-0.5s0.2-0.5,0.5-0.5C167.3,156.5,167.6,156.8,167.6,157"/>
		<path d="M110.1,166.3c0,0.3-0.2,0.5-0.5,0.5c-0.3,0-0.5-0.2-0.5-0.5s0.2-0.5,0.5-0.5C109.9,165.8,110.1,166,110.1,166.3"/>
		<path d="M165.8,154c0,0.3-0.2,0.5-0.5,0.5c-0.3,0-0.5-0.2-0.5-0.5s0.2-0.5,0.5-0.5C165.6,153.5,165.8,153.7,165.8,154"/>
		<path d="M162.2,154.6c0,0.3-0.2,0.5-0.5,0.5c-0.3,0-0.5-0.2-0.5-0.5s0.2-0.5,0.5-0.5C162,154.1,162.2,154.3,162.2,154.6"/>
		<path d="M166.4,119.7c0,0.3-0.2,0.5-0.5,0.5c-0.3,0-0.5-0.2-0.5-0.5s0.2-0.5,0.5-0.5C166.2,119.2,166.4,119.4,166.4,119.7"/>
		<path d="M166,152.2c0,0.3-0.2,0.5-0.5,0.5c-0.3,0-0.5-0.2-0.5-0.5s0.2-0.5,0.5-0.5C165.7,151.7,166,152,166,152.2"/>
		<path d="M165.1,152.5c0,0.3-0.2,0.5-0.5,0.5c-0.3,0-0.5-0.2-0.5-0.5s0.2-0.5,0.5-0.5C164.9,152,165.1,152.3,165.1,152.5"/>
		<path d="M165.4,154.8c0,0.3-0.2,0.5-0.5,0.5s-0.5-0.2-0.5-0.5s0.2-0.5,0.5-0.5C165.2,154.3,165.4,154.5,165.4,154.8"/>
		<path d="M149.8,158.5c0,0.3-0.2,0.5-0.5,0.5c-0.3,0-0.5-0.2-0.5-0.5s0.2-0.5,0.5-0.5C149.6,158,149.8,158.2,149.8,158.5"/>
		<path d="M165.6,154.9c0,0.3-0.2,0.5-0.5,0.5c-0.3,0-0.5-0.2-0.5-0.5s0.2-0.5,0.5-0.5C165.3,154.4,165.6,154.6,165.6,154.9"/>
		<path d="M174.6,149.6c0,0.3-0.2,0.5-0.5,0.5c-0.3,0-0.5-0.2-0.5-0.5s0.2-0.5,0.5-0.5C174.4,149.1,174.6,149.3,174.6,149.6"/>
		<path d="M167.8,148.6c0,0.3-0.2,0.5-0.5,0.5c-0.3,0-0.5-0.2-0.5-0.5s0.2-0.5,0.5-0.5C167.5,148.1,167.8,148.3,167.8,148.6"/>
		<path d="M168.8,145.6c0,0.3-0.2,0.5-0.5,0.5c-0.3,0-0.5-0.2-0.5-0.5s0.2-0.5,0.5-0.5C168.6,145.1,168.8,145.3,168.8,145.6"/>
		<path d="M140.1,102.2c0,0.3-0.2,0.5-0.5,0.5c-0.3,0-0.5-0.2-0.5-0.5s0.2-0.5,0.5-0.5C139.8,101.7,140.1,101.9,140.1,102.2"/>
		<path d="M169.1,113.1c0,0.3-0.2,0.5-0.5,0.5c-0.3,0-0.5-0.2-0.5-0.5s0.2-0.5,0.5-0.5C168.9,112.6,169.1,112.8,169.1,113.1"/>
		<path d="M167,104.3c0,0.3-0.2,0.5-0.5,0.5c-0.3,0-0.5-0.2-0.5-0.5s0.2-0.5,0.5-0.5C166.8,103.8,167,104.1,167,104.3"/>
		<path d="M171.5,108.5c0,0.3-0.2,0.5-0.5,0.5c-0.3,0-0.5-0.2-0.5-0.5s0.2-0.5,0.5-0.5C171.3,108,171.5,108.2,171.5,108.5"/>
		<path d="M164.7,147.2c0,0.3-0.2,0.5-0.5,0.5s-0.5-0.2-0.5-0.5s0.2-0.5,0.5-0.5C164.5,146.7,164.7,146.9,164.7,147.2"/>
		<path d="M180,141.4c0,0.3-0.2,0.5-0.5,0.5c-0.3,0-0.5-0.2-0.5-0.5s0.2-0.5,0.5-0.5C179.8,140.9,180,141.1,180,141.4"/>
		<path d="M163.6,156.2c0,0.3-0.2,0.5-0.5,0.5c-0.3,0-0.5-0.2-0.5-0.5s0.2-0.5,0.5-0.5C163.3,155.7,163.6,155.9,163.6,156.2"/>
		<path d="M182.7,149.1c0,0.3-0.2,0.5-0.5,0.5c-0.3,0-0.5-0.2-0.5-0.5s0.2-0.5,0.5-0.5C182.5,148.6,182.7,148.9,182.7,149.1"/>
		<path d="M161.4,158.1c0,0.3-0.2,0.5-0.5,0.5c-0.3,0-0.5-0.2-0.5-0.5s0.2-0.5,0.5-0.5C161.1,157.6,161.4,157.8,161.4,158.1"/>
		<path d="M174.3,162.6c0,0.3-0.2,0.5-0.5,0.5c-0.3,0-0.5-0.2-0.5-0.5s0.2-0.5,0.5-0.5C174.1,162.1,174.3,162.3,174.3,162.6"/>
		<path d="M172.4,165.4c0,0.3-0.2,0.5-0.5,0.5c-0.3,0-0.5-0.2-0.5-0.5s0.2-0.5,0.5-0.5C172.2,164.9,172.4,165.1,172.4,165.4"/>
		<path d="M169.9,167.5c0,0.3-0.2,0.5-0.5,0.5c-0.3,0-0.5-0.2-0.5-0.5s0.2-0.5,0.5-0.5C169.6,167,169.9,167.2,169.9,167.5"/>
		<path d="M162,189.1c0,0.3-0.2,0.5-0.5,0.5c-0.3,0-0.5-0.2-0.5-0.5s0.2-0.5,0.5-0.5C161.8,188.6,162,188.8,162,189.1"/>
		<path d="M112.6,189.8c0,0.3-0.2,0.5-0.5,0.5c-0.3,0-0.5-0.2-0.5-0.5s0.2-0.5,0.5-0.5C112.4,189.3,112.6,189.5,112.6,189.8"/>
		<path d="M166.5,169.3c0,0.3-0.2,0.5-0.5,0.5c-0.3,0-0.5-0.2-0.5-0.5s0.2-0.5,0.5-0.5C166.3,168.8,166.5,169.1,166.5,169.3"/>
		<path d="M165.1,174.5c0,0.3-0.2,0.5-0.5,0.5c-0.3,0-0.5-0.2-0.5-0.5s0.2-0.5,0.5-0.5C164.9,174,165.1,174.3,165.1,174.5"/>
		<path d="M97.3,240c0,0.3-0.2,0.5-0.5,0.5c-0.3,0-0.5-0.2-0.5-0.5s0.2-0.5,0.5-0.5C97.1,239.5,97.3,239.7,97.3,240"/>
		<path d="M163,189c0,0.3-0.2,0.5-0.5,0.5c-0.3,0-0.5-0.2-0.5-0.5s0.2-0.5,0.5-0.5C162.7,188.5,163,188.7,163,189"/>
		<path d="M172.8,173.7c0,0.3-0.2,0.5-0.5,0.5s-0.5-0.2-0.5-0.5s0.2-0.5,0.5-0.5C172.5,173.2,172.8,173.4,172.8,173.7"/>
		<path d="M180.4,179.8c0,0.3-0.2,0.5-0.5,0.5c-0.3,0-0.5-0.2-0.5-0.5s0.2-0.5,0.5-0.5C180.2,179.3,180.4,179.5,180.4,179.8"/>
		<path d="M183.4,184.9c0,0.3-0.2,0.5-0.5,0.5c-0.3,0-0.5-0.2-0.5-0.5s0.2-0.5,0.5-0.5C183.2,184.4,183.4,184.6,183.4,184.9"/>
		<path d="M177.5,175.2c0,0.3-0.2,0.5-0.5,0.5c-0.3,0-0.5-0.2-0.5-0.5s0.2-0.5,0.5-0.5C177.3,174.7,177.5,174.9,177.5,175.2"/>
		<path d="M178.9,174.2c0,0.3-0.2,0.5-0.5,0.5s-0.5-0.2-0.5-0.5s0.2-0.5,0.5-0.5C178.7,173.7,178.9,173.9,178.9,174.2"/>
		<path d="M165.9,177.8c0,0.3-0.2,0.5-0.5,0.5c-0.3,0-0.5-0.2-0.5-0.5s0.2-0.5,0.5-0.5C165.7,177.3,165.9,177.5,165.9,177.8"/>
		<path d="M173.2,174.4c0,0.3-0.2,0.5-0.5,0.5c-0.3,0-0.5-0.2-0.5-0.5s0.2-0.5,0.5-0.5C173,173.9,173.2,174.1,173.2,174.4"/>
		<path d="M170.6,175.7c0,0.3-0.2,0.5-0.5,0.5s-0.5-0.2-0.5-0.5s0.2-0.5,0.5-0.5C170.4,175.2,170.6,175.4,170.6,175.7"/>
		<path d="M141.4,182.6c0,0.3-0.2,0.5-0.5,0.5c-0.3,0-0.5-0.2-0.5-0.5s0.2-0.5,0.5-0.5C141.1,182.1,141.4,182.4,141.4,182.6"/>
		<path d="M165.2,179.9c0,0.3-0.2,0.5-0.5,0.5c-0.3,0-0.5-0.2-0.5-0.5s0.2-0.5,0.5-0.5C165,179.4,165.2,179.6,165.2,179.9"/>
		<path d="M165.8,181.4c0,0.3-0.2,0.5-0.5,0.5s-0.5-0.2-0.5-0.5s0.2-0.5,0.5-0.5C165.6,180.9,165.8,181.1,165.8,181.4"/>
		<path d="M169.7,192.4c0,0.3-0.2,0.5-0.5,0.5c-0.3,0-0.5-0.2-0.5-0.5s0.2-0.5,0.5-0.5C169.5,191.9,169.7,192.2,169.7,192.4"/>
		<path d="M174.3,180.1c0,0.3-0.2,0.5-0.5,0.5c-0.3,0-0.5-0.2-0.5-0.5s0.2-0.5,0.5-0.5C174.1,179.6,174.3,179.8,174.3,180.1"/>
		<path d="M173.9,179.2c0,0.3-0.2,0.5-0.5,0.5c-0.3,0-0.5-0.2-0.5-0.5s0.2-0.5,0.5-0.5C173.7,178.7,173.9,178.9,173.9,179.2"/>
		<path d="M173.3,178.4c0,0.3-0.2,0.5-0.5,0.5c-0.3,0-0.5-0.2-0.5-0.5s0.2-0.5,0.5-0.5C173.1,177.9,173.3,178.1,173.3,178.4"/>
		<path d="M172.7,187.4c0,0.3-0.2,0.5-0.5,0.5c-0.3,0-0.5-0.2-0.5-0.5s0.2-0.5,0.5-0.5C172.5,186.9,172.7,187.1,172.7,187.4"/>
		<path d="M167.8,179.9c0,0.3-0.2,0.5-0.5,0.5s-0.5-0.2-0.5-0.5s0.2-0.5,0.5-0.5C167.5,179.4,167.8,179.6,167.8,179.9"/>
		<path d="M162.7,182.6c0,0.3-0.2,0.5-0.5,0.5c-0.3,0-0.5-0.2-0.5-0.5s0.2-0.5,0.5-0.5C162.5,182.1,162.7,182.3,162.7,182.6"/>
		<path d="M169.5,175.8c0,0.3-0.2,0.5-0.5,0.5c-0.3,0-0.5-0.2-0.5-0.5s0.2-0.5,0.5-0.5C169.3,175.3,169.5,175.6,169.5,175.8"/>
		<path d="M154.4,187c0,0.3-0.2,0.5-0.5,0.5c-0.3,0-0.5-0.2-0.5-0.5s0.2-0.5,0.5-0.5C154.2,186.5,154.4,186.7,154.4,187"/>
		<path d="M149.4,189.9c0,0.3-0.2,0.5-0.5,0.5c-0.3,0-0.5-0.2-0.5-0.5s0.2-0.5,0.5-0.5C149.2,189.4,149.4,189.7,149.4,189.9"/>
		<path d="M103.2,233.4c0,0.3-0.2,0.5-0.5,0.5c-0.3,0-0.5-0.2-0.5-0.5s0.2-0.5,0.5-0.5C103,232.9,103.2,233.2,103.2,233.4"/>
		<path d="M99.7,234.9c0,0.3-0.2,0.5-0.5,0.5s-0.5-0.2-0.5-0.5s0.2-0.5,0.5-0.5C99.5,234.4,99.7,234.6,99.7,234.9"/>
		<path d="M109.2,218.1c0,0.3-0.2,0.5-0.5,0.5c-0.3,0-0.5-0.2-0.5-0.5s0.2-0.5,0.5-0.5C109,217.6,109.2,217.9,109.2,218.1"/>
		<path d="M105.3,195.2c0,0.3-0.2,0.5-0.5,0.5c-0.3,0-0.5-0.2-0.5-0.5s0.2-0.5,0.5-0.5C105.1,194.7,105.3,194.9,105.3,195.2"/>
		<path d="M137.2,189c0,0.3-0.2,0.5-0.5,0.5c-0.3,0-0.5-0.2-0.5-0.5s0.2-0.5,0.5-0.5C137,188.5,137.2,188.7,137.2,189"/>
		<path d="M125.3,194.6c0,0.3-0.2,0.5-0.5,0.5s-0.5-0.2-0.5-0.5s0.2-0.5,0.5-0.5C125.1,194.1,125.3,194.3,125.3,194.6"/>
		<path d="M156.3,174.1c0,0.3-0.2,0.5-0.5,0.5c-0.3,0-0.5-0.2-0.5-0.5s0.2-0.5,0.5-0.5C156,173.6,156.3,173.8,156.3,174.1"/>
		<path d="M167,170.2c0,0.3-0.2,0.5-0.5,0.5c-0.3,0-0.5-0.2-0.5-0.5s0.2-0.5,0.5-0.5C166.8,169.7,167,169.9,167,170.2"/>
		<path d="M165.2,160.3c0,0.3-0.2,0.5-0.5,0.5c-0.3,0-0.5-0.2-0.5-0.5s0.2-0.5,0.5-0.5C165,159.8,165.2,160,165.2,160.3"/>
		<path d="M174,165.5c0,0.3-0.2,0.5-0.5,0.5s-0.5-0.2-0.5-0.5s0.2-0.5,0.5-0.5C173.8,165,174,165.2,174,165.5"/>
		<path d="M173.6,165.9c0,0.3-0.2,0.5-0.5,0.5c-0.3,0-0.5-0.2-0.5-0.5s0.2-0.5,0.5-0.5C173.3,165.4,173.6,165.6,173.6,165.9"/>
		<path d="M172.2,163.7c0,0.3-0.2,0.5-0.5,0.5c-0.3,0-0.5-0.2-0.5-0.5s0.2-0.5,0.5-0.5C172,163.2,172.2,163.4,172.2,163.7"/>
		<path d="M180.6,157.7c0,0.3-0.2,0.5-0.5,0.5c-0.3,0-0.5-0.2-0.5-0.5s0.2-0.5,0.5-0.5C180.3,157.2,180.6,157.4,180.6,157.7"/>
		<path d="M173,146.3c0,0.3-0.2,0.5-0.5,0.5c-0.3,0-0.5-0.2-0.5-0.5s0.2-0.5,0.5-0.5C172.8,145.8,173,146,173,146.3"/>
		<path d="M173.6,163.7c0,0.3-0.2,0.5-0.5,0.5c-0.3,0-0.5-0.2-0.5-0.5s0.2-0.5,0.5-0.5C173.4,163.2,173.6,163.4,173.6,163.7"/>
		<path d="M173,164c0,0.3-0.2,0.5-0.5,0.5c-0.3,0-0.5-0.2-0.5-0.5s0.2-0.5,0.5-0.5C172.7,163.5,173,163.7,173,164"/>
		<path d="M172,165.8c0,0.3-0.2,0.5-0.5,0.5c-0.3,0-0.5-0.2-0.5-0.5s0.2-0.5,0.5-0.5C171.7,165.3,172,165.5,172,165.8"/>
		<path d="M170.8,176.9c0,0.3-0.2,0.5-0.5,0.5c-0.3,0-0.5-0.2-0.5-0.5s0.2-0.5,0.5-0.5C170.5,176.4,170.8,176.6,170.8,176.9"/>
		<path d="M171.2,166.7c0,0.3-0.2,0.5-0.5,0.5c-0.3,0-0.5-0.2-0.5-0.5s0.2-0.5,0.5-0.5C170.9,166.2,171.2,166.4,171.2,166.7"/>
		<path d="M174.2,164.5c0,0.3-0.2,0.5-0.5,0.5c-0.3,0-0.5-0.2-0.5-0.5s0.2-0.5,0.5-0.5C174,164,174.2,164.2,174.2,164.5"/>
		<path d="M171.3,166.2c0,0.3-0.2,0.5-0.5,0.5c-0.3,0-0.5-0.2-0.5-0.5s0.2-0.5,0.5-0.5C171,165.7,171.3,165.9,171.3,166.2"/>
		<path d="M171.9,164.8c0,0.3-0.2,0.5-0.5,0.5s-0.5-0.2-0.5-0.5s0.2-0.5,0.5-0.5C171.6,164.3,171.9,164.6,171.9,164.8"/>
		<path d="M173,163.8c0,0.3-0.2,0.5-0.5,0.5c-0.3,0-0.5-0.2-0.5-0.5s0.2-0.5,0.5-0.5C172.8,163.3,173,163.5,173,163.8"/>
		<path d="M174.1,160.7c0,0.3-0.2,0.5-0.5,0.5c-0.3,0-0.5-0.2-0.5-0.5s0.2-0.5,0.5-0.5C173.9,160.2,174.1,160.5,174.1,160.7"/>
		<path d="M172.2,155.5c0,0.3-0.2,0.5-0.5,0.5c-0.3,0-0.5-0.2-0.5-0.5s0.2-0.5,0.5-0.5C172,155,172.2,155.2,172.2,155.5"/>
		<path d="M176.8,157.2c0,0.3-0.2,0.5-0.5,0.5s-0.5-0.2-0.5-0.5s0.2-0.5,0.5-0.5C176.6,156.7,176.8,156.9,176.8,157.2"/>
		<path d="M173.9,162.7c0,0.3-0.2,0.5-0.5,0.5c-0.3,0-0.5-0.2-0.5-0.5s0.2-0.5,0.5-0.5C173.7,162.2,173.9,162.4,173.9,162.7"/>
		<path d="M170.9,161.5c0,0.3-0.2,0.5-0.5,0.5c-0.3,0-0.5-0.2-0.5-0.5s0.2-0.5,0.5-0.5C170.6,161,170.9,161.3,170.9,161.5"/>
		<path d="M171.8,165.6c0,0.3-0.2,0.5-0.5,0.5c-0.3,0-0.5-0.2-0.5-0.5s0.2-0.5,0.5-0.5C171.6,165.1,171.8,165.3,171.8,165.6"/>
		<path d="M171.2,166.6c0,0.3-0.2,0.5-0.5,0.5s-0.5-0.2-0.5-0.5s0.2-0.5,0.5-0.5C171,166.1,171.2,166.3,171.2,166.6"/>
		<path d="M170.5,166.8c0,0.3-0.2,0.5-0.5,0.5s-0.5-0.2-0.5-0.5s0.2-0.5,0.5-0.5C170.3,166.3,170.5,166.5,170.5,166.8"/>
		<path d="M170.2,167c0,0.3-0.2,0.5-0.5,0.5c-0.3,0-0.5-0.2-0.5-0.5s0.2-0.5,0.5-0.5C169.9,166.5,170.2,166.7,170.2,167"/>
		<path d="M169.7,167.1c0,0.3-0.2,0.5-0.5,0.5c-0.3,0-0.5-0.2-0.5-0.5s0.2-0.5,0.5-0.5C169.5,166.6,169.7,166.9,169.7,167.1"/>
		<path d="M169,167.1c0,0.3-0.2,0.5-0.5,0.5c-0.3,0-0.5-0.2-0.5-0.5s0.2-0.5,0.5-0.5C168.8,166.6,169,166.8,169,167.1"/>
		<path d="M169.4,166.2c0,0.3-0.2,0.5-0.5,0.5c-0.3,0-0.5-0.2-0.5-0.5s0.2-0.5,0.5-0.5C169.2,165.7,169.4,165.9,169.4,166.2"/>
		<path d="M168.9,165.9c0,0.3-0.2,0.5-0.5,0.5s-0.5-0.2-0.5-0.5s0.2-0.5,0.5-0.5C168.7,165.4,168.9,165.6,168.9,165.9"/>
		<path d="M169,165.3c0,0.3-0.2,0.5-0.5,0.5c-0.3,0-0.5-0.2-0.5-0.5s0.2-0.5,0.5-0.5C168.8,164.8,169,165,169,165.3"/>
		<path d="M169,165.3c0,0.3-0.2,0.5-0.5,0.5c-0.3,0-0.5-0.2-0.5-0.5s0.2-0.5,0.5-0.5C168.8,164.8,169,165,169,165.3"/>
		<path d="M170.3,164.3c0,0.3-0.2,0.5-0.5,0.5c-0.3,0-0.5-0.2-0.5-0.5s0.2-0.5,0.5-0.5C170.1,163.8,170.3,164,170.3,164.3"/>
		<path d="M159.2,157.5c0,0.3-0.2,0.5-0.5,0.5s-0.5-0.2-0.5-0.5s0.2-0.5,0.5-0.5C158.9,157,159.2,157.3,159.2,157.5"/>
		<path d="M170.9,164.4c0,0.3-0.2,0.5-0.5,0.5c-0.3,0-0.5-0.2-0.5-0.5s0.2-0.5,0.5-0.5C170.6,163.9,170.9,164.1,170.9,164.4"/>
		<path d="M157.1,168.4c0,0.3-0.2,0.5-0.5,0.5c-0.3,0-0.5-0.2-0.5-0.5s0.2-0.5,0.5-0.5C156.9,167.9,157.1,168.1,157.1,168.4"/>
		<path d="M183.1,169.4c0,0.3-0.2,0.5-0.5,0.5c-0.3,0-0.5-0.2-0.5-0.5s0.2-0.5,0.5-0.5C182.9,168.9,183.1,169.1,183.1,169.4"/>
		<path d="M171.3,165.3c0,0.3-0.2,0.5-0.5,0.5c-0.3,0-0.5-0.2-0.5-0.5s0.2-0.5,0.5-0.5C171.1,164.8,171.3,165,171.3,165.3"/>
		<path d="M170.7,165.6c0,0.3-0.2,0.5-0.5,0.5s-0.5-0.2-0.5-0.5s0.2-0.5,0.5-0.5C170.5,165.1,170.7,165.3,170.7,165.6"/>
		<path d="M170.6,166.1c0,0.3-0.2,0.5-0.5,0.5s-0.5-0.2-0.5-0.5s0.2-0.5,0.5-0.5C170.4,165.6,170.6,165.8,170.6,166.1"/>
		<path d="M170.5,166.4c0,0.3-0.2,0.5-0.5,0.5c-0.3,0-0.5-0.2-0.5-0.5s0.2-0.5,0.5-0.5C170.3,165.9,170.5,166.1,170.5,166.4"/>
		<path d="M171,166.2c0,0.3-0.2,0.5-0.5,0.5s-0.5-0.2-0.5-0.5s0.2-0.5,0.5-0.5C170.8,165.7,171,166,171,166.2"/>
		<path d="M171.2,166.6c0,0.3-0.2,0.5-0.5,0.5c-0.3,0-0.5-0.2-0.5-0.5s0.2-0.5,0.5-0.5C171,166.1,171.2,166.4,171.2,166.6"/>
		<path d="M172.1,166.4c0,0.3-0.2,0.5-0.5,0.5s-0.5-0.2-0.5-0.5s0.2-0.5,0.5-0.5C171.9,165.9,172.1,166.1,172.1,166.4"/>
		<path d="M173.6,165.6c0,0.3-0.2,0.5-0.5,0.5c-0.3,0-0.5-0.2-0.5-0.5s0.2-0.5,0.5-0.5C173.3,165.1,173.6,165.3,173.6,165.6"/>
		<path d="M176,165.2c0,0.3-0.2,0.5-0.5,0.5s-0.5-0.2-0.5-0.5s0.2-0.5,0.5-0.5C175.7,164.7,176,164.9,176,165.2"/>
		<path d="M181.8,164.2c0,0.3-0.2,0.5-0.5,0.5c-0.3,0-0.5-0.2-0.5-0.5s0.2-0.5,0.5-0.5C181.6,163.7,181.8,163.9,181.8,164.2"/>
		<path d="M177.7,164.1c0,0.3-0.2,0.5-0.5,0.5s-0.5-0.2-0.5-0.5s0.2-0.5,0.5-0.5C177.5,163.6,177.7,163.8,177.7,164.1"/>
		<path d="M176.3,162.1c0,0.3-0.2,0.5-0.5,0.5c-0.3,0-0.5-0.2-0.5-0.5s0.2-0.5,0.5-0.5C176,161.6,176.3,161.8,176.3,162.1"/>
		<path d="M175.8,160.7c0,0.3-0.2,0.5-0.5,0.5c-0.3,0-0.5-0.2-0.5-0.5s0.2-0.5,0.5-0.5C175.6,160.2,175.8,160.5,175.8,160.7"/>
		<path d="M175.9,159.5c0,0.3-0.2,0.5-0.5,0.5s-0.5-0.2-0.5-0.5s0.2-0.5,0.5-0.5C175.7,159,175.9,159.2,175.9,159.5"/>
		<path d="M175.4,159.8c0,0.3-0.2,0.5-0.5,0.5c-0.3,0-0.5-0.2-0.5-0.5s0.2-0.5,0.5-0.5C175.1,159.3,175.4,159.5,175.4,159.8"/>
		<path d="M179.7,155.2c0,0.3-0.2,0.5-0.5,0.5c-0.3,0-0.5-0.2-0.5-0.5s0.2-0.5,0.5-0.5C179.5,154.7,179.7,154.9,179.7,155.2"/>
		<path d="M179.8,156c0,0.3-0.2,0.5-0.5,0.5c-0.3,0-0.5-0.2-0.5-0.5s0.2-0.5,0.5-0.5C179.6,155.5,179.8,155.7,179.8,156"/>
		<path d="M173.6,162.5c0,0.3-0.2,0.5-0.5,0.5c-0.3,0-0.5-0.2-0.5-0.5s0.2-0.5,0.5-0.5C173.4,162,173.6,162.2,173.6,162.5"/>
		<path d="M172.8,163.2c0,0.3-0.2,0.5-0.5,0.5s-0.5-0.2-0.5-0.5s0.2-0.5,0.5-0.5C172.5,162.7,172.8,162.9,172.8,163.2"/>
		<path d="M171.8,162.7c0,0.3-0.2,0.5-0.5,0.5c-0.3,0-0.5-0.2-0.5-0.5s0.2-0.5,0.5-0.5C171.6,162.2,171.8,162.5,171.8,162.7"/>
		<path d="M171.2,161.9c0,0.3-0.2,0.5-0.5,0.5s-0.5-0.2-0.5-0.5s0.2-0.5,0.5-0.5C170.9,161.4,171.2,161.6,171.2,161.9"/>
		<path d="M170,159.1c0,0.3-0.2,0.5-0.5,0.5c-0.3,0-0.5-0.2-0.5-0.5s0.2-0.5,0.5-0.5C169.7,158.6,170,158.8,170,159.1"/>
		<path d="M155.3,152.3c0,0.3-0.2,0.5-0.5,0.5c-0.3,0-0.5-0.2-0.5-0.5s0.2-0.5,0.5-0.5C155.1,151.8,155.3,152.1,155.3,152.3"/>
		<path d="M169.6,157.8c0,0.3-0.2,0.5-0.5,0.5c-0.3,0-0.5-0.2-0.5-0.5s0.2-0.5,0.5-0.5C169.4,157.3,169.6,157.6,169.6,157.8"/>
		<path d="M153.3,149.6c0,0.3-0.2,0.5-0.5,0.5c-0.3,0-0.5-0.2-0.5-0.5s0.2-0.5,0.5-0.5C153.1,149.1,153.3,149.3,153.3,149.6"/>
		<path d="M169.7,162.4c0,0.3-0.2,0.5-0.5,0.5c-0.3,0-0.5-0.2-0.5-0.5s0.2-0.5,0.5-0.5C169.5,161.9,169.7,162.2,169.7,162.4"/>
		<path d="M170.1,163.7c0,0.3-0.2,0.5-0.5,0.5c-0.3,0-0.5-0.2-0.5-0.5s0.2-0.5,0.5-0.5C169.9,163.2,170.1,163.4,170.1,163.7"/>
		<path d="M169.7,164.1c0,0.3-0.2,0.5-0.5,0.5s-0.5-0.2-0.5-0.5s0.2-0.5,0.5-0.5C169.5,163.6,169.7,163.8,169.7,164.1"/>
		<path d="M168.9,164.8c0,0.3-0.2,0.5-0.5,0.5c-0.3,0-0.5-0.2-0.5-0.5s0.2-0.5,0.5-0.5C168.7,164.3,168.9,164.5,168.9,164.8"/>
		<path d="M168.2,164.8c0,0.3-0.2,0.5-0.5,0.5c-0.3,0-0.5-0.2-0.5-0.5s0.2-0.5,0.5-0.5C168,164.3,168.2,164.5,168.2,164.8"/>
		<path d="M167.9,164.6c0,0.3-0.2,0.5-0.5,0.5s-0.5-0.2-0.5-0.5s0.2-0.5,0.5-0.5C167.6,164.1,167.9,164.3,167.9,164.6"/>
		<path d="M145,160c0,0.3-0.2,0.5-0.5,0.5s-0.5-0.2-0.5-0.5s0.2-0.5,0.5-0.5C144.8,159.5,145,159.8,145,160"/>
		<path d="M168.4,163.6c0,0.3-0.2,0.5-0.5,0.5s-0.5-0.2-0.5-0.5s0.2-0.5,0.5-0.5C168.2,163.1,168.4,163.3,168.4,163.6"/>
		<path d="M168,161.4c0,0.3-0.2,0.5-0.5,0.5c-0.3,0-0.5-0.2-0.5-0.5s0.2-0.5,0.5-0.5C167.8,160.9,168,161.2,168,161.4"/>
		<path d="M169.8,163c0,0.3-0.2,0.5-0.5,0.5c-0.3,0-0.5-0.2-0.5-0.5s0.2-0.5,0.5-0.5C169.6,162.5,169.8,162.8,169.8,163"/>
		<path d="M171.6,163.2c0,0.3-0.2,0.5-0.5,0.5c-0.3,0-0.5-0.2-0.5-0.5s0.2-0.5,0.5-0.5C171.4,162.7,171.6,162.9,171.6,163.2"/>
		<path d="M170.7,163.7c0,0.3-0.2,0.5-0.5,0.5c-0.3,0-0.5-0.2-0.5-0.5s0.2-0.5,0.5-0.5C170.5,163.2,170.7,163.4,170.7,163.7"/>
		<path d="M170.3,163.7c0,0.3-0.2,0.5-0.5,0.5s-0.5-0.2-0.5-0.5s0.2-0.5,0.5-0.5C170,163.2,170.3,163.4,170.3,163.7"/>
		<path d="M169.4,163.6c0,0.3-0.2,0.5-0.5,0.5c-0.3,0-0.5-0.2-0.5-0.5s0.2-0.5,0.5-0.5C169.2,163.1,169.4,163.3,169.4,163.6"/>
		<path d="M142.4,175.4c0,0.3-0.2,0.5-0.5,0.5c-0.3,0-0.5-0.2-0.5-0.5s0.2-0.5,0.5-0.5C142.2,174.9,142.4,175.2,142.4,175.4"/>
		<path d="M169.2,163.1c0,0.3-0.2,0.5-0.5,0.5c-0.3,0-0.5-0.2-0.5-0.5s0.2-0.5,0.5-0.5C169,162.6,169.2,162.8,169.2,163.1"/>
		<path d="M153.7,158.9c0,0.3-0.2,0.5-0.5,0.5c-0.3,0-0.5-0.2-0.5-0.5s0.2-0.5,0.5-0.5C153.4,158.4,153.7,158.6,153.7,158.9"/>
		<path d="M168.4,162.4c0,0.3-0.2,0.5-0.5,0.5s-0.5-0.2-0.5-0.5s0.2-0.5,0.5-0.5C168.2,161.9,168.4,162.2,168.4,162.4"/>
		<path d="M165.3,159.5c0,0.3-0.2,0.5-0.5,0.5c-0.3,0-0.5-0.2-0.5-0.5s0.2-0.5,0.5-0.5C165.1,159,165.3,159.3,165.3,159.5"/>
		<path d="M168.1,161.5c0,0.3-0.2,0.5-0.5,0.5c-0.3,0-0.5-0.2-0.5-0.5s0.2-0.5,0.5-0.5C167.8,161,168.1,161.3,168.1,161.5"/>
		<path d="M168,161.3c0,0.3-0.2,0.5-0.5,0.5s-0.5-0.2-0.5-0.5s0.2-0.5,0.5-0.5C167.8,160.8,168,161,168,161.3"/>
		<path d="M165.5,161c0,0.3-0.2,0.5-0.5,0.5s-0.5-0.2-0.5-0.5s0.2-0.5,0.5-0.5C165.3,160.5,165.5,160.7,165.5,161"/>
		<path d="M162.1,161c0,0.3-0.2,0.5-0.5,0.5s-0.5-0.2-0.5-0.5s0.2-0.5,0.5-0.5C161.9,160.5,162.1,160.7,162.1,161"/>
		<path d="M158.4,160.4c0,0.3-0.2,0.5-0.5,0.5c-0.3,0-0.5-0.2-0.5-0.5s0.2-0.5,0.5-0.5C158.2,159.9,158.4,160.2,158.4,160.4"/>
		<path d="M150.3,158.7c0,0.3-0.2,0.5-0.5,0.5c-0.3,0-0.5-0.2-0.5-0.5s0.2-0.5,0.5-0.5C150.1,158.2,150.3,158.4,150.3,158.7"/>
		<path d="M145.5,157.6c0,0.3-0.2,0.5-0.5,0.5c-0.3,0-0.5-0.2-0.5-0.5s0.2-0.5,0.5-0.5C145.2,157.1,145.5,157.3,145.5,157.6"/>
		<path d="M118.8,149c0,0.3-0.2,0.5-0.5,0.5c-0.3,0-0.5-0.2-0.5-0.5s0.2-0.5,0.5-0.5C118.6,148.5,118.8,148.7,118.8,149"/>
		<path d="M109.6,152c0,0.3-0.2,0.5-0.5,0.5s-0.5-0.2-0.5-0.5s0.2-0.5,0.5-0.5C109.4,151.5,109.6,151.7,109.6,152"/>
		<path d="M64.7,149.8c0,0.3-0.2,0.5-0.5,0.5c-0.3,0-0.5-0.2-0.5-0.5s0.2-0.5,0.5-0.5C64.5,149.3,64.7,149.5,64.7,149.8"/>
		<path d="M142.3,137c0,0.3-0.2,0.5-0.5,0.5c-0.3,0-0.5-0.2-0.5-0.5s0.2-0.5,0.5-0.5C142.1,136.5,142.3,136.7,142.3,137"/>
		<path d="M125.9,177.8c0,0.3-0.2,0.5-0.5,0.5c-0.3,0-0.5-0.2-0.5-0.5s0.2-0.5,0.5-0.5C125.7,177.3,125.9,177.5,125.9,177.8"/>
		<path d="M157.8,157.6c0,0.3-0.2,0.5-0.5,0.5c-0.3,0-0.5-0.2-0.5-0.5s0.2-0.5,0.5-0.5C157.5,157.1,157.8,157.4,157.8,157.6"/>
		<path d="M167.3,155.6c0,0.3-0.2,0.5-0.5,0.5c-0.3,0-0.5-0.2-0.5-0.5s0.2-0.5,0.5-0.5C167.1,155.1,167.3,155.3,167.3,155.6"/>
		<path d="M168.9,159.7c0,0.3-0.2,0.5-0.5,0.5c-0.3,0-0.5-0.2-0.5-0.5s0.2-0.5,0.5-0.5C168.7,159.2,168.9,159.4,168.9,159.7"/>
		<path d="M170,160.2c0,0.3-0.2,0.5-0.5,0.5c-0.3,0-0.5-0.2-0.5-0.5s0.2-0.5,0.5-0.5C169.8,159.7,170,159.9,170,160.2"/>
		<path d="M172.3,160.5c0,0.3-0.2,0.5-0.5,0.5s-0.5-0.2-0.5-0.5s0.2-0.5,0.5-0.5C172.1,160,172.3,160.2,172.3,160.5"/>
		<path d="M173.1,160.5c0,0.3-0.2,0.5-0.5,0.5c-0.3,0-0.5-0.2-0.5-0.5s0.2-0.5,0.5-0.5C172.9,160,173.1,160.2,173.1,160.5"/>
		<path d="M174.1,159.9c0,0.3-0.2,0.5-0.5,0.5c-0.3,0-0.5-0.2-0.5-0.5s0.2-0.5,0.5-0.5C173.9,159.4,174.1,159.7,174.1,159.9"/>
		<path d="M174.6,160.6c0,0.3-0.2,0.5-0.5,0.5c-0.3,0-0.5-0.2-0.5-0.5s0.2-0.5,0.5-0.5C174.4,160.1,174.6,160.4,174.6,160.6"/>
		<path d="M181,158.5c0,0.3-0.2,0.5-0.5,0.5c-0.3,0-0.5-0.2-0.5-0.5s0.2-0.5,0.5-0.5C180.8,158,181,158.2,181,158.5"/>
		<path d="M173.8,161.3c0,0.3-0.2,0.5-0.5,0.5c-0.3,0-0.5-0.2-0.5-0.5s0.2-0.5,0.5-0.5C173.6,160.8,173.8,161.1,173.8,161.3"/>
		<path d="M173.3,162.3c0,0.3-0.2,0.5-0.5,0.5s-0.5-0.2-0.5-0.5s0.2-0.5,0.5-0.5C173.1,161.8,173.3,162.1,173.3,162.3"/>
		<path d="M173,162.6c0,0.3-0.2,0.5-0.5,0.5c-0.3,0-0.5-0.2-0.5-0.5s0.2-0.5,0.5-0.5C172.8,162.1,173,162.3,173,162.6"/>
		<path d="M176.3,160.1c0,0.3-0.2,0.5-0.5,0.5c-0.3,0-0.5-0.2-0.5-0.5s0.2-0.5,0.5-0.5C176.1,159.6,176.3,159.9,176.3,160.1"/>
		<path d="M172.2,163.3c0,0.3-0.2,0.5-0.5,0.5c-0.3,0-0.5-0.2-0.5-0.5s0.2-0.5,0.5-0.5C172,162.8,172.2,163.1,172.2,163.3"/>
		<path d="M171.4,164.3c0,0.3-0.2,0.5-0.5,0.5c-0.3,0-0.5-0.2-0.5-0.5s0.2-0.5,0.5-0.5C171.2,163.8,171.4,164,171.4,164.3"/>
		<path d="M172.1,165.6c0,0.3-0.2,0.5-0.5,0.5c-0.3,0-0.5-0.2-0.5-0.5s0.2-0.5,0.5-0.5C171.9,165.1,172.1,165.3,172.1,165.6"/>
		<path d="M172.4,165.9c0,0.3-0.2,0.5-0.5,0.5c-0.3,0-0.5-0.2-0.5-0.5s0.2-0.5,0.5-0.5C172.2,165.4,172.4,165.7,172.4,165.9"/>
		<path d="M173.4,166.8c0,0.3-0.2,0.5-0.5,0.5c-0.3,0-0.5-0.2-0.5-0.5s0.2-0.5,0.5-0.5C173.2,166.3,173.4,166.6,173.4,166.8"/>
		<path d="M175.4,168.2c0,0.3-0.2,0.5-0.5,0.5c-0.3,0-0.5-0.2-0.5-0.5s0.2-0.5,0.5-0.5C175.2,167.7,175.4,167.9,175.4,168.2"/>
		<path d="M183.1,170.5c0,0.3-0.2,0.5-0.5,0.5c-0.3,0-0.5-0.2-0.5-0.5s0.2-0.5,0.5-0.5C182.9,170,183.1,170.3,183.1,170.5"/>
		<path d="M184.8,171.3c0,0.3-0.2,0.5-0.5,0.5c-0.3,0-0.5-0.2-0.5-0.5s0.2-0.5,0.5-0.5C184.5,170.8,184.8,171.1,184.8,171.3"/>
		<path d="M207.5,179.7c0,0.3-0.2,0.5-0.5,0.5c-0.3,0-0.5-0.2-0.5-0.5s0.2-0.5,0.5-0.5C207.3,179.2,207.5,179.4,207.5,179.7"/>
		<path d="M228.4,186.2c0,0.3-0.2,0.5-0.5,0.5c-0.3,0-0.5-0.2-0.5-0.5s0.2-0.5,0.5-0.5C228.1,185.7,228.4,185.9,228.4,186.2"/>
		<path d="M219,182c0,0.3-0.2,0.5-0.5,0.5c-0.3,0-0.5-0.2-0.5-0.5s0.2-0.5,0.5-0.5C218.7,181.5,219,181.7,219,182"/>
		<path d="M231.6,189.2c0,0.3-0.2,0.5-0.5,0.5c-0.3,0-0.5-0.2-0.5-0.5s0.2-0.5,0.5-0.5C231.3,188.7,231.6,189,231.6,189.2"/>
		<path d="M187.8,172.7c0,0.3-0.2,0.5-0.5,0.5c-0.3,0-0.5-0.2-0.5-0.5s0.2-0.5,0.5-0.5C187.6,172.2,187.8,172.5,187.8,172.7"/>
		<path d="M184.2,172.4c0,0.3-0.2,0.5-0.5,0.5c-0.3,0-0.5-0.2-0.5-0.5s0.2-0.5,0.5-0.5C184,171.9,184.2,172.1,184.2,172.4"/>
		<path d="M180.6,171.7c0,0.3-0.2,0.5-0.5,0.5s-0.5-0.2-0.5-0.5s0.2-0.5,0.5-0.5C180.4,171.2,180.6,171.4,180.6,171.7"/>
		<path d="M175.7,171.3c0,0.3-0.2,0.5-0.5,0.5s-0.5-0.2-0.5-0.5s0.2-0.5,0.5-0.5C175.5,170.8,175.7,171,175.7,171.3"/>
		<path d="M174.3,170.6c0,0.3-0.2,0.5-0.5,0.5s-0.5-0.2-0.5-0.5s0.2-0.5,0.5-0.5C174.1,170.1,174.3,170.4,174.3,170.6"/>
		<path d="M174,170.7c0,0.3-0.2,0.5-0.5,0.5c-0.3,0-0.5-0.2-0.5-0.5s0.2-0.5,0.5-0.5C173.8,170.2,174,170.4,174,170.7"/>
		<path d="M173.4,170.9c0,0.3-0.2,0.5-0.5,0.5s-0.5-0.2-0.5-0.5s0.2-0.5,0.5-0.5C173.1,170.4,173.4,170.6,173.4,170.9"/>
		<path d="M173.7,170.5c0,0.3-0.2,0.5-0.5,0.5c-0.3,0-0.5-0.2-0.5-0.5s0.2-0.5,0.5-0.5C173.5,170,173.7,170.3,173.7,170.5"/>
		<path d="M175,170.2c0,0.3-0.2,0.5-0.5,0.5c-0.3,0-0.5-0.2-0.5-0.5s0.2-0.5,0.5-0.5C174.8,169.7,175,169.9,175,170.2"/>
		<path d="M178.5,169.9c0,0.3-0.2,0.5-0.5,0.5s-0.5-0.2-0.5-0.5s0.2-0.5,0.5-0.5C178.3,169.4,178.5,169.6,178.5,169.9"/>
		<path d="M182.2,169.9c0,0.3-0.2,0.5-0.5,0.5s-0.5-0.2-0.5-0.5s0.2-0.5,0.5-0.5C182,169.4,182.2,169.6,182.2,169.9"/>
		<path d="M185.9,169.8c0,0.3-0.2,0.5-0.5,0.5c-0.3,0-0.5-0.2-0.5-0.5s0.2-0.5,0.5-0.5C185.7,169.3,185.9,169.5,185.9,169.8"/>
		<path d="M215.5,180.8c0,0.3-0.2,0.5-0.5,0.5c-0.3,0-0.5-0.2-0.5-0.5s0.2-0.5,0.5-0.5C215.3,180.3,215.5,180.5,215.5,180.8"/>
		<path d="M195,174.3c0,0.3-0.2,0.5-0.5,0.5c-0.3,0-0.5-0.2-0.5-0.5s0.2-0.5,0.5-0.5C194.7,173.8,195,174,195,174.3"/>
		<path d="M193.6,174.4c0,0.3-0.2,0.5-0.5,0.5s-0.5-0.2-0.5-0.5s0.2-0.5,0.5-0.5C193.4,173.9,193.6,174.1,193.6,174.4"/>
		<path d="M191.1,173.6c0,0.3-0.2,0.5-0.5,0.5c-0.3,0-0.5-0.2-0.5-0.5s0.2-0.5,0.5-0.5C190.9,173.1,191.1,173.4,191.1,173.6"/>
		<path d="M188,172.5c0,0.3-0.2,0.5-0.5,0.5c-0.3,0-0.5-0.2-0.5-0.5s0.2-0.5,0.5-0.5C187.8,172,188,172.3,188,172.5"/>
		<path d="M187.1,172.4c0,0.3-0.2,0.5-0.5,0.5s-0.5-0.2-0.5-0.5s0.2-0.5,0.5-0.5C186.8,172,187.1,172.2,187.1,172.4"/>
		<path d="M186.9,172c0,0.3-0.2,0.5-0.5,0.5c-0.3,0-0.5-0.2-0.5-0.5s0.2-0.5,0.5-0.5C186.7,171.5,186.9,171.7,186.9,172"/>
		<path d="M202.4,177c0,0.3-0.2,0.5-0.5,0.5c-0.3,0-0.5-0.2-0.5-0.5s0.2-0.5,0.5-0.5C202.2,176.5,202.4,176.8,202.4,177"/>
		<path d="M188.3,172.1c0,0.3-0.2,0.5-0.5,0.5c-0.3,0-0.5-0.2-0.5-0.5s0.2-0.5,0.5-0.5C188,171.6,188.3,171.8,188.3,172.1"/>
		<path d="M193.2,184.9c0,0.3-0.2,0.5-0.5,0.5s-0.5-0.2-0.5-0.5s0.2-0.5,0.5-0.5C193,184.4,193.2,184.6,193.2,184.9"/>
		<path d="M188.5,171.7c0,0.3-0.2,0.5-0.5,0.5c-0.3,0-0.5-0.2-0.5-0.5s0.2-0.5,0.5-0.5C188.2,171.2,188.5,171.4,188.5,171.7"/>
		<path d="M210.1,180.9c0,0.3-0.2,0.5-0.5,0.5c-0.3,0-0.5-0.2-0.5-0.5s0.2-0.5,0.5-0.5C209.9,180.4,210.1,180.7,210.1,180.9"/>
		<path d="M187.1,171.7c0,0.3-0.2,0.5-0.5,0.5c-0.3,0-0.5-0.2-0.5-0.5s0.2-0.5,0.5-0.5C186.9,171.2,187.1,171.4,187.1,171.7"/>
		<path d="M188,172.2c0,0.3-0.2,0.5-0.5,0.5c-0.3,0-0.5-0.2-0.5-0.5s0.2-0.5,0.5-0.5C187.8,171.7,188,171.9,188,172.2"/>
		<path d="M188.7,172.5c0,0.3-0.2,0.5-0.5,0.5c-0.3,0-0.5-0.2-0.5-0.5s0.2-0.5,0.5-0.5C188.5,172,188.7,172.3,188.7,172.5"/>
		<path d="M192,172.5c0,0.3-0.2,0.5-0.5,0.5c-0.3,0-0.5-0.2-0.5-0.5s0.2-0.5,0.5-0.5C191.7,172,192,172.2,192,172.5"/>
		<path d="M220.4,186.3c0,0.3-0.2,0.5-0.5,0.5c-0.3,0-0.5-0.2-0.5-0.5s0.2-0.5,0.5-0.5C220.2,185.8,220.4,186.1,220.4,186.3"/>
		<path d="M192.4,172.5c0,0.3-0.2,0.5-0.5,0.5c-0.3,0-0.5-0.2-0.5-0.5s0.2-0.5,0.5-0.5C192.2,172,192.4,172.2,192.4,172.5"/>
		<path d="M199.7,172.6c0,0.3-0.2,0.5-0.5,0.5c-0.3,0-0.5-0.2-0.5-0.5s0.2-0.5,0.5-0.5C199.5,172.1,199.7,172.3,199.7,172.6"/>
		<path d="M190.2,171.2c0,0.3-0.2,0.5-0.5,0.5c-0.3,0-0.5-0.2-0.5-0.5s0.2-0.5,0.5-0.5C189.9,170.7,190.2,171,190.2,171.2"/>
		<path d="M186,169.6c0,0.3-0.2,0.5-0.5,0.5c-0.3,0-0.5-0.2-0.5-0.5s0.2-0.5,0.5-0.5C185.8,169.1,186,169.3,186,169.6"/>
		<path d="M180.1,168.6c0,0.3-0.2,0.5-0.5,0.5c-0.3,0-0.5-0.2-0.5-0.5s0.2-0.5,0.5-0.5C179.9,168.1,180.1,168.3,180.1,168.6"/>
		<path d="M178.4,168c0,0.3-0.2,0.5-0.5,0.5c-0.3,0-0.5-0.2-0.5-0.5s0.2-0.5,0.5-0.5C178.2,167.5,178.4,167.7,178.4,168"/>
		<path d="M176.8,167.8c0,0.3-0.2,0.5-0.5,0.5c-0.3,0-0.5-0.2-0.5-0.5s0.2-0.5,0.5-0.5C176.6,167.3,176.8,167.5,176.8,167.8"/>
		<path d="M175.2,166.9c0,0.3-0.2,0.5-0.5,0.5c-0.3,0-0.5-0.2-0.5-0.5s0.2-0.5,0.5-0.5C175,166.4,175.2,166.6,175.2,166.9"/>
		<path d="M174.5,167c0,0.3-0.2,0.5-0.5,0.5s-0.5-0.2-0.5-0.5s0.2-0.5,0.5-0.5C174.3,166.5,174.5,166.8,174.5,167"/>
		<path d="M174.5,166.5c0,0.3-0.2,0.5-0.5,0.5s-0.5-0.2-0.5-0.5s0.2-0.5,0.5-0.5C174.2,166,174.5,166.3,174.5,166.5"/>
		<path d="M174.6,166.7c0,0.3-0.2,0.5-0.5,0.5s-0.5-0.2-0.5-0.5s0.2-0.5,0.5-0.5C174.4,166.1,174.6,166.4,174.6,166.7"/>
		<path d="M173.7,163.9c0,0.3-0.2,0.5-0.5,0.5c-0.3,0-0.5-0.2-0.5-0.5s0.2-0.5,0.5-0.5C173.4,163.4,173.7,163.7,173.7,163.9"/>
		<path d="M184.3,167.6c0,0.3-0.2,0.5-0.5,0.5s-0.5-0.2-0.5-0.5s0.2-0.5,0.5-0.5C184.1,167.1,184.3,167.3,184.3,167.6"/>
		<path d="M177.3,169.1c0,0.3-0.2,0.5-0.5,0.5s-0.5-0.2-0.5-0.5s0.2-0.5,0.5-0.5C177.1,168.6,177.3,168.8,177.3,169.1"/>
		<path d="M179.2,170.4c0,0.3-0.2,0.5-0.5,0.5c-0.3,0-0.5-0.2-0.5-0.5s0.2-0.5,0.5-0.5C179,169.9,179.2,170.2,179.2,170.4"/>
		<path d="M181.5,172.1c0,0.3-0.2,0.5-0.5,0.5c-0.3,0-0.5-0.2-0.5-0.5s0.2-0.5,0.5-0.5C181.3,171.6,181.5,171.8,181.5,172.1"/>
		<path d="M190.1,182.8c0,0.3-0.2,0.5-0.5,0.5c-0.3,0-0.5-0.2-0.5-0.5s0.2-0.5,0.5-0.5C189.9,182.3,190.1,182.5,190.1,182.8"/>
		<path d="M198.8,185.4c0,0.3-0.2,0.5-0.5,0.5c-0.3,0-0.5-0.2-0.5-0.5s0.2-0.5,0.5-0.5C198.6,184.9,198.8,185.2,198.8,185.4"/>
		<path d="M203.1,190.5c0,0.3-0.2,0.5-0.5,0.5c-0.3,0-0.5-0.2-0.5-0.5s0.2-0.5,0.5-0.5C202.9,190,203.1,190.2,203.1,190.5"/>
		<path d="M185.6,175.7c0,0.3-0.2,0.5-0.5,0.5c-0.3,0-0.5-0.2-0.5-0.5s0.2-0.5,0.5-0.5C185.4,175.2,185.6,175.4,185.6,175.7"/>
		<path d="M199.8,187.5c0,0.3-0.2,0.5-0.5,0.5s-0.5-0.2-0.5-0.5s0.2-0.5,0.5-0.5C199.6,187,199.8,187.2,199.8,187.5"/>
		<path d="M180.5,187.6c0,0.3-0.2,0.5-0.5,0.5c-0.3,0-0.5-0.2-0.5-0.5s0.2-0.5,0.5-0.5C180.3,187.1,180.5,187.3,180.5,187.6"/>
		<path d="M185.3,176.2c0,0.3-0.2,0.5-0.5,0.5c-0.3,0-0.5-0.2-0.5-0.5s0.2-0.5,0.5-0.5C185.1,175.7,185.3,175.9,185.3,176.2"/>
		<path d="M184.5,175.3c0,0.3-0.2,0.5-0.5,0.5c-0.3,0-0.5-0.2-0.5-0.5s0.2-0.5,0.5-0.5C184.3,174.8,184.5,175,184.5,175.3"/>
		<path d="M187.6,175.5c0,0.3-0.2,0.5-0.5,0.5c-0.3,0-0.5-0.2-0.5-0.5s0.2-0.5,0.5-0.5C187.4,175,187.6,175.2,187.6,175.5"/>
		<path d="M188.5,175.3c0,0.3-0.2,0.5-0.5,0.5c-0.3,0-0.5-0.2-0.5-0.5s0.2-0.5,0.5-0.5C188.3,174.8,188.5,175,188.5,175.3"/>
		<path d="M191.3,175.2c0,0.3-0.2,0.5-0.5,0.5c-0.3,0-0.5-0.2-0.5-0.5s0.2-0.5,0.5-0.5C191.1,174.7,191.3,174.9,191.3,175.2"/>
		<path d="M220.1,186.2c0,0.3-0.2,0.5-0.5,0.5c-0.3,0-0.5-0.2-0.5-0.5s0.2-0.5,0.5-0.5C219.9,185.7,220.1,185.9,220.1,186.2"/>
		<path d="M198.1,176.1c0,0.3-0.2,0.5-0.5,0.5c-0.3,0-0.5-0.2-0.5-0.5s0.2-0.5,0.5-0.5C197.9,175.6,198.1,175.8,198.1,176.1"/>
		<path d="M196.8,175c0,0.3-0.2,0.5-0.5,0.5s-0.5-0.2-0.5-0.5s0.2-0.5,0.5-0.5C196.6,174.5,196.8,174.7,196.8,175"/>
		<path d="M208.8,180c0,0.3-0.2,0.5-0.5,0.5c-0.3,0-0.5-0.2-0.5-0.5s0.2-0.5,0.5-0.5C208.6,179.5,208.8,179.7,208.8,180"/>
		<path d="M202.8,177.7c0,0.3-0.2,0.5-0.5,0.5c-0.3,0-0.5-0.2-0.5-0.5s0.2-0.5,0.5-0.5C202.5,177.2,202.8,177.4,202.8,177.7"/>
		<path d="M180.9,168.7c0,0.3-0.2,0.5-0.5,0.5c-0.3,0-0.5-0.2-0.5-0.5s0.2-0.5,0.5-0.5C180.7,168.2,180.9,168.4,180.9,168.7"/>
		<path d="M178.9,167c0,0.3-0.2,0.5-0.5,0.5c-0.3,0-0.5-0.2-0.5-0.5s0.2-0.5,0.5-0.5C178.7,166.5,178.9,166.8,178.9,167"/>
		<path d="M181.5,167.1c0,0.3-0.2,0.5-0.5,0.5c-0.3,0-0.5-0.2-0.5-0.5s0.2-0.5,0.5-0.5C181.3,166.6,181.5,166.8,181.5,167.1"/>
		<path d="M183.1,167.2c0,0.3-0.2,0.5-0.5,0.5c-0.3,0-0.5-0.2-0.5-0.5s0.2-0.5,0.5-0.5C182.9,166.7,183.1,166.9,183.1,167.2"/>
		<path d="M177.8,165c0,0.3-0.2,0.5-0.5,0.5c-0.3,0-0.5-0.2-0.5-0.5s0.2-0.5,0.5-0.5C177.5,164.5,177.8,164.7,177.8,165"/>
		<path d="M178.4,165.5c0,0.3-0.2,0.5-0.5,0.5c-0.3,0-0.5-0.2-0.5-0.5s0.2-0.5,0.5-0.5C178.1,165,178.4,165.2,178.4,165.5"/>
		<path d="M179,165.1c0,0.3-0.2,0.5-0.5,0.5c-0.3,0-0.5-0.2-0.5-0.5s0.2-0.5,0.5-0.5C178.8,164.6,179,164.8,179,165.1"/>
		<path d="M178.5,164.8c0,0.3-0.2,0.5-0.5,0.5c-0.3,0-0.5-0.2-0.5-0.5s0.2-0.5,0.5-0.5C178.3,164.3,178.5,164.5,178.5,164.8"/>
		<path d="M180,162.9c0,0.3-0.2,0.5-0.5,0.5c-0.3,0-0.5-0.2-0.5-0.5s0.2-0.5,0.5-0.5C179.8,162.4,180,162.6,180,162.9"/>
		<path d="M184.9,157.4c0,0.3-0.2,0.5-0.5,0.5c-0.3,0-0.5-0.2-0.5-0.5s0.2-0.5,0.5-0.5C184.7,156.9,184.9,157.2,184.9,157.4"/>
		<path d="M183.9,156.7c0,0.3-0.2,0.5-0.5,0.5c-0.3,0-0.5-0.2-0.5-0.5s0.2-0.5,0.5-0.5C183.6,156.2,183.9,156.5,183.9,156.7"/>
		<path d="M178.5,161.8c0,0.3-0.2,0.5-0.5,0.5s-0.5-0.2-0.5-0.5s0.2-0.5,0.5-0.5C178.3,161.3,178.5,161.5,178.5,161.8"/>
		<path d="M177.7,161.9c0,0.3-0.2,0.5-0.5,0.5s-0.5-0.2-0.5-0.5s0.2-0.5,0.5-0.5C177.5,161.4,177.7,161.7,177.7,161.9"/>
		<path d="M174.2,163.8c0,0.3-0.2,0.5-0.5,0.5c-0.3,0-0.5-0.2-0.5-0.5s0.2-0.5,0.5-0.5C174,163.4,174.2,163.6,174.2,163.8"/>
		<path d="M172.7,164.8c0,0.3-0.2,0.5-0.5,0.5c-0.3,0-0.5-0.2-0.5-0.5s0.2-0.5,0.5-0.5C172.5,164.3,172.7,164.5,172.7,164.8"/>
		<path d="M171.1,165.6c0,0.3-0.2,0.5-0.5,0.5c-0.3,0-0.5-0.2-0.5-0.5s0.2-0.5,0.5-0.5C170.9,165.1,171.1,165.4,171.1,165.6"/>
		<path d="M169.9,166c0,0.3-0.2,0.5-0.5,0.5c-0.3,0-0.5-0.2-0.5-0.5s0.2-0.5,0.5-0.5C169.7,165.5,169.9,165.8,169.9,166"/>
		<path d="M169.6,166.6c0,0.3-0.2,0.5-0.5,0.5c-0.3,0-0.5-0.2-0.5-0.5s0.2-0.5,0.5-0.5C169.3,166.1,169.6,166.3,169.6,166.6"/>
		<path d="M132,183.8c0,0.3-0.2,0.5-0.5,0.5s-0.5-0.2-0.5-0.5s0.2-0.5,0.5-0.5C131.8,183.3,132,183.5,132,183.8"/>
		<path d="M170.9,166c0,0.3-0.2,0.5-0.5,0.5c-0.3,0-0.5-0.2-0.5-0.5s0.2-0.5,0.5-0.5C170.7,165.5,170.9,165.8,170.9,166"/>
		<path d="M184.2,159.2c0,0.3-0.2,0.5-0.5,0.5c-0.3,0-0.5-0.2-0.5-0.5s0.2-0.5,0.5-0.5C184,158.7,184.2,159,184.2,159.2"/>
		<path d="M174.3,163.2c0,0.3-0.2,0.5-0.5,0.5s-0.5-0.2-0.5-0.5s0.2-0.5,0.5-0.5C174,162.7,174.3,162.9,174.3,163.2"/>
		<path d="M175.8,161.9c0,0.3-0.2,0.5-0.5,0.5c-0.3,0-0.5-0.2-0.5-0.5s0.2-0.5,0.5-0.5C175.6,161.4,175.8,161.6,175.8,161.9"/>
		<path d="M177.7,160.9c0,0.3-0.2,0.5-0.5,0.5s-0.5-0.2-0.5-0.5s0.2-0.5,0.5-0.5C177.4,160.4,177.7,160.6,177.7,160.9"/>
		<path d="M178.2,161.1c0,0.3-0.2,0.5-0.5,0.5s-0.5-0.2-0.5-0.5s0.2-0.5,0.5-0.5C178,160.6,178.2,160.8,178.2,161.1"/>
		<path d="M178.4,161.2c0,0.3-0.2,0.5-0.5,0.5s-0.5-0.2-0.5-0.5s0.2-0.5,0.5-0.5C178.2,160.7,178.4,160.9,178.4,161.2"/>
		<path d="M177.3,160.5c0,0.3-0.2,0.5-0.5,0.5c-0.3,0-0.5-0.2-0.5-0.5s0.2-0.5,0.5-0.5C177.1,160,177.3,160.3,177.3,160.5"/>
		<path d="M174,159c0,0.3-0.2,0.5-0.5,0.5c-0.3,0-0.5-0.2-0.5-0.5s0.2-0.5,0.5-0.5C173.8,158.5,174,158.7,174,159"/>
		<path d="M172.5,158c0,0.3-0.2,0.5-0.5,0.5c-0.3,0-0.5-0.2-0.5-0.5s0.2-0.5,0.5-0.5C172.2,157.5,172.5,157.7,172.5,158"/>
		<path d="M166.6,145.7c0,0.3-0.2,0.5-0.5,0.5c-0.3,0-0.5-0.2-0.5-0.5s0.2-0.5,0.5-0.5C166.3,145.2,166.6,145.4,166.6,145.7"/>
		<path d="M150.2,142c0,0.3-0.2,0.5-0.5,0.5c-0.3,0-0.5-0.2-0.5-0.5s0.2-0.5,0.5-0.5C150,141.5,150.2,141.8,150.2,142"/>
		<path d="M169.3,156.2c0,0.3-0.2,0.5-0.5,0.5c-0.3,0-0.5-0.2-0.5-0.5s0.2-0.5,0.5-0.5C169.1,155.7,169.3,155.9,169.3,156.2"/>
		<path d="M150,164.9c0,0.3-0.2,0.5-0.5,0.5c-0.3,0-0.5-0.2-0.5-0.5s0.2-0.5,0.5-0.5C149.7,164.4,150,164.6,150,164.9"/>
		<path d="M168,154.6c0,0.3-0.2,0.5-0.5,0.5c-0.3,0-0.5-0.2-0.5-0.5s0.2-0.5,0.5-0.5C167.7,154.1,168,154.4,168,154.6"/>
		<path d="M168.1,152.7c0,0.3-0.2,0.5-0.5,0.5s-0.5-0.2-0.5-0.5s0.2-0.5,0.5-0.5C167.8,152.2,168.1,152.4,168.1,152.7"/>
		<path d="M165,140.7c0,0.3-0.2,0.5-0.5,0.5c-0.3,0-0.5-0.2-0.5-0.5s0.2-0.5,0.5-0.5C164.7,140.2,165,140.4,165,140.7"/>
		<path d="M167.3,151.3c0,0.3-0.2,0.5-0.5,0.5c-0.3,0-0.5-0.2-0.5-0.5s0.2-0.5,0.5-0.5C167.1,150.8,167.3,151.1,167.3,151.3"/>
		<path d="M165.7,152.1c0,0.3-0.2,0.5-0.5,0.5c-0.3,0-0.5-0.2-0.5-0.5s0.2-0.5,0.5-0.5C165.4,151.6,165.7,151.8,165.7,152.1"/>
		<path d="M164.9,153.5c0,0.3-0.2,0.5-0.5,0.5c-0.3,0-0.5-0.2-0.5-0.5s0.2-0.5,0.5-0.5C164.7,153,164.9,153.2,164.9,153.5"/>
		<path d="M164,155.1c0,0.3-0.2,0.5-0.5,0.5c-0.3,0-0.5-0.2-0.5-0.5s0.2-0.5,0.5-0.5C163.8,154.6,164,154.9,164,155.1"/>
		<path d="M135.8,152.7c0,0.3-0.2,0.5-0.5,0.5c-0.3,0-0.5-0.2-0.5-0.5s0.2-0.5,0.5-0.5C135.5,152.2,135.8,152.4,135.8,152.7"/>
		<path d="M159.2,147.6c0,0.3-0.2,0.5-0.5,0.5s-0.5-0.2-0.5-0.5s0.2-0.5,0.5-0.5C159,147.1,159.2,147.3,159.2,147.6"/>
		<path d="M164.7,156c0,0.3-0.2,0.5-0.5,0.5c-0.3,0-0.5-0.2-0.5-0.5s0.2-0.5,0.5-0.5C164.5,155.5,164.7,155.7,164.7,156"/>
		<path d="M163.5,144.7c0,0.3-0.2,0.5-0.5,0.5c-0.3,0-0.5-0.2-0.5-0.5s0.2-0.5,0.5-0.5C163.3,144.2,163.5,144.4,163.5,144.7"/>
		<path d="M169.1,154c0,0.3-0.2,0.5-0.5,0.5c-0.3,0-0.5-0.2-0.5-0.5s0.2-0.5,0.5-0.5C168.8,153.5,169.1,153.8,169.1,154"/>
		<path d="M168.8,154.4c0,0.3-0.2,0.5-0.5,0.5c-0.3,0-0.5-0.2-0.5-0.5s0.2-0.5,0.5-0.5C168.6,153.9,168.8,154.1,168.8,154.4"/>
		<path d="M169.1,153.9c0,0.3-0.2,0.5-0.5,0.5s-0.5-0.2-0.5-0.5s0.2-0.5,0.5-0.5C168.9,153.4,169.1,153.6,169.1,153.9"/>
		<path d="M165.8,152.8c0,0.3-0.2,0.5-0.5,0.5c-0.3,0-0.5-0.2-0.5-0.5s0.2-0.5,0.5-0.5C165.5,152.3,165.8,152.6,165.8,152.8"/>
		<path d="M163.7,152.4c0,0.3-0.2,0.5-0.5,0.5c-0.3,0-0.5-0.2-0.5-0.5s0.2-0.5,0.5-0.5C163.5,151.9,163.7,152.1,163.7,152.4"/>
		<path d="M163.3,151.6c0,0.3-0.2,0.5-0.5,0.5s-0.5-0.2-0.5-0.5s0.2-0.5,0.5-0.5C163.1,151.1,163.3,151.3,163.3,151.6"/>
		<path d="M136.3,133.1c0,0.3-0.2,0.5-0.5,0.5c-0.3,0-0.5-0.2-0.5-0.5s0.2-0.5,0.5-0.5C136.1,132.6,136.3,132.8,136.3,133.1"/>
		<path d="M160.9,153.1c0,0.3-0.2,0.5-0.5,0.5s-0.5-0.2-0.5-0.5s0.2-0.5,0.5-0.5C160.6,152.6,160.9,152.9,160.9,153.1"/>
		<path d="M160.7,154.5c0,0.3-0.2,0.5-0.5,0.5c-0.3,0-0.5-0.2-0.5-0.5s0.2-0.5,0.5-0.5C160.5,154,160.7,154.2,160.7,154.5"/>
		<path d="M160.3,156.3c0,0.3-0.2,0.5-0.5,0.5c-0.3,0-0.5-0.2-0.5-0.5s0.2-0.5,0.5-0.5C160.1,155.8,160.3,156,160.3,156.3"/>
		<path d="M141.5,146.6c0,0.3-0.2,0.5-0.5,0.5c-0.3,0-0.5-0.2-0.5-0.5s0.2-0.5,0.5-0.5C141.3,146.1,141.5,146.3,141.5,146.6"/>
		<path d="M161.1,161c0,0.3-0.2,0.5-0.5,0.5c-0.3,0-0.5-0.2-0.5-0.5s0.2-0.5,0.5-0.5C160.8,160.5,161.1,160.7,161.1,161"/>
		<path d="M160.5,162.7c0,0.3-0.2,0.5-0.5,0.5c-0.3,0-0.5-0.2-0.5-0.5s0.2-0.5,0.5-0.5C160.2,162.2,160.5,162.5,160.5,162.7"/>
		<path d="M160.3,163.9c0,0.3-0.2,0.5-0.5,0.5c-0.3,0-0.5-0.2-0.5-0.5s0.2-0.5,0.5-0.5C160.1,163.4,160.3,163.6,160.3,163.9"/>
		<path d="M159.7,164.7c0,0.3-0.2,0.5-0.5,0.5c-0.3,0-0.5-0.2-0.5-0.5s0.2-0.5,0.5-0.5C159.5,164.2,159.7,164.4,159.7,164.7"/>
		<path d="M159.6,164.8c0,0.3-0.2,0.5-0.5,0.5c-0.3,0-0.5-0.2-0.5-0.5s0.2-0.5,0.5-0.5C159.4,164.3,159.6,164.5,159.6,164.8"/>
		<path d="M135.1,167.3c0,0.3-0.2,0.5-0.5,0.5c-0.3,0-0.5-0.2-0.5-0.5s0.2-0.5,0.5-0.5C134.8,166.8,135.1,167,135.1,167.3"/>
		<path d="M118.5,177c0,0.3-0.2,0.5-0.5,0.5c-0.3,0-0.5-0.2-0.5-0.5s0.2-0.5,0.5-0.5C118.3,176.5,118.5,176.7,118.5,177"/>
		<path d="M127.7,165.7c0,0.3-0.2,0.5-0.5,0.5s-0.5-0.2-0.5-0.5s0.2-0.5,0.5-0.5C127.5,165.2,127.7,165.4,127.7,165.7"/>
		<path d="M164.3,166.5c0,0.3-0.2,0.5-0.5,0.5c-0.3,0-0.5-0.2-0.5-0.5s0.2-0.5,0.5-0.5C164.1,166,164.3,166.2,164.3,166.5"/>
		<path d="M166.8,167.6c0,0.3-0.2,0.5-0.5,0.5c-0.3,0-0.5-0.2-0.5-0.5s0.2-0.5,0.5-0.5C166.6,167.1,166.8,167.3,166.8,167.6"/>
		<path d="M170.2,169.6c0,0.3-0.2,0.5-0.5,0.5c-0.3,0-0.5-0.2-0.5-0.5s0.2-0.5,0.5-0.5C170,169.1,170.2,169.4,170.2,169.6"/>
		<path d="M168.2,171.1c0,0.3-0.2,0.5-0.5,0.5c-0.3,0-0.5-0.2-0.5-0.5s0.2-0.5,0.5-0.5C168,170.6,168.2,170.8,168.2,171.1"/>
		<path d="M161.1,183.4c0,0.3-0.2,0.5-0.5,0.5c-0.3,0-0.5-0.2-0.5-0.5s0.2-0.5,0.5-0.5C160.8,182.9,161.1,183.1,161.1,183.4"/>
		<path d="M164.7,170.6c0,0.3-0.2,0.5-0.5,0.5c-0.3,0-0.5-0.2-0.5-0.5s0.2-0.5,0.5-0.5C164.5,170.1,164.7,170.4,164.7,170.6"/>
		<path d="M161.7,169.2c0,0.3-0.2,0.5-0.5,0.5c-0.3,0-0.5-0.2-0.5-0.5s0.2-0.5,0.5-0.5C161.5,168.7,161.7,169,161.7,169.2"/>
		<path d="M159.9,167.3c0,0.3-0.2,0.5-0.5,0.5c-0.3,0-0.5-0.2-0.5-0.5s0.2-0.5,0.5-0.5C159.6,166.8,159.9,167.1,159.9,167.3"/>
		<path d="M137.8,178c0,0.3-0.2,0.5-0.5,0.5c-0.3,0-0.5-0.2-0.5-0.5s0.2-0.5,0.5-0.5C137.6,177.5,137.8,177.7,137.8,178"/>
		<path d="M156.6,159.6c0,0.3-0.2,0.5-0.5,0.5c-0.3,0-0.5-0.2-0.5-0.5s0.2-0.5,0.5-0.5C156.4,159.1,156.6,159.3,156.6,159.6"/>
		<path d="M155.8,156.8c0,0.3-0.2,0.5-0.5,0.5s-0.5-0.2-0.5-0.5s0.2-0.5,0.5-0.5C155.6,156.3,155.8,156.5,155.8,156.8"/>
		<path d="M146.3,151.6c0,0.3-0.2,0.5-0.5,0.5s-0.5-0.2-0.5-0.5s0.2-0.5,0.5-0.5C146.1,151.1,146.3,151.4,146.3,151.6"/>
		<path d="M88,152.8c0,0.3-0.2,0.5-0.5,0.5c-0.3,0-0.5-0.2-0.5-0.5s0.2-0.5,0.5-0.5C87.8,152.3,88,152.5,88,152.8"/>
		<path d="M87.2,154.1c0,0.3-0.2,0.5-0.5,0.5c-0.3,0-0.5-0.2-0.5-0.5s0.2-0.5,0.5-0.5C87,153.6,87.2,153.9,87.2,154.1"/>
		<path d="M146.3,157.6c0,0.3-0.2,0.5-0.5,0.5s-0.5-0.2-0.5-0.5s0.2-0.5,0.5-0.5C146.1,157.1,146.3,157.3,146.3,157.6"/>
		<path d="M150.4,160.5c0,0.3-0.2,0.5-0.5,0.5c-0.3,0-0.5-0.2-0.5-0.5s0.2-0.5,0.5-0.5C150.1,160,150.4,160.2,150.4,160.5"/>
		<path d="M151.9,162.6c0,0.3-0.2,0.5-0.5,0.5c-0.3,0-0.5-0.2-0.5-0.5s0.2-0.5,0.5-0.5C151.7,162.1,151.9,162.3,151.9,162.6"/>
		<path d="M151.6,164.1c0,0.3-0.2,0.5-0.5,0.5s-0.5-0.2-0.5-0.5s0.2-0.5,0.5-0.5C151.3,163.6,151.6,163.8,151.6,164.1"/>
		<path d="M137.2,168.3c0,0.3-0.2,0.5-0.5,0.5c-0.3,0-0.5-0.2-0.5-0.5s0.2-0.5,0.5-0.5C136.9,167.8,137.2,168,137.2,168.3"/>
		<path d="M150.6,165c0,0.3-0.2,0.5-0.5,0.5c-0.3,0-0.5-0.2-0.5-0.5s0.2-0.5,0.5-0.5C150.4,164.5,150.6,164.7,150.6,165"/>
		<path d="M148.5,164.5c0,0.3-0.2,0.5-0.5,0.5s-0.5-0.2-0.5-0.5s0.2-0.5,0.5-0.5C148.3,164,148.5,164.2,148.5,164.5"/>
		<path d="M139.8,185.7c0,0.3-0.2,0.5-0.5,0.5c-0.3,0-0.5-0.2-0.5-0.5s0.2-0.5,0.5-0.5C139.6,185.2,139.8,185.4,139.8,185.7"/>
		<path d="M109.6,161.5c0,0.3-0.2,0.5-0.5,0.5c-0.3,0-0.5-0.2-0.5-0.5s0.2-0.5,0.5-0.5C109.4,161,109.6,161.2,109.6,161.5"/>
		<path d="M135.2,159.1c0,0.3-0.2,0.5-0.5,0.5s-0.5-0.2-0.5-0.5s0.2-0.5,0.5-0.5C135,158.6,135.2,158.8,135.2,159.1"/>
		<path d="M105.8,160c0,0.3-0.2,0.5-0.5,0.5c-0.3,0-0.5-0.2-0.5-0.5s0.2-0.5,0.5-0.5C105.5,159.5,105.8,159.7,105.8,160"/>
		<path d="M141,161.1c0,0.3-0.2,0.5-0.5,0.5c-0.3,0-0.5-0.2-0.5-0.5s0.2-0.5,0.5-0.5C140.8,160.6,141,160.8,141,161.1"/>
		<path d="M124.5,151.1c0,0.3-0.2,0.5-0.5,0.5c-0.3,0-0.5-0.2-0.5-0.5s0.2-0.5,0.5-0.5C124.3,150.6,124.5,150.9,124.5,151.1"/>
		<path d="M140.8,163.2c0,0.3-0.2,0.5-0.5,0.5c-0.3,0-0.5-0.2-0.5-0.5s0.2-0.5,0.5-0.5C140.6,162.7,140.8,162.9,140.8,163.2"/>
		<path d="M140.5,166.4c0,0.3-0.2,0.5-0.5,0.5c-0.3,0-0.5-0.2-0.5-0.5s0.2-0.5,0.5-0.5C140.3,165.9,140.5,166.1,140.5,166.4"/>
		<path d="M141,166.7c0,0.3-0.2,0.5-0.5,0.5c-0.3,0-0.5-0.2-0.5-0.5s0.2-0.5,0.5-0.5C140.8,166.2,141,166.4,141,166.7"/>
		<path d="M141.2,176.4c0,0.3-0.2,0.5-0.5,0.5c-0.3,0-0.5-0.2-0.5-0.5s0.2-0.5,0.5-0.5C141,175.9,141.2,176.1,141.2,176.4"/>
		<path d="M128.9,172.3c0,0.3-0.2,0.5-0.5,0.5c-0.3,0-0.5-0.2-0.5-0.5s0.2-0.5,0.5-0.5C128.6,171.8,128.9,172,128.9,172.3"/>
		<path d="M122.8,168c0,0.3-0.2,0.5-0.5,0.5c-0.3,0-0.5-0.2-0.5-0.5s0.2-0.5,0.5-0.5C122.5,167.5,122.8,167.7,122.8,168"/>
		<path d="M150.5,165.1c0,0.3-0.2,0.5-0.5,0.5c-0.3,0-0.5-0.2-0.5-0.5s0.2-0.5,0.5-0.5C150.3,164.6,150.5,164.8,150.5,165.1"/>
		<path d="M152,165.5c0,0.3-0.2,0.5-0.5,0.5c-0.3,0-0.5-0.2-0.5-0.5s0.2-0.5,0.5-0.5C151.7,165,152,165.3,152,165.5"/>
		<path d="M155.9,166.5c0,0.3-0.2,0.5-0.5,0.5c-0.3,0-0.5-0.2-0.5-0.5s0.2-0.5,0.5-0.5C155.6,166,155.9,166.2,155.9,166.5"/>
		<path d="M159.1,166.1c0,0.3-0.2,0.5-0.5,0.5c-0.3,0-0.5-0.2-0.5-0.5s0.2-0.5,0.5-0.5C158.9,165.6,159.1,165.8,159.1,166.1"/>
		<path d="M148.5,188.6c0,0.3-0.2,0.5-0.5,0.5c-0.3,0-0.5-0.2-0.5-0.5s0.2-0.5,0.5-0.5C148.3,188.1,148.5,188.3,148.5,188.6"/>
		<path d="M162,165.3c0,0.3-0.2,0.5-0.5,0.5c-0.3,0-0.5-0.2-0.5-0.5s0.2-0.5,0.5-0.5C161.8,164.8,162,165,162,165.3"/>
		<path d="M164,162.4c0,0.3-0.2,0.5-0.5,0.5c-0.3,0-0.5-0.2-0.5-0.5s0.2-0.5,0.5-0.5C163.8,161.9,164,162.1,164,162.4"/>
		<path d="M165.6,158.5c0,0.3-0.2,0.5-0.5,0.5c-0.3,0-0.5-0.2-0.5-0.5s0.2-0.5,0.5-0.5C165.3,158,165.6,158.2,165.6,158.5"/>
		<path d="M164.1,141.6c0,0.3-0.2,0.5-0.5,0.5c-0.3,0-0.5-0.2-0.5-0.5s0.2-0.5,0.5-0.5C163.9,141.1,164.1,141.3,164.1,141.6"/>
		<path d="M158.2,116.2c0,0.3-0.2,0.5-0.5,0.5c-0.3,0-0.5-0.2-0.5-0.5s0.2-0.5,0.5-0.5C157.9,115.7,158.2,116,158.2,116.2"/>
		<path d="M164.1,145.1c0,0.3-0.2,0.5-0.5,0.5s-0.5-0.2-0.5-0.5s0.2-0.5,0.5-0.5C163.9,144.6,164.1,144.8,164.1,145.1"/>
		<path d="M159.1,157.6c0,0.3-0.2,0.5-0.5,0.5c-0.3,0-0.5-0.2-0.5-0.5s0.2-0.5,0.5-0.5C158.9,157.1,159.1,157.4,159.1,157.6"/>
		<path d="M141.7,162c0,0.3-0.2,0.5-0.5,0.5c-0.3,0-0.5-0.2-0.5-0.5s0.2-0.5,0.5-0.5C141.4,161.5,141.7,161.8,141.7,162"/>
		<path d="M130.4,168.5c0,0.3-0.2,0.5-0.5,0.5s-0.5-0.2-0.5-0.5s0.2-0.5,0.5-0.5C130.2,168,130.4,168.2,130.4,168.5"/>
		<path d="M127.8,168.6c0,0.3-0.2,0.5-0.5,0.5c-0.3,0-0.5-0.2-0.5-0.5s0.2-0.5,0.5-0.5C127.6,168.1,127.8,168.3,127.8,168.6"/>
		<path d="M145.5,157.2c0,0.3-0.2,0.5-0.5,0.5c-0.3,0-0.5-0.2-0.5-0.5s0.2-0.5,0.5-0.5C145.3,156.7,145.5,156.9,145.5,157.2"/>
		<path d="M119.2,146.2c0,0.3-0.2,0.5-0.5,0.5c-0.3,0-0.5-0.2-0.5-0.5s0.2-0.5,0.5-0.5C118.9,145.7,119.2,145.9,119.2,146.2"/>
		<path d="M142.4,157.3c0,0.3-0.2,0.5-0.5,0.5c-0.3,0-0.5-0.2-0.5-0.5s0.2-0.5,0.5-0.5C142.1,156.8,142.4,157,142.4,157.3"/>
		<path d="M149.8,167c0,0.3-0.2,0.5-0.5,0.5s-0.5-0.2-0.5-0.5s0.2-0.5,0.5-0.5C149.6,166.5,149.8,166.7,149.8,167"/>
		<path d="M149.8,168.5c0,0.3-0.2,0.5-0.5,0.5c-0.3,0-0.5-0.2-0.5-0.5s0.2-0.5,0.5-0.5C149.6,168,149.8,168.3,149.8,168.5"/>
		<path d="M149.9,170c0,0.3-0.2,0.5-0.5,0.5s-0.5-0.2-0.5-0.5s0.2-0.5,0.5-0.5C149.6,169.5,149.9,169.7,149.9,170"/>
		<path d="M151.8,167.8c0,0.3-0.2,0.5-0.5,0.5c-0.3,0-0.5-0.2-0.5-0.5s0.2-0.5,0.5-0.5C151.5,167.3,151.8,167.6,151.8,167.8"/>
		<path d="M153.6,166.5c0,0.3-0.2,0.5-0.5,0.5c-0.3,0-0.5-0.2-0.5-0.5s0.2-0.5,0.5-0.5C153.4,166,153.6,166.3,153.6,166.5"/>
		<path d="M154,166.3c0,0.3-0.2,0.5-0.5,0.5c-0.3,0-0.5-0.2-0.5-0.5s0.2-0.5,0.5-0.5C153.7,165.8,154,166,154,166.3"/>
		<path d="M152.9,166.7c0,0.3-0.2,0.5-0.5,0.5c-0.3,0-0.5-0.2-0.5-0.5s0.2-0.5,0.5-0.5C152.7,166.2,152.9,166.4,152.9,166.7"/>
		<path d="M151.8,166.4c0,0.3-0.2,0.5-0.5,0.5s-0.5-0.2-0.5-0.5s0.2-0.5,0.5-0.5C151.6,165.9,151.8,166.2,151.8,166.4"/>
		<path d="M127.3,187.2c0,0.3-0.2,0.5-0.5,0.5s-0.5-0.2-0.5-0.5s0.2-0.5,0.5-0.5C127,186.7,127.3,186.9,127.3,187.2"/>
		<path d="M143.2,169.8c0,0.3-0.2,0.5-0.5,0.5c-0.3,0-0.5-0.2-0.5-0.5s0.2-0.5,0.5-0.5C143,169.3,143.2,169.5,143.2,169.8"/>
		<path d="M166.3,169.6c0,0.3-0.2,0.5-0.5,0.5c-0.3,0-0.5-0.2-0.5-0.5s0.2-0.5,0.5-0.5C166.1,169.1,166.3,169.3,166.3,169.6"/>
		<path d="M169.1,170.9c0,0.3-0.2,0.5-0.5,0.5c-0.3,0-0.5-0.2-0.5-0.5s0.2-0.5,0.5-0.5C168.9,170.4,169.1,170.7,169.1,170.9"/>
		<path d="M174.5,173.6c0,0.3-0.2,0.5-0.5,0.5c-0.3,0-0.5-0.2-0.5-0.5s0.2-0.5,0.5-0.5C174.3,173.1,174.5,173.3,174.5,173.6"/>
		<path d="M180.1,173.3c0,0.3-0.2,0.5-0.5,0.5c-0.3,0-0.5-0.2-0.5-0.5s0.2-0.5,0.5-0.5C179.9,172.8,180.1,173.1,180.1,173.3"/>
		<path d="M203.5,183.6c0,0.3-0.2,0.5-0.5,0.5c-0.3,0-0.5-0.2-0.5-0.5s0.2-0.5,0.5-0.5C203.2,183.1,203.5,183.3,203.5,183.6"/>
		<path d="M183.7,171.6c0,0.3-0.2,0.5-0.5,0.5c-0.3,0-0.5-0.2-0.5-0.5s0.2-0.5,0.5-0.5C183.5,171.1,183.7,171.3,183.7,171.6"/>
		<path d="M181.5,170.8c0,0.3-0.2,0.5-0.5,0.5s-0.5-0.2-0.5-0.5s0.2-0.5,0.5-0.5C181.3,170.3,181.5,170.5,181.5,170.8"/>
		<path d="M177.8,169.1c0,0.3-0.2,0.5-0.5,0.5c-0.3,0-0.5-0.2-0.5-0.5s0.2-0.5,0.5-0.5C177.6,168.6,177.8,168.9,177.8,169.1"/>
		<path d="M176,167.7c0,0.3-0.2,0.5-0.5,0.5c-0.3,0-0.5-0.2-0.5-0.5s0.2-0.5,0.5-0.5C175.8,167.2,176,167.4,176,167.7"/>
		<path d="M174.7,165.5c0,0.3-0.2,0.5-0.5,0.5c-0.3,0-0.5-0.2-0.5-0.5s0.2-0.5,0.5-0.5C174.5,165,174.7,165.3,174.7,165.5"/>
		<path d="M173.2,158.9c0,0.3-0.2,0.5-0.5,0.5c-0.3,0-0.5-0.2-0.5-0.5s0.2-0.5,0.5-0.5C173,158.4,173.2,158.6,173.2,158.9"/>
		<path d="M171.5,160.2c0,0.3-0.2,0.5-0.5,0.5c-0.3,0-0.5-0.2-0.5-0.5s0.2-0.5,0.5-0.5C171.3,159.7,171.5,159.9,171.5,160.2"/>
		<path d="M173,160.8c0,0.3-0.2,0.5-0.5,0.5c-0.3,0-0.5-0.2-0.5-0.5s0.2-0.5,0.5-0.5C172.8,160.3,173,160.5,173,160.8"/>
		<path d="M173.6,159.3c0,0.3-0.2,0.5-0.5,0.5c-0.3,0-0.5-0.2-0.5-0.5s0.2-0.5,0.5-0.5C173.4,158.8,173.6,159,173.6,159.3"/>
		<path d="M174.8,147.3c0,0.3-0.2,0.5-0.5,0.5c-0.3,0-0.5-0.2-0.5-0.5s0.2-0.5,0.5-0.5C174.6,146.8,174.8,147.1,174.8,147.3"/>
		<path d="M174.6,146.5c0,0.3-0.2,0.5-0.5,0.5s-0.5-0.2-0.5-0.5s0.2-0.5,0.5-0.5C174.4,146,174.6,146.3,174.6,146.5"/>
		<path d="M175.7,158c0,0.3-0.2,0.5-0.5,0.5c-0.3,0-0.5-0.2-0.5-0.5s0.2-0.5,0.5-0.5C175.5,157.5,175.7,157.7,175.7,158"/>
		<path d="M177,158.5c0,0.3-0.2,0.5-0.5,0.5c-0.3,0-0.5-0.2-0.5-0.5s0.2-0.5,0.5-0.5C176.8,158,177,158.2,177,158.5"/>
		<path d="M178.2,159.2c0,0.3-0.2,0.5-0.5,0.5c-0.3,0-0.5-0.2-0.5-0.5s0.2-0.5,0.5-0.5C177.9,158.7,178.2,159,178.2,159.2"/>
		<path d="M190.3,158c0,0.3-0.2,0.5-0.5,0.5s-0.5-0.2-0.5-0.5s0.2-0.5,0.5-0.5C190.1,157.5,190.3,157.8,190.3,158"/>
		<path d="M182.7,163c0,0.3-0.2,0.5-0.5,0.5c-0.3,0-0.5-0.2-0.5-0.5s0.2-0.5,0.5-0.5C182.5,162.5,182.7,162.8,182.7,163"/>
		<path d="M175.7,170.1c0,0.3-0.2,0.5-0.5,0.5s-0.5-0.2-0.5-0.5s0.2-0.5,0.5-0.5C175.5,169.6,175.7,169.8,175.7,170.1"/>
		<path d="M173.2,172.3c0,0.3-0.2,0.5-0.5,0.5c-0.3,0-0.5-0.2-0.5-0.5s0.2-0.5,0.5-0.5C173,171.8,173.2,172,173.2,172.3"/>
		<path d="M169.6,175.4c0,0.3-0.2,0.5-0.5,0.5c-0.3,0-0.5-0.2-0.5-0.5s0.2-0.5,0.5-0.5C169.4,174.9,169.6,175.2,169.6,175.4"/>
		<path d="M164.1,190.5c0,0.3-0.2,0.5-0.5,0.5c-0.3,0-0.5-0.2-0.5-0.5s0.2-0.5,0.5-0.5C163.9,190,164.1,190.3,164.1,190.5"/>
		<path d="M168.4,179.1c0,0.3-0.2,0.5-0.5,0.5c-0.3,0-0.5-0.2-0.5-0.5s0.2-0.5,0.5-0.5C168.2,178.6,168.4,178.9,168.4,179.1"/>
		<path d="M168.9,178.7c0,0.3-0.2,0.5-0.5,0.5c-0.3,0-0.5-0.2-0.5-0.5s0.2-0.5,0.5-0.5C168.7,178.2,168.9,178.5,168.9,178.7"/>
		<path d="M168,176.6c0,0.3-0.2,0.5-0.5,0.5c-0.3,0-0.5-0.2-0.5-0.5s0.2-0.5,0.5-0.5C167.7,176.1,168,176.3,168,176.6"/>
		<path d="M167.6,176.8c0,0.3-0.2,0.5-0.5,0.5c-0.3,0-0.5-0.2-0.5-0.5s0.2-0.5,0.5-0.5C167.4,176.3,167.6,176.5,167.6,176.8"/>
		<path d="M160.8,179.1c0,0.3-0.2,0.5-0.5,0.5c-0.3,0-0.5-0.2-0.5-0.5s0.2-0.5,0.5-0.5C160.6,178.6,160.8,178.8,160.8,179.1"/>
		<path d="M163.4,178c0,0.3-0.2,0.5-0.5,0.5s-0.5-0.2-0.5-0.5s0.2-0.5,0.5-0.5C163.1,177.5,163.4,177.7,163.4,178"/>
		<path d="M125.7,201.4c0,0.3-0.2,0.5-0.5,0.5c-0.3,0-0.5-0.2-0.5-0.5s0.2-0.5,0.5-0.5C125.5,200.9,125.7,201.1,125.7,201.4"/>
		<path d="M159.7,187.4c0,0.3-0.2,0.5-0.5,0.5s-0.5-0.2-0.5-0.5s0.2-0.5,0.5-0.5C159.4,186.9,159.7,187.1,159.7,187.4"/>
		<path d="M163.6,178.5c0,0.3-0.2,0.5-0.5,0.5s-0.5-0.2-0.5-0.5s0.2-0.5,0.5-0.5C163.3,178,163.6,178.2,163.6,178.5"/>
		<path d="M163.9,179.4c0,0.3-0.2,0.5-0.5,0.5c-0.3,0-0.5-0.2-0.5-0.5s0.2-0.5,0.5-0.5C163.7,178.9,163.9,179.1,163.9,179.4"/>
		<path d="M166.6,175c0,0.3-0.2,0.5-0.5,0.5c-0.3,0-0.5-0.2-0.5-0.5s0.2-0.5,0.5-0.5C166.4,174.5,166.6,174.8,166.6,175"/>
		<path d="M154.9,184.3c0,0.3-0.2,0.5-0.5,0.5c-0.3,0-0.5-0.2-0.5-0.5s0.2-0.5,0.5-0.5C154.7,183.8,154.9,184,154.9,184.3"/>
		<path d="M167.3,173.5c0,0.3-0.2,0.5-0.5,0.5c-0.3,0-0.5-0.2-0.5-0.5s0.2-0.5,0.5-0.5C167,173,167.3,173.2,167.3,173.5"/>
		<path d="M168.9,172.9c0,0.3-0.2,0.5-0.5,0.5c-0.3,0-0.5-0.2-0.5-0.5s0.2-0.5,0.5-0.5C168.7,172.4,168.9,172.6,168.9,172.9"/>
		<path d="M168.8,171.5c0,0.3-0.2,0.5-0.5,0.5c-0.3,0-0.5-0.2-0.5-0.5s0.2-0.5,0.5-0.5C168.5,171,168.8,171.2,168.8,171.5"/>
		<path d="M168.6,171c0,0.3-0.2,0.5-0.5,0.5c-0.3,0-0.5-0.2-0.5-0.5s0.2-0.5,0.5-0.5C168.3,170.5,168.6,170.7,168.6,171"/>
		<path d="M169.3,170.1c0,0.3-0.2,0.5-0.5,0.5c-0.3,0-0.5-0.2-0.5-0.5s0.2-0.5,0.5-0.5C169.1,169.6,169.3,169.8,169.3,170.1"/>
		<path d="M168.8,169.9c0,0.3-0.2,0.5-0.5,0.5c-0.3,0-0.5-0.2-0.5-0.5s0.2-0.5,0.5-0.5C168.5,169.4,168.8,169.7,168.8,169.9"/>
		<path d="M168.9,169.9c0,0.3-0.2,0.5-0.5,0.5c-0.3,0-0.5-0.2-0.5-0.5s0.2-0.5,0.5-0.5C168.7,169.4,168.9,169.6,168.9,169.9"/>
		<path d="M168.4,169.9c0,0.3-0.2,0.5-0.5,0.5c-0.3,0-0.5-0.2-0.5-0.5s0.2-0.5,0.5-0.5C168.1,169.4,168.4,169.6,168.4,169.9"/>
		<path d="M168.8,169.8c0,0.3-0.2,0.5-0.5,0.5c-0.3,0-0.5-0.2-0.5-0.5s0.2-0.5,0.5-0.5C168.6,169.3,168.8,169.5,168.8,169.8"/>
		<path d="M168.5,168.7c0,0.3-0.2,0.5-0.5,0.5s-0.5-0.2-0.5-0.5s0.2-0.5,0.5-0.5C168.2,168.2,168.5,168.4,168.5,168.7"/>
		<path d="M168.4,166c0,0.3-0.2,0.5-0.5,0.5s-0.5-0.2-0.5-0.5s0.2-0.5,0.5-0.5C168.1,165.5,168.4,165.7,168.4,166"/>
		<path d="M168.8,163.5c0,0.3-0.2,0.5-0.5,0.5c-0.3,0-0.5-0.2-0.5-0.5s0.2-0.5,0.5-0.5C168.6,163,168.8,163.2,168.8,163.5"/>
		<path d="M168.6,161.7c0,0.3-0.2,0.5-0.5,0.5s-0.5-0.2-0.5-0.5s0.2-0.5,0.5-0.5C168.4,161.2,168.6,161.4,168.6,161.7"/>
		<path d="M169.5,158.2c0,0.3-0.2,0.5-0.5,0.5c-0.3,0-0.5-0.2-0.5-0.5s0.2-0.5,0.5-0.5C169.3,157.7,169.5,157.9,169.5,158.2"/>
		<path d="M169.3,154.9c0,0.3-0.2,0.5-0.5,0.5c-0.3,0-0.5-0.2-0.5-0.5s0.2-0.5,0.5-0.5C169.1,154.4,169.3,154.6,169.3,154.9"/>
		<path d="M170.8,151.3c0,0.3-0.2,0.5-0.5,0.5c-0.3,0-0.5-0.2-0.5-0.5s0.2-0.5,0.5-0.5C170.6,150.8,170.8,151,170.8,151.3"/>
		<path d="M171.7,153.1c0,0.3-0.2,0.5-0.5,0.5s-0.5-0.2-0.5-0.5s0.2-0.5,0.5-0.5C171.5,152.6,171.7,152.8,171.7,153.1"/>
		<path d="M157.1,169.1c0,0.3-0.2,0.5-0.5,0.5c-0.3,0-0.5-0.2-0.5-0.5s0.2-0.5,0.5-0.5C156.8,168.6,157.1,168.8,157.1,169.1"/>
		<path d="M164.5,167c0,0.3-0.2,0.5-0.5,0.5c-0.3,0-0.5-0.2-0.5-0.5s0.2-0.5,0.5-0.5C164.3,166.5,164.5,166.7,164.5,167"/>
		<path d="M158.4,167.4c0,0.3-0.2,0.5-0.5,0.5c-0.3,0-0.5-0.2-0.5-0.5s0.2-0.5,0.5-0.5C158.2,166.9,158.4,167.1,158.4,167.4"/>
		<path d="M153.4,172c0,0.3-0.2,0.5-0.5,0.5s-0.5-0.2-0.5-0.5s0.2-0.5,0.5-0.5C153.2,171.5,153.4,171.7,153.4,172"/>
		<path d="M129.7,200.3c0,0.3-0.2,0.5-0.5,0.5c-0.3,0-0.5-0.2-0.5-0.5s0.2-0.5,0.5-0.5C129.5,199.8,129.7,200,129.7,200.3"/>
		<path d="M141.6,192.6c0,0.3-0.2,0.5-0.5,0.5c-0.3,0-0.5-0.2-0.5-0.5s0.2-0.5,0.5-0.5C141.3,192.1,141.6,192.3,141.6,192.6"/>
		<path d="M140.3,195c0,0.3-0.2,0.5-0.5,0.5c-0.3,0-0.5-0.2-0.5-0.5s0.2-0.5,0.5-0.5C140.1,194.5,140.3,194.7,140.3,195"/>
		<path d="M116.9,202.9c0,0.3-0.2,0.5-0.5,0.5s-0.5-0.2-0.5-0.5s0.2-0.5,0.5-0.5C116.7,202.4,116.9,202.7,116.9,202.9"/>
		<path d="M142.9,182.7c0,0.3-0.2,0.5-0.5,0.5s-0.5-0.2-0.5-0.5s0.2-0.5,0.5-0.5C142.7,182.2,142.9,182.4,142.9,182.7"/>
		<path d="M150.8,179.6c0,0.3-0.2,0.5-0.5,0.5s-0.5-0.2-0.5-0.5s0.2-0.5,0.5-0.5C150.5,179.1,150.8,179.3,150.8,179.6"/>
		<path d="M154.7,178.6c0,0.3-0.2,0.5-0.5,0.5c-0.3,0-0.5-0.2-0.5-0.5s0.2-0.5,0.5-0.5C154.5,178.1,154.7,178.3,154.7,178.6"/>
		<path d="M159.2,172.9c0,0.3-0.2,0.5-0.5,0.5c-0.3,0-0.5-0.2-0.5-0.5s0.2-0.5,0.5-0.5C159,172.4,159.2,172.6,159.2,172.9"/>
	</g>
</g>
</svg>
