<svg version="1.1" xmlns="http://www.w3.org/2000/svg" xmlns:xlink="http://www.w3.org/1999/xlink" width="300" height="300" style="width: 300px; height: 300px;"><defs><clipPath id="yrTyuMdgEUSX"><path fill="none" stroke="none" d=" M 5 5 L 295 5 L 295 295 L 5 295 L 5 5 Z"/></clipPath><clipPath id="THGIsdqOytal"><path fill="none" stroke="none" d=" M 5 5 L 295 5 L 295 295 L 5 295 L 5 5 Z"/></clipPath><clipPath id="rmfzENZQngdk"><path fill="none" stroke="none" d=" M 5 5 L 295 5 L 295 295 L 5 295 L 5 5 Z"/></clipPath></defs><g><g transform="scale(1,1) translate(0.5,0.5)"><rect fill="#FFFFFF" stroke="none" x="0" y="0" width="300" height="300"/><g clip-path="url(#yrTyuMdgEUSX)"><g><g/></g></g><g clip-path="url(#THGIsdqOytal)"><g><g/></g></g><g clip-path="url(#rmfzENZQngdk)"><g><g><path fill="none" stroke="none"/><path fill="black" stroke="none" paint-order="stroke fill markers" d=" M 226.77593771533654 275.8028351960858 A 0.5 0.5 0 1 1 226.77593746533657 275.80233519616917"/><path fill="black" stroke="none" paint-order="stroke fill markers" d=" M 218.30690712174663 238.5241466542272 A 0.5 0.5 0 1 1 218.30690687174666 238.52364665431054"/><path fill="black" stroke="none" paint-order="stroke fill markers" d=" M 218.11953446152114 248.9941969527023 A 0.5 0.5 0 1 1 218.11953421152117 248.99369695278565"/><path fill="black" stroke="none" paint-order="stroke fill markers" d=" M 187.712207484739 204.6095740492795 A 0.5 0.5 0 1 1 187.71220723473903 204.60907404936285"/><path fill="black" stroke="none" paint-order="stroke fill markers" d=" M 222.62242927131888 247.0315899502945 A 0.5 0.5 0 1 1 222.6224290213189 247.03108995037783"/><path fill="black" stroke="none" paint-order="stroke fill markers" d=" M 192.28580721968956 216.00853183926023 A 0.5 0.5 0 1 1 192.2858069696896 216.00803183934357"/><path fill="black" stroke="none" paint-order="stroke fill markers" d=" M 191.95121082020313 220.35471497483212 A 0.5 0.5 0 1 1 191.95121057020316 220.35421497491546"/><path fill="black" stroke="none" paint-order="stroke fill markers" d=" M 189.6606165630052 220.56092601652358 A 0.5 0.5 0 1 1 189.66061631300522 220.56042601660693"/><path fill="black" stroke="none" paint-order="stroke fill markers" d=" M 209.60241402546677 236.1256656923599 A 0.5 0.5 0 1 1 209.6024137754668 236.12516569244323"/><path fill="black" stroke="none" paint-order="stroke fill markers" d=" M 186.46937527880627 216.0777960165409 A 0.5 0.5 0 1 1 186.4693750288063 216.07729601662425"/><path fill="black" stroke="none" paint-order="stroke fill markers" d=" M 185.26128696780523 212.41281192021125 A 0.5 0.5 0 1 1 185.26128671780526 212.4123119202946"/><path fill="black" stroke="none" paint-order="stroke fill markers" d=" M 175.66035600559323 216.8576997700327 A 0.5 0.5 0 1 1 175.66035575559326 216.85719977011604"/><path fill="black" stroke="none" paint-order="stroke fill markers" d=" M 186.50993778943226 203.78781967514198 A 0.5 0.5 0 1 1 186.5099375394323 203.78731967522532"/><path fill="black" stroke="none" paint-order="stroke fill markers" d=" M 159.06444513764515 191.81899561582796 A 0.5 0.5 0 1 1 159.06444488764518 191.8184956159113"/><path fill="black" stroke="none" paint-order="stroke fill markers" d=" M 189.1431402687014 197.81697839019293 A 0.5 0.5 0 1 1 189.14314001870142 197.81647839027627"/><path fill="black" stroke="none" paint-order="stroke fill markers" d=" M 231.05555555555554 147.6772157754526 A 0.5 0.5 0 1 1 231.05555530555557 147.67671577553594"/><path fill="black" stroke="none" paint-order="stroke fill markers" d=" M 208.4011463988255 210.4411869236649 A 0.5 0.5 0 1 1 208.40114614882552 210.44068692374825"/><path fill="black" stroke="none" paint-order="stroke fill markers" d=" M 229.9083996368495 164.61739018346032 A 0.5 0.5 0 1 1 229.90839938684954 164.61689018354366"/><path fill="black" stroke="none" paint-order="stroke fill markers" d=" M 218.13117641964874 171.58011128443533 A 0.5 0.5 0 1 1 218.13117616964877 171.57961128451868"/><path fill="black" stroke="none" paint-order="stroke fill markers" d=" M 194.72621074237492 182.58016244722725 A 0.5 0.5 0 1 1 194.72621049237495 182.5796624473106"/><path fill="black" stroke="none" paint-order="stroke fill markers" d=" M 191.90874816050393 169.84561593933591 A 0.5 0.5 0 1 1 191.90874791050396 169.84511593941926"/><path fill="black" stroke="none" paint-order="stroke fill markers" d=" M 190.6289457655761 173.94732957493235 A 0.5 0.5 0 1 1 190.62894551557613 173.9468295750157"/><path fill="black" stroke="none" paint-order="stroke fill markers" d=" M 187.50812107545175 168.72447366624135 A 0.5 0.5 0 1 1 187.50812082545178 168.7239736663247"/><path fill="black" stroke="none" paint-order="stroke fill markers" d=" M 185.07384222481016 166.30373942560198 A 0.5 0.5 0 1 1 185.0738419748102 166.30323942568532"/><path fill="black" stroke="none" paint-order="stroke fill markers" d=" M 213.1392248337129 156.0090730933739 A 0.5 0.5 0 1 1 213.13922458371292 156.00857309345724"/><path fill="black" stroke="none" paint-order="stroke fill markers" d=" M 182.37811916894603 161.06435647747006 A 0.5 0.5 0 1 1 182.37811891894606 161.0638564775534"/><path fill="black" stroke="none" paint-order="stroke fill markers" d=" M 180.4622182380702 158.66561140356555 A 0.5 0.5 0 1 1 180.46221798807022 158.6651114036489"/><path fill="black" stroke="none" paint-order="stroke fill markers" d=" M 178.48372819288403 158.13794339632454 A 0.5 0.5 0 1 1 178.48372794288406 158.1374433964079"/><path fill="black" stroke="none" paint-order="stroke fill markers" d=" M 192.50506173438947 126.03506878971926 A 0.5 0.5 0 1 1 192.5050614843895 126.03456878980259"/><path fill="black" stroke="none" paint-order="stroke fill markers" d=" M 167.96766998649176 158.9083454806217 A 0.5 0.5 0 1 1 167.96766973649179 158.90784548070505"/><path fill="black" stroke="none" paint-order="stroke fill markers" d=" M 161.89837508730815 161.1523276626164 A 0.5 0.5 0 1 1 161.89837483730818 161.15182766269973"/><path fill="black" stroke="none" paint-order="stroke fill markers" d=" M 156.3970984684534 161.0660895138348 A 0.5 0.5 0 1 1 156.39709821845344 161.06558951391816"/><path fill="black" stroke="none" paint-order="stroke fill markers" d=" M 151.17720225818812 162.21764146392638 A 0.5 0.5 0 1 1 151.17720200818815 162.21714146400973"/><path fill="black" stroke="none" paint-order="stroke fill markers" d=" M 130.468723005125 167.44322162463993 A 0.5 0.5 0 1 1 130.46872275512504 167.44272162472328"/><path fill="black" stroke="none" paint-order="stroke fill markers" d=" M 143.07166498288814 162.43061003483535 A 0.5 0.5 0 1 1 143.07166473288817 162.4301100349187"/><path fill="black" stroke="none" paint-order="stroke fill markers" d=" M 138.85548706999734 162.33091490044623 A 0.5 0.5 0 1 1 138.85548681999737 162.33041490052958"/><path fill="black" stroke="none" paint-order="stroke fill markers" d=" M 134.55743494772494 161.4306874305252 A 0.5 0.5 0 1 1 134.55743469772497 161.43018743060856"/><path fill="black" stroke="none" paint-order="stroke fill markers" d=" M 131.86068855286987 161.74923399279706 A 0.5 0.5 0 1 1 131.8606883028699 161.7487339928804"/><path fill="black" stroke="none" paint-order="stroke fill markers" d=" M 130.11074815460364 161.83605247209417 A 0.5 0.5 0 1 1 130.11074790460367 161.8355524721775"/><path fill="black" stroke="none" paint-order="stroke fill markers" d=" M 109.79924880219136 155.2281272110605 A 0.5 0.5 0 1 1 109.79924855219137 155.22762721114384"/><path fill="black" stroke="none" paint-order="stroke fill markers" d=" M 105.53457218391361 155.34990354369447 A 0.5 0.5 0 1 1 105.53457193391363 155.3494035437778"/><path fill="black" stroke="none" paint-order="stroke fill markers" d=" M 106.67046901035009 172.4142677870679 A 0.5 0.5 0 1 1 106.6704687603501 172.41376778715124"/><path fill="black" stroke="none" paint-order="stroke fill markers" d=" M 94.68402141858203 178.28324257074345 A 0.5 0.5 0 1 1 94.68402116858205 178.2827425708268"/><path fill="black" stroke="none" paint-order="stroke fill markers" d=" M 88.53657594636525 178.59599497631913 A 0.5 0.5 0 1 1 88.53657569636526 178.59549497640248"/><path fill="black" stroke="none" paint-order="stroke fill markers" d=" M 99.08712531486395 156.48089254199618 A 0.5 0.5 0 1 1 99.08712506486397 156.48039254207953"/><path fill="black" stroke="none" paint-order="stroke fill markers" d=" M 126.53102091971549 158.2736452747767 A 0.5 0.5 0 1 1 126.5310206697155 158.27314527486004"/><path fill="black" stroke="none" paint-order="stroke fill markers" d=" M 126.9825237545935 157.58179902015422 A 0.5 0.5 0 1 1 126.98252350459352 157.58129902023757"/><path fill="black" stroke="none" paint-order="stroke fill markers" d=" M 102.4932654237853 146.61034633833293 A 0.5 0.5 0 1 1 102.49326517378532 146.60984633841628"/><path fill="black" stroke="none" paint-order="stroke fill markers" d=" M 130.13321670838337 156.1637003494333 A 0.5 0.5 0 1 1 130.1332164583834 156.16320034951664"/><path fill="black" stroke="none" paint-order="stroke fill markers" d=" M 132.15691328525128 155.02068948032868 A 0.5 0.5 0 1 1 132.1569130352513 155.02018948041203"/><path fill="black" stroke="none" paint-order="stroke fill markers" d=" M 134.89278526207997 153.72629468280255 A 0.5 0.5 0 1 1 134.89278501208 153.7257946828859"/><path fill="black" stroke="none" paint-order="stroke fill markers" d=" M 134.64768493859336 151.39080285077728 A 0.5 0.5 0 1 1 134.6476846885934 151.39030285086062"/><path fill="black" stroke="none" paint-order="stroke fill markers" d=" M 135.38382963196256 150.27526997528057 A 0.5 0.5 0 1 1 135.38382938196258 150.2747699753639"/><path fill="black" stroke="none" paint-order="stroke fill markers" d=" M 145.91858460213268 121.88561093700784 A 0.5 0.5 0 1 1 145.9185843521327 121.88511093709117"/><path fill="black" stroke="none" paint-order="stroke fill markers" d=" M 132.25954024215994 138.05129459556986 A 0.5 0.5 0 1 1 132.25953999215997 138.0507945956532"/><path fill="black" stroke="none" paint-order="stroke fill markers" d=" M 136.77755825334995 153.65195271295073 A 0.5 0.5 0 1 1 136.77755800334998 153.65145271303408"/><path fill="black" stroke="none" paint-order="stroke fill markers" d=" M 135.52640698679824 155.574301722118 A 0.5 0.5 0 1 1 135.52640673679826 155.57380172220135"/><path fill="black" stroke="none" paint-order="stroke fill markers" d=" M 105.84846546663238 165.30870070630547 A 0.5 0.5 0 1 1 105.84846521663239 165.30820070638882"/><path fill="black" stroke="none" paint-order="stroke fill markers" d=" M 132.01935336385142 161.05833917792313 A 0.5 0.5 0 1 1 132.01935311385145 161.05783917800647"/><path fill="black" stroke="none" paint-order="stroke fill markers" d=" M 129.88971165930525 164.25983966292588 A 0.5 0.5 0 1 1 129.88971140930528 164.25933966300923"/><path fill="black" stroke="none" paint-order="stroke fill markers" d=" M 129.56483107180873 165.1990090406911 A 0.5 0.5 0 1 1 129.56483082180875 165.19850904077444"/><path fill="black" stroke="none" paint-order="stroke fill markers" d=" M 131.0131511651387 178.51659191977805 A 0.5 0.5 0 1 1 131.01315091513874 178.5160919198614"/><path fill="black" stroke="none" paint-order="stroke fill markers" d=" M 133.29820332087314 165.30557397180152 A 0.5 0.5 0 1 1 133.29820307087317 165.30507397188487"/><path fill="black" stroke="none" paint-order="stroke fill markers" d=" M 132.9017150010771 164.3879095387963 A 0.5 0.5 0 1 1 132.90171475107712 164.38740953887964"/><path fill="black" stroke="none" paint-order="stroke fill markers" d=" M 134.98804323290625 164.40591947385283 A 0.5 0.5 0 1 1 134.98804298290628 164.40541947393618"/><path fill="black" stroke="none" paint-order="stroke fill markers" d=" M 161.63803752985118 135.0156322066404 A 0.5 0.5 0 1 1 161.6380372798512 135.01513220672373"/><path fill="black" stroke="none" paint-order="stroke fill markers" d=" M 102.44204175337174 172.72756711139536 A 0.5 0.5 0 1 1 102.44204150337175 172.7270671114787"/><path fill="black" stroke="none" paint-order="stroke fill markers" d=" M 139.2261177641592 163.96962408863516 A 0.5 0.5 0 1 1 139.22611751415923 163.9691240887185"/><path fill="black" stroke="none" paint-order="stroke fill markers" d=" M 140.1591642235538 163.84886005289087 A 0.5 0.5 0 1 1 140.15916397355383 163.84836005297421"/><path fill="black" stroke="none" paint-order="stroke fill markers" d=" M 144.39165647606188 164.52923503473386 A 0.5 0.5 0 1 1 144.3916562260619 164.5287350348172"/><path fill="black" stroke="none" paint-order="stroke fill markers" d=" M 145.63439178384536 165.00757445095584 A 0.5 0.5 0 1 1 145.6343915338454 165.0070744510392"/><path fill="black" stroke="none" paint-order="stroke fill markers" d=" M 147.4420574820032 165.11102542557316 A 0.5 0.5 0 1 1 147.44205723200324 165.1105254256565"/><path fill="black" stroke="none" paint-order="stroke fill markers" d=" M 136.17803522369152 165.80850511735864 A 0.5 0.5 0 1 1 136.17803497369155 165.80800511744198"/><path fill="black" stroke="none" paint-order="stroke fill markers" d=" M 148.763706878877 164.69092848106632 A 0.5 0.5 0 1 1 148.76370662887703 164.69042848114967"/><path fill="black" stroke="none" paint-order="stroke fill markers" d=" M 151.26622566028914 163.2293528522114 A 0.5 0.5 0 1 1 151.26622541028917 163.22885285229475"/><path fill="black" stroke="none" paint-order="stroke fill markers" d=" M 152.49722802021952 160.14559263833397 A 0.5 0.5 0 1 1 152.49722777021955 160.1450926384173"/><path fill="black" stroke="none" paint-order="stroke fill markers" d=" M 153.78856011322395 158.20704608341381 A 0.5 0.5 0 1 1 153.78855986322398 158.20654608349716"/><path fill="black" stroke="none" paint-order="stroke fill markers" d=" M 154.9515494258552 156.5839479451963 A 0.5 0.5 0 1 1 154.95154917585523 156.58344794527963"/><path fill="black" stroke="none" paint-order="stroke fill markers" d=" M 154.5641529885027 153.22306658522317 A 0.5 0.5 0 1 1 154.56415273850274 153.2225665853065"/><path fill="black" stroke="none" paint-order="stroke fill markers" d=" M 154.0811535283778 152.75599956223456 A 0.5 0.5 0 1 1 154.08115327837783 152.7554995623179"/><path fill="black" stroke="none" paint-order="stroke fill markers" d=" M 171.57032766618514 118.87023107970822 A 0.5 0.5 0 1 1 171.57032741618517 118.86973107979155"/><path fill="black" stroke="none" paint-order="stroke fill markers" d=" M 162.9878695170989 128.01444531545457 A 0.5 0.5 0 1 1 162.98786926709892 128.0139453155379"/><path fill="black" stroke="none" paint-order="stroke fill markers" d=" M 120.82667886719493 170.17262124646265 A 0.5 0.5 0 1 1 120.82667861719494 170.172121246546"/><path fill="black" stroke="none" paint-order="stroke fill markers" d=" M 149.59012165175534 156.6451304532415 A 0.5 0.5 0 1 1 149.59012140175537 156.64463045332485"/><path fill="black" stroke="none" paint-order="stroke fill markers" d=" M 149.5426391952508 159.54353493015012 A 0.5 0.5 0 1 1 149.54263894525084 159.54303493023346"/><path fill="black" stroke="none" paint-order="stroke fill markers" d=" M 146.9812476980577 162.72522422804727 A 0.5 0.5 0 1 1 146.98124744805773 162.7247242281306"/><path fill="black" stroke="none" paint-order="stroke fill markers" d=" M 145.97201565965364 169.0980832129248 A 0.5 0.5 0 1 1 145.97201540965366 169.09758321300814"/><path fill="black" stroke="none" paint-order="stroke fill markers" d=" M 115.05131756137885 179.3839350545099 A 0.5 0.5 0 1 1 115.05131731137887 179.38343505459324"/><path fill="black" stroke="none" paint-order="stroke fill markers" d=" M 134.03604727690853 176.9868327256562 A 0.5 0.5 0 1 1 134.03604702690856 176.98633272573954"/><path fill="black" stroke="none" paint-order="stroke fill markers" d=" M 146.16680457335138 174.03198782459967 A 0.5 0.5 0 1 1 146.1668043233514 174.031487824683"/><path fill="black" stroke="none" paint-order="stroke fill markers" d=" M 146.1668069367209 175.08675981668893 A 0.5 0.5 0 1 1 146.16680668672092 175.08625981677227"/><path fill="black" stroke="none" paint-order="stroke fill markers" d=" M 146.06159918032475 174.27959285949902 A 0.5 0.5 0 1 1 146.06159893032478 174.27909285958236"/><path fill="black" stroke="none" paint-order="stroke fill markers" d=" M 131.73878122762895 181.07888280410745 A 0.5 0.5 0 1 1 131.73878097762898 181.0783828041908"/><path fill="black" stroke="none" paint-order="stroke fill markers" d=" M 147.7274887059054 173.21765643064091 A 0.5 0.5 0 1 1 147.72748845590542 173.21715643072426"/><path fill="black" stroke="none" paint-order="stroke fill markers" d=" M 136.1124351766458 171.9039814543973 A 0.5 0.5 0 1 1 136.11243492664582 171.90348145448064"/><path fill="black" stroke="none" paint-order="stroke fill markers" d=" M 149.09644330657164 170.65798677872917 A 0.5 0.5 0 1 1 149.09644305657167 170.6574867788125"/><path fill="black" stroke="none" paint-order="stroke fill markers" d=" M 149.06526928126067 169.1722237177964 A 0.5 0.5 0 1 1 149.0652690312607 169.17172371787976"/><path fill="black" stroke="none" paint-order="stroke fill markers" d=" M 142.26890635696026 167.36854792370522 A 0.5 0.5 0 1 1 142.2689061069603 167.36804792378857"/><path fill="black" stroke="none" paint-order="stroke fill markers" d=" M 151.82269755124437 164.09142806552603 A 0.5 0.5 0 1 1 151.8226973012444 164.09092806560938"/><path fill="black" stroke="none" paint-order="stroke fill markers" d=" M 151.75301478339773 163.92204533930254 A 0.5 0.5 0 1 1 151.75301453339776 163.9215453393859"/><path fill="black" stroke="none" paint-order="stroke fill markers" d=" M 150.84527410286043 163.82101254108633 A 0.5 0.5 0 1 1 150.84527385286046 163.82051254116968"/><path fill="black" stroke="none" paint-order="stroke fill markers" d=" M 184.25272258128322 116.71365765150347 A 0.5 0.5 0 1 1 184.25272233128325 116.7131576515868"/><path fill="black" stroke="none" paint-order="stroke fill markers" d=" M 146.96448904497555 165.108070970476 A 0.5 0.5 0 1 1 146.96448879497558 165.10757097055935"/><path fill="black" stroke="none" paint-order="stroke fill markers" d=" M 141.55196167736057 163.1527794538523 A 0.5 0.5 0 1 1 141.5519614273606 163.15227945393565"/><path fill="black" stroke="none" paint-order="stroke fill markers" d=" M 139.39727534628616 168.9307571000876 A 0.5 0.5 0 1 1 139.3972750962862 168.93025710017093"/><path fill="black" stroke="none" paint-order="stroke fill markers" d=" M 125.67616654003078 185.22758491454368 A 0.5 0.5 0 1 1 125.67616629003079 185.22708491462703"/><path fill="black" stroke="none" paint-order="stroke fill markers" d=" M 128.8481794500263 172.9721436085666 A 0.5 0.5 0 1 1 128.84817920002632 172.97164360864994"/><path fill="black" stroke="none" paint-order="stroke fill markers" d=" M 88.62698428298978 191.8267980581807 A 0.5 0.5 0 1 1 88.6269840329898 191.82629805826406"/><path fill="black" stroke="none" paint-order="stroke fill markers" d=" M 123.34637579977439 174.16442091883206 A 0.5 0.5 0 1 1 123.34637554977441 174.1639209189154"/><path fill="black" stroke="none" paint-order="stroke fill markers" d=" M 102.06138800918569 177.82134084732627 A 0.5 0.5 0 1 1 102.0613877591857 177.8208408474096"/><path fill="black" stroke="none" paint-order="stroke fill markers" d=" M 124.34652540921292 175.63774287087875 A 0.5 0.5 0 1 1 124.34652515921293 175.6372428709621"/><path fill="black" stroke="none" paint-order="stroke fill markers" d=" M 124.84713906217682 177.08863041460674 A 0.5 0.5 0 1 1 124.84713881217684 177.08813041469008"/><path fill="black" stroke="none" paint-order="stroke fill markers" d=" M 100.99180733075163 181.2100573885721 A 0.5 0.5 0 1 1 100.99180708075164 181.20955738865544"/><path fill="black" stroke="none" paint-order="stroke fill markers" d=" M 136.91471403856636 192.7196924414778 A 0.5 0.5 0 1 1 136.9147137885664 192.71919244156115"/><path fill="black" stroke="none" paint-order="stroke fill markers" d=" M 146.65999488273457 197.29569123430912 A 0.5 0.5 0 1 1 146.6599946327346 197.29519123439246"/><path fill="black" stroke="none" paint-order="stroke fill markers" d=" M 158.2682696774429 201.28973029036766 A 0.5 0.5 0 1 1 158.26826942744293 201.289230290451"/><path fill="black" stroke="none" paint-order="stroke fill markers" d=" M 170.33671644175453 205.31051784985897 A 0.5 0.5 0 1 1 170.33671619175456 205.3100178499423"/><path fill="black" stroke="none" paint-order="stroke fill markers" d=" M 182.7666027562658 207.23431947523102 A 0.5 0.5 0 1 1 182.76660250626583 207.23381947531436"/><path fill="black" stroke="none" paint-order="stroke fill markers" d=" M 199.986759271307 193.55467787405854 A 0.5 0.5 0 1 1 199.98675902130702 193.55417787414189"/><path fill="black" stroke="none" paint-order="stroke fill markers" d=" M 194.95863867863454 187.44964380865315 A 0.5 0.5 0 1 1 194.95863842863457 187.4491438087365"/><path fill="black" stroke="none" paint-order="stroke fill markers" d=" M 188.26634436663414 183.5100404709178 A 0.5 0.5 0 1 1 188.26634411663417 183.50954047100115"/><path fill="black" stroke="none" paint-order="stroke fill markers" d=" M 183.39735653210306 178.55570436683303 A 0.5 0.5 0 1 1 183.3973562821031 178.55520436691637"/><path fill="black" stroke="none" paint-order="stroke fill markers" d=" M 177.33919088757742 174.68514802991405 A 0.5 0.5 0 1 1 177.33919063757745 174.6846480299974"/><path fill="black" stroke="none" paint-order="stroke fill markers" d=" M 173.66157702414324 169.71558650329774 A 0.5 0.5 0 1 1 173.66157677414327 169.7150865033811"/><path fill="black" stroke="none" paint-order="stroke fill markers" d=" M 172.5281522821975 166.0686851754434 A 0.5 0.5 0 1 1 172.52815203219754 166.06818517552674"/><path fill="black" stroke="none" paint-order="stroke fill markers" d=" M 171.3023732642701 161.5280930635796 A 0.5 0.5 0 1 1 171.30237301427013 161.52759306366295"/><path fill="black" stroke="none" paint-order="stroke fill markers" d=" M 171.53035363456317 157.70898328540582 A 0.5 0.5 0 1 1 171.5303533845632 157.70848328548917"/><path fill="black" stroke="none" paint-order="stroke fill markers" d=" M 173.4403780471921 154.0539535081178 A 0.5 0.5 0 1 1 173.44037779719213 154.05345350820113"/><path fill="black" stroke="none" paint-order="stroke fill markers" d=" M 173.98350694482642 150.37242183803411 A 0.5 0.5 0 1 1 173.98350669482645 150.37192183811746"/><path fill="black" stroke="none" paint-order="stroke fill markers" d=" M 176.57372505058055 145.26199870202157 A 0.5 0.5 0 1 1 176.57372480058058 145.26149870210492"/><path fill="black" stroke="none" paint-order="stroke fill markers" d=" M 178.38576770904135 142.39412541751264 A 0.5 0.5 0 1 1 178.38576745904138 142.39362541759598"/><path fill="black" stroke="none" paint-order="stroke fill markers" d=" M 198.8896406115285 126.69989606472626 A 0.5 0.5 0 1 1 198.88964036152854 126.69939606480959"/><path fill="black" stroke="none" paint-order="stroke fill markers" d=" M 179.25990836548206 135.21134877244302 A 0.5 0.5 0 1 1 179.2599081154821 135.21084877252636"/><path fill="black" stroke="none" paint-order="stroke fill markers" d=" M 179.5189490239292 132.9368286361441 A 0.5 0.5 0 1 1 179.51894877392922 132.93632863622744"/><path fill="black" stroke="none" paint-order="stroke fill markers" d=" M 213.49748328857353 118.42456588243496 A 0.5 0.5 0 1 1 213.49748303857356 118.42406588251829"/><path fill="black" stroke="none" paint-order="stroke fill markers" d=" M 174.53603200872664 129.4009316845632 A 0.5 0.5 0 1 1 174.53603175872666 129.40043168464655"/><path fill="black" stroke="none" paint-order="stroke fill markers" d=" M 172.49383261209 129.1488128794855 A 0.5 0.5 0 1 1 172.49383236209002 129.14831287956883"/><path fill="black" stroke="none" paint-order="stroke fill markers" d=" M 171.12271109701888 128.0193393433251 A 0.5 0.5 0 1 1 171.1227108470189 128.01883934340844"/><path fill="black" stroke="none" paint-order="stroke fill markers" d=" M 171.16617848417422 101.66666666666667 A 0.5 0.5 0 1 1 171.16617823417425 101.66616666675"/><path fill="black" stroke="none" paint-order="stroke fill markers" d=" M 170.40991058582696 126.03830495769347 A 0.5 0.5 0 1 1 170.409910335827 126.0378049577768"/><path fill="black" stroke="none" paint-order="stroke fill markers" d=" M 185.1412065271832 113.31669317772165 A 0.5 0.5 0 1 1 185.14120627718322 113.31619317780498"/><path fill="black" stroke="none" paint-order="stroke fill markers" d=" M 168.70924969114427 124.51167055899998 A 0.5 0.5 0 1 1 168.7092494411443 124.51117055908331"/><path fill="black" stroke="none" paint-order="stroke fill markers" d=" M 169.43013942527188 121.62154663087296 A 0.5 0.5 0 1 1 169.4301391752719 121.62104663095629"/><path fill="black" stroke="none" paint-order="stroke fill markers" d=" M 168.66605734111377 102.2324328352775 A 0.5 0.5 0 1 1 168.6660570911138 102.23193283536084"/><path fill="black" stroke="none" paint-order="stroke fill markers" d=" M 178.18336401883386 112.1270689206012 A 0.5 0.5 0 1 1 178.18336376883389 112.12656892068453"/><path fill="black" stroke="none" paint-order="stroke fill markers" d=" M 167.95263836566738 105.57086626312278 A 0.5 0.5 0 1 1 167.9526381156674 105.57036626320611"/><path fill="black" stroke="none" paint-order="stroke fill markers" d=" M 166.98051026820067 127.40971148409832 A 0.5 0.5 0 1 1 166.9805100182007 127.40921148418165"/><path fill="black" stroke="none" paint-order="stroke fill markers" d=" M 167.56869510656682 128.61156444674958 A 0.5 0.5 0 1 1 167.56869485656685 128.61106444683293"/><path fill="black" stroke="none" paint-order="stroke fill markers" d=" M 166.7473337254219 131.15856547157452 A 0.5 0.5 0 1 1 166.74733347542193 131.15806547165786"/><path fill="black" stroke="none" paint-order="stroke fill markers" d=" M 167.33025365048493 132.95946908367256 A 0.5 0.5 0 1 1 167.33025340048496 132.9589690837559"/><path fill="black" stroke="none" paint-order="stroke fill markers" d=" M 168.00098891732915 133.27452928750122 A 0.5 0.5 0 1 1 168.00098866732918 133.27402928758457"/><path fill="black" stroke="none" paint-order="stroke fill markers" d=" M 170.31800298667966 134.09977439543195 A 0.5 0.5 0 1 1 170.3180027366797 134.0992743955153"/><path fill="black" stroke="none" paint-order="stroke fill markers" d=" M 172.45442460746182 134.39961792742912 A 0.5 0.5 0 1 1 172.45442435746185 134.39911792751246"/><path fill="black" stroke="none" paint-order="stroke fill markers" d=" M 177.52122705948537 135.56075626940202 A 0.5 0.5 0 1 1 177.5212268094854 135.56025626948536"/><path fill="black" stroke="none" paint-order="stroke fill markers" d=" M 181.64819604576988 137.43492074213924 A 0.5 0.5 0 1 1 181.6481957957699 137.43442074222258"/><path fill="black" stroke="none" paint-order="stroke fill markers" d=" M 207.3188366122966 111.13682061293173 A 0.5 0.5 0 1 1 207.31883636229662 111.13632061301506"/><path fill="black" stroke="none" paint-order="stroke fill markers" d=" M 198.56610005453513 119.8094548510293 A 0.5 0.5 0 1 1 198.56609980453516 119.80895485111263"/><path fill="black" stroke="none" paint-order="stroke fill markers" d=" M 223.7654682003663 155.1389854209058 A 0.5 0.5 0 1 1 223.76546795036634 155.13848542098916"/><path fill="black" stroke="none" paint-order="stroke fill markers" d=" M 208.99947120015045 171.9078854598873 A 0.5 0.5 0 1 1 208.99947095015048 171.90738545997064"/><path fill="black" stroke="none" paint-order="stroke fill markers" d=" M 198.33470963748337 148.99441251069862 A 0.5 0.5 0 1 1 198.3347093874834 148.99391251078197"/><path fill="black" stroke="none" paint-order="stroke fill markers" d=" M 199.5218254075944 161.27198314377068 A 0.5 0.5 0 1 1 199.52182515759444 161.27148314385403"/><path fill="black" stroke="none" paint-order="stroke fill markers" d=" M 214.31867855992428 162.19021796331413 A 0.5 0.5 0 1 1 214.3186783099243 162.18971796339747"/><path fill="black" stroke="none" paint-order="stroke fill markers" d=" M 200.24441854028487 167.6497370514767 A 0.5 0.5 0 1 1 200.2444182902849 167.64923705156005"/><path fill="black" stroke="none" paint-order="stroke fill markers" d=" M 200.444983529026 171.52338646253648 A 0.5 0.5 0 1 1 200.44498327902602 171.52288646261982"/><path fill="black" stroke="none" paint-order="stroke fill markers" d=" M 199.11690931218268 170.8556889579201 A 0.5 0.5 0 1 1 199.1169090621827 170.85518895800345"/><path fill="black" stroke="none" paint-order="stroke fill markers" d=" M 199.86325667165758 158.03712260370446 A 0.5 0.5 0 1 1 199.8632564216576 158.0366226037878"/><path fill="black" stroke="none" paint-order="stroke fill markers" d=" M 201.85817449819672 152.75652619527267 A 0.5 0.5 0 1 1 201.85817424819675 152.75602619535601"/><path fill="black" stroke="none" paint-order="stroke fill markers" d=" M 211.45529098204537 151.6471410843051 A 0.5 0.5 0 1 1 211.4552907320454 151.64664108438845"/><path fill="black" stroke="none" paint-order="stroke fill markers" d=" M 202.28541498184904 139.6302581804342 A 0.5 0.5 0 1 1 202.28541473184907 139.62975818051754"/><path fill="black" stroke="none" paint-order="stroke fill markers" d=" M 223.8483704754778 118.04019377023455 A 0.5 0.5 0 1 1 223.84837022547782 118.03969377031788"/><path fill="black" stroke="none" paint-order="stroke fill markers" d=" M 212.44401133661074 165.84870598244953 A 0.5 0.5 0 1 1 212.44401108661077 165.84820598253287"/><path fill="black" stroke="none" paint-order="stroke fill markers" d=" M 189.6813409500983 131.57906683763832 A 0.5 0.5 0 1 1 189.68134070009833 131.57856683772167"/><path fill="black" stroke="none" paint-order="stroke fill markers" d=" M 186.34471108305056 143.0596782051038 A 0.5 0.5 0 1 1 186.34471083305058 143.05917820518715"/><path fill="black" stroke="none" paint-order="stroke fill markers" d=" M 181.975301745645 144.26074360475252 A 0.5 0.5 0 1 1 181.97530149564503 144.26024360483586"/><path fill="black" stroke="none" paint-order="stroke fill markers" d=" M 186.80071259176043 131.95051337037836 A 0.5 0.5 0 1 1 186.80071234176046 131.9500133704617"/><path fill="black" stroke="none" paint-order="stroke fill markers" d=" M 180.4107795010327 128.8560303668932 A 0.5 0.5 0 1 1 180.41077925103272 128.85553036697655"/><path fill="black" stroke="none" paint-order="stroke fill markers" d=" M 175.50263181567033 142.73420148616842 A 0.5 0.5 0 1 1 175.50263156567036 142.73370148625176"/><path fill="black" stroke="none" paint-order="stroke fill markers" d=" M 174.29059195087527 142.75025345209355 A 0.5 0.5 0 1 1 174.2905917008753 142.7497534521769"/><path fill="black" stroke="none" paint-order="stroke fill markers" d=" M 171.46574236222952 145.3809223064462 A 0.5 0.5 0 1 1 171.46574211222955 145.38042230652954"/><path fill="black" stroke="none" paint-order="stroke fill markers" d=" M 170.4049318525666 146.96176649629848 A 0.5 0.5 0 1 1 170.40493160256662 146.96126649638182"/><path fill="black" stroke="none" paint-order="stroke fill markers" d=" M 174.8633557294376 164.87526058501135 A 0.5 0.5 0 1 1 174.86335547943762 164.8747605850947"/><path fill="black" stroke="none" paint-order="stroke fill markers" d=" M 168.54040570004133 146.224561385837 A 0.5 0.5 0 1 1 168.54040545004136 146.22406138592035"/><path fill="black" stroke="none" paint-order="stroke fill markers" d=" M 167.33139958926836 146.65686028657572 A 0.5 0.5 0 1 1 167.3313993392684 146.65636028665907"/><path fill="black" stroke="none" paint-order="stroke fill markers" d=" M 159.3772229099627 155.97129632135056 A 0.5 0.5 0 1 1 159.37722265996274 155.9707963214339"/><path fill="black" stroke="none" paint-order="stroke fill markers" d=" M 163.68043663121006 142.02418400517752 A 0.5 0.5 0 1 1 163.6804363812101 142.02368400526086"/><path fill="black" stroke="none" paint-order="stroke fill markers" d=" M 158.04458207241456 142.63269495687337 A 0.5 0.5 0 1 1 158.04458182241459 142.6321949569567"/><path fill="black" stroke="none" paint-order="stroke fill markers" d=" M 153.22035172936137 149.20727567544816 A 0.5 0.5 0 1 1 153.2203514793614 149.2067756755315"/><path fill="black" stroke="none" paint-order="stroke fill markers" d=" M 138.85968441421872 159.72529731147992 A 0.5 0.5 0 1 1 138.85968416421875 159.72479731156326"/><path fill="black" stroke="none" paint-order="stroke fill markers" d=" M 149.25950989323582 156.81773323819596 A 0.5 0.5 0 1 1 149.25950964323584 156.8172332382793"/><path fill="black" stroke="none" paint-order="stroke fill markers" d=" M 151.25082358129657 160.81951149291157 A 0.5 0.5 0 1 1 151.2508233312966 160.81901149299492"/><path fill="black" stroke="none" paint-order="stroke fill markers" d=" M 152.94468358483903 163.90318101771595 A 0.5 0.5 0 1 1 152.94468333483906 163.9026810177993"/><path fill="black" stroke="none" paint-order="stroke fill markers" d=" M 154.09724571126262 164.96618881068892 A 0.5 0.5 0 1 1 154.09724546126264 164.96568881077226"/><path fill="black" stroke="none" paint-order="stroke fill markers" d=" M 154.83216972428815 166.39040936673806 A 0.5 0.5 0 1 1 154.83216947428818 166.3899093668214"/><path fill="black" stroke="none" paint-order="stroke fill markers" d=" M 156.3496987298812 166.81544506215334 A 0.5 0.5 0 1 1 156.34969847988123 166.8149450622367"/><path fill="black" stroke="none" paint-order="stroke fill markers" d=" M 157.64315371953364 167.395366532178 A 0.5 0.5 0 1 1 157.64315346953367 167.39486653226135"/><path fill="black" stroke="none" paint-order="stroke fill markers" d=" M 160.78300471576966 177.08080649326303 A 0.5 0.5 0 1 1 160.7830044657697 177.08030649334637"/><path fill="black" stroke="none" paint-order="stroke fill markers" d=" M 160.53657736031215 169.8068734082367 A 0.5 0.5 0 1 1 160.53657711031218 169.80637340832004"/><path fill="black" stroke="none" paint-order="stroke fill markers" d=" M 163.5805550233899 171.8246468124201 A 0.5 0.5 0 1 1 163.58055477338993 171.82414681250344"/><path fill="black" stroke="none" paint-order="stroke fill markers" d=" M 172.62237155213114 180.07190793109245 A 0.5 0.5 0 1 1 172.62237130213117 180.0714079311758"/><path fill="black" stroke="none" paint-order="stroke fill markers" d=" M 177.32938999428566 187.3362235990283 A 0.5 0.5 0 1 1 177.3293897442857 187.33572359911165"/><path fill="black" stroke="none" paint-order="stroke fill markers" d=" M 178.7200025129952 188.74347935689565 A 0.5 0.5 0 1 1 178.72000226299522 188.742979356979"/><path fill="black" stroke="none" paint-order="stroke fill markers" d=" M 179.47127986123465 188.44393334869946 A 0.5 0.5 0 1 1 179.47127961123468 188.4434333487828"/><path fill="black" stroke="none" paint-order="stroke fill markers" d=" M 178.3240908553557 186.5770844611861 A 0.5 0.5 0 1 1 178.32409060535574 186.57658446126945"/><path fill="black" stroke="none" paint-order="stroke fill markers" d=" M 178.22636198172344 183.335965181804 A 0.5 0.5 0 1 1 178.22636173172347 183.33546518188734"/><path fill="black" stroke="none" paint-order="stroke fill markers" d=" M 177.74046266722934 181.34518410737692 A 0.5 0.5 0 1 1 177.74046241722937 181.34468410746027"/><path fill="black" stroke="none" paint-order="stroke fill markers" d=" M 180.02385101084 182.54230691890365 A 0.5 0.5 0 1 1 180.02385076084002 182.541806918987"/><path fill="black" stroke="none" paint-order="stroke fill markers" d=" M 183.03868212421148 186.4028039283807 A 0.5 0.5 0 1 1 183.0386818742115 186.40230392846405"/><path fill="black" stroke="none" paint-order="stroke fill markers" d=" M 186.175471375268 190.553749400097 A 0.5 0.5 0 1 1 186.17547112526802 190.55324940018033"/><path fill="black" stroke="none" paint-order="stroke fill markers" d=" M 190.840498059095 199.76897318002062 A 0.5 0.5 0 1 1 190.84049780909504 199.76847318010397"/><path fill="black" stroke="none" paint-order="stroke fill markers" d=" M 190.2790181881819 206.87731637064724 A 0.5 0.5 0 1 1 190.27901793818194 206.87681637073058"/><path fill="black" stroke="none" paint-order="stroke fill markers" d=" M 188.6413780181634 209.4171800063216 A 0.5 0.5 0 1 1 188.64137776816344 209.41668000640493"/><path fill="black" stroke="none" paint-order="stroke fill markers" d=" M 186.9429047173686 211.06486045195572 A 0.5 0.5 0 1 1 186.94290446736863 211.06436045203907"/><path fill="black" stroke="none" paint-order="stroke fill markers" d=" M 183.85147325364147 210.32734190732958 A 0.5 0.5 0 1 1 183.8514730036415 210.32684190741293"/><path fill="black" stroke="none" paint-order="stroke fill markers" d=" M 190.27445924842795 240.26502046412924 A 0.5 0.5 0 1 1 190.27445899842797 240.26452046421258"/><path fill="black" stroke="none" paint-order="stroke fill markers" d=" M 179.75969720249253 207.88433420164418 A 0.5 0.5 0 1 1 179.75969695249256 207.88383420172752"/><path fill="black" stroke="none" paint-order="stroke fill markers" d=" M 179.3314002926764 207.08019578218233 A 0.5 0.5 0 1 1 179.33140004267642 207.07969578226567"/><path fill="black" stroke="none" paint-order="stroke fill markers" d=" M 177.53362765922054 205.08459068548495 A 0.5 0.5 0 1 1 177.53362740922057 205.0840906855683"/><path fill="black" stroke="none" paint-order="stroke fill markers" d=" M 178.91851846038503 205.4221576897871 A 0.5 0.5 0 1 1 178.91851821038506 205.42165768987044"/><path fill="black" stroke="none" paint-order="stroke fill markers" d=" M 180.86713197011244 207.3711836057506 A 0.5 0.5 0 1 1 180.86713172011247 207.37068360583393"/><path fill="black" stroke="none" paint-order="stroke fill markers" d=" M 182.33635370324757 207.41199687068382 A 0.5 0.5 0 1 1 182.3363534532476 207.41149687076717"/><path fill="black" stroke="none" paint-order="stroke fill markers" d=" M 186.3033178480474 208.42488244380905 A 0.5 0.5 0 1 1 186.30331759804744 208.4243824438924"/><path fill="black" stroke="none" paint-order="stroke fill markers" d=" M 188.97925004776857 207.14720705196476 A 0.5 0.5 0 1 1 188.9792497977686 207.1467070520481"/><path fill="black" stroke="none" paint-order="stroke fill markers" d=" M 193.50423054548799 202.99744690234326 A 0.5 0.5 0 1 1 193.50423029548801 202.9969469024266"/><path fill="black" stroke="none" paint-order="stroke fill markers" d=" M 195.25515410546373 198.6064283618977 A 0.5 0.5 0 1 1 195.25515385546376 198.60592836198106"/><path fill="black" stroke="none" paint-order="stroke fill markers" d=" M 194.51610483098636 184.68322295820275 A 0.5 0.5 0 1 1 194.5161045809864 184.6827229582861"/><path fill="black" stroke="none" paint-order="stroke fill markers" d=" M 195.7493630270988 173.81896078310416 A 0.5 0.5 0 1 1 195.74936277709884 173.8184607831875"/><path fill="black" stroke="none" paint-order="stroke fill markers" d=" M 191.185765071847 158.15447187764215 A 0.5 0.5 0 1 1 191.18576482184702 158.1539718777255"/><path fill="black" stroke="none" paint-order="stroke fill markers" d=" M 189.16265461061357 151.53193414083805 A 0.5 0.5 0 1 1 189.1626543606136 151.5314341409214"/><path fill="black" stroke="none" paint-order="stroke fill markers" d=" M 186.94902348098864 142.00672397206597 A 0.5 0.5 0 1 1 186.94902323098867 142.00622397214931"/><path fill="black" stroke="none" paint-order="stroke fill markers" d=" M 184.0803419554431 143.8744367923276 A 0.5 0.5 0 1 1 184.08034170544312 143.87393679241094"/><path fill="black" stroke="none" paint-order="stroke fill markers" d=" M 195.18914992223452 107.81981526290187 A 0.5 0.5 0 1 1 195.18914967223455 107.8193152629852"/><path fill="black" stroke="none" paint-order="stroke fill markers" d=" M 183.16632889226864 127.4295898924905 A 0.5 0.5 0 1 1 183.16632864226867 127.42908989257383"/><path fill="black" stroke="none" paint-order="stroke fill markers" d=" M 175.16419612244084 143.2297631750046 A 0.5 0.5 0 1 1 175.16419587244087 143.22926317508794"/><path fill="black" stroke="none" paint-order="stroke fill markers" d=" M 171.0881231844738 147.42307317211373 A 0.5 0.5 0 1 1 171.08812293447383 147.42257317219708"/><path fill="black" stroke="none" paint-order="stroke fill markers" d=" M 167.613589082633 152.58663692284526 A 0.5 0.5 0 1 1 167.61358883263304 152.5861369229286"/><path fill="black" stroke="none" paint-order="stroke fill markers" d=" M 164.2538352699027 157.8617084574863 A 0.5 0.5 0 1 1 164.25383501990274 157.86120845756963"/><path fill="black" stroke="none" paint-order="stroke fill markers" d=" M 160.8840996184038 163.10992409373966 A 0.5 0.5 0 1 1 160.88409936840384 163.109424093823"/><path fill="black" stroke="none" paint-order="stroke fill markers" d=" M 158.87604204832024 166.83519802727182 A 0.5 0.5 0 1 1 158.87604179832027 166.83469802735516"/><path fill="black" stroke="none" paint-order="stroke fill markers" d=" M 149.4703980799269 187.5550197383972 A 0.5 0.5 0 1 1 149.47039782992692 187.55451973848054"/><path fill="black" stroke="none" paint-order="stroke fill markers" d=" M 156.82550054821206 172.1675239006032 A 0.5 0.5 0 1 1 156.8255002982121 172.16702390068653"/><path fill="black" stroke="none" paint-order="stroke fill markers" d=" M 157.97996755044784 173.3026487979457 A 0.5 0.5 0 1 1 157.97996730044787 173.30214879802904"/><path fill="black" stroke="none" paint-order="stroke fill markers" d=" M 157.64173687952197 175.53478452089715 A 0.5 0.5 0 1 1 157.641736629522 175.5342845209805"/><path fill="black" stroke="none" paint-order="stroke fill markers" d=" M 159.98704373134902 175.50134093642433 A 0.5 0.5 0 1 1 159.98704348134905 175.50084093650767"/><path fill="black" stroke="none" paint-order="stroke fill markers" d=" M 154.62727622431868 184.78297457438296 A 0.5 0.5 0 1 1 154.6272759743187 184.7824745744663"/><path fill="black" stroke="none" paint-order="stroke fill markers" d=" M 163.33252825762733 173.76029847666717 A 0.5 0.5 0 1 1 163.33252800762736 173.75979847675052"/><path fill="black" stroke="none" paint-order="stroke fill markers" d=" M 164.38116785752777 173.98716673905335 A 0.5 0.5 0 1 1 164.3811676075278 173.9866667391367"/><path fill="black" stroke="none" paint-order="stroke fill markers" d=" M 165.49303741414792 174.07393470294573 A 0.5 0.5 0 1 1 165.49303716414795 174.07343470302908"/><path fill="black" stroke="none" paint-order="stroke fill markers" d=" M 163.7013412252271 174.2416911911207 A 0.5 0.5 0 1 1 163.70134097522714 174.24119119120405"/><path fill="black" stroke="none" paint-order="stroke fill markers" d=" M 162.45632378877596 175.79032325864966 A 0.5 0.5 0 1 1 162.456323538776 175.789823258733"/><path fill="black" stroke="none" paint-order="stroke fill markers" d=" M 159.02398484274977 176.17016648582617 A 0.5 0.5 0 1 1 159.0239845927498 176.16966648590952"/><path fill="black" stroke="none" paint-order="stroke fill markers" d=" M 156.50415674316338 178.04757189964673 A 0.5 0.5 0 1 1 156.5041564931634 178.04707189973007"/><path fill="black" stroke="none" paint-order="stroke fill markers" d=" M 152.41896622110954 178.99028401820647 A 0.5 0.5 0 1 1 152.41896597110957 178.9897840182898"/><path fill="black" stroke="none" paint-order="stroke fill markers" d=" M 148.1251220782213 179.63887874466045 A 0.5 0.5 0 1 1 148.12512182822132 179.6383787447438"/><path fill="black" stroke="none" paint-order="stroke fill markers" d=" M 131.82149679655043 187.79635449896696 A 0.5 0.5 0 1 1 131.82149654655046 187.7958544990503"/><path fill="black" stroke="none" paint-order="stroke fill markers" d=" M 141.98312771774246 177.23940418058083 A 0.5 0.5 0 1 1 141.9831274677425 177.23890418066418"/><path fill="black" stroke="none" paint-order="stroke fill markers" d=" M 142.41750557726675 175.70134136765003 A 0.5 0.5 0 1 1 142.41750532726678 175.70084136773337"/><path fill="black" stroke="none" paint-order="stroke fill markers" d=" M 143.85911133786416 173.95658383797166 A 0.5 0.5 0 1 1 143.8591110878642 173.956083838055"/><path fill="black" stroke="none" paint-order="stroke fill markers" d=" M 146.4027208429842 173.280162680945 A 0.5 0.5 0 1 1 146.40272059298422 173.27966268102836"/><path fill="black" stroke="none" paint-order="stroke fill markers" d=" M 150.46186939658332 175.3854418921368 A 0.5 0.5 0 1 1 150.46186914658335 175.38494189222016"/><path fill="black" stroke="none" paint-order="stroke fill markers" d=" M 155.52286564060245 177.68265020705527 A 0.5 0.5 0 1 1 155.52286539060248 177.68215020713862"/><path fill="black" stroke="none" paint-order="stroke fill markers" d=" M 158.32476661604 179.9732493568976 A 0.5 0.5 0 1 1 158.32476636604002 179.97274935698096"/><path fill="black" stroke="none" paint-order="stroke fill markers" d=" M 160.976424647688 184.48948245957018 A 0.5 0.5 0 1 1 160.97642439768802 184.48898245965353"/><path fill="black" stroke="none" paint-order="stroke fill markers" d=" M 164.52310134188696 188.7615057989545 A 0.5 0.5 0 1 1 164.52310109188699 188.76100579903783"/><path fill="black" stroke="none" paint-order="stroke fill markers" d=" M 163.43180247948752 205.326953255549 A 0.5 0.5 0 1 1 163.43180222948754 205.32645325563234"/><path fill="black" stroke="none" paint-order="stroke fill markers" d=" M 168.4741867456094 193.76173852917094 A 0.5 0.5 0 1 1 168.47418649560942 193.76123852925429"/><path fill="black" stroke="none" paint-order="stroke fill markers" d=" M 172.15743768841858 197.63097669245835 A 0.5 0.5 0 1 1 172.1574374384186 197.6304766925417"/><path fill="black" stroke="none" paint-order="stroke fill markers" d=" M 170.791113222578 196.61571092892538 A 0.5 0.5 0 1 1 170.79111297257802 196.61521092900873"/><path fill="black" stroke="none" paint-order="stroke fill markers" d=" M 168.69682974132135 193.3621401989208 A 0.5 0.5 0 1 1 168.69682949132138 193.36164019900414"/><path fill="black" stroke="none" paint-order="stroke fill markers" d=" M 165.0294854568917 189.29060017030014 A 0.5 0.5 0 1 1 165.02948520689174 189.29010017038348"/><path fill="black" stroke="none" paint-order="stroke fill markers" d=" M 161.4064290919636 186.21884989445283 A 0.5 0.5 0 1 1 161.40642884196362 186.21834989453617"/><path fill="black" stroke="none" paint-order="stroke fill markers" d=" M 158.97234817351713 183.1111660622155 A 0.5 0.5 0 1 1 158.97234792351716 183.11066606229883"/><path fill="black" stroke="none" paint-order="stroke fill markers" d=" M 155.41203660986477 177.22383509419365 A 0.5 0.5 0 1 1 155.4120363598648 177.223335094277"/><path fill="black" stroke="none" paint-order="stroke fill markers" d=" M 154.93541352063474 175.34492058237726 A 0.5 0.5 0 1 1 154.93541327063477 175.3444205824606"/><path fill="black" stroke="none" paint-order="stroke fill markers" d=" M 156.33142870200763 173.94849023596342 A 0.5 0.5 0 1 1 156.33142845200766 173.94799023604676"/><path fill="black" stroke="none" paint-order="stroke fill markers" d=" M 157.69838743713618 172.70453447340196 A 0.5 0.5 0 1 1 157.6983871871362 172.7040344734853"/><path fill="black" stroke="none" paint-order="stroke fill markers" d=" M 158.21178219232377 171.02432330041162 A 0.5 0.5 0 1 1 158.2117819423238 171.02382330049497"/><path fill="black" stroke="none" paint-order="stroke fill markers" d=" M 157.68197915358152 170.4268768133837 A 0.5 0.5 0 1 1 157.68197890358155 170.42637681346704"/><path fill="black" stroke="none" paint-order="stroke fill markers" d=" M 157.59004703447573 170.185033318935 A 0.5 0.5 0 1 1 157.59004678447576 170.18453331901836"/><path fill="black" stroke="none" paint-order="stroke fill markers" d=" M 156.6734685337155 170.05800736180208 A 0.5 0.5 0 1 1 156.67346828371552 170.05750736188543"/><path fill="black" stroke="none" paint-order="stroke fill markers" d=" M 156.3230930978022 170.9386698574956 A 0.5 0.5 0 1 1 156.32309284780223 170.93816985757894"/><path fill="black" stroke="none" paint-order="stroke fill markers" d=" M 155.92782900340407 172.54830703251463 A 0.5 0.5 0 1 1 155.9278287534041 172.54780703259797"/><path fill="black" stroke="none" paint-order="stroke fill markers" d=" M 155.42954208770703 174.67800904972708 A 0.5 0.5 0 1 1 155.42954183770706 174.67750904981042"/><path fill="black" stroke="none" paint-order="stroke fill markers" d=" M 154.4779750832725 177.40227539158533 A 0.5 0.5 0 1 1 154.47797483327253 177.40177539166868"/><path fill="black" stroke="none" paint-order="stroke fill markers" d=" M 155.89401509436826 180.13410790689554 A 0.5 0.5 0 1 1 155.8940148443683 180.13360790697888"/><path fill="black" stroke="none" paint-order="stroke fill markers" d=" M 155.77438487563484 184.68073139524915 A 0.5 0.5 0 1 1 155.77438462563487 184.6802313953325"/><path fill="black" stroke="none" paint-order="stroke fill markers" d=" M 151.86478443519403 199.99963208655555 A 0.5 0.5 0 1 1 151.86478418519405 199.9991320866389"/><path fill="black" stroke="none" paint-order="stroke fill markers" d=" M 157.57604702443547 187.47046411057568 A 0.5 0.5 0 1 1 157.5760467744355 187.46996411065902"/><path fill="black" stroke="none" paint-order="stroke fill markers" d=" M 158.63492932001245 186.92845529702421 A 0.5 0.5 0 1 1 158.63492907001248 186.92795529710756"/><path fill="black" stroke="none" paint-order="stroke fill markers" d=" M 157.70324593397353 184.3682438972289 A 0.5 0.5 0 1 1 157.70324568397356 184.36774389731224"/><path fill="black" stroke="none" paint-order="stroke fill markers" d=" M 156.39622993016437 178.8394124034957 A 0.5 0.5 0 1 1 156.3962296801644 178.83891240357903"/><path fill="black" stroke="none" paint-order="stroke fill markers" d=" M 155.68665541833178 176.19190958884263 A 0.5 0.5 0 1 1 155.6866551683318 176.19140958892598"/><path fill="black" stroke="none" paint-order="stroke fill markers" d=" M 157.06152021526023 176.26010936279258 A 0.5 0.5 0 1 1 157.06151996526026 176.25960936287592"/><path fill="black" stroke="none" paint-order="stroke fill markers" d=" M 161.04396856614255 177.99782735205704 A 0.5 0.5 0 1 1 161.04396831614258 177.9973273521404"/><path fill="black" stroke="none" paint-order="stroke fill markers" d=" M 164.91431403012993 179.4174613728739 A 0.5 0.5 0 1 1 164.91431378012996 179.41696137295725"/><path fill="black" stroke="none" paint-order="stroke fill markers" d=" M 167.99176793582703 179.3260857676574 A 0.5 0.5 0 1 1 167.99176768582706 179.32558576774073"/><path fill="black" stroke="none" paint-order="stroke fill markers" d=" M 174.1479537392751 180.70281590175233 A 0.5 0.5 0 1 1 174.14795348927512 180.70231590183568"/><path fill="black" stroke="none" paint-order="stroke fill markers" d=" M 178.86757130420227 180.45709783598645 A 0.5 0.5 0 1 1 178.8675710542023 180.4565978360698"/><path fill="black" stroke="none" paint-order="stroke fill markers" d=" M 181.8421353281345 182.61230615498675 A 0.5 0.5 0 1 1 181.84213507813453 182.6118061550701"/><path fill="black" stroke="none" paint-order="stroke fill markers" d=" M 173.68771470906242 152.83374873647023 A 0.5 0.5 0 1 1 173.68771445906245 152.83324873655357"/><path fill="black" stroke="none" paint-order="stroke fill markers" d=" M 186.1480893763102 193.6514097032107 A 0.5 0.5 0 1 1 186.14808912631023 193.65090970329405"/><path fill="black" stroke="none" paint-order="stroke fill markers" d=" M 186.32082096252017 198.7481006043239 A 0.5 0.5 0 1 1 186.3208207125202 198.74760060440724"/><path fill="black" stroke="none" paint-order="stroke fill markers" d=" M 185.0695574359175 203.6980693135762 A 0.5 0.5 0 1 1 185.06955718591752 203.69756931365956"/><path fill="black" stroke="none" paint-order="stroke fill markers" d=" M 183.30330151634925 210.52735427132808 A 0.5 0.5 0 1 1 183.30330126634928 210.52685427141142"/><path fill="black" stroke="none" paint-order="stroke fill markers" d=" M 177.26133440633566 208.78602542502452 A 0.5 0.5 0 1 1 177.2613341563357 208.78552542510786"/><path fill="black" stroke="none" paint-order="stroke fill markers" d=" M 171.0376785397297 203.62180457627267 A 0.5 0.5 0 1 1 171.03767828972974 203.621304576356"/><path fill="black" stroke="none" paint-order="stroke fill markers" d=" M 164.12257402362562 196.2363760378687 A 0.5 0.5 0 1 1 164.12257377362565 196.23587603795204"/><path fill="black" stroke="none" paint-order="stroke fill markers" d=" M 157.19595162629238 190.21698427812476 A 0.5 0.5 0 1 1 157.1959513762924 190.2164842782081"/><path fill="black" stroke="none" paint-order="stroke fill markers" d=" M 150.4651332098546 180.70510062997798 A 0.5 0.5 0 1 1 150.46513295985463 180.70460063006132"/><path fill="black" stroke="none" paint-order="stroke fill markers" d=" M 148.93483373720056 176.37040557250722 A 0.5 0.5 0 1 1 148.9348334872006 176.36990557259057"/><path fill="black" stroke="none" paint-order="stroke fill markers" d=" M 148.98129639976838 172.81673992675923 A 0.5 0.5 0 1 1 148.9812961497684 172.81623992684257"/><path fill="black" stroke="none" paint-order="stroke fill markers" d=" M 150.06115773550147 170.93528055227088 A 0.5 0.5 0 1 1 150.0611574855015 170.93478055235423"/><path fill="black" stroke="none" paint-order="stroke fill markers" d=" M 149.47237503850863 169.28282679865072 A 0.5 0.5 0 1 1 149.47237478850866 169.28232679873406"/><path fill="black" stroke="none" paint-order="stroke fill markers" d=" M 152.53312760283382 167.33601451147513 A 0.5 0.5 0 1 1 152.53312735283384 167.33551451155847"/><path fill="black" stroke="none" paint-order="stroke fill markers" d=" M 151.96190828623583 166.47199766201183 A 0.5 0.5 0 1 1 151.96190803623585 166.47149766209517"/><path fill="black" stroke="none" paint-order="stroke fill markers" d=" M 152.7547915727329 165.8424431909629 A 0.5 0.5 0 1 1 152.75479132273293 165.84194319104625"/><path fill="black" stroke="none" paint-order="stroke fill markers" d=" M 155.24880576902078 165.44498967717774 A 0.5 0.5 0 1 1 155.2488055190208 165.4444896772611"/><path fill="black" stroke="none" paint-order="stroke fill markers" d=" M 155.26108938196597 165.34866704269166 A 0.5 0.5 0 1 1 155.261089131966 165.348167042775"/><path fill="black" stroke="none" paint-order="stroke fill markers" d=" M 156.88969734462069 164.88036492800188 A 0.5 0.5 0 1 1 156.88969709462071 164.87986492808523"/><path fill="black" stroke="none" paint-order="stroke fill markers" d=" M 157.68819895124741 164.1825135054848 A 0.5 0.5 0 1 1 157.68819870124744 164.18201350556814"/><path fill="black" stroke="none" paint-order="stroke fill markers" d=" M 159.00401673389473 163.94602524057402 A 0.5 0.5 0 1 1 159.00401648389476 163.94552524065736"/><path fill="black" stroke="none" paint-order="stroke fill markers" d=" M 159.91302358963844 161.33591734921578 A 0.5 0.5 0 1 1 159.91302333963847 161.33541734929912"/><path fill="black" stroke="none" paint-order="stroke fill markers" d=" M 162.383761550622 159.61678226698015 A 0.5 0.5 0 1 1 162.38376130062204 159.6162822670635"/><path fill="black" stroke="none" paint-order="stroke fill markers" d=" M 162.43059467135805 157.0875523228769 A 0.5 0.5 0 1 1 162.43059442135808 157.08705232296023"/><path fill="black" stroke="none" paint-order="stroke fill markers" d=" M 167.81455385009514 151.41896260346923 A 0.5 0.5 0 1 1 167.81455360009517 151.41846260355257"/><path fill="black" stroke="none" paint-order="stroke fill markers" d=" M 171.6244635986577 147.1163690912942 A 0.5 0.5 0 1 1 171.62446334865774 147.11586909137753"/><path fill="black" stroke="none" paint-order="stroke fill markers" d=" M 176.2161608355088 141.73105146458408 A 0.5 0.5 0 1 1 176.21616058550882 141.73055146466743"/><path fill="black" stroke="none" paint-order="stroke fill markers" d=" M 181.56691504213128 135.96111829710918 A 0.5 0.5 0 1 1 181.5669147921313 135.96061829719253"/><path fill="black" stroke="none" paint-order="stroke fill markers" d=" M 183.13591587193474 136.8858318167465 A 0.5 0.5 0 1 1 183.13591562193477 136.88533181682985"/><path fill="black" stroke="none" paint-order="stroke fill markers" d=" M 175.92197510015836 144.5933115727838 A 0.5 0.5 0 1 1 175.9219748501584 144.59281157286713"/><path fill="black" stroke="none" paint-order="stroke fill markers" d=" M 176.17441309508155 143.9246753567098 A 0.5 0.5 0 1 1 176.17441284508158 143.92417535679314"/><path fill="black" stroke="none" paint-order="stroke fill markers" d=" M 174.43359412137752 141.33583325745735 A 0.5 0.5 0 1 1 174.43359387137755 141.3353332575407"/><path fill="black" stroke="none" paint-order="stroke fill markers" d=" M 178.67092123702798 119.50395995785004 A 0.5 0.5 0 1 1 178.670920987028 119.50345995793337"/><path fill="black" stroke="none" paint-order="stroke fill markers" d=" M 174.94540187394986 137.61928049034117 A 0.5 0.5 0 1 1 174.9454016239499 137.6187804904245"/><path fill="black" stroke="none" paint-order="stroke fill markers" d=" M 177.88296675761072 131.54060830653094 A 0.5 0.5 0 1 1 177.88296650761075 131.5401083066143"/><path fill="black" stroke="none" paint-order="stroke fill markers" d=" M 178.86832994580988 131.83426907119883 A 0.5 0.5 0 1 1 178.8683296958099 131.83376907128218"/><path fill="black" stroke="none" paint-order="stroke fill markers" d=" M 181.8465359221324 133.14157910644894 A 0.5 0.5 0 1 1 181.84653567213243 133.1410791065323"/><path fill="black" stroke="none" paint-order="stroke fill markers" d=" M 188.49746063282458 134.30380889937086 A 0.5 0.5 0 1 1 188.4974603828246 134.3033088994542"/><path fill="black" stroke="none" paint-order="stroke fill markers" d=" M 191.5679408259872 136.99418457553662 A 0.5 0.5 0 1 1 191.56794057598722 136.99368457561997"/><path fill="black" stroke="none" paint-order="stroke fill markers" d=" M 193.39380210587956 139.06997790522308 A 0.5 0.5 0 1 1 193.3938018558796 139.06947790530643"/><path fill="black" stroke="none" paint-order="stroke fill markers" d=" M 197.3157097929605 144.20937063143933 A 0.5 0.5 0 1 1 197.31570954296052 144.20887063152267"/><path fill="black" stroke="none" paint-order="stroke fill markers" d=" M 220.38804775753638 132.61082846624336 A 0.5 0.5 0 1 1 220.3880475075364 132.6103284663267"/><path fill="black" stroke="none" paint-order="stroke fill markers" d=" M 190.55250966940028 152.46449146977372 A 0.5 0.5 0 1 1 190.5525094194003 152.46399146985706"/><path fill="black" stroke="none" paint-order="stroke fill markers" d=" M 187.24383491841263 154.98895944202508 A 0.5 0.5 0 1 1 187.24383466841266 154.98845944210842"/><path fill="black" stroke="none" paint-order="stroke fill markers" d=" M 185.3711458353656 156.84746175274756 A 0.5 0.5 0 1 1 185.37114558536564 156.8469617528309"/><path fill="black" stroke="none" paint-order="stroke fill markers" d=" M 183.1019424354581 158.85301321330468 A 0.5 0.5 0 1 1 183.10194218545814 158.85251321338802"/><path fill="black" stroke="none" paint-order="stroke fill markers" d=" M 180.30750379919795 160.91549275065677 A 0.5 0.5 0 1 1 180.30750354919797 160.9149927507401"/><path fill="black" stroke="none" paint-order="stroke fill markers" d=" M 178.34297772266723 163.98067841044627 A 0.5 0.5 0 1 1 178.34297747266726 163.98017841052962"/><path fill="black" stroke="none" paint-order="stroke fill markers" d=" M 177.4009173720224 165.41864176687068 A 0.5 0.5 0 1 1 177.40091712202243 165.41814176695402"/><path fill="black" stroke="none" paint-order="stroke fill markers" d=" M 178.27654222450536 165.71366811308195 A 0.5 0.5 0 1 1 178.2765419745054 165.7131681131653"/><path fill="black" stroke="none" paint-order="stroke fill markers" d=" M 178.47471193826433 165.79407190663906 A 0.5 0.5 0 1 1 178.47471168826436 165.7935719067224"/><path fill="black" stroke="none" paint-order="stroke fill markers" d=" M 180.9884437262409 164.47200038511858 A 0.5 0.5 0 1 1 180.98844347624092 164.47150038520192"/><path fill="black" stroke="none" paint-order="stroke fill markers" d=" M 182.5138971097474 162.590013582074 A 0.5 0.5 0 1 1 182.51389685974743 162.58951358215734"/><path fill="black" stroke="none" paint-order="stroke fill markers" d=" M 193.3147237626094 155.87172369676182 A 0.5 0.5 0 1 1 193.31472351260942 155.87122369684516"/><path fill="black" stroke="none" paint-order="stroke fill markers" d=" M 183.6589082706376 157.1429148198849 A 0.5 0.5 0 1 1 183.65890802063763 157.14241481996825"/><path fill="black" stroke="none" paint-order="stroke fill markers" d=" M 189.64009778905802 145.94039592621832 A 0.5 0.5 0 1 1 189.64009753905805 145.93989592630166"/><path fill="black" stroke="none" paint-order="stroke fill markers" d=" M 182.10364452601814 159.19887985882482 A 0.5 0.5 0 1 1 182.10364427601817 159.19837985890817"/><path fill="black" stroke="none" paint-order="stroke fill markers" d=" M 181.9089962328053 159.08461480888812 A 0.5 0.5 0 1 1 181.90899598280532 159.08411480897146"/><path fill="black" stroke="none" paint-order="stroke fill markers" d=" M 180.39522498470774 160.7565450353378 A 0.5 0.5 0 1 1 180.39522473470777 160.75604503542115"/><path fill="black" stroke="none" paint-order="stroke fill markers" d=" M 181.71811042382694 159.48988796810676 A 0.5 0.5 0 1 1 181.71811017382697 159.4893879681901"/><path fill="black" stroke="none" paint-order="stroke fill markers" d=" M 181.93993155779737 158.88829205822896 A 0.5 0.5 0 1 1 181.9399313077974 158.8877920583123"/><path fill="black" stroke="none" paint-order="stroke fill markers" d=" M 178.30252274535323 158.17931511502326 A 0.5 0.5 0 1 1 178.30252249535326 158.1788151151066"/><path fill="black" stroke="none" paint-order="stroke fill markers" d=" M 178.7848403733791 155.53539770082736 A 0.5 0.5 0 1 1 178.78484012337913 155.5348977009107"/><path fill="black" stroke="none" paint-order="stroke fill markers" d=" M 176.56516847132744 153.39274981844082 A 0.5 0.5 0 1 1 176.56516822132747 153.39224981852416"/><path fill="black" stroke="none" paint-order="stroke fill markers" d=" M 177.5661688937838 145.58447313532898 A 0.5 0.5 0 1 1 177.56616864378384 145.58397313541232"/><path fill="black" stroke="none" paint-order="stroke fill markers" d=" M 178.5516738841526 142.26399455290596 A 0.5 0.5 0 1 1 178.55167363415262 142.2634945529893"/><path fill="black" stroke="none" paint-order="stroke fill markers" d=" M 178.21523760151504 137.82824720702342 A 0.5 0.5 0 1 1 178.21523735151507 137.82774720710677"/><path fill="black" stroke="none" paint-order="stroke fill markers" d=" M 176.64004592532197 136.81547937058951 A 0.5 0.5 0 1 1 176.640045675322 136.81497937067286"/><path fill="black" stroke="none" paint-order="stroke fill markers" d=" M 176.29539338863844 135.71848843293517 A 0.5 0.5 0 1 1 176.29539313863847 135.71798843301852"/><path fill="black" stroke="none" paint-order="stroke fill markers" d=" M 175.0169582029629 136.65756582891032 A 0.5 0.5 0 1 1 175.01695795296294 136.65706582899367"/><path fill="black" stroke="none" paint-order="stroke fill markers" d=" M 174.422521735298 138.80003949281448 A 0.5 0.5 0 1 1 174.42252148529803 138.79953949289782"/><path fill="black" stroke="none" paint-order="stroke fill markers" d=" M 173.24508928084637 139.61427462907292 A 0.5 0.5 0 1 1 173.2450890308464 139.61377462915627"/><path fill="black" stroke="none" paint-order="stroke fill markers" d=" M 174.9801694025765 141.489447818868 A 0.5 0.5 0 1 1 174.98016915257654 141.48894781895135"/><path fill="black" stroke="none" paint-order="stroke fill markers" d=" M 175.92765723126436 143.1266099230678 A 0.5 0.5 0 1 1 175.9276569812644 143.12610992315115"/><path fill="black" stroke="none" paint-order="stroke fill markers" d=" M 178.32602290991707 143.4119861613632 A 0.5 0.5 0 1 1 178.3260226599171 143.41148616144653"/><path fill="black" stroke="none" paint-order="stroke fill markers" d=" M 183.06166234748665 147.81589527846901 A 0.5 0.5 0 1 1 183.06166209748667 147.81539527855236"/><path fill="black" stroke="none" paint-order="stroke fill markers" d=" M 186.06981576035275 149.17956300397586 A 0.5 0.5 0 1 1 186.06981551035278 149.1790630040592"/><path fill="black" stroke="none" paint-order="stroke fill markers" d=" M 188.16008254744366 152.13570539519117 A 0.5 0.5 0 1 1 188.1600822974437 152.1352053952745"/><path fill="black" stroke="none" paint-order="stroke fill markers" d=" M 190.32359370020876 154.39169870849324 A 0.5 0.5 0 1 1 190.3235934502088 154.39119870857658"/><path fill="black" stroke="none" paint-order="stroke fill markers" d=" M 192.11490251809846 159.17118150667983 A 0.5 0.5 0 1 1 192.1149022680985 159.17068150676317"/><path fill="black" stroke="none" paint-order="stroke fill markers" d=" M 192.17007774230603 161.46417397298 A 0.5 0.5 0 1 1 192.17007749230606 161.46367397306335"/><path fill="black" stroke="none" paint-order="stroke fill markers" d=" M 188.09995133740713 165.44476683264634 A 0.5 0.5 0 1 1 188.09995108740716 165.44426683272968"/><path fill="black" stroke="none" paint-order="stroke fill markers" d=" M 180.38951626569494 167.6789205366322 A 0.5 0.5 0 1 1 180.38951601569497 167.67842053671555"/><path fill="black" stroke="none" paint-order="stroke fill markers" d=" M 168.60934105228552 168.45473731545158 A 0.5 0.5 0 1 1 168.60934080228554 168.45423731553493"/><path fill="black" stroke="none" paint-order="stroke fill markers" d=" M 161.33061397112232 168.73489137462536 A 0.5 0.5 0 1 1 161.33061372112235 168.7343913747087"/><path fill="black" stroke="none" paint-order="stroke fill markers" d=" M 154.44580489771977 168.73760926250242 A 0.5 0.5 0 1 1 154.4458046477198 168.73710926258576"/><path fill="black" stroke="none" paint-order="stroke fill markers" d=" M 143.16610995460846 168.6897073339074 A 0.5 0.5 0 1 1 143.1661097046085 168.68920733399074"/><path fill="black" stroke="none" paint-order="stroke fill markers" d=" M 133.41733605032806 170.30670941627773 A 0.5 0.5 0 1 1 133.4173358003281 170.30620941636107"/><path fill="black" stroke="none" paint-order="stroke fill markers" d=" M 128.90819721832713 174.87254506654406 A 0.5 0.5 0 1 1 128.90819696832716 174.8720450666274"/><path fill="black" stroke="none" paint-order="stroke fill markers" d=" M 135.49534758490773 177.82964207958065 A 0.5 0.5 0 1 1 135.49534733490776 177.829142079664"/><path fill="black" stroke="none" paint-order="stroke fill markers" d=" M 143.78009207883136 179.10009496182863 A 0.5 0.5 0 1 1 143.7800918288314 179.09959496191198"/><path fill="black" stroke="none" paint-order="stroke fill markers" d=" M 150.85868976979327 180.06631066514691 A 0.5 0.5 0 1 1 150.8586895197933 180.06581066523026"/><path fill="black" stroke="none" paint-order="stroke fill markers" d=" M 157.19921071282465 176.65322024224878 A 0.5 0.5 0 1 1 157.19921046282468 176.65272024233212"/></g></g></g><g/><g/><g/></g></g></svg>