<svg version="1.1" xmlns="http://www.w3.org/2000/svg" xmlns:xlink="http://www.w3.org/1999/xlink" width="300" height="300" style="width: 300px; height: 300px;"><defs><clipPath id="uWGTNOiQHkOC"><path fill="none" stroke="none" d=" M 5 5 L 295 5 L 295 295 L 5 295 L 5 5 Z"/></clipPath><clipPath id="XtwCHVBPQTZS"><path fill="none" stroke="none" d=" M 5 5 L 295 5 L 295 295 L 5 295 L 5 5 Z"/></clipPath><clipPath id="yKhWTpPUKNhD"><path fill="none" stroke="none" d=" M 5 5 L 295 5 L 295 295 L 5 295 L 5 5 Z"/></clipPath></defs><g><g transform="scale(1,1) translate(0.5,0.5)"><rect fill="#FFFFFF" stroke="none" x="0" y="0" width="300" height="300"/><g clip-path="url(#uWGTNOiQHkOC)"><g><g/></g></g><g clip-path="url(#XtwCHVBPQTZS)"><g><g/></g></g><g clip-path="url(#yKhWTpPUKNhD)"><g><g><path fill="none" stroke="none"/><path fill="black" stroke="none" paint-order="stroke fill markers" d=" M 231.05555555555554 270.06287793095737 A 0.5 0.5 0 1 1 231.05555530555557 270.0623779310407"/><path fill="black" stroke="none" paint-order="stroke fill markers" d=" M 218.06791728147033 234.47155568965945 A 0.5 0.5 0 1 1 218.06791703147036 234.4710556897428"/><path fill="black" stroke="none" paint-order="stroke fill markers" d=" M 221.8497532307566 237.89846884571938 A 0.5 0.5 0 1 1 221.84975298075662 237.89796884580272"/><path fill="black" stroke="none" paint-order="stroke fill markers" d=" M 187.52258392170245 201.0717738986342 A 0.5 0.5 0 1 1 187.52258367170248 201.07127389871755"/><path fill="black" stroke="none" paint-order="stroke fill markers" d=" M 224.10795782246552 245.06048038970948 A 0.5 0.5 0 1 1 224.10795757246555 245.05998038979283"/><path fill="black" stroke="none" paint-order="stroke fill markers" d=" M 193.16423577233493 213.48910584831694 A 0.5 0.5 0 1 1 193.16423552233496 213.48860584840028"/><path fill="black" stroke="none" paint-order="stroke fill markers" d=" M 193.46711135796713 215.44967013343867 A 0.5 0.5 0 1 1 193.46711110796716 215.44917013352202"/><path fill="black" stroke="none" paint-order="stroke fill markers" d=" M 191.044776965783 211.84567852641086 A 0.5 0.5 0 1 1 191.04477671578303 211.8451785264942"/><path fill="black" stroke="none" paint-order="stroke fill markers" d=" M 211.74471308894988 222.92080661077128 A 0.5 0.5 0 1 1 211.7447128389499 222.92030661085462"/><path fill="black" stroke="none" paint-order="stroke fill markers" d=" M 186.50026024853022 205.13940377095827 A 0.5 0.5 0 1 1 186.50025999853025 205.1389037710416"/><path fill="black" stroke="none" paint-order="stroke fill markers" d=" M 184.00060745239512 197.75217403652485 A 0.5 0.5 0 1 1 184.00060720239514 197.7516740366082"/><path fill="black" stroke="none" paint-order="stroke fill markers" d=" M 175.33246168140994 191.3679282195995 A 0.5 0.5 0 1 1 175.33246143140997 191.36742821968284"/><path fill="black" stroke="none" paint-order="stroke fill markers" d=" M 185.4695010484372 188.8341045789681 A 0.5 0.5 0 1 1 185.46950079843722 188.83360457905144"/><path fill="black" stroke="none" paint-order="stroke fill markers" d=" M 160.27350288129978 154.2109520046361 A 0.5 0.5 0 1 1 160.2735026312998 154.21045200471946"/><path fill="black" stroke="none" paint-order="stroke fill markers" d=" M 187.86950283076706 185.83627109173932 A 0.5 0.5 0 1 1 187.8695025807671 185.83577109182266"/><path fill="black" stroke="none" paint-order="stroke fill markers" d=" M 225.08377357548454 140.49668231586242 A 0.5 0.5 0 1 1 225.08377332548457 140.49618231594576"/><path fill="black" stroke="none" paint-order="stroke fill markers" d=" M 208.61211749332062 193.3177074342289 A 0.5 0.5 0 1 1 208.61211724332065 193.31720743431225"/><path fill="black" stroke="none" paint-order="stroke fill markers" d=" M 222.37291076895718 166.17301735839726 A 0.5 0.5 0 1 1 222.3729105189572 166.1725173584806"/><path fill="black" stroke="none" paint-order="stroke fill markers" d=" M 212.99705731999538 177.19037265358162 A 0.5 0.5 0 1 1 212.9970570699954 177.18987265366496"/><path fill="black" stroke="none" paint-order="stroke fill markers" d=" M 191.57617644451494 178.22697239516268 A 0.5 0.5 0 1 1 191.57617619451497 178.22647239524602"/><path fill="black" stroke="none" paint-order="stroke fill markers" d=" M 189.8094030016037 168.2517831176944 A 0.5 0.5 0 1 1 189.80940275160373 168.25128311777775"/><path fill="black" stroke="none" paint-order="stroke fill markers" d=" M 188.52052417920706 172.6372280507222 A 0.5 0.5 0 1 1 188.5205239292071 172.63672805080554"/><path fill="black" stroke="none" paint-order="stroke fill markers" d=" M 186.77251288717946 168.755302075478 A 0.5 0.5 0 1 1 186.7725126371795 168.75480207556134"/><path fill="black" stroke="none" paint-order="stroke fill markers" d=" M 183.86221859214365 165.55149249365002 A 0.5 0.5 0 1 1 183.86221834214368 165.55099249373336"/><path fill="black" stroke="none" paint-order="stroke fill markers" d=" M 208.26382170106098 148.4209975055024 A 0.5 0.5 0 1 1 208.263821451061 148.42049750558576"/><path fill="black" stroke="none" paint-order="stroke fill markers" d=" M 179.6223221578581 161.5839311355332 A 0.5 0.5 0 1 1 179.62232190785812 161.58343113561654"/><path fill="black" stroke="none" paint-order="stroke fill markers" d=" M 178.36583517807813 159.22793064393187 A 0.5 0.5 0 1 1 178.36583492807816 159.22743064401521"/><path fill="black" stroke="none" paint-order="stroke fill markers" d=" M 177.04276173981296 158.4138405414917 A 0.5 0.5 0 1 1 177.042761489813 158.41334054157505"/><path fill="black" stroke="none" paint-order="stroke fill markers" d=" M 183.16311764405097 119.2287106310988 A 0.5 0.5 0 1 1 183.163117394051 119.22821063118214"/><path fill="black" stroke="none" paint-order="stroke fill markers" d=" M 168.0399784525415 158.41925534090674 A 0.5 0.5 0 1 1 168.03997820254153 158.4187553409901"/><path fill="black" stroke="none" paint-order="stroke fill markers" d=" M 164.14465807828995 160.64324888822642 A 0.5 0.5 0 1 1 164.14465782828998 160.64274888830977"/><path fill="black" stroke="none" paint-order="stroke fill markers" d=" M 160.21799803369632 160.8935269361922 A 0.5 0.5 0 1 1 160.21799778369635 160.89302693627553"/><path fill="black" stroke="none" paint-order="stroke fill markers" d=" M 155.0505602423488 161.7086131682568 A 0.5 0.5 0 1 1 155.05055999234884 161.70811316834013"/><path fill="black" stroke="none" paint-order="stroke fill markers" d=" M 138.63070545817493 162.55859387864442 A 0.5 0.5 0 1 1 138.63070520817496 162.55809387872776"/><path fill="black" stroke="none" paint-order="stroke fill markers" d=" M 148.77692989442465 161.43398426138756 A 0.5 0.5 0 1 1 148.77692964442468 161.4334842614709"/><path fill="black" stroke="none" paint-order="stroke fill markers" d=" M 144.03720792152836 161.32755462462208 A 0.5 0.5 0 1 1 144.0372076715284 161.32705462470543"/><path fill="black" stroke="none" paint-order="stroke fill markers" d=" M 140.8595018574948 160.84602019006962 A 0.5 0.5 0 1 1 140.85950160749482 160.84552019015297"/><path fill="black" stroke="none" paint-order="stroke fill markers" d=" M 138.98465155317697 161.7118875365405 A 0.5 0.5 0 1 1 138.984651303177 161.71138753662385"/><path fill="black" stroke="none" paint-order="stroke fill markers" d=" M 134.67202350245574 161.33640309628777 A 0.5 0.5 0 1 1 134.67202325245577 161.3359030963711"/><path fill="black" stroke="none" paint-order="stroke fill markers" d=" M 114.71439922933925 155.0319248061768 A 0.5 0.5 0 1 1 114.71439897933926 155.03142480626013"/><path fill="black" stroke="none" paint-order="stroke fill markers" d=" M 113.49788299932338 155.39381889065965 A 0.5 0.5 0 1 1 113.4978827493234 155.393318890743"/><path fill="black" stroke="none" paint-order="stroke fill markers" d=" M 116.2893600180823 165.88807073065158 A 0.5 0.5 0 1 1 116.28935976808232 165.88757073073492"/><path fill="black" stroke="none" paint-order="stroke fill markers" d=" M 103.5980541096655 176.91448965982107 A 0.5 0.5 0 1 1 103.59805385966551 176.91398965990442"/><path fill="black" stroke="none" paint-order="stroke fill markers" d=" M 103.34760655795924 174.65546267505542 A 0.5 0.5 0 1 1 103.34760630795925 174.65496267513876"/><path fill="black" stroke="none" paint-order="stroke fill markers" d=" M 108.14642440598351 159.04274803549552 A 0.5 0.5 0 1 1 108.14642415598352 159.04224803557887"/><path fill="black" stroke="none" paint-order="stroke fill markers" d=" M 133.58651444167816 160.97813308108587 A 0.5 0.5 0 1 1 133.5865141916782 160.97763308116922"/><path fill="black" stroke="none" paint-order="stroke fill markers" d=" M 132.5498278683228 159.80661708253592 A 0.5 0.5 0 1 1 132.54982761832284 159.80611708261927"/><path fill="black" stroke="none" paint-order="stroke fill markers" d=" M 109.34569692835808 149.01786302185332 A 0.5 0.5 0 1 1 109.3456966783581 149.01736302193666"/><path fill="black" stroke="none" paint-order="stroke fill markers" d=" M 134.61757007093004 158.32736574187294 A 0.5 0.5 0 1 1 134.61756982093007 158.32686574195628"/><path fill="black" stroke="none" paint-order="stroke fill markers" d=" M 138.07313309958778 155.49153556009756 A 0.5 0.5 0 1 1 138.0731328495878 155.4910355601809"/><path fill="black" stroke="none" paint-order="stroke fill markers" d=" M 138.41822261727197 154.3903482323563 A 0.5 0.5 0 1 1 138.418222367272 154.38984823243965"/><path fill="black" stroke="none" paint-order="stroke fill markers" d=" M 139.5070516846288 152.3054500800483 A 0.5 0.5 0 1 1 139.50705143462883 152.30495008013165"/><path fill="black" stroke="none" paint-order="stroke fill markers" d=" M 139.210286169414 151.85010790471077 A 0.5 0.5 0 1 1 139.21028591941402 151.8496079047941"/><path fill="black" stroke="none" paint-order="stroke fill markers" d=" M 143.2908670547473 126.60455339475047 A 0.5 0.5 0 1 1 143.29086680474734 126.6040533948338"/><path fill="black" stroke="none" paint-order="stroke fill markers" d=" M 133.25692877396 144.16877464135203 A 0.5 0.5 0 1 1 133.25692852396003 144.16827464143537"/><path fill="black" stroke="none" paint-order="stroke fill markers" d=" M 138.67246446221168 153.72519390370311 A 0.5 0.5 0 1 1 138.6724642122117 153.72469390378646"/><path fill="black" stroke="none" paint-order="stroke fill markers" d=" M 137.7003365299119 155.7737676806357 A 0.5 0.5 0 1 1 137.70033627991194 155.77326768071904"/><path fill="black" stroke="none" paint-order="stroke fill markers" d=" M 112.53994978903089 165.26154718212607 A 0.5 0.5 0 1 1 112.5399495390309 165.2610471822094"/><path fill="black" stroke="none" paint-order="stroke fill markers" d=" M 136.24523233437415 160.69393134933276 A 0.5 0.5 0 1 1 136.24523208437418 160.6934313494161"/><path fill="black" stroke="none" paint-order="stroke fill markers" d=" M 136.02252813210762 163.10066017390557 A 0.5 0.5 0 1 1 136.02252788210765 163.1001601739889"/><path fill="black" stroke="none" paint-order="stroke fill markers" d=" M 136.5982879319847 163.74087153192286 A 0.5 0.5 0 1 1 136.59828768198471 163.7403715320062"/><path fill="black" stroke="none" paint-order="stroke fill markers" d=" M 141.32019874713558 187.45964223614388 A 0.5 0.5 0 1 1 141.3201984971356 187.45914223622722"/><path fill="black" stroke="none" paint-order="stroke fill markers" d=" M 140.85843955218263 161.26186073958806 A 0.5 0.5 0 1 1 140.85843930218266 161.2613607396714"/><path fill="black" stroke="none" paint-order="stroke fill markers" d=" M 142.16566794447036 159.6113495733317 A 0.5 0.5 0 1 1 142.1656676944704 159.61084957341504"/><path fill="black" stroke="none" paint-order="stroke fill markers" d=" M 142.1902679349112 158.0934192295028 A 0.5 0.5 0 1 1 142.19026768491122 158.09291922958616"/><path fill="black" stroke="none" paint-order="stroke fill markers" d=" M 158.85274454099732 126.48907452493452 A 0.5 0.5 0 1 1 158.85274429099735 126.48857452501785"/><path fill="black" stroke="none" paint-order="stroke fill markers" d=" M 111.00613578736792 159.93587939220694 A 0.5 0.5 0 1 1 111.00613553736794 159.9353793922903"/><path fill="black" stroke="none" paint-order="stroke fill markers" d=" M 144.56818876969308 157.7042008679775 A 0.5 0.5 0 1 1 144.5681885196931 157.70370086806085"/><path fill="black" stroke="none" paint-order="stroke fill markers" d=" M 145.45460874788859 160.4601886692673 A 0.5 0.5 0 1 1 145.45460849788861 160.45968866935064"/><path fill="black" stroke="none" paint-order="stroke fill markers" d=" M 147.09292431232774 163.23371084706918 A 0.5 0.5 0 1 1 147.09292406232777 163.23321084715252"/><path fill="black" stroke="none" paint-order="stroke fill markers" d=" M 147.90094543253608 166.6270442143812 A 0.5 0.5 0 1 1 147.9009451825361 166.62654421446453"/><path fill="black" stroke="none" paint-order="stroke fill markers" d=" M 148.76800919161528 168.31854875375402 A 0.5 0.5 0 1 1 148.7680089416153 168.31804875383736"/><path fill="black" stroke="none" paint-order="stroke fill markers" d=" M 132.17051711664155 182.5612533084661 A 0.5 0.5 0 1 1 132.17051686664158 182.56075330854944"/><path fill="black" stroke="none" paint-order="stroke fill markers" d=" M 149.69676409335617 169.89891991883962 A 0.5 0.5 0 1 1 149.6967638433562 169.89841991892297"/><path fill="black" stroke="none" paint-order="stroke fill markers" d=" M 150.23057493255183 169.9227329829054 A 0.5 0.5 0 1 1 150.23057468255186 169.92223298298873"/><path fill="black" stroke="none" paint-order="stroke fill markers" d=" M 150.68392037905284 168.51406116881583 A 0.5 0.5 0 1 1 150.68392012905286 168.51356116889917"/><path fill="black" stroke="none" paint-order="stroke fill markers" d=" M 151.7882750748445 166.1092644555231 A 0.5 0.5 0 1 1 151.78827482484454 166.10876445560643"/><path fill="black" stroke="none" paint-order="stroke fill markers" d=" M 152.3658255488241 163.89283638427102 A 0.5 0.5 0 1 1 152.36582529882412 163.89233638435437"/><path fill="black" stroke="none" paint-order="stroke fill markers" d=" M 152.46151167139018 161.44976571846615 A 0.5 0.5 0 1 1 152.4615114213902 161.4492657185495"/><path fill="black" stroke="none" paint-order="stroke fill markers" d=" M 151.31074584864 161.6083829509265 A 0.5 0.5 0 1 1 151.31074559864004 161.60788295100986"/><path fill="black" stroke="none" paint-order="stroke fill markers" d=" M 165.90769908486874 123.04815183254601 A 0.5 0.5 0 1 1 165.90769883486877 123.04765183262934"/><path fill="black" stroke="none" paint-order="stroke fill markers" d=" M 158.16894720194907 143.23728480873348 A 0.5 0.5 0 1 1 158.1689469519491 143.23678480881682"/><path fill="black" stroke="none" paint-order="stroke fill markers" d=" M 120.53572102786094 183.95742859004773 A 0.5 0.5 0 1 1 120.53572077786096 183.95692859013107"/><path fill="black" stroke="none" paint-order="stroke fill markers" d=" M 147.0760230106128 169.05432617765592 A 0.5 0.5 0 1 1 147.07602276061283 169.05382617773927"/><path fill="black" stroke="none" paint-order="stroke fill markers" d=" M 144.78765039993613 174.2495008908103 A 0.5 0.5 0 1 1 144.78765014993616 174.24900089089365"/><path fill="black" stroke="none" paint-order="stroke fill markers" d=" M 142.21800886452104 178.61791354272052 A 0.5 0.5 0 1 1 142.21800861452107 178.61741354280386"/><path fill="black" stroke="none" paint-order="stroke fill markers" d=" M 140.05946980559654 186.09722711186788 A 0.5 0.5 0 1 1 140.05946955559656 186.09672711195122"/><path fill="black" stroke="none" paint-order="stroke fill markers" d=" M 106.7533283508202 202.11384755483726 A 0.5 0.5 0 1 1 106.75332810082021 202.1133475549206"/><path fill="black" stroke="none" paint-order="stroke fill markers" d=" M 121.0777580786938 203.642158375469 A 0.5 0.5 0 1 1 121.07775782869382 203.64165837555234"/><path fill="black" stroke="none" paint-order="stroke fill markers" d=" M 137.89873354115167 189.88569040938813 A 0.5 0.5 0 1 1 137.8987332911517 189.88519040947148"/><path fill="black" stroke="none" paint-order="stroke fill markers" d=" M 138.49997898920134 189.67176552667132 A 0.5 0.5 0 1 1 138.49997873920137 189.67126552675467"/><path fill="black" stroke="none" paint-order="stroke fill markers" d=" M 138.4845090168535 189.8265874860694 A 0.5 0.5 0 1 1 138.48450876685354 189.82608748615274"/><path fill="black" stroke="none" paint-order="stroke fill markers" d=" M 125.8131521858707 196.81822439711118 A 0.5 0.5 0 1 1 125.81315193587072 196.81772439719452"/><path fill="black" stroke="none" paint-order="stroke fill markers" d=" M 140.8150084457069 185.55375260792573 A 0.5 0.5 0 1 1 140.81500819570692 185.55325260800907"/><path fill="black" stroke="none" paint-order="stroke fill markers" d=" M 134.85374062641353 179.38916968744581 A 0.5 0.5 0 1 1 134.85374037641355 179.38866968752916"/><path fill="black" stroke="none" paint-order="stroke fill markers" d=" M 142.75612095130754 180.47507151166326 A 0.5 0.5 0 1 1 142.75612070130757 180.4745715117466"/><path fill="black" stroke="none" paint-order="stroke fill markers" d=" M 144.115854812077 178.28769369323922 A 0.5 0.5 0 1 1 144.11585456207703 178.28719369332256"/><path fill="black" stroke="none" paint-order="stroke fill markers" d=" M 135.1873141737546 178.02205298488855 A 0.5 0.5 0 1 1 135.18731392375463 178.0215529849719"/><path fill="black" stroke="none" paint-order="stroke fill markers" d=" M 147.41214705863504 170.70146297880115 A 0.5 0.5 0 1 1 147.41214680863507 170.7009629788845"/><path fill="black" stroke="none" paint-order="stroke fill markers" d=" M 147.31412338041622 169.62452209868866 A 0.5 0.5 0 1 1 147.31412313041625 169.624022098772"/><path fill="black" stroke="none" paint-order="stroke fill markers" d=" M 146.74100119509558 170.5548718523151 A 0.5 0.5 0 1 1 146.7410009450956 170.55437185239845"/><path fill="black" stroke="none" paint-order="stroke fill markers" d=" M 174.00027395394594 114.85929532385953 A 0.5 0.5 0 1 1 174.00027370394596 114.85879532394286"/><path fill="black" stroke="none" paint-order="stroke fill markers" d=" M 142.901269606296 172.06044174377163 A 0.5 0.5 0 1 1 142.90126935629604 172.05994174385498"/><path fill="black" stroke="none" paint-order="stroke fill markers" d=" M 139.9963340245035 166.7611951405452 A 0.5 0.5 0 1 1 139.99633377450354 166.76069514062854"/><path fill="black" stroke="none" paint-order="stroke fill markers" d=" M 139.43182159385415 175.19630386523127 A 0.5 0.5 0 1 1 139.43182134385418 175.19580386531462"/><path fill="black" stroke="none" paint-order="stroke fill markers" d=" M 131.97489807009055 195.24903963335504 A 0.5 0.5 0 1 1 131.97489782009058 195.24853963343838"/><path fill="black" stroke="none" paint-order="stroke fill markers" d=" M 130.05764750682093 179.16622090676725 A 0.5 0.5 0 1 1 130.05764725682096 179.1657209068506"/><path fill="black" stroke="none" paint-order="stroke fill markers" d=" M 99.77095766252312 184.87333657537755 A 0.5 0.5 0 1 1 99.77095741252313 184.8728365754609"/><path fill="black" stroke="none" paint-order="stroke fill markers" d=" M 129.7737409675261 169.7727043455189 A 0.5 0.5 0 1 1 129.77374071752612 169.77220434560223"/><path fill="black" stroke="none" paint-order="stroke fill markers" d=" M 113.99679868190366 166.23399076579764 A 0.5 0.5 0 1 1 113.99679843190367 166.233490765881"/><path fill="black" stroke="none" paint-order="stroke fill markers" d=" M 129.09981108972315 168.733364575707 A 0.5 0.5 0 1 1 129.09981083972318 168.73286457579033"/><path fill="black" stroke="none" paint-order="stroke fill markers" d=" M 130.68121346557552 169.6642647917155 A 0.5 0.5 0 1 1 130.68121321557555 169.66376479179885"/><path fill="black" stroke="none" paint-order="stroke fill markers" d=" M 116.03660394868172 168.05111769913427 A 0.5 0.5 0 1 1 116.03660369868173 168.0506176992176"/><path fill="black" stroke="none" paint-order="stroke fill markers" d=" M 143.01188002957466 186.9866269171038 A 0.5 0.5 0 1 1 143.01187977957468 186.98612691718714"/><path fill="black" stroke="none" paint-order="stroke fill markers" d=" M 151.91084429733215 192.70221832448368 A 0.5 0.5 0 1 1 151.91084404733218 192.70171832456703"/><path fill="black" stroke="none" paint-order="stroke fill markers" d=" M 163.6197125882954 197.1522821286676 A 0.5 0.5 0 1 1 163.61971233829544 197.15178212875094"/><path fill="black" stroke="none" paint-order="stroke fill markers" d=" M 174.33884384500752 200.4341403858935 A 0.5 0.5 0 1 1 174.33884359500755 200.43364038597684"/><path fill="black" stroke="none" paint-order="stroke fill markers" d=" M 185.6615871433805 204.56829252387953 A 0.5 0.5 0 1 1 185.66158689338053 204.56779252396288"/><path fill="black" stroke="none" paint-order="stroke fill markers" d=" M 194.59597651049452 191.66191198265088 A 0.5 0.5 0 1 1 194.59597626049455 191.66141198273422"/><path fill="black" stroke="none" paint-order="stroke fill markers" d=" M 189.059693731646 187.77169529155768 A 0.5 0.5 0 1 1 189.05969348164604 187.77119529164102"/><path fill="black" stroke="none" paint-order="stroke fill markers" d=" M 181.80346242775224 185.10603399110107 A 0.5 0.5 0 1 1 181.80346217775227 185.10553399118442"/><path fill="black" stroke="none" paint-order="stroke fill markers" d=" M 176.2144884584796 181.9817676629726 A 0.5 0.5 0 1 1 176.21448820847962 181.98126766305595"/><path fill="black" stroke="none" paint-order="stroke fill markers" d=" M 172.76171609861746 178.8535122099667 A 0.5 0.5 0 1 1 172.76171584861748 178.85301221005005"/><path fill="black" stroke="none" paint-order="stroke fill markers" d=" M 169.20933537445148 174.9540382310036 A 0.5 0.5 0 1 1 169.2093351244515 174.95353823108695"/><path fill="black" stroke="none" paint-order="stroke fill markers" d=" M 167.45508084574405 172.0679202013219 A 0.5 0.5 0 1 1 167.45508059574408 172.06742020140524"/><path fill="black" stroke="none" paint-order="stroke fill markers" d=" M 167.24598501045983 169.1065832529123 A 0.5 0.5 0 1 1 167.24598476045986 169.10608325299563"/><path fill="black" stroke="none" paint-order="stroke fill markers" d=" M 167.07533055465314 165.49850660274504 A 0.5 0.5 0 1 1 167.07533030465316 165.49800660282838"/><path fill="black" stroke="none" paint-order="stroke fill markers" d=" M 169.50260937764511 162.64384990695007 A 0.5 0.5 0 1 1 169.50260912764514 162.6433499070334"/><path fill="black" stroke="none" paint-order="stroke fill markers" d=" M 171.27084016309453 158.67390906578532 A 0.5 0.5 0 1 1 171.27083991309456 158.67340906586867"/><path fill="black" stroke="none" paint-order="stroke fill markers" d=" M 173.34674445184746 155.40939152518885 A 0.5 0.5 0 1 1 173.34674420184749 155.4088915252722"/><path fill="black" stroke="none" paint-order="stroke fill markers" d=" M 174.90055713745676 151.4074501637891 A 0.5 0.5 0 1 1 174.9005568874568 151.40695016387244"/><path fill="black" stroke="none" paint-order="stroke fill markers" d=" M 199.48644541477955 134.18789514134522 A 0.5 0.5 0 1 1 199.48644516477958 134.18739514142857"/><path fill="black" stroke="none" paint-order="stroke fill markers" d=" M 176.5644605878805 145.11863471647774 A 0.5 0.5 0 1 1 176.56446033788052 145.1181347165611"/><path fill="black" stroke="none" paint-order="stroke fill markers" d=" M 175.32384587716396 142.86418647319957 A 0.5 0.5 0 1 1 175.323845627164 142.8636864732829"/><path fill="black" stroke="none" paint-order="stroke fill markers" d=" M 211.77223139421184 114.77190922877702 A 0.5 0.5 0 1 1 211.77223114421187 114.77140922886035"/><path fill="black" stroke="none" paint-order="stroke fill markers" d=" M 170.63641642772097 139.18714689584115 A 0.5 0.5 0 1 1 170.636416177721 139.1866468959245"/><path fill="black" stroke="none" paint-order="stroke fill markers" d=" M 168.44218986913862 138.7441759210954 A 0.5 0.5 0 1 1 168.44218961913865 138.74367592117875"/><path fill="black" stroke="none" paint-order="stroke fill markers" d=" M 166.9782099645031 138.01415378484623 A 0.5 0.5 0 1 1 166.97820971450312 138.01365378492957"/><path fill="black" stroke="none" paint-order="stroke fill markers" d=" M 160.3737751864237 117.21618331129578 A 0.5 0.5 0 1 1 160.37377493642373 117.21568331137911"/><path fill="black" stroke="none" paint-order="stroke fill markers" d=" M 164.054494309962 134.58241928463113 A 0.5 0.5 0 1 1 164.05449405996202 134.58191928471447"/><path fill="black" stroke="none" paint-order="stroke fill markers" d=" M 175.92350633664995 118.77480718170821 A 0.5 0.5 0 1 1 175.92350608664998 118.77430718179154"/><path fill="black" stroke="none" paint-order="stroke fill markers" d=" M 163.44642191689644 132.31421639137142 A 0.5 0.5 0 1 1 163.44642166689647 132.31371639145476"/><path fill="black" stroke="none" paint-order="stroke fill markers" d=" M 163.13593536137105 131.49526655827802 A 0.5 0.5 0 1 1 163.13593511137108 131.49476655836136"/><path fill="black" stroke="none" paint-order="stroke fill markers" d=" M 159.1411307903358 110.94893954042901 A 0.5 0.5 0 1 1 159.14113054033584 110.94843954051234"/><path fill="black" stroke="none" paint-order="stroke fill markers" d=" M 169.20735716353417 118.07882005009073 A 0.5 0.5 0 1 1 169.2073569135342 118.07832005017406"/><path fill="black" stroke="none" paint-order="stroke fill markers" d=" M 156.50999169864846 120.17043891047746 A 0.5 0.5 0 1 1 156.5099914486485 120.16993891056079"/><path fill="black" stroke="none" paint-order="stroke fill markers" d=" M 160.79142935228265 136.85681315229647 A 0.5 0.5 0 1 1 160.79142910228268 136.8563131523798"/><path fill="black" stroke="none" paint-order="stroke fill markers" d=" M 160.56887094476568 137.24385039300256 A 0.5 0.5 0 1 1 160.5688706947657 137.2433503930859"/><path fill="black" stroke="none" paint-order="stroke fill markers" d=" M 160.43747418291858 140.90874448237773 A 0.5 0.5 0 1 1 160.4374739329186 140.90824448246107"/><path fill="black" stroke="none" paint-order="stroke fill markers" d=" M 159.99897197282957 142.01555619981337 A 0.5 0.5 0 1 1 159.9989717228296 142.01505619989672"/><path fill="black" stroke="none" paint-order="stroke fill markers" d=" M 161.36538032933316 141.97925332087684 A 0.5 0.5 0 1 1 161.3653800793332 141.97875332096018"/><path fill="black" stroke="none" paint-order="stroke fill markers" d=" M 163.1199360512395 141.25099849899792 A 0.5 0.5 0 1 1 163.11993580123954 141.25049849908126"/><path fill="black" stroke="none" paint-order="stroke fill markers" d=" M 166.09184080273485 139.0475551634097 A 0.5 0.5 0 1 1 166.09184055273488 139.04705516349304"/><path fill="black" stroke="none" paint-order="stroke fill markers" d=" M 171.7192170939185 137.98473437274015 A 0.5 0.5 0 1 1 171.71921684391853 137.9842343728235"/><path fill="black" stroke="none" paint-order="stroke fill markers" d=" M 175.28722477689502 137.35539234357842 A 0.5 0.5 0 1 1 175.28722452689505 137.35489234366176"/><path fill="black" stroke="none" paint-order="stroke fill markers" d=" M 202.26602413007618 102.03983256243716 A 0.5 0.5 0 1 1 202.2660238800762 102.03933256252049"/><path fill="black" stroke="none" paint-order="stroke fill markers" d=" M 189.03414032823707 109.90748006819476 A 0.5 0.5 0 1 1 189.0341400782371 109.90698006827809"/><path fill="black" stroke="none" paint-order="stroke fill markers" d=" M 217.22198831646062 137.01681114709172 A 0.5 0.5 0 1 1 217.22198806646065 137.01631114717506"/><path fill="black" stroke="none" paint-order="stroke fill markers" d=" M 201.43794383017482 166.1294453242911 A 0.5 0.5 0 1 1 201.43794358017485 166.12894532437446"/><path fill="black" stroke="none" paint-order="stroke fill markers" d=" M 193.48050269645816 139.23778329314982 A 0.5 0.5 0 1 1 193.4805024464582 139.23728329323316"/><path fill="black" stroke="none" paint-order="stroke fill markers" d=" M 199.91767845594427 153.9053148685065 A 0.5 0.5 0 1 1 199.9176782059443 153.90481486858985"/><path fill="black" stroke="none" paint-order="stroke fill markers" d=" M 221.6501075873048 143.13257719027058 A 0.5 0.5 0 1 1 221.65010733730483 143.13207719035393"/><path fill="black" stroke="none" paint-order="stroke fill markers" d=" M 199.70049146577742 159.9155671767634 A 0.5 0.5 0 1 1 199.70049121577745 159.91506717684675"/><path fill="black" stroke="none" paint-order="stroke fill markers" d=" M 200.6295367471025 163.33833113624902 A 0.5 0.5 0 1 1 200.62953649710252 163.33783113633237"/><path fill="black" stroke="none" paint-order="stroke fill markers" d=" M 199.51897760752857 164.15105928573837 A 0.5 0.5 0 1 1 199.5189773575286 164.1505592858217"/><path fill="black" stroke="none" paint-order="stroke fill markers" d=" M 198.6986093054174 154.5921268593599 A 0.5 0.5 0 1 1 198.69860905541742 154.59162685944324"/><path fill="black" stroke="none" paint-order="stroke fill markers" d=" M 200.27360639160844 148.4850185069514 A 0.5 0.5 0 1 1 200.27360614160847 148.48451850703475"/><path fill="black" stroke="none" paint-order="stroke fill markers" d=" M 209.44515360479218 143.86497007663937 A 0.5 0.5 0 1 1 209.4451533547922 143.8644700767227"/><path fill="black" stroke="none" paint-order="stroke fill markers" d=" M 200.27165600873462 138.4382631699098 A 0.5 0.5 0 1 1 200.27165575873465 138.43776316999313"/><path fill="black" stroke="none" paint-order="stroke fill markers" d=" M 223.90246103039226 121.67269297623238 A 0.5 0.5 0 1 1 223.9024607803923 121.67219297631571"/><path fill="black" stroke="none" paint-order="stroke fill markers" d=" M 210.98163909862973 159.07679609153655 A 0.5 0.5 0 1 1 210.98163884862976 159.0762960916199"/><path fill="black" stroke="none" paint-order="stroke fill markers" d=" M 202.67910602739903 142.96730335518325 A 0.5 0.5 0 1 1 202.67910577739906 142.9668033552666"/><path fill="black" stroke="none" paint-order="stroke fill markers" d=" M 193.53071658605464 149.53968446997501 A 0.5 0.5 0 1 1 193.53071633605467 149.53918447005836"/><path fill="black" stroke="none" paint-order="stroke fill markers" d=" M 191.99320024469318 150.64456611428866 A 0.5 0.5 0 1 1 191.9931999946932 150.644066114372"/><path fill="black" stroke="none" paint-order="stroke fill markers" d=" M 199.773904264321 134.8885930640035 A 0.5 0.5 0 1 1 199.77390401432103 134.88809306408683"/><path fill="black" stroke="none" paint-order="stroke fill markers" d=" M 198.4871185947604 140.87435632196397 A 0.5 0.5 0 1 1 198.48711834476043 140.87385632204732"/><path fill="black" stroke="none" paint-order="stroke fill markers" d=" M 186.7518717384031 150.43023433469253 A 0.5 0.5 0 1 1 186.75187148840314 150.42973433477587"/><path fill="black" stroke="none" paint-order="stroke fill markers" d=" M 185.79985864188333 150.7060106139885 A 0.5 0.5 0 1 1 185.79985839188336 150.70551061407184"/><path fill="black" stroke="none" paint-order="stroke fill markers" d=" M 182.27854641587484 153.3773001427893 A 0.5 0.5 0 1 1 182.27854616587487 153.37680014287264"/><path fill="black" stroke="none" paint-order="stroke fill markers" d=" M 180.7620946935167 152.76325820402062 A 0.5 0.5 0 1 1 180.76209444351673 152.76275820410396"/><path fill="black" stroke="none" paint-order="stroke fill markers" d=" M 187.88905989576241 171.60014847791552 A 0.5 0.5 0 1 1 187.88905964576244 171.59964847799887"/><path fill="black" stroke="none" paint-order="stroke fill markers" d=" M 174.00866471401417 149.9807683644766 A 0.5 0.5 0 1 1 174.0086644640142 149.98026836455995"/><path fill="black" stroke="none" paint-order="stroke fill markers" d=" M 170.9738689623409 147.96925137730227 A 0.5 0.5 0 1 1 170.97386871234093 147.96875137738562"/><path fill="black" stroke="none" paint-order="stroke fill markers" d=" M 162.9776201095906 144.0570238682268 A 0.5 0.5 0 1 1 162.97761985959062 144.05652386831014"/><path fill="black" stroke="none" paint-order="stroke fill markers" d=" M 164.69074199209874 145.11997977936946 A 0.5 0.5 0 1 1 164.69074174209877 145.1194797794528"/><path fill="black" stroke="none" paint-order="stroke fill markers" d=" M 156.4390622505072 146.508989069495 A 0.5 0.5 0 1 1 156.43906200050722 146.50848906957833"/><path fill="black" stroke="none" paint-order="stroke fill markers" d=" M 152.57017292170994 151.9445371544556 A 0.5 0.5 0 1 1 152.57017267170997 151.94403715453893"/><path fill="black" stroke="none" paint-order="stroke fill markers" d=" M 140.48044760777955 173.09420472314673 A 0.5 0.5 0 1 1 140.48044735777958 173.09370472323008"/><path fill="black" stroke="none" paint-order="stroke fill markers" d=" M 151.5655079570014 161.961265421127 A 0.5 0.5 0 1 1 151.56550770700142 161.96076542121034"/><path fill="black" stroke="none" paint-order="stroke fill markers" d=" M 153.2994370491106 163.06611865943208 A 0.5 0.5 0 1 1 153.29943679911062 163.06561865951542"/><path fill="black" stroke="none" paint-order="stroke fill markers" d=" M 156.3824745290377 166.69168659726736 A 0.5 0.5 0 1 1 156.38247427903772 166.6911865973507"/><path fill="black" stroke="none" paint-order="stroke fill markers" d=" M 158.97253640375365 167.7781634032425 A 0.5 0.5 0 1 1 158.97253615375368 167.77766340332585"/><path fill="black" stroke="none" paint-order="stroke fill markers" d=" M 161.24431563606615 169.87018800891363 A 0.5 0.5 0 1 1 161.24431538606618 169.86968800899697"/><path fill="black" stroke="none" paint-order="stroke fill markers" d=" M 164.41265121141356 170.44628143957436 A 0.5 0.5 0 1 1 164.4126509614136 170.4457814396577"/><path fill="black" stroke="none" paint-order="stroke fill markers" d=" M 165.9484850904394 172.01815824843882 A 0.5 0.5 0 1 1 165.94848484043942 172.01765824852217"/><path fill="black" stroke="none" paint-order="stroke fill markers" d=" M 176.24273029287218 184.76224605001877 A 0.5 0.5 0 1 1 176.2427300428722 184.76174605010212"/><path fill="black" stroke="none" paint-order="stroke fill markers" d=" M 170.19528053529908 174.73507013017291 A 0.5 0.5 0 1 1 170.1952802852991 174.73457013025626"/><path fill="black" stroke="none" paint-order="stroke fill markers" d=" M 173.41684934296111 178.28363240174545 A 0.5 0.5 0 1 1 173.41684909296114 178.2831324018288"/><path fill="black" stroke="none" paint-order="stroke fill markers" d=" M 180.34786700675124 183.94252080966476 A 0.5 0.5 0 1 1 180.34786675675127 183.9420208097481"/><path fill="black" stroke="none" paint-order="stroke fill markers" d=" M 184.62046260204673 190.03991507487655 A 0.5 0.5 0 1 1 184.62046235204676 190.0394150749599"/><path fill="black" stroke="none" paint-order="stroke fill markers" d=" M 183.71529499194682 191.59789558758166 A 0.5 0.5 0 1 1 183.71529474194685 191.597395587665"/><path fill="black" stroke="none" paint-order="stroke fill markers" d=" M 182.82740738693622 191.10160576704345 A 0.5 0.5 0 1 1 182.82740713693624 191.1011057671268"/><path fill="black" stroke="none" paint-order="stroke fill markers" d=" M 181.29913842541637 190.08229683964439 A 0.5 0.5 0 1 1 181.2991381754164 190.08179683972773"/><path fill="black" stroke="none" paint-order="stroke fill markers" d=" M 179.89573752475903 187.88262305816474 A 0.5 0.5 0 1 1 179.89573727475906 187.88212305824808"/><path fill="black" stroke="none" paint-order="stroke fill markers" d=" M 179.30842787692072 186.58390495329417 A 0.5 0.5 0 1 1 179.30842762692075 186.5834049533775"/><path fill="black" stroke="none" paint-order="stroke fill markers" d=" M 179.90552815640606 185.64688132311662 A 0.5 0.5 0 1 1 179.9055279064061 185.64638132319996"/><path fill="black" stroke="none" paint-order="stroke fill markers" d=" M 182.72698202757311 188.79581942127223 A 0.5 0.5 0 1 1 182.72698177757314 188.79531942135557"/><path fill="black" stroke="none" paint-order="stroke fill markers" d=" M 185.64112022235466 191.64347264444723 A 0.5 0.5 0 1 1 185.6411199723547 191.64297264453057"/><path fill="black" stroke="none" paint-order="stroke fill markers" d=" M 189.79296025764882 198.12225979969173 A 0.5 0.5 0 1 1 189.79296000764884 198.12175979977508"/><path fill="black" stroke="none" paint-order="stroke fill markers" d=" M 191.23712682218195 205.7579208076697 A 0.5 0.5 0 1 1 191.23712657218198 205.75742080775305"/><path fill="black" stroke="none" paint-order="stroke fill markers" d=" M 189.55594276171144 207.28022490908648 A 0.5 0.5 0 1 1 189.55594251171146 207.27972490916983"/><path fill="black" stroke="none" paint-order="stroke fill markers" d=" M 189.87176927679863 211.0895351459681 A 0.5 0.5 0 1 1 189.87176902679866 211.08903514605146"/><path fill="black" stroke="none" paint-order="stroke fill markers" d=" M 188.7814374950936 210.56664655320063 A 0.5 0.5 0 1 1 188.78143724509363 210.56614655328397"/><path fill="black" stroke="none" paint-order="stroke fill markers" d=" M 193.6443614759881 231.30035802901418 A 0.5 0.5 0 1 1 193.64436122598812 231.29985802909752"/><path fill="black" stroke="none" paint-order="stroke fill markers" d=" M 182.5008368272339 205.80197622375255 A 0.5 0.5 0 1 1 182.50083657723394 205.8014762238359"/><path fill="black" stroke="none" paint-order="stroke fill markers" d=" M 181.52897991587938 203.84638375785835 A 0.5 0.5 0 1 1 181.5289796658794 203.8458837579417"/><path fill="black" stroke="none" paint-order="stroke fill markers" d=" M 181.50101031234698 204.39515406307157 A 0.5 0.5 0 1 1 181.501010062347 204.39465406315492"/><path fill="black" stroke="none" paint-order="stroke fill markers" d=" M 180.85305730817993 202.612942660653 A 0.5 0.5 0 1 1 180.85305705817996 202.61244266073635"/><path fill="black" stroke="none" paint-order="stroke fill markers" d=" M 182.923558116837 203.72601598365068 A 0.5 0.5 0 1 1 182.92355786683703 203.72551598373403"/><path fill="black" stroke="none" paint-order="stroke fill markers" d=" M 186.01983932563314 204.98739016775758 A 0.5 0.5 0 1 1 186.01983907563317 204.98689016784093"/><path fill="black" stroke="none" paint-order="stroke fill markers" d=" M 188.6983937736743 206.2340392912122 A 0.5 0.5 0 1 1 188.69839352367433 206.23353929129556"/><path fill="black" stroke="none" paint-order="stroke fill markers" d=" M 191.99403508599775 205.31167316145036 A 0.5 0.5 0 1 1 191.99403483599778 205.3111731615337"/><path fill="black" stroke="none" paint-order="stroke fill markers" d=" M 194.49402665831443 198.78127919822646 A 0.5 0.5 0 1 1 194.49402640831445 198.7807791983098"/><path fill="black" stroke="none" paint-order="stroke fill markers" d=" M 195.79814556922142 193.13163425903775 A 0.5 0.5 0 1 1 195.79814531922145 193.1311342591211"/><path fill="black" stroke="none" paint-order="stroke fill markers" d=" M 194.91386472062948 181.43687285860258 A 0.5 0.5 0 1 1 194.9138644706295 181.43637285868593"/><path fill="black" stroke="none" paint-order="stroke fill markers" d=" M 192.2337071353006 169.9623367168093 A 0.5 0.5 0 1 1 192.23370688530062 169.96183671689263"/><path fill="black" stroke="none" paint-order="stroke fill markers" d=" M 186.15746593947608 152.3413475975654 A 0.5 0.5 0 1 1 186.1574656894761 152.34084759764875"/><path fill="black" stroke="none" paint-order="stroke fill markers" d=" M 183.56082757213562 144.9234777603879 A 0.5 0.5 0 1 1 183.56082732213565 144.92297776047124"/><path fill="black" stroke="none" paint-order="stroke fill markers" d=" M 181.61561224499332 133.09905751775685 A 0.5 0.5 0 1 1 181.61561199499334 133.0985575178402"/><path fill="black" stroke="none" paint-order="stroke fill markers" d=" M 178.15751444454858 136.29640713179413 A 0.5 0.5 0 1 1 178.1575141945486 136.29590713187747"/><path fill="black" stroke="none" paint-order="stroke fill markers" d=" M 182.95466381987868 101.66666666666667 A 0.5 0.5 0 1 1 182.9546635698787 101.66616666675"/><path fill="black" stroke="none" paint-order="stroke fill markers" d=" M 176.92058331984904 119.07638072315419 A 0.5 0.5 0 1 1 176.92058306984907 119.07588072323752"/><path fill="black" stroke="none" paint-order="stroke fill markers" d=" M 168.8047752104885 136.65318045743703 A 0.5 0.5 0 1 1 168.80477496048852 136.65268045752038"/><path fill="black" stroke="none" paint-order="stroke fill markers" d=" M 165.64317954190133 140.27328825180646 A 0.5 0.5 0 1 1 165.64317929190136 140.2727882518898"/><path fill="black" stroke="none" paint-order="stroke fill markers" d=" M 163.0103585928359 143.4034369268962 A 0.5 0.5 0 1 1 163.01035834283593 143.40293692697955"/><path fill="black" stroke="none" paint-order="stroke fill markers" d=" M 158.86169367680765 150.5076245856826 A 0.5 0.5 0 1 1 158.86169342680768 150.50712458576595"/><path fill="black" stroke="none" paint-order="stroke fill markers" d=" M 157.09050162455696 152.4089155114343 A 0.5 0.5 0 1 1 157.090501374557 152.40841551151763"/><path fill="black" stroke="none" paint-order="stroke fill markers" d=" M 155.98855405452676 154.06130147425543 A 0.5 0.5 0 1 1 155.9885538045268 154.06080147433877"/><path fill="black" stroke="none" paint-order="stroke fill markers" d=" M 147.94803532177264 162.98569280417615 A 0.5 0.5 0 1 1 147.94803507177267 162.9851928042595"/><path fill="black" stroke="none" paint-order="stroke fill markers" d=" M 154.90157736693405 157.41773548443433 A 0.5 0.5 0 1 1 154.90157711693408 157.41723548451768"/><path fill="black" stroke="none" paint-order="stroke fill markers" d=" M 154.1959307790477 157.45498190349295 A 0.5 0.5 0 1 1 154.19593052904773 157.4544819035763"/><path fill="black" stroke="none" paint-order="stroke fill markers" d=" M 153.76211093975377 157.96869996187613 A 0.5 0.5 0 1 1 153.7621106897538 157.96819996195947"/><path fill="black" stroke="none" paint-order="stroke fill markers" d=" M 156.4930413953787 157.45198084707533 A 0.5 0.5 0 1 1 156.49304114537873 157.45148084715868"/><path fill="black" stroke="none" paint-order="stroke fill markers" d=" M 153.91841743026484 156.47774841660726 A 0.5 0.5 0 1 1 153.91841718026487 156.4772484166906"/><path fill="black" stroke="none" paint-order="stroke fill markers" d=" M 159.39814576030454 156.96370305641028 A 0.5 0.5 0 1 1 159.39814551030457 156.96320305649363"/><path fill="black" stroke="none" paint-order="stroke fill markers" d=" M 161.7267731482761 158.30179188914158 A 0.5 0.5 0 1 1 161.72677289827612 158.30129188922493"/><path fill="black" stroke="none" paint-order="stroke fill markers" d=" M 162.73055124533792 159.38911554924684 A 0.5 0.5 0 1 1 162.73055099533795 159.38861554933018"/><path fill="black" stroke="none" paint-order="stroke fill markers" d=" M 161.87341241846343 162.25610251603004 A 0.5 0.5 0 1 1 161.87341216846346 162.25560251611338"/><path fill="black" stroke="none" paint-order="stroke fill markers" d=" M 160.6490889098563 165.20902015382217 A 0.5 0.5 0 1 1 160.64908865985632 165.2085201539055"/><path fill="black" stroke="none" paint-order="stroke fill markers" d=" M 157.30260394721313 168.47880604934358 A 0.5 0.5 0 1 1 157.30260369721316 168.47830604942692"/><path fill="black" stroke="none" paint-order="stroke fill markers" d=" M 154.05040100085498 173.1819401353615 A 0.5 0.5 0 1 1 154.050400750855 173.18144013544483"/><path fill="black" stroke="none" paint-order="stroke fill markers" d=" M 149.5750768988555 177.19317256474946 A 0.5 0.5 0 1 1 149.57507664885554 177.1926725648328"/><path fill="black" stroke="none" paint-order="stroke fill markers" d=" M 145.57936307674726 180.78747158101945 A 0.5 0.5 0 1 1 145.57936282674729 180.7869715811028"/><path fill="black" stroke="none" paint-order="stroke fill markers" d=" M 126.53252888842962 194.41639656867702 A 0.5 0.5 0 1 1 126.53252863842964 194.41589656876036"/><path fill="black" stroke="none" paint-order="stroke fill markers" d=" M 141.12671883018817 185.72157223556377 A 0.5 0.5 0 1 1 141.1267185801882 185.7210722356471"/><path fill="black" stroke="none" paint-order="stroke fill markers" d=" M 141.18241121460642 186.08438452508003 A 0.5 0.5 0 1 1 141.18241096460645 186.08388452516337"/><path fill="black" stroke="none" paint-order="stroke fill markers" d=" M 142.46107109546932 187.07982319253125 A 0.5 0.5 0 1 1 142.46107084546935 187.0793231926146"/><path fill="black" stroke="none" paint-order="stroke fill markers" d=" M 145.9856331529909 187.19030260484104 A 0.5 0.5 0 1 1 145.98563290299094 187.18980260492438"/><path fill="black" stroke="none" paint-order="stroke fill markers" d=" M 151.1966484505212 190.1026109744128 A 0.5 0.5 0 1 1 151.19664820052122 190.10211097449616"/><path fill="black" stroke="none" paint-order="stroke fill markers" d=" M 155.36991244955405 193.57583053080128 A 0.5 0.5 0 1 1 155.36991219955408 193.57533053088463"/><path fill="black" stroke="none" paint-order="stroke fill markers" d=" M 158.25537263560926 196.847097185485 A 0.5 0.5 0 1 1 158.2553723856093 196.84659718556836"/><path fill="black" stroke="none" paint-order="stroke fill markers" d=" M 161.41923545792395 201.47811801239988 A 0.5 0.5 0 1 1 161.41923520792398 201.47761801248322"/><path fill="black" stroke="none" paint-order="stroke fill markers" d=" M 165.39700140189925 206.66985809364115 A 0.5 0.5 0 1 1 165.39700115189927 206.6693580937245"/><path fill="black" stroke="none" paint-order="stroke fill markers" d=" M 166.96058740224805 237.92805408749703 A 0.5 0.5 0 1 1 166.96058715224808 237.92755408758038"/><path fill="black" stroke="none" paint-order="stroke fill markers" d=" M 170.62812972033709 210.79228238874276 A 0.5 0.5 0 1 1 170.62812947033711 210.7917823888261"/><path fill="black" stroke="none" paint-order="stroke fill markers" d=" M 174.55188264182271 214.59445887882666 A 0.5 0.5 0 1 1 174.55188239182274 214.59395887891"/><path fill="black" stroke="none" paint-order="stroke fill markers" d=" M 175.68442472583496 213.06880133294018 A 0.5 0.5 0 1 1 175.684424475835 213.06830133302353"/><path fill="black" stroke="none" paint-order="stroke fill markers" d=" M 173.22266707039444 209.80266004347618 A 0.5 0.5 0 1 1 173.22266682039447 209.80216004355952"/><path fill="black" stroke="none" paint-order="stroke fill markers" d=" M 170.0156532369113 205.93291410406349 A 0.5 0.5 0 1 1 170.01565298691133 205.93241410414683"/><path fill="black" stroke="none" paint-order="stroke fill markers" d=" M 166.96336079194597 202.1610260964015 A 0.5 0.5 0 1 1 166.963360541946 202.16052609648486"/><path fill="black" stroke="none" paint-order="stroke fill markers" d=" M 163.97409757993984 198.4375081472033 A 0.5 0.5 0 1 1 163.97409732993987 198.43700814728663"/><path fill="black" stroke="none" paint-order="stroke fill markers" d=" M 160.22753760799452 194.57619802460223 A 0.5 0.5 0 1 1 160.22753735799455 194.57569802468558"/><path fill="black" stroke="none" paint-order="stroke fill markers" d=" M 159.80234809192578 194.3262067237769 A 0.5 0.5 0 1 1 159.8023478419258 194.32570672386024"/><path fill="black" stroke="none" paint-order="stroke fill markers" d=" M 159.6853178600066 193.99345106223436 A 0.5 0.5 0 1 1 159.68531761000662 193.9929510623177"/><path fill="black" stroke="none" paint-order="stroke fill markers" d=" M 159.9034546333968 191.89835284966432 A 0.5 0.5 0 1 1 159.90345438339682 191.89785284974766"/><path fill="black" stroke="none" paint-order="stroke fill markers" d=" M 159.4868367596789 189.9357755765848 A 0.5 0.5 0 1 1 159.48683650967894 189.93527557666815"/><path fill="black" stroke="none" paint-order="stroke fill markers" d=" M 159.0028986140683 188.60785916583694 A 0.5 0.5 0 1 1 159.00289836406833 188.6073591659203"/><path fill="black" stroke="none" paint-order="stroke fill markers" d=" M 157.74756528817804 185.95998002673733 A 0.5 0.5 0 1 1 157.74756503817807 185.95948002682067"/><path fill="black" stroke="none" paint-order="stroke fill markers" d=" M 157.49750248942084 181.9933465662446 A 0.5 0.5 0 1 1 157.49750223942087 181.99284656632796"/><path fill="black" stroke="none" paint-order="stroke fill markers" d=" M 155.72624570672116 181.27519967703242 A 0.5 0.5 0 1 1 155.7262454567212 181.27469967711576"/><path fill="black" stroke="none" paint-order="stroke fill markers" d=" M 155.3533511339356 178.5240984769445 A 0.5 0.5 0 1 1 155.35335088393563 178.52359847702783"/><path fill="black" stroke="none" paint-order="stroke fill markers" d=" M 155.5647571505472 176.6630319947702 A 0.5 0.5 0 1 1 155.56475690054722 176.66253199485354"/><path fill="black" stroke="none" paint-order="stroke fill markers" d=" M 155.53928965109858 175.4827477523355 A 0.5 0.5 0 1 1 155.5392894010986 175.48224775241886"/><path fill="black" stroke="none" paint-order="stroke fill markers" d=" M 155.80371776986877 173.11874137270075 A 0.5 0.5 0 1 1 155.8037175198688 173.1182413727841"/><path fill="black" stroke="none" paint-order="stroke fill markers" d=" M 156.7633605899632 172.5007755661013 A 0.5 0.5 0 1 1 156.76336033996324 172.50027556618465"/><path fill="black" stroke="none" paint-order="stroke fill markers" d=" M 151.9646443747934 175.22120518651676 A 0.5 0.5 0 1 1 151.96464412479344 175.2207051866001"/><path fill="black" stroke="none" paint-order="stroke fill markers" d=" M 158.4767761793216 171.28914989960316 A 0.5 0.5 0 1 1 158.47677592932163 171.2886498996865"/><path fill="black" stroke="none" paint-order="stroke fill markers" d=" M 159.2309161577681 167.77192924402658 A 0.5 0.5 0 1 1 159.23091590776812 167.77142924410992"/><path fill="black" stroke="none" paint-order="stroke fill markers" d=" M 158.92168246915702 165.110240082422 A 0.5 0.5 0 1 1 158.92168221915705 165.10974008250534"/><path fill="black" stroke="none" paint-order="stroke fill markers" d=" M 158.52822539206585 160.7151805791937 A 0.5 0.5 0 1 1 158.52822514206588 160.71468057927706"/><path fill="black" stroke="none" paint-order="stroke fill markers" d=" M 157.77609931702722 159.90897160866834 A 0.5 0.5 0 1 1 157.77609906702725 159.90847160875168"/><path fill="black" stroke="none" paint-order="stroke fill markers" d=" M 159.39152329091255 158.82193047318873 A 0.5 0.5 0 1 1 159.39152304091257 158.82143047327207"/><path fill="black" stroke="none" paint-order="stroke fill markers" d=" M 163.59333372042266 159.48555855467941 A 0.5 0.5 0 1 1 163.5933334704227 159.48505855476276"/><path fill="black" stroke="none" paint-order="stroke fill markers" d=" M 167.2173535078388 161.35107978995248 A 0.5 0.5 0 1 1 167.21735325783882 161.35057979003582"/><path fill="black" stroke="none" paint-order="stroke fill markers" d=" M 171.1816273879048 163.26320300158906 A 0.5 0.5 0 1 1 171.18162713790483 163.2627030016724"/><path fill="black" stroke="none" paint-order="stroke fill markers" d=" M 175.62835847770205 162.6440126657018 A 0.5 0.5 0 1 1 175.62835822770208 162.64351266578515"/><path fill="black" stroke="none" paint-order="stroke fill markers" d=" M 179.73661919194103 163.1202868064939 A 0.5 0.5 0 1 1 179.73661894194106 163.11978680657725"/><path fill="black" stroke="none" paint-order="stroke fill markers" d=" M 182.699668197935 166.95127850520456 A 0.5 0.5 0 1 1 182.69966794793504 166.9507785052879"/><path fill="black" stroke="none" paint-order="stroke fill markers" d=" M 172.83776893154732 138.8650258297186 A 0.5 0.5 0 1 1 172.83776868154735 138.86452582980195"/><path fill="black" stroke="none" paint-order="stroke fill markers" d=" M 187.02309715927328 182.0457333878644 A 0.5 0.5 0 1 1 187.0230969092733 182.04523338794775"/><path fill="black" stroke="none" paint-order="stroke fill markers" d=" M 188.73240932213255 190.18658527754857 A 0.5 0.5 0 1 1 188.73240907213258 190.18608527763192"/><path fill="black" stroke="none" paint-order="stroke fill markers" d=" M 187.92912743872122 197.608138683079 A 0.5 0.5 0 1 1 187.92912718872125 197.60763868316235"/><path fill="black" stroke="none" paint-order="stroke fill markers" d=" M 186.41183361556895 210.29086873844474 A 0.5 0.5 0 1 1 186.41183336556898 210.2903687385281"/><path fill="black" stroke="none" paint-order="stroke fill markers" d=" M 180.38266537017188 210.852063985347 A 0.5 0.5 0 1 1 180.3826651201719 210.85156398543035"/><path fill="black" stroke="none" paint-order="stroke fill markers" d=" M 173.22451461049886 206.25506895030432 A 0.5 0.5 0 1 1 173.2245143604989 206.25456895038766"/><path fill="black" stroke="none" paint-order="stroke fill markers" d=" M 167.16140348715925 202.68729577191732 A 0.5 0.5 0 1 1 167.16140323715928 202.68679577200066"/><path fill="black" stroke="none" paint-order="stroke fill markers" d=" M 160.72307339320628 195.10102743871116 A 0.5 0.5 0 1 1 160.7230731432063 195.1005274387945"/><path fill="black" stroke="none" paint-order="stroke fill markers" d=" M 153.96010141957566 186.34459124076662 A 0.5 0.5 0 1 1 153.9601011695757 186.34409124084996"/><path fill="black" stroke="none" paint-order="stroke fill markers" d=" M 152.26271417830722 182.06308562044325 A 0.5 0.5 0 1 1 152.26271392830725 182.0625856205266"/><path fill="black" stroke="none" paint-order="stroke fill markers" d=" M 150.37377562449635 179.4191894643814 A 0.5 0.5 0 1 1 150.37377537449638 179.41868946446473"/><path fill="black" stroke="none" paint-order="stroke fill markers" d=" M 152.01585160455082 175.23746263617122 A 0.5 0.5 0 1 1 152.01585135455085 175.23696263625456"/><path fill="black" stroke="none" paint-order="stroke fill markers" d=" M 151.71777454154739 171.79067218369065 A 0.5 0.5 0 1 1 151.7177742915474 171.790172183774"/><path fill="black" stroke="none" paint-order="stroke fill markers" d=" M 153.34996793641983 168.92353954014735 A 0.5 0.5 0 1 1 153.34996768641986 168.9230395402307"/><path fill="black" stroke="none" paint-order="stroke fill markers" d=" M 153.56387121745547 167.05135536847513 A 0.5 0.5 0 1 1 153.5638709674555 167.05085536855847"/><path fill="black" stroke="none" paint-order="stroke fill markers" d=" M 153.61596289502972 166.40147965776765 A 0.5 0.5 0 1 1 153.61596264502975 166.400979657851"/><path fill="black" stroke="none" paint-order="stroke fill markers" d=" M 154.59563827668862 165.0843877356473 A 0.5 0.5 0 1 1 154.59563802668865 165.08388773573066"/><path fill="black" stroke="none" paint-order="stroke fill markers" d=" M 155.20289579204604 164.73131179749663 A 0.5 0.5 0 1 1 155.20289554204606 164.73081179757997"/><path fill="black" stroke="none" paint-order="stroke fill markers" d=" M 156.70484244921627 164.6476562942272 A 0.5 0.5 0 1 1 156.7048421992163 164.64715629431055"/><path fill="black" stroke="none" paint-order="stroke fill markers" d=" M 157.0739203453421 163.35114704442074 A 0.5 0.5 0 1 1 157.07392009534212 163.3506470445041"/><path fill="black" stroke="none" paint-order="stroke fill markers" d=" M 157.7338678412087 162.77357746097746 A 0.5 0.5 0 1 1 157.73386759120874 162.7730774610608"/><path fill="black" stroke="none" paint-order="stroke fill markers" d=" M 158.70365095836613 160.69960525760962 A 0.5 0.5 0 1 1 158.70365070836615 160.69910525769296"/><path fill="black" stroke="none" paint-order="stroke fill markers" d=" M 159.04296918181447 158.90940716040663 A 0.5 0.5 0 1 1 159.0429689318145 158.90890716048997"/><path fill="black" stroke="none" paint-order="stroke fill markers" d=" M 160.12375352477426 155.54824086274803 A 0.5 0.5 0 1 1 160.1237532747743 155.54774086283138"/><path fill="black" stroke="none" paint-order="stroke fill markers" d=" M 163.4329265257211 149.53804152785844 A 0.5 0.5 0 1 1 163.43292627572112 149.53754152794178"/><path fill="black" stroke="none" paint-order="stroke fill markers" d=" M 167.0206718534969 143.79660679453087 A 0.5 0.5 0 1 1 167.02067160349694 143.79610679461422"/><path fill="black" stroke="none" paint-order="stroke fill markers" d=" M 170.68670865930946 138.6610491918366 A 0.5 0.5 0 1 1 170.6867084093095 138.66054919191996"/><path fill="black" stroke="none" paint-order="stroke fill markers" d=" M 175.50915402864626 131.97405367116502 A 0.5 0.5 0 1 1 175.5091537786463 131.97355367124837"/><path fill="black" stroke="none" paint-order="stroke fill markers" d=" M 176.67723978367857 129.43789766691208 A 0.5 0.5 0 1 1 176.6772395336786 129.43739766699542"/><path fill="black" stroke="none" paint-order="stroke fill markers" d=" M 172.2341877427173 139.54842833181513 A 0.5 0.5 0 1 1 172.23418749271733 139.54792833189848"/><path fill="black" stroke="none" paint-order="stroke fill markers" d=" M 171.66605857385107 139.1793283339182 A 0.5 0.5 0 1 1 171.6660583238511 139.17882833400154"/><path fill="black" stroke="none" paint-order="stroke fill markers" d=" M 168.34339759245788 139.19884095860732 A 0.5 0.5 0 1 1 168.3433973424579 139.19834095869066"/><path fill="black" stroke="none" paint-order="stroke fill markers" d=" M 168.54386643178296 115.2779354006808 A 0.5 0.5 0 1 1 168.543866181783 115.27743540076413"/><path fill="black" stroke="none" paint-order="stroke fill markers" d=" M 167.53365831742337 135.45187960731957 A 0.5 0.5 0 1 1 167.5336580674234 135.4513796074029"/><path fill="black" stroke="none" paint-order="stroke fill markers" d=" M 170.35541761649162 129.37457222880775 A 0.5 0.5 0 1 1 170.35541736649165 129.3740722288911"/><path fill="black" stroke="none" paint-order="stroke fill markers" d=" M 171.11223422925116 129.38960131052457 A 0.5 0.5 0 1 1 171.1122339792512 129.3891013106079"/><path fill="black" stroke="none" paint-order="stroke fill markers" d=" M 174.36792838515174 131.57509511962428 A 0.5 0.5 0 1 1 174.36792813515177 131.57459511970762"/><path fill="black" stroke="none" paint-order="stroke fill markers" d=" M 180.8864243422335 134.75673083681951 A 0.5 0.5 0 1 1 180.88642409223354 134.75623083690286"/><path fill="black" stroke="none" paint-order="stroke fill markers" d=" M 183.3124937418193 138.06322401303441 A 0.5 0.5 0 1 1 183.31249349181934 138.06272401311776"/><path fill="black" stroke="none" paint-order="stroke fill markers" d=" M 186.68031615928342 142.3987071914568 A 0.5 0.5 0 1 1 186.68031590928345 142.39820719154014"/><path fill="black" stroke="none" paint-order="stroke fill markers" d=" M 190.36190823644668 149.5662463911662 A 0.5 0.5 0 1 1 190.3619079864467 149.56574639124955"/><path fill="black" stroke="none" paint-order="stroke fill markers" d=" M 206.65244973229005 145.63552273186997 A 0.5 0.5 0 1 1 206.65244948229008 145.6350227319533"/><path fill="black" stroke="none" paint-order="stroke fill markers" d=" M 184.51265676158542 156.6087154706567 A 0.5 0.5 0 1 1 184.51265651158545 156.60821547074005"/><path fill="black" stroke="none" paint-order="stroke fill markers" d=" M 182.52306901414863 157.37262751057492 A 0.5 0.5 0 1 1 182.52306876414866 157.37212751065826"/><path fill="black" stroke="none" paint-order="stroke fill markers" d=" M 180.50063812582474 158.99022302248275 A 0.5 0.5 0 1 1 180.50063787582476 158.9897230225661"/><path fill="black" stroke="none" paint-order="stroke fill markers" d=" M 176.86654730897564 159.78773553187474 A 0.5 0.5 0 1 1 176.86654705897567 159.7872355319581"/><path fill="black" stroke="none" paint-order="stroke fill markers" d=" M 176.21667658963798 159.9332767876391 A 0.5 0.5 0 1 1 176.216676339638 159.93277678772245"/><path fill="black" stroke="none" paint-order="stroke fill markers" d=" M 175.376189822002 159.89718503444186 A 0.5 0.5 0 1 1 175.37618957200203 159.8966850345252"/><path fill="black" stroke="none" paint-order="stroke fill markers" d=" M 175.91829160328382 160.56676647791522 A 0.5 0.5 0 1 1 175.91829135328385 160.56626647799857"/><path fill="black" stroke="none" paint-order="stroke fill markers" d=" M 178.22261512749466 158.98923879267275 A 0.5 0.5 0 1 1 178.2226148774947 158.9887387927561"/><path fill="black" stroke="none" paint-order="stroke fill markers" d=" M 179.75227065152902 157.92045427566606 A 0.5 0.5 0 1 1 179.75227040152905 157.9199542757494"/><path fill="black" stroke="none" paint-order="stroke fill markers" d=" M 181.59712595471467 156.53786167255467 A 0.5 0.5 0 1 1 181.5971257047147 156.537361672638"/><path fill="black" stroke="none" paint-order="stroke fill markers" d=" M 184.39312079583766 154.03398487451258 A 0.5 0.5 0 1 1 184.3931205458377 154.03348487459593"/><path fill="black" stroke="none" paint-order="stroke fill markers" d=" M 194.60589539312457 142.94314596422998 A 0.5 0.5 0 1 1 194.6058951431246 142.94264596431333"/><path fill="black" stroke="none" paint-order="stroke fill markers" d=" M 183.095975834611 149.77468814650143 A 0.5 0.5 0 1 1 183.09597558461104 149.77418814658478"/><path fill="black" stroke="none" paint-order="stroke fill markers" d=" M 185.2663006749089 139.71224347997654 A 0.5 0.5 0 1 1 185.26630042490893 139.71174348005988"/><path fill="black" stroke="none" paint-order="stroke fill markers" d=" M 181.54938513124355 153.13212020562963 A 0.5 0.5 0 1 1 181.54938488124358 153.13162020571298"/><path fill="black" stroke="none" paint-order="stroke fill markers" d=" M 178.80479473601224 155.66066954142886 A 0.5 0.5 0 1 1 178.80479448601227 155.6601695415122"/><path fill="black" stroke="none" paint-order="stroke fill markers" d=" M 177.19983289656238 157.53896618711818 A 0.5 0.5 0 1 1 177.1998326465624 157.53846618720152"/><path fill="black" stroke="none" paint-order="stroke fill markers" d=" M 177.37218164918517 159.45290930262735 A 0.5 0.5 0 1 1 177.3721813991852 159.4524093027107"/><path fill="black" stroke="none" paint-order="stroke fill markers" d=" M 176.58532254613232 158.85947246828232 A 0.5 0.5 0 1 1 176.58532229613235 158.85897246836566"/><path fill="black" stroke="none" paint-order="stroke fill markers" d=" M 174.3662780611816 157.26306937421833 A 0.5 0.5 0 1 1 174.36627781118162 157.26256937430168"/><path fill="black" stroke="none" paint-order="stroke fill markers" d=" M 174.41661596705882 154.1537607289203 A 0.5 0.5 0 1 1 174.41661571705885 154.15326072900365"/><path fill="black" stroke="none" paint-order="stroke fill markers" d=" M 173.79157935670176 150.54663294500176 A 0.5 0.5 0 1 1 173.7915791067018 150.5461329450851"/><path fill="black" stroke="none" paint-order="stroke fill markers" d=" M 173.79824719790378 143.55185755387936 A 0.5 0.5 0 1 1 173.7982469479038 143.5513575539627"/><path fill="black" stroke="none" paint-order="stroke fill markers" d=" M 174.91001141275208 139.60760495721013 A 0.5 0.5 0 1 1 174.9100111627521 139.60710495729347"/><path fill="black" stroke="none" paint-order="stroke fill markers" d=" M 175.8222128633216 135.35859427521663 A 0.5 0.5 0 1 1 175.82221261332162 135.35809427529998"/><path fill="black" stroke="none" paint-order="stroke fill markers" d=" M 175.9796409449766 134.6549851205462 A 0.5 0.5 0 1 1 175.97964069497664 134.65448512062954"/><path fill="black" stroke="none" paint-order="stroke fill markers" d=" M 175.73413892056362 134.031855562229 A 0.5 0.5 0 1 1 175.73413867056365 134.03135556231234"/><path fill="black" stroke="none" paint-order="stroke fill markers" d=" M 176.0439110213204 135.15839486874285 A 0.5 0.5 0 1 1 176.04391077132044 135.1578948688262"/><path fill="black" stroke="none" paint-order="stroke fill markers" d=" M 176.32791495876745 135.95710426914405 A 0.5 0.5 0 1 1 176.32791470876748 135.9566042692274"/><path fill="black" stroke="none" paint-order="stroke fill markers" d=" M 176.19369667529395 136.98217424217057 A 0.5 0.5 0 1 1 176.19369642529398 136.98167424225392"/><path fill="black" stroke="none" paint-order="stroke fill markers" d=" M 180.03890554900033 139.18369518193643 A 0.5 0.5 0 1 1 180.03890529900036 139.18319518201977"/><path fill="black" stroke="none" paint-order="stroke fill markers" d=" M 181.56903052002912 140.43237264794809 A 0.5 0.5 0 1 1 181.56903027002915 140.43187264803143"/><path fill="black" stroke="none" paint-order="stroke fill markers" d=" M 183.78649364616092 141.59509506752454 A 0.5 0.5 0 1 1 183.78649339616095 141.59459506760788"/><path fill="black" stroke="none" paint-order="stroke fill markers" d=" M 187.73669288827688 146.76428538435093 A 0.5 0.5 0 1 1 187.7366926382769 146.76378538443427"/><path fill="black" stroke="none" paint-order="stroke fill markers" d=" M 189.08917693876103 148.62714067733435 A 0.5 0.5 0 1 1 189.08917668876106 148.6266406774177"/><path fill="black" stroke="none" paint-order="stroke fill markers" d=" M 191.06349918947382 150.83151143071552 A 0.5 0.5 0 1 1 191.06349893947385 150.83101143079887"/><path fill="black" stroke="none" paint-order="stroke fill markers" d=" M 192.1352660364295 152.75798236372853 A 0.5 0.5 0 1 1 192.13526578642953 152.75748236381187"/><path fill="black" stroke="none" paint-order="stroke fill markers" d=" M 192.97707645100343 155.6960012419647 A 0.5 0.5 0 1 1 192.97707620100346 155.69550124204804"/><path fill="black" stroke="none" paint-order="stroke fill markers" d=" M 191.64848338080873 157.4582969614646 A 0.5 0.5 0 1 1 191.64848313080876 157.45779696154796"/><path fill="black" stroke="none" paint-order="stroke fill markers" d=" M 186.15922636570525 161.36021692808347 A 0.5 0.5 0 1 1 186.15922611570528 161.35971692816682"/><path fill="black" stroke="none" paint-order="stroke fill markers" d=" M 179.1872052897548 163.86013243145925 A 0.5 0.5 0 1 1 179.18720503975482 163.8596324315426"/><path fill="black" stroke="none" paint-order="stroke fill markers" d=" M 168.76308592779984 164.31712388268554 A 0.5 0.5 0 1 1 168.76308567779986 164.31662388276888"/><path fill="black" stroke="none" paint-order="stroke fill markers" d=" M 163.10647181537374 164.8776675187834 A 0.5 0.5 0 1 1 163.10647156537377 164.87716751886674"/><path fill="black" stroke="none" paint-order="stroke fill markers" d=" M 155.86297819342778 165.93546439255005 A 0.5 0.5 0 1 1 155.8629779434278 165.9349643926334"/><path fill="black" stroke="none" paint-order="stroke fill markers" d=" M 146.39799394101303 163.29119232471027 A 0.5 0.5 0 1 1 146.39799369101306 163.2906923247936"/><path fill="black" stroke="none" paint-order="stroke fill markers" d=" M 140.02486623848029 162.54857538651817 A 0.5 0.5 0 1 1 140.02486598848031 162.5480753866015"/><path fill="black" stroke="none" paint-order="stroke fill markers" d=" M 134.31693040809614 166.46723006692005 A 0.5 0.5 0 1 1 134.31693015809617 166.4667300670034"/><path fill="black" stroke="none" paint-order="stroke fill markers" d=" M 139.9351558857739 170.94960366655545 A 0.5 0.5 0 1 1 139.93515563577392 170.9491036666388"/><path fill="black" stroke="none" paint-order="stroke fill markers" d=" M 147.1109254267178 173.2356850712823 A 0.5 0.5 0 1 1 147.11092517671784 173.23518507136563"/><path fill="black" stroke="none" paint-order="stroke fill markers" d=" M 151.76113184321213 172.86066741084585 A 0.5 0.5 0 1 1 151.76113159321216 172.8601674109292"/><path fill="black" stroke="none" paint-order="stroke fill markers" d=" M 157.59809300217245 171.94406846855114 A 0.5 0.5 0 1 1 157.59809275217248 171.94356846863448"/></g></g></g><g/><g/><g/></g></g></svg>