<svg version="1.1" xmlns="http://www.w3.org/2000/svg" xmlns:xlink="http://www.w3.org/1999/xlink" width="300" height="300" style="width: 300px; height: 300px;"><defs><clipPath id="XIKRRQiiaagu"><path fill="none" stroke="none" d=" M 5 5 L 295 5 L 295 295 L 5 295 L 5 5 Z"/></clipPath><clipPath id="KDbDxJyrLnLb"><path fill="none" stroke="none" d=" M 5 5 L 295 5 L 295 295 L 5 295 L 5 5 Z"/></clipPath><clipPath id="clEfshCnbfyg"><path fill="none" stroke="none" d=" M 5 5 L 295 5 L 295 295 L 5 295 L 5 5 Z"/></clipPath></defs><g><g transform="scale(1,1) translate(0.5,0.5)"><rect fill="#FFFFFF" stroke="none" x="0" y="0" width="300" height="300"/><g clip-path="url(#XIKRRQiiaagu)"><g><g/></g></g><g clip-path="url(#KDbDxJyrLnLb)"><g><g/></g></g><g clip-path="url(#clEfshCnbfyg)"><g><g><path fill="none" stroke="none"/><path fill="black" stroke="none" paint-order="stroke fill markers" d=" M 170.41747534526868 190.2320024362803 A 0.5 0.5 0 1 1 170.4174750952687 190.23150243636366"/><path fill="black" stroke="none" paint-order="stroke fill markers" d=" M 174.22820636705111 209.25105350029128 A 0.5 0.5 0 1 1 174.22820611705114 209.25055350037462"/><path fill="black" stroke="none" paint-order="stroke fill markers" d=" M 175.5839305413641 184.091190171094 A 0.5 0.5 0 1 1 175.58393029136414 184.09069017117736"/><path fill="black" stroke="none" paint-order="stroke fill markers" d=" M 198.1506027565724 194.05225634833448 A 0.5 0.5 0 1 1 198.15060250657243 194.05175634841783"/><path fill="black" stroke="none" paint-order="stroke fill markers" d=" M 176.73254421689734 185.3032679007052 A 0.5 0.5 0 1 1 176.73254396689737 185.30276790078855"/><path fill="black" stroke="none" paint-order="stroke fill markers" d=" M 175.84129458004227 185.22178394243895 A 0.5 0.5 0 1 1 175.8412943300423 185.2212839425223"/><path fill="black" stroke="none" paint-order="stroke fill markers" d=" M 174.22118006383383 182.41431693967908 A 0.5 0.5 0 1 1 174.22117981383386 182.41381693976243"/><path fill="black" stroke="none" paint-order="stroke fill markers" d=" M 171.06985831585544 184.51088740956695 A 0.5 0.5 0 1 1 171.06985806585547 184.5103874096503"/><path fill="black" stroke="none" paint-order="stroke fill markers" d=" M 169.54361075472403 187.22808087764986 A 0.5 0.5 0 1 1 169.54361050472406 187.2275808777332"/><path fill="black" stroke="none" paint-order="stroke fill markers" d=" M 167.8230564098887 190.1089033464595 A 0.5 0.5 0 1 1 167.82305615988872 190.10840334654284"/><path fill="black" stroke="none" paint-order="stroke fill markers" d=" M 160.6176666276846 171.35345071936803 A 0.5 0.5 0 1 1 160.61766637768463 171.35295071945137"/><path fill="black" stroke="none" paint-order="stroke fill markers" d=" M 170.29931256414613 192.1451943113227 A 0.5 0.5 0 1 1 170.29931231414616 192.14469431140606"/><path fill="black" stroke="none" paint-order="stroke fill markers" d=" M 165.2832298494752 243.98491465677586 A 0.5 0.5 0 1 1 165.28322959947522 243.9844146568592"/><path fill="black" stroke="none" paint-order="stroke fill markers" d=" M 166.79915315694592 242.990672462343 A 0.5 0.5 0 1 1 166.79915290694595 242.99017246242636"/><path fill="black" stroke="none" paint-order="stroke fill markers" d=" M 180.6337738590847 186.6289040193911 A 0.5 0.5 0 1 1 180.63377360908473 186.62840401947443"/><path fill="black" stroke="none" paint-order="stroke fill markers" d=" M 190.56213421950656 174.66456495246987 A 0.5 0.5 0 1 1 190.5621339695066 174.66406495255322"/><path fill="black" stroke="none" paint-order="stroke fill markers" d=" M 191.014441658792 211.0277871719386 A 0.5 0.5 0 1 1 191.01444140879204 211.02728717202194"/><path fill="black" stroke="none" paint-order="stroke fill markers" d=" M 187.15410237827567 128.7937187066082 A 0.5 0.5 0 1 1 187.1541021282757 128.79321870669153"/><path fill="black" stroke="none" paint-order="stroke fill markers" d=" M 211.2948084430024 170.67712486174406 A 0.5 0.5 0 1 1 211.29480819300244 170.6766248618274"/><path fill="black" stroke="none" paint-order="stroke fill markers" d=" M 186.41263636252407 157.09636444791337 A 0.5 0.5 0 1 1 186.4126361125241 157.09586444799672"/><path fill="black" stroke="none" paint-order="stroke fill markers" d=" M 192.85411020314206 124.13779987503376 A 0.5 0.5 0 1 1 192.85410995314209 124.1372998751171"/><path fill="black" stroke="none" paint-order="stroke fill markers" d=" M 192.95754002703706 113.90535863605103 A 0.5 0.5 0 1 1 192.95753977703708 113.90485863613436"/><path fill="black" stroke="none" paint-order="stroke fill markers" d=" M 192.35092622232239 106.6013450362966 A 0.5 0.5 0 1 1 192.35092597232241 106.60084503637994"/><path fill="black" stroke="none" paint-order="stroke fill markers" d=" M 186.15935607893954 124.97383680250562 A 0.5 0.5 0 1 1 186.15935582893957 124.97333680258895"/><path fill="black" stroke="none" paint-order="stroke fill markers" d=" M 186.09756091800764 116.74739039036544 A 0.5 0.5 0 1 1 186.09756066800767 116.74689039044877"/><path fill="black" stroke="none" paint-order="stroke fill markers" d=" M 188.23627684889502 133.91112643427633 A 0.5 0.5 0 1 1 188.23627659889505 133.91062643435967"/><path fill="black" stroke="none" paint-order="stroke fill markers" d=" M 189.78354225726625 137.47477779143088 A 0.5 0.5 0 1 1 189.78354200726628 137.47427779151423"/><path fill="black" stroke="none" paint-order="stroke fill markers" d=" M 192.07723954078563 142.644160005841 A 0.5 0.5 0 1 1 192.07723929078566 142.64366000592435"/><path fill="black" stroke="none" paint-order="stroke fill markers" d=" M 222.5932888539473 134.72392115794366 A 0.5 0.5 0 1 1 222.59328860394734 134.723421158027"/><path fill="black" stroke="none" paint-order="stroke fill markers" d=" M 191.88856328908443 152.59376265142626 A 0.5 0.5 0 1 1 191.88856303908446 152.5932626515096"/><path fill="black" stroke="none" paint-order="stroke fill markers" d=" M 191.4770372893297 156.21264711911545 A 0.5 0.5 0 1 1 191.47703703932973 156.2121471191988"/><path fill="black" stroke="none" paint-order="stroke fill markers" d=" M 193.0995348899411 159.55474167683684 A 0.5 0.5 0 1 1 193.09953463994114 159.55424167692019"/><path fill="black" stroke="none" paint-order="stroke fill markers" d=" M 194.6361968929874 162.76441917486676 A 0.5 0.5 0 1 1 194.63619664298744 162.7639191749501"/><path fill="black" stroke="none" paint-order="stroke fill markers" d=" M 185.62662284172401 149.60412430255556 A 0.5 0.5 0 1 1 185.62662259172404 149.6036243026389"/><path fill="black" stroke="none" paint-order="stroke fill markers" d=" M 231.05555555555554 145.55577383344766 A 0.5 0.5 0 1 1 231.05555530555557 145.555273833531"/><path fill="black" stroke="none" paint-order="stroke fill markers" d=" M 230.9020941618814 152.71391766557912 A 0.5 0.5 0 1 1 230.90209391188142 152.71341766566246"/><path fill="black" stroke="none" paint-order="stroke fill markers" d=" M 203.49425364574753 165.1750621708995 A 0.5 0.5 0 1 1 203.49425339574756 165.17456217098285"/><path fill="black" stroke="none" paint-order="stroke fill markers" d=" M 209.16651603087493 203.27548977363378 A 0.5 0.5 0 1 1 209.16651578087496 203.27498977371712"/><path fill="black" stroke="none" paint-order="stroke fill markers" d=" M 197.6019157264734 168.7067210663544 A 0.5 0.5 0 1 1 197.60191547647344 168.70622106643773"/><path fill="black" stroke="none" paint-order="stroke fill markers" d=" M 194.47843142443583 171.3224632863163 A 0.5 0.5 0 1 1 194.47843117443585 171.32196328639964"/><path fill="black" stroke="none" paint-order="stroke fill markers" d=" M 189.5251129270492 172.0150603452376 A 0.5 0.5 0 1 1 189.52511267704924 172.01456034532094"/><path fill="black" stroke="none" paint-order="stroke fill markers" d=" M 188.55607390316004 180.06852483698873 A 0.5 0.5 0 1 1 188.55607365316007 180.06802483707207"/><path fill="black" stroke="none" paint-order="stroke fill markers" d=" M 181.05234018990808 173.05007591437908 A 0.5 0.5 0 1 1 181.0523399399081 173.04957591446242"/><path fill="black" stroke="none" paint-order="stroke fill markers" d=" M 175.58995756646087 171.9745772315103 A 0.5 0.5 0 1 1 175.5899573164609 171.97407723159364"/><path fill="black" stroke="none" paint-order="stroke fill markers" d=" M 170.09161495852678 176.68105834129702 A 0.5 0.5 0 1 1 170.0916147085268 176.68055834138036"/><path fill="black" stroke="none" paint-order="stroke fill markers" d=" M 167.82180576504857 179.1297450000289 A 0.5 0.5 0 1 1 167.8218055150486 179.12924500011223"/><path fill="black" stroke="none" paint-order="stroke fill markers" d=" M 166.1114358981965 184.03316640855297 A 0.5 0.5 0 1 1 166.11143564819653 184.03266640863632"/><path fill="black" stroke="none" paint-order="stroke fill markers" d=" M 141.5972637153547 190.61676291524714 A 0.5 0.5 0 1 1 141.59726346535473 190.61626291533048"/><path fill="black" stroke="none" paint-order="stroke fill markers" d=" M 165.2853630112021 193.88782409476954 A 0.5 0.5 0 1 1 165.28536276120212 193.8873240948529"/><path fill="black" stroke="none" paint-order="stroke fill markers" d=" M 168.91127874108997 223.19864100339623 A 0.5 0.5 0 1 1 168.91127849109 223.19814100347958"/><path fill="black" stroke="none" paint-order="stroke fill markers" d=" M 167.06879591062523 205.97217541483033 A 0.5 0.5 0 1 1 167.06879566062526 205.97167541491368"/><path fill="black" stroke="none" paint-order="stroke fill markers" d=" M 166.22921536312217 207.39619815880658 A 0.5 0.5 0 1 1 166.2292151131222 207.39569815888993"/><path fill="black" stroke="none" paint-order="stroke fill markers" d=" M 151.31810759447387 196.4354340654226 A 0.5 0.5 0 1 1 151.3181073444739 196.43493406550596"/><path fill="black" stroke="none" paint-order="stroke fill markers" d=" M 155.33774550518334 220.89151877185378 A 0.5 0.5 0 1 1 155.33774525518336 220.89101877193713"/><path fill="black" stroke="none" paint-order="stroke fill markers" d=" M 153.44511439527867 220.53850455107568 A 0.5 0.5 0 1 1 153.4451141452787 220.53800455115902"/><path fill="black" stroke="none" paint-order="stroke fill markers" d=" M 155.4430385578117 195.88051430601803 A 0.5 0.5 0 1 1 155.44303830781172 195.88001430610137"/><path fill="black" stroke="none" paint-order="stroke fill markers" d=" M 153.03409339817443 191.49158344878202 A 0.5 0.5 0 1 1 153.03409314817446 191.49108344886537"/><path fill="black" stroke="none" paint-order="stroke fill markers" d=" M 103.54421487709126 209.15073456618222 A 0.5 0.5 0 1 1 103.54421462709128 209.15023456626557"/><path fill="black" stroke="none" paint-order="stroke fill markers" d=" M 153.33544217750952 189.683513438536 A 0.5 0.5 0 1 1 153.33544192750955 189.68301343861935"/><path fill="black" stroke="none" paint-order="stroke fill markers" d=" M 154.39313887259894 189.52918700607682 A 0.5 0.5 0 1 1 154.39313862259897 189.52868700616017"/><path fill="black" stroke="none" paint-order="stroke fill markers" d=" M 155.45871839500893 189.07781814795322 A 0.5 0.5 0 1 1 155.45871814500896 189.07731814803657"/><path fill="black" stroke="none" paint-order="stroke fill markers" d=" M 156.89641885741585 190.1891504375236 A 0.5 0.5 0 1 1 156.89641860741588 190.18865043760695"/><path fill="black" stroke="none" paint-order="stroke fill markers" d=" M 159.53334713355227 190.52308799576423 A 0.5 0.5 0 1 1 159.5333468835523 190.52258799584757"/><path fill="black" stroke="none" paint-order="stroke fill markers" d=" M 166.16454023788162 196.52963500888802 A 0.5 0.5 0 1 1 166.16453998788165 196.52913500897137"/><path fill="black" stroke="none" paint-order="stroke fill markers" d=" M 167.28919104254823 198.9875318262689 A 0.5 0.5 0 1 1 167.28919079254825 198.98703182635225"/><path fill="black" stroke="none" paint-order="stroke fill markers" d=" M 168.5685360414769 198.5638716368465 A 0.5 0.5 0 1 1 168.56853579147693 198.56337163692984"/><path fill="black" stroke="none" paint-order="stroke fill markers" d=" M 170.46212434594787 199.40578012931252 A 0.5 0.5 0 1 1 170.4621240959479 199.40528012939586"/><path fill="black" stroke="none" paint-order="stroke fill markers" d=" M 179.38685712676028 236.78612007039112 A 0.5 0.5 0 1 1 179.3868568767603 236.78562007047447"/><path fill="black" stroke="none" paint-order="stroke fill markers" d=" M 170.63101266291017 198.45571210202493 A 0.5 0.5 0 1 1 170.6310124129102 198.45521210210828"/><path fill="black" stroke="none" paint-order="stroke fill markers" d=" M 172.09747971012143 199.69442038812088 A 0.5 0.5 0 1 1 172.09747946012146 199.69392038820422"/><path fill="black" stroke="none" paint-order="stroke fill markers" d=" M 173.21080508769967 199.43924662809272 A 0.5 0.5 0 1 1 173.2108048376997 199.43874662817606"/><path fill="black" stroke="none" paint-order="stroke fill markers" d=" M 174.36901711426324 197.2309932104913 A 0.5 0.5 0 1 1 174.36901686426327 197.23049321057465"/><path fill="black" stroke="none" paint-order="stroke fill markers" d=" M 176.0684418016314 194.4079907291664 A 0.5 0.5 0 1 1 176.06844155163142 194.40749072924973"/><path fill="black" stroke="none" paint-order="stroke fill markers" d=" M 177.247713758989 194.59123663327756 A 0.5 0.5 0 1 1 177.24771350898902 194.5907366333609"/><path fill="black" stroke="none" paint-order="stroke fill markers" d=" M 187.7663718826088 208.32829370002452 A 0.5 0.5 0 1 1 187.76637163260884 208.32779370010786"/><path fill="black" stroke="none" paint-order="stroke fill markers" d=" M 176.5236224749512 201.87265489655732 A 0.5 0.5 0 1 1 176.52362222495123 201.87215489664067"/><path fill="black" stroke="none" paint-order="stroke fill markers" d=" M 174.9688439144022 206.30562249124944 A 0.5 0.5 0 1 1 174.96884366440224 206.30512249133278"/><path fill="black" stroke="none" paint-order="stroke fill markers" d=" M 165.390300416539 234.5899936381166 A 0.5 0.5 0 1 1 165.39030016653902 234.58949363819994"/><path fill="black" stroke="none" paint-order="stroke fill markers" d=" M 194.56267774895383 234.72570782560848 A 0.5 0.5 0 1 1 194.56267749895386 234.72520782569183"/><path fill="black" stroke="none" paint-order="stroke fill markers" d=" M 145.34127084935653 221.17302690369186 A 0.5 0.5 0 1 1 145.34127059935656 221.1725269037752"/><path fill="black" stroke="none" paint-order="stroke fill markers" d=" M 170.30532391105604 233.90052784357778 A 0.5 0.5 0 1 1 170.30532366105606 233.90002784366112"/><path fill="black" stroke="none" paint-order="stroke fill markers" d=" M 163.575026718362 218.9346526893973 A 0.5 0.5 0 1 1 163.57502646836204 218.93415268948064"/><path fill="black" stroke="none" paint-order="stroke fill markers" d=" M 134.53799339695092 262.32758891939875 A 0.5 0.5 0 1 1 134.53799314695095 262.3270889194821"/><path fill="black" stroke="none" paint-order="stroke fill markers" d=" M 158.1316932982438 253.7390768828172 A 0.5 0.5 0 1 1 158.13169304824382 253.73857688290053"/><path fill="black" stroke="none" paint-order="stroke fill markers" d=" M 175.56328566993804 240.2214120978996 A 0.5 0.5 0 1 1 175.56328541993807 240.22091209798293"/><path fill="black" stroke="none" paint-order="stroke fill markers" d=" M 170.03461010255697 214.40016957450976 A 0.5 0.5 0 1 1 170.034609852557 214.3996695745931"/><path fill="black" stroke="none" paint-order="stroke fill markers" d=" M 173.5043155987716 238.601087629345 A 0.5 0.5 0 1 1 173.50431534877163 238.60058762942833"/><path fill="black" stroke="none" paint-order="stroke fill markers" d=" M 178.1848212672471 207.5473992505768 A 0.5 0.5 0 1 1 178.18482101724712 207.54689925066015"/><path fill="black" stroke="none" paint-order="stroke fill markers" d=" M 182.90202792083056 204.81953602576723 A 0.5 0.5 0 1 1 182.9020276708306 204.81903602585058"/><path fill="black" stroke="none" paint-order="stroke fill markers" d=" M 186.77840021033242 198.72008417331512 A 0.5 0.5 0 1 1 186.77839996033245 198.71958417339846"/><path fill="black" stroke="none" paint-order="stroke fill markers" d=" M 189.6442638465279 192.9811814797692 A 0.5 0.5 0 1 1 189.64426359652794 192.98068147985254"/><path fill="black" stroke="none" paint-order="stroke fill markers" d=" M 191.4098867898329 189.68791592754292 A 0.5 0.5 0 1 1 191.40988653983294 189.68741592762626"/><path fill="black" stroke="none" paint-order="stroke fill markers" d=" M 218.59918658379706 189.335295040013 A 0.5 0.5 0 1 1 218.5991863337971 189.33479504009634"/><path fill="black" stroke="none" paint-order="stroke fill markers" d=" M 207.66161803441065 178.33591912767739 A 0.5 0.5 0 1 1 207.66161778441068 178.33541912776073"/><path fill="black" stroke="none" paint-order="stroke fill markers" d=" M 198.19174561956865 169.33086155374787 A 0.5 0.5 0 1 1 198.19174536956868 169.3303615538312"/><path fill="black" stroke="none" paint-order="stroke fill markers" d=" M 198.48770027745553 162.87824946147293 A 0.5 0.5 0 1 1 198.48770002745556 162.87774946155628"/><path fill="black" stroke="none" paint-order="stroke fill markers" d=" M 197.99281088265346 159.3736300794926 A 0.5 0.5 0 1 1 197.9928106326535 159.37313007957596"/><path fill="black" stroke="none" paint-order="stroke fill markers" d=" M 216.66248161512073 140.1851898151985 A 0.5 0.5 0 1 1 216.66248136512075 140.18468981528184"/><path fill="black" stroke="none" paint-order="stroke fill markers" d=" M 190.3296135056625 151.76073259077344 A 0.5 0.5 0 1 1 190.32961325566254 151.7602325908568"/><path fill="black" stroke="none" paint-order="stroke fill markers" d=" M 186.84704756409064 152.72406969149412 A 0.5 0.5 0 1 1 186.84704731409067 152.72356969157747"/><path fill="black" stroke="none" paint-order="stroke fill markers" d=" M 183.41634176398668 152.7903226490411 A 0.5 0.5 0 1 1 183.4163415139867 152.78982264912443"/><path fill="black" stroke="none" paint-order="stroke fill markers" d=" M 179.46035069059425 153.6676086238094 A 0.5 0.5 0 1 1 179.46035044059428 153.66710862389274"/><path fill="black" stroke="none" paint-order="stroke fill markers" d=" M 175.96737195744296 155.77480856930816 A 0.5 0.5 0 1 1 175.967371707443 155.7743085693915"/><path fill="black" stroke="none" paint-order="stroke fill markers" d=" M 175.63344555614455 148.39114498679413 A 0.5 0.5 0 1 1 175.63344530614458 148.39064498687748"/><path fill="black" stroke="none" paint-order="stroke fill markers" d=" M 170.635037831095 156.20874281273163 A 0.5 0.5 0 1 1 170.63503758109502 156.20824281281497"/><path fill="black" stroke="none" paint-order="stroke fill markers" d=" M 169.8156493700129 156.11563301360832 A 0.5 0.5 0 1 1 169.81564912001292 156.11513301369166"/><path fill="black" stroke="none" paint-order="stroke fill markers" d=" M 170.366615307089 154.50384103316668 A 0.5 0.5 0 1 1 170.36661505708904 154.50334103325002"/><path fill="black" stroke="none" paint-order="stroke fill markers" d=" M 169.06502234212763 154.5253452252992 A 0.5 0.5 0 1 1 169.06502209212766 154.52484522538253"/><path fill="black" stroke="none" paint-order="stroke fill markers" d=" M 169.58326522142806 154.04790856157305 A 0.5 0.5 0 1 1 169.5832649714281 154.0474085616564"/><path fill="black" stroke="none" paint-order="stroke fill markers" d=" M 168.75145963635143 152.58509747257895 A 0.5 0.5 0 1 1 168.75145938635146 152.5845974726623"/><path fill="black" stroke="none" paint-order="stroke fill markers" d=" M 168.33638861288452 152.21349944056232 A 0.5 0.5 0 1 1 168.33638836288455 152.21299944064566"/><path fill="black" stroke="none" paint-order="stroke fill markers" d=" M 168.21619643487705 150.76223718440983 A 0.5 0.5 0 1 1 168.21619618487708 150.76173718449317"/><path fill="black" stroke="none" paint-order="stroke fill markers" d=" M 168.27681934190312 149.19553398938933 A 0.5 0.5 0 1 1 168.27681909190315 149.19503398947268"/><path fill="black" stroke="none" paint-order="stroke fill markers" d=" M 167.54337168727167 133.01245948020022 A 0.5 0.5 0 1 1 167.5433714372717 133.01195948028356"/><path fill="black" stroke="none" paint-order="stroke fill markers" d=" M 149.46844131791238 121.6758654681654 A 0.5 0.5 0 1 1 149.4684410679124 121.67536546824873"/><path fill="black" stroke="none" paint-order="stroke fill markers" d=" M 168.2176465640158 147.96821578114924 A 0.5 0.5 0 1 1 168.21764631401584 147.96771578123258"/><path fill="black" stroke="none" paint-order="stroke fill markers" d=" M 169.27577760676888 148.3138123529305 A 0.5 0.5 0 1 1 169.2757773567689 148.31331235301386"/><path fill="black" stroke="none" paint-order="stroke fill markers" d=" M 169.76439593311818 147.50877766774414 A 0.5 0.5 0 1 1 169.7643956831182 147.50827766782749"/><path fill="black" stroke="none" paint-order="stroke fill markers" d=" M 168.4816935329898 147.4488500301132 A 0.5 0.5 0 1 1 168.48169328298982 147.44835003019654"/><path fill="black" stroke="none" paint-order="stroke fill markers" d=" M 168.84352194960388 146.6936809967839 A 0.5 0.5 0 1 1 168.8435216996039 146.69318099686726"/><path fill="black" stroke="none" paint-order="stroke fill markers" d=" M 171.93935323068817 149.03467253826435 A 0.5 0.5 0 1 1 171.9393529806882 149.0341725383477"/><path fill="black" stroke="none" paint-order="stroke fill markers" d=" M 170.93991667797715 149.23281771625895 A 0.5 0.5 0 1 1 170.93991642797718 149.2323177163423"/><path fill="black" stroke="none" paint-order="stroke fill markers" d=" M 161.1945277721581 132.0866999215466 A 0.5 0.5 0 1 1 161.19452752215813 132.08619992162994"/><path fill="black" stroke="none" paint-order="stroke fill markers" d=" M 175.47387957160706 147.09578131135493 A 0.5 0.5 0 1 1 175.4738793216071 147.09528131143827"/><path fill="black" stroke="none" paint-order="stroke fill markers" d=" M 177.11980698473184 146.90618757729246 A 0.5 0.5 0 1 1 177.11980673473187 146.9056875773758"/><path fill="black" stroke="none" paint-order="stroke fill markers" d=" M 208.58616566465696 139.4714131825483 A 0.5 0.5 0 1 1 208.586165414657 139.47091318263165"/><path fill="black" stroke="none" paint-order="stroke fill markers" d=" M 178.97710028661774 147.0873447870766 A 0.5 0.5 0 1 1 178.97710003661777 147.08684478715995"/><path fill="black" stroke="none" paint-order="stroke fill markers" d=" M 181.83754504633316 147.60190286847055 A 0.5 0.5 0 1 1 181.8375447963332 147.6014028685539"/><path fill="black" stroke="none" paint-order="stroke fill markers" d=" M 183.33542416608975 147.69790106054296 A 0.5 0.5 0 1 1 183.33542391608978 147.6974010606263"/><path fill="black" stroke="none" paint-order="stroke fill markers" d=" M 182.7168883380183 147.01618108762068 A 0.5 0.5 0 1 1 182.71688808801832 147.01568108770402"/><path fill="black" stroke="none" paint-order="stroke fill markers" d=" M 183.72642824441013 146.24671344292852 A 0.5 0.5 0 1 1 183.72642799441016 146.24621344301187"/><path fill="black" stroke="none" paint-order="stroke fill markers" d=" M 196.7395989457202 127.80162799765344 A 0.5 0.5 0 1 1 196.73959869572022 127.80112799773677"/><path fill="black" stroke="none" paint-order="stroke fill markers" d=" M 204.09713769232457 135.0957395513584 A 0.5 0.5 0 1 1 204.0971374423246 135.09523955144175"/><path fill="black" stroke="none" paint-order="stroke fill markers" d=" M 186.3654285167155 142.6393547056763 A 0.5 0.5 0 1 1 186.36542826671553 142.63885470575966"/><path fill="black" stroke="none" paint-order="stroke fill markers" d=" M 189.58574625181785 143.66182448436066 A 0.5 0.5 0 1 1 189.58574600181788 143.661324484444"/><path fill="black" stroke="none" paint-order="stroke fill markers" d=" M 192.4729157187908 146.92943452005179 A 0.5 0.5 0 1 1 192.47291546879083 146.92893452013513"/><path fill="black" stroke="none" paint-order="stroke fill markers" d=" M 215.49619944816197 139.18958991021617 A 0.5 0.5 0 1 1 215.496199198162 139.18908991029951"/><path fill="black" stroke="none" paint-order="stroke fill markers" d=" M 193.86756635557845 157.51729262989497 A 0.5 0.5 0 1 1 193.86756610557848 157.5167926299783"/><path fill="black" stroke="none" paint-order="stroke fill markers" d=" M 214.1087195189443 150.79123366407725 A 0.5 0.5 0 1 1 214.10871926894433 150.7907336641606"/><path fill="black" stroke="none" paint-order="stroke fill markers" d=" M 194.01669231800145 156.21233790231489 A 0.5 0.5 0 1 1 194.01669206800148 156.21183790239823"/><path fill="black" stroke="none" paint-order="stroke fill markers" d=" M 194.08309851620615 152.81386222225916 A 0.5 0.5 0 1 1 194.08309826620618 152.8133622223425"/><path fill="black" stroke="none" paint-order="stroke fill markers" d=" M 196.61231517309886 150.8369254814964 A 0.5 0.5 0 1 1 196.6123149230989 150.83642548157974"/><path fill="black" stroke="none" paint-order="stroke fill markers" d=" M 198.79016055772234 149.3747505971839 A 0.5 0.5 0 1 1 198.79016030772237 149.37425059726723"/><path fill="black" stroke="none" paint-order="stroke fill markers" d=" M 194.53260203554652 150.7952120166298 A 0.5 0.5 0 1 1 194.53260178554655 150.79471201671313"/><path fill="black" stroke="none" paint-order="stroke fill markers" d=" M 190.1158653576661 152.62681923061646 A 0.5 0.5 0 1 1 190.11586510766614 152.6263192306998"/><path fill="black" stroke="none" paint-order="stroke fill markers" d=" M 185.0442788702714 157.11278788813357 A 0.5 0.5 0 1 1 185.04427862027143 157.1122878882169"/><path fill="black" stroke="none" paint-order="stroke fill markers" d=" M 180.3312945999601 161.87879915571762 A 0.5 0.5 0 1 1 180.33129434996013 161.87829915580096"/><path fill="black" stroke="none" paint-order="stroke fill markers" d=" M 174.62475804801736 167.62745298922115 A 0.5 0.5 0 1 1 174.62475779801738 167.6269529893045"/><path fill="black" stroke="none" paint-order="stroke fill markers" d=" M 170.8046840646169 174.13022706612037 A 0.5 0.5 0 1 1 170.80468381461694 174.1297270662037"/><path fill="black" stroke="none" paint-order="stroke fill markers" d=" M 142.85984955769587 171.9384729120159 A 0.5 0.5 0 1 1 142.8598493076959 171.93797291209924"/><path fill="black" stroke="none" paint-order="stroke fill markers" d=" M 179.2697468470768 216.72001589968357 A 0.5 0.5 0 1 1 179.26974659707682 216.71951589976692"/><path fill="black" stroke="none" paint-order="stroke fill markers" d=" M 166.61065843388548 193.09266065242645 A 0.5 0.5 0 1 1 166.6106581838855 193.0921606525098"/><path fill="black" stroke="none" paint-order="stroke fill markers" d=" M 142.93872073962345 229.8184300926179 A 0.5 0.5 0 1 1 142.93872048962348 229.81793009270123"/><path fill="black" stroke="none" paint-order="stroke fill markers" d=" M 169.92394087587857 204.48398248394065 A 0.5 0.5 0 1 1 169.9239406258786 204.483482484024"/><path fill="black" stroke="none" paint-order="stroke fill markers" d=" M 173.46506938380173 207.89481202678422 A 0.5 0.5 0 1 1 173.46506913380176 207.89431202686757"/><path fill="black" stroke="none" paint-order="stroke fill markers" d=" M 179.91514601058435 225.76075217572972 A 0.5 0.5 0 1 1 179.91514576058438 225.76025217581306"/><path fill="black" stroke="none" paint-order="stroke fill markers" d=" M 183.34386068095688 196.75240853496544 A 0.5 0.5 0 1 1 183.3438604309569 196.75190853504878"/><path fill="black" stroke="none" paint-order="stroke fill markers" d=" M 181.92406388277837 192.22728959475785 A 0.5 0.5 0 1 1 181.9240636327784 192.2267895948412"/><path fill="black" stroke="none" paint-order="stroke fill markers" d=" M 180.6500247123508 190.38302581724562 A 0.5 0.5 0 1 1 180.65002446235084 190.38252581732897"/><path fill="black" stroke="none" paint-order="stroke fill markers" d=" M 178.30929534374923 188.4314081272274 A 0.5 0.5 0 1 1 178.30929509374926 188.43090812731074"/><path fill="black" stroke="none" paint-order="stroke fill markers" d=" M 180.67738562392782 210.72963109189678 A 0.5 0.5 0 1 1 180.67738537392785 210.72913109198012"/><path fill="black" stroke="none" paint-order="stroke fill markers" d=" M 174.98098790787827 197.78445811077302 A 0.5 0.5 0 1 1 174.9809876578783 197.78395811085636"/><path fill="black" stroke="none" paint-order="stroke fill markers" d=" M 173.79328933766632 202.91133190064926 A 0.5 0.5 0 1 1 173.79328908766635 202.9108319007326"/><path fill="black" stroke="none" paint-order="stroke fill markers" d=" M 173.7169596723458 207.38739318079274 A 0.5 0.5 0 1 1 173.71695942234584 207.3868931808761"/><path fill="black" stroke="none" paint-order="stroke fill markers" d=" M 176.93563614883408 204.42184293915795 A 0.5 0.5 0 1 1 176.9356358988341 204.4213429392413"/><path fill="black" stroke="none" paint-order="stroke fill markers" d=" M 179.37300668641947 196.96153861018075 A 0.5 0.5 0 1 1 179.3730064364195 196.9610386102641"/><path fill="black" stroke="none" paint-order="stroke fill markers" d=" M 180.62983285800829 193.99307865030025 A 0.5 0.5 0 1 1 180.62983260800831 193.9925786503836"/><path fill="black" stroke="none" paint-order="stroke fill markers" d=" M 182.21509724032612 187.23443818551075 A 0.5 0.5 0 1 1 182.21509699032615 187.2339381855941"/><path fill="black" stroke="none" paint-order="stroke fill markers" d=" M 182.55362065104595 183.50655005667667 A 0.5 0.5 0 1 1 182.55362040104598 183.50605005676002"/><path fill="black" stroke="none" paint-order="stroke fill markers" d=" M 180.5010637834737 179.55143970794902 A 0.5 0.5 0 1 1 180.50106353347374 179.55093970803236"/><path fill="black" stroke="none" paint-order="stroke fill markers" d=" M 180.04392416196393 179.62808400862826 A 0.5 0.5 0 1 1 180.04392391196396 179.6275840087116"/><path fill="black" stroke="none" paint-order="stroke fill markers" d=" M 178.1123995962938 187.96576079829885 A 0.5 0.5 0 1 1 178.11239934629384 187.9652607983822"/><path fill="black" stroke="none" paint-order="stroke fill markers" d=" M 181.03636989367004 174.67278052298076 A 0.5 0.5 0 1 1 181.03636964367007 174.6722805230641"/><path fill="black" stroke="none" paint-order="stroke fill markers" d=" M 173.6743810175001 190.1333208110538 A 0.5 0.5 0 1 1 173.67438076750014 190.13282081113715"/><path fill="black" stroke="none" paint-order="stroke fill markers" d=" M 172.04200492141416 188.9297732000782 A 0.5 0.5 0 1 1 172.0420046714142 188.92927320016153"/><path fill="black" stroke="none" paint-order="stroke fill markers" d=" M 171.46237533920797 187.25460480765167 A 0.5 0.5 0 1 1 171.462375089208 187.25410480773502"/><path fill="black" stroke="none" paint-order="stroke fill markers" d=" M 173.90364726981875 181.0956103576459 A 0.5 0.5 0 1 1 173.90364701981878 181.09511035772925"/><path fill="black" stroke="none" paint-order="stroke fill markers" d=" M 169.5539919836378 179.81190688048602 A 0.5 0.5 0 1 1 169.55399173363782 179.81140688056936"/><path fill="black" stroke="none" paint-order="stroke fill markers" d=" M 169.53694071767399 175.3238270186066 A 0.5 0.5 0 1 1 169.53694046767401 175.32332701868995"/><path fill="black" stroke="none" paint-order="stroke fill markers" d=" M 168.21709194815557 171.70993740927403 A 0.5 0.5 0 1 1 168.2170916981556 171.70943740935738"/><path fill="black" stroke="none" paint-order="stroke fill markers" d=" M 167.2625243033237 170.58365371731745 A 0.5 0.5 0 1 1 167.26252405332372 170.5831537174008"/><path fill="black" stroke="none" paint-order="stroke fill markers" d=" M 165.3942963944154 168.14605102958 A 0.5 0.5 0 1 1 165.39429614441542 168.14555102966335"/><path fill="black" stroke="none" paint-order="stroke fill markers" d=" M 163.72688811180853 165.9560690039198 A 0.5 0.5 0 1 1 163.72688786180856 165.95556900400314"/><path fill="black" stroke="none" paint-order="stroke fill markers" d=" M 162.3718700747801 165.4017048314306 A 0.5 0.5 0 1 1 162.37186982478013 165.40120483151395"/><path fill="black" stroke="none" paint-order="stroke fill markers" d=" M 159.43475774355892 164.63475549693632 A 0.5 0.5 0 1 1 159.43475749355895 164.63425549701967"/><path fill="black" stroke="none" paint-order="stroke fill markers" d=" M 156.67032124917876 162.61396683795456 A 0.5 0.5 0 1 1 156.67032099917878 162.6134668380379"/><path fill="black" stroke="none" paint-order="stroke fill markers" d=" M 152.48393261851044 162.83966400295736 A 0.5 0.5 0 1 1 152.48393236851047 162.8391640030407"/><path fill="black" stroke="none" paint-order="stroke fill markers" d=" M 126.10800065558153 162.04740939030594 A 0.5 0.5 0 1 1 126.10800040558155 162.0469093903893"/><path fill="black" stroke="none" paint-order="stroke fill markers" d=" M 129.53982043212042 163.32288841141468 A 0.5 0.5 0 1 1 129.53982018212045 163.32238841149803"/><path fill="black" stroke="none" paint-order="stroke fill markers" d=" M 93.06449229279114 149.42328934169765 A 0.5 0.5 0 1 1 93.06449204279116 149.422789341781"/><path fill="black" stroke="none" paint-order="stroke fill markers" d=" M 146.391372700663 157.64451816460576 A 0.5 0.5 0 1 1 146.39137245066303 157.6440181646891"/><path fill="black" stroke="none" paint-order="stroke fill markers" d=" M 145.00481200829606 156.3485840374828 A 0.5 0.5 0 1 1 145.00481175829609 156.34808403756614"/><path fill="black" stroke="none" paint-order="stroke fill markers" d=" M 147.9098612096333 155.97819621604754 A 0.5 0.5 0 1 1 147.90986095963333 155.97769621613088"/><path fill="black" stroke="none" paint-order="stroke fill markers" d=" M 148.34273099788103 155.7027693479534 A 0.5 0.5 0 1 1 148.34273074788106 155.70226934803674"/><path fill="black" stroke="none" paint-order="stroke fill markers" d=" M 150.63222982799238 155.65820777125347 A 0.5 0.5 0 1 1 150.6322295779924 155.65770777133682"/><path fill="black" stroke="none" paint-order="stroke fill markers" d=" M 152.3574179022131 156.76982972943583 A 0.5 0.5 0 1 1 152.35741765221312 156.76932972951917"/><path fill="black" stroke="none" paint-order="stroke fill markers" d=" M 151.08499606053545 155.5046016599235 A 0.5 0.5 0 1 1 151.08499581053547 155.50410166000685"/><path fill="black" stroke="none" paint-order="stroke fill markers" d=" M 151.2347095423819 152.96561895647937 A 0.5 0.5 0 1 1 151.23470929238192 152.96511895656272"/><path fill="black" stroke="none" paint-order="stroke fill markers" d=" M 152.58593655256874 152.89358447407943 A 0.5 0.5 0 1 1 152.58593630256877 152.89308447416278"/><path fill="black" stroke="none" paint-order="stroke fill markers" d=" M 122.55063325932433 176.9569970165093 A 0.5 0.5 0 1 1 122.55063300932434 176.95649701659264"/><path fill="black" stroke="none" paint-order="stroke fill markers" d=" M 154.11385672868798 147.85923996136378 A 0.5 0.5 0 1 1 154.113856478688 147.85873996144713"/><path fill="black" stroke="none" paint-order="stroke fill markers" d=" M 159.05802164045053 117.26449565996307 A 0.5 0.5 0 1 1 159.05802139045056 117.2639956600464"/><path fill="black" stroke="none" paint-order="stroke fill markers" d=" M 151.03137171046174 139.00272344463968 A 0.5 0.5 0 1 1 151.03137146046177 139.00222344472303"/><path fill="black" stroke="none" paint-order="stroke fill markers" d=" M 148.77332332319514 131.94021645927734 A 0.5 0.5 0 1 1 148.77332307319517 131.93971645936068"/><path fill="black" stroke="none" paint-order="stroke fill markers" d=" M 147.2251139229413 133.34707944793172 A 0.5 0.5 0 1 1 147.22511367294132 133.34657944801506"/><path fill="black" stroke="none" paint-order="stroke fill markers" d=" M 90.2328005026125 101.66666666666667 A 0.5 0.5 0 1 1 90.23280025261252 101.66616666675"/><path fill="black" stroke="none" paint-order="stroke fill markers" d=" M 143.9555650307574 137.05305346504326 A 0.5 0.5 0 1 1 143.95556478075744 137.0525534651266"/><path fill="black" stroke="none" paint-order="stroke fill markers" d=" M 144.34979716523586 143.24287244652962 A 0.5 0.5 0 1 1 144.34979691523588 143.24237244661296"/><path fill="black" stroke="none" paint-order="stroke fill markers" d=" M 143.4479928079519 151.31314186436217 A 0.5 0.5 0 1 1 143.44799255795192 151.3126418644455"/><path fill="black" stroke="none" paint-order="stroke fill markers" d=" M 142.2652633978074 158.1388515716625 A 0.5 0.5 0 1 1 142.26526314780742 158.13835157174586"/><path fill="black" stroke="none" paint-order="stroke fill markers" d=" M 144.41021429605937 164.26945627630727 A 0.5 0.5 0 1 1 144.4102140460594 164.2689562763906"/><path fill="black" stroke="none" paint-order="stroke fill markers" d=" M 147.0136267345239 168.93330678538175 A 0.5 0.5 0 1 1 147.01362648452394 168.9328067854651"/><path fill="black" stroke="none" paint-order="stroke fill markers" d=" M 134.09517868722645 120.3371723442736 A 0.5 0.5 0 1 1 134.09517843722648 120.33667234435693"/><path fill="black" stroke="none" paint-order="stroke fill markers" d=" M 109.71592158288796 210.5237235059438 A 0.5 0.5 0 1 1 109.71592133288797 210.52322350602714"/><path fill="black" stroke="none" paint-order="stroke fill markers" d=" M 147.85109606460438 165.53414662254244 A 0.5 0.5 0 1 1 147.8510958146044 165.53364662262578"/><path fill="black" stroke="none" paint-order="stroke fill markers" d=" M 147.82213927863836 161.4154377801095 A 0.5 0.5 0 1 1 147.8221390286384 161.41493778019284"/><path fill="black" stroke="none" paint-order="stroke fill markers" d=" M 135.97049777816477 118.47691933327448 A 0.5 0.5 0 1 1 135.9704975281648 118.47641933335781"/><path fill="black" stroke="none" paint-order="stroke fill markers" d=" M 152.66829159265055 151.6168804331555 A 0.5 0.5 0 1 1 152.66829134265058 151.61638043323885"/><path fill="black" stroke="none" paint-order="stroke fill markers" d=" M 157.7065470799448 148.6667116540548 A 0.5 0.5 0 1 1 157.70654682994484 148.66621165413815"/><path fill="black" stroke="none" paint-order="stroke fill markers" d=" M 144.70572831437866 156.12670913570886 A 0.5 0.5 0 1 1 144.7057280643787 156.1262091357922"/><path fill="black" stroke="none" paint-order="stroke fill markers" d=" M 167.24886659122072 114.83149731108846 A 0.5 0.5 0 1 1 167.24886634122075 114.83099731117179"/><path fill="black" stroke="none" paint-order="stroke fill markers" d=" M 171.4823798804759 142.2185876481578 A 0.5 0.5 0 1 1 171.48237963047592 142.21808764824115"/><path fill="black" stroke="none" paint-order="stroke fill markers" d=" M 187.33812633431756 142.22695427285285 A 0.5 0.5 0 1 1 187.3381260843176 142.2264542729362"/><path fill="black" stroke="none" paint-order="stroke fill markers" d=" M 181.13721694257146 147.68294847341804 A 0.5 0.5 0 1 1 181.13721669257149 147.68244847350138"/><path fill="black" stroke="none" paint-order="stroke fill markers" d=" M 183.62356118490672 152.32129052164836 A 0.5 0.5 0 1 1 183.62356093490675 152.3207905217317"/><path fill="black" stroke="none" paint-order="stroke fill markers" d=" M 185.48484087209417 163.19443459885733 A 0.5 0.5 0 1 1 185.4848406220942 163.19393459894067"/><path fill="black" stroke="none" paint-order="stroke fill markers" d=" M 183.7730997311945 169.32019387031394 A 0.5 0.5 0 1 1 183.77309948119452 169.3196938703973"/><path fill="black" stroke="none" paint-order="stroke fill markers" d=" M 183.4956750398428 173.32228680927375 A 0.5 0.5 0 1 1 183.49567478984284 173.3217868093571"/><path fill="black" stroke="none" paint-order="stroke fill markers" d=" M 195.91660635828725 183.66663787343097 A 0.5 0.5 0 1 1 195.91660610828728 183.66613787351432"/><path fill="black" stroke="none" paint-order="stroke fill markers" d=" M 180.0952347417239 225.9739719689353 A 0.5 0.5 0 1 1 180.09523449172394 225.97347196901865"/><path fill="black" stroke="none" paint-order="stroke fill markers" d=" M 180.805200804567 178.7662956007866 A 0.5 0.5 0 1 1 180.80520055456702 178.76579560086995"/><path fill="black" stroke="none" paint-order="stroke fill markers" d=" M 189.40616004782558 184.69777401570133 A 0.5 0.5 0 1 1 189.4061597978256 184.69727401578467"/><path fill="black" stroke="none" paint-order="stroke fill markers" d=" M 195.5072505496613 151.9670109999393 A 0.5 0.5 0 1 1 195.50725029966134 151.96651100002265"/><path fill="black" stroke="none" paint-order="stroke fill markers" d=" M 179.10921376596025 173.3719196599764 A 0.5 0.5 0 1 1 179.10921351596028 173.37141966005976"/><path fill="black" stroke="none" paint-order="stroke fill markers" d=" M 178.52086669927502 170.8637372008695 A 0.5 0.5 0 1 1 178.52086644927505 170.86323720095285"/><path fill="black" stroke="none" paint-order="stroke fill markers" d=" M 179.80791133828833 170.8373296714449 A 0.5 0.5 0 1 1 179.80791108828836 170.83682967152825"/><path fill="black" stroke="none" paint-order="stroke fill markers" d=" M 179.5190547732112 174.58037742049163 A 0.5 0.5 0 1 1 179.51905452321122 174.57987742057497"/><path fill="black" stroke="none" paint-order="stroke fill markers" d=" M 180.94557338771475 175.4096364578643 A 0.5 0.5 0 1 1 180.94557313771477 175.40913645794765"/><path fill="black" stroke="none" paint-order="stroke fill markers" d=" M 185.315003199659 178.13825732307214 A 0.5 0.5 0 1 1 185.31500294965903 178.13775732315548"/><path fill="black" stroke="none" paint-order="stroke fill markers" d=" M 184.5180397030876 180.27096706224603 A 0.5 0.5 0 1 1 184.51803945308762 180.27046706232937"/><path fill="black" stroke="none" paint-order="stroke fill markers" d=" M 201.57777188778743 165.5376186844164 A 0.5 0.5 0 1 1 201.57777163778746 165.53711868449975"/><path fill="black" stroke="none" paint-order="stroke fill markers" d=" M 205.52788281593894 167.9541594948101 A 0.5 0.5 0 1 1 205.52788256593897 167.95365949489346"/><path fill="black" stroke="none" paint-order="stroke fill markers" d=" M 178.2253799114908 180.31547651044318 A 0.5 0.5 0 1 1 178.22537966149082 180.31497651052652"/><path fill="black" stroke="none" paint-order="stroke fill markers" d=" M 175.8613692605672 179.4139081312923 A 0.5 0.5 0 1 1 175.86136901056722 179.41340813137563"/><path fill="black" stroke="none" paint-order="stroke fill markers" d=" M 135.16826641080777 204.79664450461775 A 0.5 0.5 0 1 1 135.1682661608078 204.7961445047011"/><path fill="black" stroke="none" paint-order="stroke fill markers" d=" M 173.74794307025564 175.8642094418004 A 0.5 0.5 0 1 1 173.74794282025567 175.86370944188374"/><path fill="black" stroke="none" paint-order="stroke fill markers" d=" M 173.4999054898409 172.522536651056 A 0.5 0.5 0 1 1 173.49990523984093 172.52203665113933"/><path fill="black" stroke="none" paint-order="stroke fill markers" d=" M 174.02553444548872 168.7908970471303 A 0.5 0.5 0 1 1 174.02553419548875 168.79039704721365"/><path fill="black" stroke="none" paint-order="stroke fill markers" d=" M 177.02580882798583 165.24716840403696 A 0.5 0.5 0 1 1 177.02580857798586 165.2466684041203"/><path fill="black" stroke="none" paint-order="stroke fill markers" d=" M 180.7451021884871 160.22307884141085 A 0.5 0.5 0 1 1 180.74510193848712 160.2225788414942"/><path fill="black" stroke="none" paint-order="stroke fill markers" d=" M 182.16850166897288 158.93728785466266 A 0.5 0.5 0 1 1 182.1685014189729 158.936787854746"/><path fill="black" stroke="none" paint-order="stroke fill markers" d=" M 186.48453322680135 158.06274928893822 A 0.5 0.5 0 1 1 186.48453297680138 158.06224928902157"/><path fill="black" stroke="none" paint-order="stroke fill markers" d=" M 187.76529586388943 156.48948264152315 A 0.5 0.5 0 1 1 187.76529561388946 156.4889826416065"/><path fill="black" stroke="none" paint-order="stroke fill markers" d=" M 187.17191774955705 157.03851661906918 A 0.5 0.5 0 1 1 187.17191749955708 157.03801661915253"/><path fill="black" stroke="none" paint-order="stroke fill markers" d=" M 211.87688836078155 134.8812331319253 A 0.5 0.5 0 1 1 211.87688811078158 134.88073313200866"/><path fill="black" stroke="none" paint-order="stroke fill markers" d=" M 187.95033642657415 152.88770461591437 A 0.5 0.5 0 1 1 187.95033617657418 152.88720461599772"/><path fill="black" stroke="none" paint-order="stroke fill markers" d=" M 202.98854795234627 134.14026911560163 A 0.5 0.5 0 1 1 202.9885477023463 134.13976911568497"/><path fill="black" stroke="none" paint-order="stroke fill markers" d=" M 210.97478529277947 130.597217994952 A 0.5 0.5 0 1 1 210.9747850427795 130.59671799503533"/><path fill="black" stroke="none" paint-order="stroke fill markers" d=" M 175.05725981145773 139.2828217374255 A 0.5 0.5 0 1 1 175.05725956145776 139.28232173750885"/><path fill="black" stroke="none" paint-order="stroke fill markers" d=" M 170.3805693059799 136.45594279107624 A 0.5 0.5 0 1 1 170.38056905597992 136.45544279115958"/><path fill="black" stroke="none" paint-order="stroke fill markers" d=" M 164.69883151981384 133.13418901208456 A 0.5 0.5 0 1 1 164.69883126981387 133.1336890121679"/><path fill="black" stroke="none" paint-order="stroke fill markers" d=" M 156.72982244382246 131.83963214369962 A 0.5 0.5 0 1 1 156.72982219382249 131.83913214378296"/><path fill="black" stroke="none" paint-order="stroke fill markers" d=" M 149.35626141541306 130.37813611466186 A 0.5 0.5 0 1 1 149.3562611654131 130.3776361147452"/><path fill="black" stroke="none" paint-order="stroke fill markers" d=" M 114.36260280096073 102.1637545911995 A 0.5 0.5 0 1 1 114.36260255096074 102.16325459128284"/><path fill="black" stroke="none" paint-order="stroke fill markers" d=" M 138.72150466774622 132.76383021674746 A 0.5 0.5 0 1 1 138.72150441774625 132.7633302168308"/><path fill="black" stroke="none" paint-order="stroke fill markers" d=" M 114.56961758028385 108.15943755044995 A 0.5 0.5 0 1 1 114.56961733028386 108.15893755053328"/><path fill="black" stroke="none" paint-order="stroke fill markers" d=" M 136.14921590570552 147.6150842712399 A 0.5 0.5 0 1 1 136.14921565570555 147.61458427132325"/><path fill="black" stroke="none" paint-order="stroke fill markers" d=" M 139.33723657587262 151.83798584714418 A 0.5 0.5 0 1 1 139.33723632587265 151.83748584722753"/><path fill="black" stroke="none" paint-order="stroke fill markers" d=" M 144.22028543974469 156.7692367677168 A 0.5 0.5 0 1 1 144.22028518974471 156.76873676780014"/><path fill="black" stroke="none" paint-order="stroke fill markers" d=" M 146.25817247542068 160.8214962821633 A 0.5 0.5 0 1 1 146.2581722254207 160.82099628224665"/><path fill="black" stroke="none" paint-order="stroke fill markers" d=" M 151.88410994421014 168.3621611409351 A 0.5 0.5 0 1 1 151.88410969421017 168.36166114101843"/><path fill="black" stroke="none" paint-order="stroke fill markers" d=" M 155.56508829152438 173.3858812131793 A 0.5 0.5 0 1 1 155.5650880415244 173.38538121326263"/><path fill="black" stroke="none" paint-order="stroke fill markers" d=" M 156.03039954906006 179.66948588721695 A 0.5 0.5 0 1 1 156.0303992990601 179.6689858873003"/><path fill="black" stroke="none" paint-order="stroke fill markers" d=" M 156.2368763190235 187.93729863578483 A 0.5 0.5 0 1 1 156.23687606902354 187.93679863586817"/><path fill="black" stroke="none" paint-order="stroke fill markers" d=" M 157.328585602758 193.44819125820206 A 0.5 0.5 0 1 1 157.32858535275804 193.4476912582854"/><path fill="black" stroke="none" paint-order="stroke fill markers" d=" M 147.7956249891519 226.84485916998824 A 0.5 0.5 0 1 1 147.79562473915192 226.84435917007158"/><path fill="black" stroke="none" paint-order="stroke fill markers" d=" M 161.28555573766155 203.57721428663814 A 0.5 0.5 0 1 1 161.28555548766158 203.57671428672148"/><path fill="black" stroke="none" paint-order="stroke fill markers" d=" M 163.79288688344676 207.02919928242093 A 0.5 0.5 0 1 1 163.79288663344678 207.02869928250428"/><path fill="black" stroke="none" paint-order="stroke fill markers" d=" M 137.1524416286307 239.0249113127079 A 0.5 0.5 0 1 1 137.15244137863073 239.02441131279124"/><path fill="black" stroke="none" paint-order="stroke fill markers" d=" M 152.37327432530446 187.40477517675342 A 0.5 0.5 0 1 1 152.3732740753045 187.40427517683676"/><path fill="black" stroke="none" paint-order="stroke fill markers" d=" M 173.34859737135707 196.47504935805262 A 0.5 0.5 0 1 1 173.3485971213571 196.47454935813596"/><path fill="black" stroke="none" paint-order="stroke fill markers" d=" M 173.19294103152225 193.00814850204458 A 0.5 0.5 0 1 1 173.19294078152228 193.00764850212792"/><path fill="black" stroke="none" paint-order="stroke fill markers" d=" M 173.01682053199417 216.69205606637811 A 0.5 0.5 0 1 1 173.0168202819942 216.69155606646146"/><path fill="black" stroke="none" paint-order="stroke fill markers" d=" M 167.41537249422882 193.6703131779948 A 0.5 0.5 0 1 1 167.41537224422885 193.66981317807816"/><path fill="black" stroke="none" paint-order="stroke fill markers" d=" M 164.86012808737217 197.6419577400111 A 0.5 0.5 0 1 1 164.8601278373722 197.64145774009444"/><path fill="black" stroke="none" paint-order="stroke fill markers" d=" M 163.10405295357407 202.71101865083477 A 0.5 0.5 0 1 1 163.1040527035741 202.71051865091812"/><path fill="black" stroke="none" paint-order="stroke fill markers" d=" M 161.34012201669856 203.88968674912334 A 0.5 0.5 0 1 1 161.3401217666986 203.8891867492067"/><path fill="black" stroke="none" paint-order="stroke fill markers" d=" M 144.95748368799897 241.01758019865977 A 0.5 0.5 0 1 1 144.957483437999 241.01708019874312"/><path fill="black" stroke="none" paint-order="stroke fill markers" d=" M 136.89800611022477 210.12304487781205 A 0.5 0.5 0 1 1 136.8980058602248 210.1225448778954"/><path fill="black" stroke="none" paint-order="stroke fill markers" d=" M 165.97805759144353 202.73684121552654 A 0.5 0.5 0 1 1 165.97805734144356 202.73634121560988"/><path fill="black" stroke="none" paint-order="stroke fill markers" d=" M 171.89057467810633 230.9693421326573 A 0.5 0.5 0 1 1 171.89057442810636 230.96884213274063"/><path fill="black" stroke="none" paint-order="stroke fill markers" d=" M 171.9561767503586 197.91530302221042 A 0.5 0.5 0 1 1 171.95617650035862 197.91480302229377"/><path fill="black" stroke="none" paint-order="stroke fill markers" d=" M 160.8710013723393 215.6708350022829 A 0.5 0.5 0 1 1 160.87100112233932 215.67033500236624"/><path fill="black" stroke="none" paint-order="stroke fill markers" d=" M 162.65501647916864 192.86900094180191 A 0.5 0.5 0 1 1 162.65501622916867 192.86850094188526"/><path fill="black" stroke="none" paint-order="stroke fill markers" d=" M 151.66880883054668 188.28388209490268 A 0.5 0.5 0 1 1 151.6688085805467 188.28338209498602"/><path fill="black" stroke="none" paint-order="stroke fill markers" d=" M 148.25743506001103 184.58496912043944 A 0.5 0.5 0 1 1 148.25743481001106 184.58446912052278"/><path fill="black" stroke="none" paint-order="stroke fill markers" d=" M 130.5460431642394 187.4817855616908 A 0.5 0.5 0 1 1 130.54604291423942 187.48128556177414"/><path fill="black" stroke="none" paint-order="stroke fill markers" d=" M 146.02755294802554 177.76368559692003 A 0.5 0.5 0 1 1 146.02755269802557 177.76318559700337"/><path fill="black" stroke="none" paint-order="stroke fill markers" d=" M 149.5558876428856 175.4226644369721 A 0.5 0.5 0 1 1 149.55588739288564 175.42216443705544"/><path fill="black" stroke="none" paint-order="stroke fill markers" d=" M 158.60190110108675 175.29101508795782 A 0.5 0.5 0 1 1 158.60190085108678 175.29051508804116"/><path fill="black" stroke="none" paint-order="stroke fill markers" d=" M 160.02508851346602 176.00318876914776 A 0.5 0.5 0 1 1 160.02508826346605 176.0026887692311"/><path fill="black" stroke="none" paint-order="stroke fill markers" d=" M 161.09357180111638 176.66171866676828 A 0.5 0.5 0 1 1 161.0935715511164 176.66121866685162"/><path fill="black" stroke="none" paint-order="stroke fill markers" d=" M 163.0802872977948 176.13505018638924 A 0.5 0.5 0 1 1 163.08028704779483 176.13455018647258"/><path fill="black" stroke="none" paint-order="stroke fill markers" d=" M 166.0739760166422 173.33687686635668 A 0.5 0.5 0 1 1 166.07397576664223 173.33637686644002"/><path fill="black" stroke="none" paint-order="stroke fill markers" d=" M 168.7602722214113 170.81717933946112 A 0.5 0.5 0 1 1 168.76027197141133 170.81667933954446"/><path fill="black" stroke="none" paint-order="stroke fill markers" d=" M 168.562143260784 169.82258113104913 A 0.5 0.5 0 1 1 168.56214301078404 169.82208113113248"/><path fill="black" stroke="none" paint-order="stroke fill markers" d=" M 175.95665797964227 158.99578610505282 A 0.5 0.5 0 1 1 175.9566577296423 158.99528610513616"/><path fill="black" stroke="none" paint-order="stroke fill markers" d=" M 170.2073298795796 165.71646983734527 A 0.5 0.5 0 1 1 170.20732962957962 165.71596983742862"/><path fill="black" stroke="none" paint-order="stroke fill markers" d=" M 169.94228992438903 163.01614297580232 A 0.5 0.5 0 1 1 169.94228967438906 163.01564297588567"/><path fill="black" stroke="none" paint-order="stroke fill markers" d=" M 168.8523788874292 161.62858175003834 A 0.5 0.5 0 1 1 168.85237863742924 161.62808175012168"/><path fill="black" stroke="none" paint-order="stroke fill markers" d=" M 167.26429784663944 161.20180777112927 A 0.5 0.5 0 1 1 167.26429759663947 161.2013077712126"/><path fill="black" stroke="none" paint-order="stroke fill markers" d=" M 165.50075891600846 160.0673496783316 A 0.5 0.5 0 1 1 165.5007586660085 160.06684967841494"/><path fill="black" stroke="none" paint-order="stroke fill markers" d=" M 163.15857694276494 161.31818494975445 A 0.5 0.5 0 1 1 163.15857669276497 161.3176849498378"/><path fill="black" stroke="none" paint-order="stroke fill markers" d=" M 160.7475929999599 160.29144418805882 A 0.5 0.5 0 1 1 160.74759274995992 160.29094418814216"/><path fill="black" stroke="none" paint-order="stroke fill markers" d=" M 157.77420588276303 161.79973384150617 A 0.5 0.5 0 1 1 157.77420563276306 161.7992338415895"/><path fill="black" stroke="none" paint-order="stroke fill markers" d=" M 152.5898676516324 164.5848026186925 A 0.5 0.5 0 1 1 152.58986740163243 164.58430261877584"/><path fill="black" stroke="none" paint-order="stroke fill markers" d=" M 147.7791117325478 166.09545036262622 A 0.5 0.5 0 1 1 147.77911148254782 166.09495036270957"/><path fill="black" stroke="none" paint-order="stroke fill markers" d=" M 143.4419261748041 168.0942675819533 A 0.5 0.5 0 1 1 143.44192592480414 168.09376758203663"/><path fill="black" stroke="none" paint-order="stroke fill markers" d=" M 142.42243144492275 169.35418698544603 A 0.5 0.5 0 1 1 142.42243119492278 169.35368698552938"/><path fill="black" stroke="none" paint-order="stroke fill markers" d=" M 149.44639283617832 168.76208420196127 A 0.5 0.5 0 1 1 149.44639258617835 168.76158420204462"/><path fill="black" stroke="none" paint-order="stroke fill markers" d=" M 152.1525089509358 168.87690937289028 A 0.5 0.5 0 1 1 152.15250870093584 168.87640937297363"/><path fill="black" stroke="none" paint-order="stroke fill markers" d=" M 154.91474059714258 167.80150709813313 A 0.5 0.5 0 1 1 154.9147403471426 167.80100709821647"/><path fill="black" stroke="none" paint-order="stroke fill markers" d=" M 158.39082897203735 168.372973214398 A 0.5 0.5 0 1 1 158.39082872203738 168.37247321448135"/><path fill="black" stroke="none" paint-order="stroke fill markers" d=" M 159.84757636856202 169.53436115829436 A 0.5 0.5 0 1 1 159.84757611856205 169.5338611583777"/><path fill="black" stroke="none" paint-order="stroke fill markers" d=" M 159.19629334655878 172.50118114363022 A 0.5 0.5 0 1 1 159.1962930965588 172.50068114371356"/><path fill="black" stroke="none" paint-order="stroke fill markers" d=" M 159.04710962239471 172.87121117397825 A 0.5 0.5 0 1 1 159.04710937239474 172.8707111740616"/><path fill="black" stroke="none" paint-order="stroke fill markers" d=" M 156.85252323487376 174.06763850537058 A 0.5 0.5 0 1 1 156.8525229848738 174.06713850545393"/><path fill="black" stroke="none" paint-order="stroke fill markers" d=" M 140.30060174645328 204.09011136437556 A 0.5 0.5 0 1 1 140.3006014964533 204.0896113644589"/><path fill="black" stroke="none" paint-order="stroke fill markers" d=" M 148.67305719237532 174.60285309835766 A 0.5 0.5 0 1 1 148.67305694237535 174.602353098441"/><path fill="black" stroke="none" paint-order="stroke fill markers" d=" M 123.22014134838668 160.3191321238328 A 0.5 0.5 0 1 1 123.22014109838669 160.31863212391613"/><path fill="black" stroke="none" paint-order="stroke fill markers" d=" M 143.06478656467593 173.91812625861635 A 0.5 0.5 0 1 1 143.06478631467596 173.9176262586997"/><path fill="black" stroke="none" paint-order="stroke fill markers" d=" M 139.64465281352318 172.84269273637602 A 0.5 0.5 0 1 1 139.6446525635232 172.84219273645937"/><path fill="black" stroke="none" paint-order="stroke fill markers" d=" M 112.08049252269994 182.92397849602847 A 0.5 0.5 0 1 1 112.08049227269996 182.9234784961118"/><path fill="black" stroke="none" paint-order="stroke fill markers" d=" M 137.9314032660139 175.47885837059195 A 0.5 0.5 0 1 1 137.93140301601392 175.4783583706753"/><path fill="black" stroke="none" paint-order="stroke fill markers" d=" M 137.40700587320245 186.82909879533563 A 0.5 0.5 0 1 1 137.40700562320248 186.82859879541897"/><path fill="black" stroke="none" paint-order="stroke fill markers" d=" M 107.22355196579139 197.25066224237847 A 0.5 0.5 0 1 1 107.2235517157914 197.2501622424618"/><path fill="black" stroke="none" paint-order="stroke fill markers" d=" M 118.04125335010986 217.27937842921085 A 0.5 0.5 0 1 1 118.04125310010987 217.2788784292942"/><path fill="black" stroke="none" paint-order="stroke fill markers" d=" M 138.51746049224954 215.01414381912383 A 0.5 0.5 0 1 1 138.51746024224957 215.01364381920718"/><path fill="black" stroke="none" paint-order="stroke fill markers" d=" M 152.10487696891423 206.15109939216615 A 0.5 0.5 0 1 1 152.10487671891426 206.1505993922495"/><path fill="black" stroke="none" paint-order="stroke fill markers" d=" M 156.15896645750087 195.91373200967135 A 0.5 0.5 0 1 1 156.1589662075009 195.9132320097547"/><path fill="black" stroke="none" paint-order="stroke fill markers" d=" M 157.85810728717004 194.10679224014456 A 0.5 0.5 0 1 1 157.85810703717007 194.1062922402279"/><path fill="black" stroke="none" paint-order="stroke fill markers" d=" M 156.70156705042658 190.2701486529231 A 0.5 0.5 0 1 1 156.7015668004266 190.26964865300644"/><path fill="black" stroke="none" paint-order="stroke fill markers" d=" M 152.65341381848643 184.541379029473 A 0.5 0.5 0 1 1 152.65341356848646 184.54087902955635"/><path fill="black" stroke="none" paint-order="stroke fill markers" d=" M 149.38929287962767 182.44652998491534 A 0.5 0.5 0 1 1 149.3892926296277 182.4460299849987"/><path fill="black" stroke="none" paint-order="stroke fill markers" d=" M 145.48476586719295 178.86887027737927 A 0.5 0.5 0 1 1 145.48476561719298 178.86837027746262"/><path fill="black" stroke="none" paint-order="stroke fill markers" d=" M 142.661548549597 174.75357910990942 A 0.5 0.5 0 1 1 142.66154829959703 174.75307910999277"/><path fill="black" stroke="none" paint-order="stroke fill markers" d=" M 99.5003054827843 142.56696006271173 A 0.5 0.5 0 1 1 99.50030523278431 142.56646006279507"/><path fill="black" stroke="none" paint-order="stroke fill markers" d=" M 140.43890975994162 166.58560732743155 A 0.5 0.5 0 1 1 140.43890950994165 166.5851073275149"/><path fill="black" stroke="none" paint-order="stroke fill markers" d=" M 142.24350207444323 166.85832292101216 A 0.5 0.5 0 1 1 142.24350182444326 166.8578229210955"/><path fill="black" stroke="none" paint-order="stroke fill markers" d=" M 147.04312483052053 166.9043967426157 A 0.5 0.5 0 1 1 147.04312458052055 166.90389674269903"/><path fill="black" stroke="none" paint-order="stroke fill markers" d=" M 151.722449683975 165.40592435235462 A 0.5 0.5 0 1 1 151.72244943397502 165.40542435243796"/><path fill="black" stroke="none" paint-order="stroke fill markers" d=" M 156.825292699798 165.51155272996806 A 0.5 0.5 0 1 1 156.82529244979804 165.5110527300514"/><path fill="black" stroke="none" paint-order="stroke fill markers" d=" M 161.95948094958027 167.6897628401919 A 0.5 0.5 0 1 1 161.9594806995803 167.68926284027523"/><path fill="black" stroke="none" paint-order="stroke fill markers" d=" M 166.50133158285738 166.72758689446584 A 0.5 0.5 0 1 1 166.5013313328574 166.7270868945492"/><path fill="black" stroke="none" paint-order="stroke fill markers" d=" M 176.16237972113314 163.22897032431374 A 0.5 0.5 0 1 1 176.16237947113316 163.22847032439708"/><path fill="black" stroke="none" paint-order="stroke fill markers" d=" M 179.32810270891184 161.0712285373452 A 0.5 0.5 0 1 1 179.32810245891187 161.07072853742855"/><path fill="black" stroke="none" paint-order="stroke fill markers" d=" M 183.50549948683104 160.88529801534125 A 0.5 0.5 0 1 1 183.50549923683107 160.8847980154246"/><path fill="black" stroke="none" paint-order="stroke fill markers" d=" M 185.3506884032919 160.15100289315643 A 0.5 0.5 0 1 1 185.35068815329194 160.15050289323977"/><path fill="black" stroke="none" paint-order="stroke fill markers" d=" M 190.65197353089556 164.3618764094152 A 0.5 0.5 0 1 1 190.6519732808956 164.36137640949855"/><path fill="black" stroke="none" paint-order="stroke fill markers" d=" M 192.28054766666753 170.03222686378334 A 0.5 0.5 0 1 1 192.28054741666756 170.03172686386668"/><path fill="black" stroke="none" paint-order="stroke fill markers" d=" M 193.07450590236786 177.85982121868156 A 0.5 0.5 0 1 1 193.0745056523679 177.8593212187649"/><path fill="black" stroke="none" paint-order="stroke fill markers" d=" M 195.23095798843457 179.81439720123214 A 0.5 0.5 0 1 1 195.2309577384346 179.81389720131548"/><path fill="black" stroke="none" paint-order="stroke fill markers" d=" M 196.6626272999061 179.92684312066808 A 0.5 0.5 0 1 1 196.66262704990612 179.92634312075143"/><path fill="black" stroke="none" paint-order="stroke fill markers" d=" M 193.2921174856741 175.5268497658266 A 0.5 0.5 0 1 1 193.29211723567414 175.52634976590994"/><path fill="black" stroke="none" paint-order="stroke fill markers" d=" M 188.72365226635162 171.79528420806963 A 0.5 0.5 0 1 1 188.72365201635165 171.79478420815298"/><path fill="black" stroke="none" paint-order="stroke fill markers" d=" M 184.986845545958 146.06905002756886 A 0.5 0.5 0 1 1 184.98684529595803 146.0685500276522"/><path fill="black" stroke="none" paint-order="stroke fill markers" d=" M 179.44724867738418 168.47477795892843 A 0.5 0.5 0 1 1 179.4472484273842 168.47427795901177"/><path fill="black" stroke="none" paint-order="stroke fill markers" d=" M 175.49873114811845 168.69355121478736 A 0.5 0.5 0 1 1 175.49873089811848 168.6930512148707"/><path fill="black" stroke="none" paint-order="stroke fill markers" d=" M 167.6536631934219 173.1195886804574 A 0.5 0.5 0 1 1 167.65366294342192 173.11908868054076"/><path fill="black" stroke="none" paint-order="stroke fill markers" d=" M 164.4083916641556 176.71001690932607 A 0.5 0.5 0 1 1 164.40839141415563 176.70951690940942"/><path fill="black" stroke="none" paint-order="stroke fill markers" d=" M 161.90114117851593 178.03550730515192 A 0.5 0.5 0 1 1 161.90114092851596 178.03500730523527"/><path fill="black" stroke="none" paint-order="stroke fill markers" d=" M 160.4426617549269 162.21252049914563 A 0.5 0.5 0 1 1 160.44266150492692 162.21202049922897"/><path fill="black" stroke="none" paint-order="stroke fill markers" d=" M 154.12248220696515 179.86651622609543 A 0.5 0.5 0 1 1 154.12248195696517 179.86601622617877"/><path fill="black" stroke="none" paint-order="stroke fill markers" d=" M 150.19225039458667 178.94562120454148 A 0.5 0.5 0 1 1 150.1922501445867 178.94512120462483"/><path fill="black" stroke="none" paint-order="stroke fill markers" d=" M 127.74237737082782 198.30772402160744 A 0.5 0.5 0 1 1 127.74237712082784 198.30722402169079"/><path fill="black" stroke="none" paint-order="stroke fill markers" d=" M 133.5657939806575 197.67970351497348 A 0.5 0.5 0 1 1 133.56579373065753 197.67920351505683"/><path fill="black" stroke="none" paint-order="stroke fill markers" d=" M 140.89343194941324 182.21906252411097 A 0.5 0.5 0 1 1 140.89343169941327 182.2185625241943"/><path fill="black" stroke="none" paint-order="stroke fill markers" d=" M 144.9356299458491 173.52675553007631 A 0.5 0.5 0 1 1 144.93562969584912 173.52625553015966"/><path fill="black" stroke="none" paint-order="stroke fill markers" d=" M 108.68259374118813 135.3751388483116 A 0.5 0.5 0 1 1 108.68259349118814 135.37463884839494"/><path fill="black" stroke="none" paint-order="stroke fill markers" d=" M 148.06094446991082 168.27574452309395 A 0.5 0.5 0 1 1 148.06094421991085 168.2752445231773"/><path fill="black" stroke="none" paint-order="stroke fill markers" d=" M 155.54056760727252 163.86192778520038 A 0.5 0.5 0 1 1 155.54056735727255 163.86142778528372"/><path fill="black" stroke="none" paint-order="stroke fill markers" d=" M 145.45253646601148 174.6073657680636 A 0.5 0.5 0 1 1 145.4525362160115 174.60686576814695"/><path fill="black" stroke="none" paint-order="stroke fill markers" d=" M 156.3597190389243 180.45172146087236 A 0.5 0.5 0 1 1 156.35971878892434 180.4512214609557"/><path fill="black" stroke="none" paint-order="stroke fill markers" d=" M 147.15652763159505 205.90509550967118 A 0.5 0.5 0 1 1 147.15652738159508 205.90459550975453"/><path fill="black" stroke="none" paint-order="stroke fill markers" d=" M 155.77227800640614 189.23266349596275 A 0.5 0.5 0 1 1 155.77227775640617 189.2321634960461"/><path fill="black" stroke="none" paint-order="stroke fill markers" d=" M 170.28208842554298 183.74323715403966 A 0.5 0.5 0 1 1 170.282088175543 183.742737154123"/><path fill="black" stroke="none" paint-order="stroke fill markers" d=" M 175.5409335264795 176.17231377270096 A 0.5 0.5 0 1 1 175.54093327647954 176.1718137727843"/><path fill="black" stroke="none" paint-order="stroke fill markers" d=" M 177.76064544619808 169.12981139646237 A 0.5 0.5 0 1 1 177.7606451961981 169.12931139654572"/><path fill="black" stroke="none" paint-order="stroke fill markers" d=" M 179.42254728139955 166.00997186577774 A 0.5 0.5 0 1 1 179.42254703139957 166.0094718658611"/><path fill="black" stroke="none" paint-order="stroke fill markers" d=" M 177.5191097749085 162.2419662909648 A 0.5 0.5 0 1 1 177.51910952490852 162.24146629104814"/><path fill="black" stroke="none" paint-order="stroke fill markers" d=" M 174.83085771632838 159.33389394351528 A 0.5 0.5 0 1 1 174.8308574663284 159.33339394359862"/><path fill="black" stroke="none" paint-order="stroke fill markers" d=" M 167.4794634780763 142.48360658677785 A 0.5 0.5 0 1 1 167.47946322807633 142.4831065868612"/><path fill="black" stroke="none" paint-order="stroke fill markers" d=" M 169.17231601391632 154.44072526369567 A 0.5 0.5 0 1 1 169.17231576391634 154.440225263779"/><path fill="black" stroke="none" paint-order="stroke fill markers" d=" M 168.14764872012216 152.20707815681163 A 0.5 0.5 0 1 1 168.1476484701222 152.20657815689498"/><path fill="black" stroke="none" paint-order="stroke fill markers" d=" M 158.26248650921897 146.79263748138868 A 0.5 0.5 0 1 1 158.262486259219 146.79213748147203"/><path fill="black" stroke="none" paint-order="stroke fill markers" d=" M 151.49131855258753 144.67521679513032 A 0.5 0.5 0 1 1 151.49131830258756 144.67471679521367"/><path fill="black" stroke="none" paint-order="stroke fill markers" d=" M 148.1458459776061 144.2281935585561 A 0.5 0.5 0 1 1 148.14584572760612 144.22769355863943"/><path fill="black" stroke="none" paint-order="stroke fill markers" d=" M 125.6960505196138 130.30265878160148 A 0.5 0.5 0 1 1 125.69605026961382 130.30215878168482"/><path fill="black" stroke="none" paint-order="stroke fill markers" d=" M 145.50709985696145 151.85962509948843 A 0.5 0.5 0 1 1 145.50709960696148 151.85912509957177"/><path fill="black" stroke="none" paint-order="stroke fill markers" d=" M 143.73318562830974 152.73568486970288 A 0.5 0.5 0 1 1 143.73318537830977 152.73518486978622"/><path fill="black" stroke="none" paint-order="stroke fill markers" d=" M 143.20056791457637 155.43519018900398 A 0.5 0.5 0 1 1 143.2005676645764 155.43469018908732"/><path fill="black" stroke="none" paint-order="stroke fill markers" d=" M 140.63183727578559 163.6183269970648 A 0.5 0.5 0 1 1 140.63183702578561 163.61782699714814"/><path fill="black" stroke="none" paint-order="stroke fill markers" d=" M 107.63319163211634 136.34445650998677 A 0.5 0.5 0 1 1 107.63319138211635 136.34395651007011"/><path fill="black" stroke="none" paint-order="stroke fill markers" d=" M 138.715778003703 166.5515884072097 A 0.5 0.5 0 1 1 138.71577775370304 166.55108840729304"/><path fill="black" stroke="none" paint-order="stroke fill markers" d=" M 135.60957931526445 167.28291387077525 A 0.5 0.5 0 1 1 135.60957906526448 167.2824138708586"/><path fill="black" stroke="none" paint-order="stroke fill markers" d=" M 100.46991717307779 134.11651273520158 A 0.5 0.5 0 1 1 100.4699169230778 134.11601273528493"/><path fill="black" stroke="none" paint-order="stroke fill markers" d=" M 95.1260583416348 133.6585472519998 A 0.5 0.5 0 1 1 95.12605809163482 133.65804725208315"/><path fill="black" stroke="none" paint-order="stroke fill markers" d=" M 114.49765965359458 121.75680207715251 A 0.5 0.5 0 1 1 114.4976594035946 121.75630207723584"/><path fill="black" stroke="none" paint-order="stroke fill markers" d=" M 112.27297114729899 123.61252938631998 A 0.5 0.5 0 1 1 112.272970897299 123.61202938640331"/><path fill="black" stroke="none" paint-order="stroke fill markers" d=" M 132.2159714059464 124.48331706932217 A 0.5 0.5 0 1 1 132.21597115594642 124.4828170694055"/><path fill="black" stroke="none" paint-order="stroke fill markers" d=" M 138.48128513898527 146.19803252977084 A 0.5 0.5 0 1 1 138.4812848889853 146.1975325298542"/><path fill="black" stroke="none" paint-order="stroke fill markers" d=" M 114.25947663879023 133.2308589509995 A 0.5 0.5 0 1 1 114.25947638879025 133.23035895108285"/><path fill="black" stroke="none" paint-order="stroke fill markers" d=" M 134.42573757902048 147.5815609050021 A 0.5 0.5 0 1 1 134.4257373290205 147.58106090508545"/><path fill="black" stroke="none" paint-order="stroke fill markers" d=" M 132.67693980572136 147.33372778595535 A 0.5 0.5 0 1 1 132.6769395557214 147.3332277860387"/><path fill="black" stroke="none" paint-order="stroke fill markers" d=" M 136.27487574823508 147.565864301974 A 0.5 0.5 0 1 1 136.2748754982351 147.56536430205733"/><path fill="black" stroke="none" paint-order="stroke fill markers" d=" M 140.30060504712418 148.48687424318177 A 0.5 0.5 0 1 1 140.3006047971242 148.48637424326512"/><path fill="black" stroke="none" paint-order="stroke fill markers" d=" M 145.58778145688768 148.6221169046713 A 0.5 0.5 0 1 1 145.5877812068877 148.62161690475463"/><path fill="black" stroke="none" paint-order="stroke fill markers" d=" M 151.13891582065634 149.2498945398719 A 0.5 0.5 0 1 1 151.13891557065637 149.24939453995523"/><path fill="black" stroke="none" paint-order="stroke fill markers" d=" M 155.97471310483016 149.5261009660302 A 0.5 0.5 0 1 1 155.9747128548302 149.52560096611356"/><path fill="black" stroke="none" paint-order="stroke fill markers" d=" M 158.33127166598803 149.8845519526998 A 0.5 0.5 0 1 1 158.33127141598806 149.88405195278315"/><path fill="black" stroke="none" paint-order="stroke fill markers" d=" M 162.53845576119303 151.4231590694644 A 0.5 0.5 0 1 1 162.53845551119306 151.42265906954773"/><path fill="black" stroke="none" paint-order="stroke fill markers" d=" M 164.94991933274093 152.58952247162117 A 0.5 0.5 0 1 1 164.94991908274096 152.5890224717045"/><path fill="black" stroke="none" paint-order="stroke fill markers" d=" M 166.5979052919618 153.04971526357778 A 0.5 0.5 0 1 1 166.59790504196184 153.04921526366113"/><path fill="black" stroke="none" paint-order="stroke fill markers" d=" M 169.06440656070944 154.55200184603532 A 0.5 0.5 0 1 1 169.06440631070947 154.55150184611867"/><path fill="black" stroke="none" paint-order="stroke fill markers" d=" M 171.21999057032463 156.28134478496858 A 0.5 0.5 0 1 1 171.21999032032465 156.28084478505193"/><path fill="black" stroke="none" paint-order="stroke fill markers" d=" M 172.9752865394941 155.46738427842104 A 0.5 0.5 0 1 1 172.97528628949414 155.46688427850438"/><path fill="black" stroke="none" paint-order="stroke fill markers" d=" M 173.68077029123015 157.70389786058823 A 0.5 0.5 0 1 1 173.68077004123018 157.70339786067157"/><path fill="black" stroke="none" paint-order="stroke fill markers" d=" M 175.16465786696418 157.43024039974162 A 0.5 0.5 0 1 1 175.1646576169642 157.42974039982496"/><path fill="black" stroke="none" paint-order="stroke fill markers" d=" M 177.4459842358819 157.9649414085025 A 0.5 0.5 0 1 1 177.44598398588192 157.96444140858586"/><path fill="black" stroke="none" paint-order="stroke fill markers" d=" M 176.90576837769464 157.94410422425773 A 0.5 0.5 0 1 1 176.90576812769467 157.94360422434107"/><path fill="black" stroke="none" paint-order="stroke fill markers" d=" M 189.68525322832647 138.5596027373412 A 0.5 0.5 0 1 1 189.6852529783265 138.55910273742455"/><path fill="black" stroke="none" paint-order="stroke fill markers" d=" M 177.27493274171653 159.01089626242475 A 0.5 0.5 0 1 1 177.27493249171656 159.0103962625081"/><path fill="black" stroke="none" paint-order="stroke fill markers" d=" M 178.52735334279717 159.82135053479146 A 0.5 0.5 0 1 1 178.5273530927972 159.8208505348748"/><path fill="black" stroke="none" paint-order="stroke fill markers" d=" M 177.11193570975948 159.90260880033549 A 0.5 0.5 0 1 1 177.1119354597595 159.90210880041883"/><path fill="black" stroke="none" paint-order="stroke fill markers" d=" M 176.09072958200701 160.19827752147793 A 0.5 0.5 0 1 1 176.09072933200704 160.19777752156128"/><path fill="black" stroke="none" paint-order="stroke fill markers" d=" M 176.21767503585923 161.87433802214508 A 0.5 0.5 0 1 1 176.21767478585926 161.87383802222843"/><path fill="black" stroke="none" paint-order="stroke fill markers" d=" M 175.8027303662009 160.74203941181173 A 0.5 0.5 0 1 1 175.80273011620093 160.74153941189508"/><path fill="black" stroke="none" paint-order="stroke fill markers" d=" M 175.88228726251174 160.44698616242357 A 0.5 0.5 0 1 1 175.88228701251177 160.44648616250691"/><path fill="black" stroke="none" paint-order="stroke fill markers" d=" M 174.9799531475454 159.25152202359385 A 0.5 0.5 0 1 1 174.97995289754542 159.2510220236772"/><path fill="black" stroke="none" paint-order="stroke fill markers" d=" M 180.9965373970283 152.81081625906305 A 0.5 0.5 0 1 1 180.99653714702833 152.8103162591464"/><path fill="black" stroke="none" paint-order="stroke fill markers" d=" M 172.35957361022548 161.87111553288275 A 0.5 0.5 0 1 1 172.3595733602255 161.8706155329661"/><path fill="black" stroke="none" paint-order="stroke fill markers" d=" M 168.1614750243069 158.63329397467962 A 0.5 0.5 0 1 1 168.16147477430692 158.63279397476296"/><path fill="black" stroke="none" paint-order="stroke fill markers" d=" M 164.40268067829925 155.60959201872424 A 0.5 0.5 0 1 1 164.40268042829928 155.6090920188076"/><path fill="black" stroke="none" paint-order="stroke fill markers" d=" M 161.36140391761185 151.0741694060481 A 0.5 0.5 0 1 1 161.36140366761188 151.07366940613144"/><path fill="black" stroke="none" paint-order="stroke fill markers" d=" M 159.2688338416651 143.19974084943985 A 0.5 0.5 0 1 1 159.26883359166513 143.1992408495232"/><path fill="black" stroke="none" paint-order="stroke fill markers" d=" M 156.81329146033917 104.58024716051429 A 0.5 0.5 0 1 1 156.8132912103392 104.57974716059762"/><path fill="black" stroke="none" paint-order="stroke fill markers" d=" M 162.5064755606659 130.28162019177782 A 0.5 0.5 0 1 1 162.50647531066593 130.28112019186116"/><path fill="black" stroke="none" paint-order="stroke fill markers" d=" M 163.26324596229782 126.83657302581864 A 0.5 0.5 0 1 1 163.26324571229785 126.83607302590197"/><path fill="black" stroke="none" paint-order="stroke fill markers" d=" M 162.51335704694665 125.00047446742258 A 0.5 0.5 0 1 1 162.51335679694668 124.99997446750591"/><path fill="black" stroke="none" paint-order="stroke fill markers" d=" M 160.9494599704021 129.31011787194097 A 0.5 0.5 0 1 1 160.94945972040213 129.30961787202432"/><path fill="black" stroke="none" paint-order="stroke fill markers" d=" M 158.99858315855428 131.55855525674812 A 0.5 0.5 0 1 1 158.9985829085543 131.55805525683147"/><path fill="black" stroke="none" paint-order="stroke fill markers" d=" M 157.64408023248106 135.54977407155562 A 0.5 0.5 0 1 1 157.6440799824811 135.54927407163896"/><path fill="black" stroke="none" paint-order="stroke fill markers" d=" M 155.8098058095792 144.50494851873225 A 0.5 0.5 0 1 1 155.80980555957922 144.5044485188156"/><path fill="black" stroke="none" paint-order="stroke fill markers" d=" M 165.65827817513872 150.37797903465153 A 0.5 0.5 0 1 1 165.65827792513875 150.37747903473488"/><path fill="black" stroke="none" paint-order="stroke fill markers" d=" M 170.56317603644624 152.99787702178622 A 0.5 0.5 0 1 1 170.56317578644627 152.99737702186957"/><path fill="black" stroke="none" paint-order="stroke fill markers" d=" M 180.3616690240855 157.41250012245706 A 0.5 0.5 0 1 1 180.36166877408553 157.4120001225404"/><path fill="black" stroke="none" paint-order="stroke fill markers" d=" M 186.19848388234018 155.67533909284657 A 0.5 0.5 0 1 1 186.1984836323402 155.67483909292991"/><path fill="black" stroke="none" paint-order="stroke fill markers" d=" M 187.36815253766108 156.60131723579022 A 0.5 0.5 0 1 1 187.3681522876611 156.60081723587356"/><path fill="black" stroke="none" paint-order="stroke fill markers" d=" M 189.95803882670253 154.486073506892 A 0.5 0.5 0 1 1 189.95803857670256 154.48557350697536"/><path fill="black" stroke="none" paint-order="stroke fill markers" d=" M 189.84359961495966 153.86698829952877 A 0.5 0.5 0 1 1 189.8435993649597 153.86648829961212"/><path fill="black" stroke="none" paint-order="stroke fill markers" d=" M 187.78950793541043 147.64139731775322 A 0.5 0.5 0 1 1 187.78950768541046 147.64089731783656"/><path fill="black" stroke="none" paint-order="stroke fill markers" d=" M 175.5183313571989 140.50349593103945 A 0.5 0.5 0 1 1 175.51833110719892 140.5029959311228"/><path fill="black" stroke="none" paint-order="stroke fill markers" d=" M 163.8529652829173 135.87181211429964 A 0.5 0.5 0 1 1 163.85296503291733 135.871312114383"/><path fill="black" stroke="none" paint-order="stroke fill markers" d=" M 159.96596565822634 133.42033421119203 A 0.5 0.5 0 1 1 159.96596540822637 133.41983421127537"/><path fill="black" stroke="none" paint-order="stroke fill markers" d=" M 159.7754905408747 133.04896127952827 A 0.5 0.5 0 1 1 159.77549029087473 133.04846127961162"/><path fill="black" stroke="none" paint-order="stroke fill markers" d=" M 160.5042576378521 133.6983805365505 A 0.5 0.5 0 1 1 160.50425738785214 133.69788053663385"/><path fill="black" stroke="none" paint-order="stroke fill markers" d=" M 163.4765650230748 137.047418847789 A 0.5 0.5 0 1 1 163.47656477307484 137.04691884787235"/><path fill="black" stroke="none" paint-order="stroke fill markers" d=" M 166.7094462849775 140.6837041651254 A 0.5 0.5 0 1 1 166.70944603497753 140.68320416520874"/><path fill="black" stroke="none" paint-order="stroke fill markers" d=" M 173.8802537646855 145.75613921176492 A 0.5 0.5 0 1 1 173.88025351468553 145.75563921184826"/><path fill="black" stroke="none" paint-order="stroke fill markers" d=" M 175.26441486929485 151.6003272640477 A 0.5 0.5 0 1 1 175.26441461929488 151.59982726413105"/><path fill="black" stroke="none" paint-order="stroke fill markers" d=" M 176.53968271447178 151.2949928522263 A 0.5 0.5 0 1 1 176.5396824644718 151.29449285230965"/><path fill="black" stroke="none" paint-order="stroke fill markers" d=" M 176.4447314889981 149.93559641956278 A 0.5 0.5 0 1 1 176.44473123899812 149.93509641964613"/><path fill="black" stroke="none" paint-order="stroke fill markers" d=" M 173.72369799202548 149.13088279856393 A 0.5 0.5 0 1 1 173.7236977420255 149.13038279864728"/><path fill="black" stroke="none" paint-order="stroke fill markers" d=" M 173.15750461595982 148.42750935643303 A 0.5 0.5 0 1 1 173.15750436595985 148.42700935651638"/><path fill="black" stroke="none" paint-order="stroke fill markers" d=" M 172.3943800102264 146.76716204513582 A 0.5 0.5 0 1 1 172.39437976022643 146.76666204521916"/><path fill="black" stroke="none" paint-order="stroke fill markers" d=" M 171.2500349273582 149.93588549580542 A 0.5 0.5 0 1 1 171.25003467735823 149.93538549588877"/><path fill="black" stroke="none" paint-order="stroke fill markers" d=" M 170.0217775066106 128.16409406377522 A 0.5 0.5 0 1 1 170.02177725661062 128.16359406385857"/><path fill="black" stroke="none" paint-order="stroke fill markers" d=" M 172.1730564098887 149.13410528782626 A 0.5 0.5 0 1 1 172.17305615988872 149.1336052879096"/><path fill="black" stroke="none" paint-order="stroke fill markers" d=" M 170.51994591167804 148.7792357662449 A 0.5 0.5 0 1 1 170.51994566167807 148.77873576632825"/><path fill="black" stroke="none" paint-order="stroke fill markers" d=" M 170.793064465233 148.21101613020105 A 0.5 0.5 0 1 1 170.79306421523302 148.2105161302844"/><path fill="black" stroke="none" paint-order="stroke fill markers" d=" M 162.33447883686634 138.19481221389123 A 0.5 0.5 0 1 1 162.33447858686637 138.19431221397457"/><path fill="black" stroke="none" paint-order="stroke fill markers" d=" M 159.31880682453547 136.49379045356676 A 0.5 0.5 0 1 1 159.3188065745355 136.4932904536501"/><path fill="black" stroke="none" paint-order="stroke fill markers" d=" M 155.73867965196132 132.8091962310243 A 0.5 0.5 0 1 1 155.73867940196135 132.80869623110763"/><path fill="black" stroke="none" paint-order="stroke fill markers" d=" M 151.7433495322295 131.25320544332362 A 0.5 0.5 0 1 1 151.74334928222953 131.25270544340697"/><path fill="black" stroke="none" paint-order="stroke fill markers" d=" M 135.11398357688586 106.839918237669 A 0.5 0.5 0 1 1 135.1139833268859 106.83941823775233"/><path fill="black" stroke="none" paint-order="stroke fill markers" d=" M 145.76938107014013 107.20661382094761 A 0.5 0.5 0 1 1 145.76938082014016 107.20611382103094"/><path fill="black" stroke="none" paint-order="stroke fill markers" d=" M 154.18880011222282 135.68437934362487 A 0.5 0.5 0 1 1 154.18879986222285 135.6838793437082"/><path fill="black" stroke="none" paint-order="stroke fill markers" d=" M 157.8071639070497 134.11096815808847 A 0.5 0.5 0 1 1 157.80716365704973 134.1104681581718"/><path fill="black" stroke="none" paint-order="stroke fill markers" d=" M 163.3119834627851 132.64367401785591 A 0.5 0.5 0 1 1 163.31198321278512 132.64317401793926"/><path fill="black" stroke="none" paint-order="stroke fill markers" d=" M 164.8623954420011 132.82346759339705 A 0.5 0.5 0 1 1 164.86239519200112 132.8229675934804"/><path fill="black" stroke="none" paint-order="stroke fill markers" d=" M 170.62160492562535 112.22420494371522 A 0.5 0.5 0 1 1 170.62160467562538 112.22370494379855"/><path fill="black" stroke="none" paint-order="stroke fill markers" d=" M 169.20487630735735 130.82684641914403 A 0.5 0.5 0 1 1 169.20487605735738 130.82634641922738"/><path fill="black" stroke="none" paint-order="stroke fill markers" d=" M 174.7010274760936 131.10446386909334 A 0.5 0.5 0 1 1 174.70102722609363 131.10396386917668"/><path fill="black" stroke="none" paint-order="stroke fill markers" d=" M 173.0460710776719 131.4664228670518 A 0.5 0.5 0 1 1 173.04607082767194 131.46592286713513"/><path fill="black" stroke="none" paint-order="stroke fill markers" d=" M 163.6878011542105 131.32434426326685 A 0.5 0.5 0 1 1 163.68780090421052 131.3238442633502"/><path fill="black" stroke="none" paint-order="stroke fill markers" d=" M 159.23298442965404 134.8316423394465 A 0.5 0.5 0 1 1 159.23298417965407 134.83114233952983"/><path fill="black" stroke="none" paint-order="stroke fill markers" d=" M 151.24443001823622 133.20448903702862 A 0.5 0.5 0 1 1 151.24442976823624 133.20398903711197"/><path fill="black" stroke="none" paint-order="stroke fill markers" d=" M 144.82330481382937 133.88203872972906 A 0.5 0.5 0 1 1 144.8233045638294 133.8815387298124"/><path fill="black" stroke="none" paint-order="stroke fill markers" d=" M 135.21980308652567 132.96856254191064 A 0.5 0.5 0 1 1 135.2198028365257 132.968062541994"/><path fill="black" stroke="none" paint-order="stroke fill markers" d=" M 148.2591167518439 139.4781519762704 A 0.5 0.5 0 1 1 148.25911650184392 139.47765197635374"/><path fill="black" stroke="none" paint-order="stroke fill markers" d=" M 155.24313177331106 143.9089609770522 A 0.5 0.5 0 1 1 155.2431315233111 143.90846097713555"/><path fill="black" stroke="none" paint-order="stroke fill markers" d=" M 165.3399735398586 150.83088805308432 A 0.5 0.5 0 1 1 165.33997328985862 150.83038805316767"/><path fill="black" stroke="none" paint-order="stroke fill markers" d=" M 168.18785604920504 154.04980058927595 A 0.5 0.5 0 1 1 168.18785579920507 154.0493005893593"/><path fill="black" stroke="none" paint-order="stroke fill markers" d=" M 168.8035489681562 157.06255437491035 A 0.5 0.5 0 1 1 168.80354871815624 157.0620543749937"/><path fill="black" stroke="none" paint-order="stroke fill markers" d=" M 170.79714368190412 158.4020862938013 A 0.5 0.5 0 1 1 170.79714343190415 158.40158629388463"/><path fill="black" stroke="none" paint-order="stroke fill markers" d=" M 168.69271842118667 159.43946778612545 A 0.5 0.5 0 1 1 168.6927181711867 159.4389677862088"/><path fill="black" stroke="none" paint-order="stroke fill markers" d=" M 169.06277809219515 159.77942500169766 A 0.5 0.5 0 1 1 169.06277784219517 159.778925001781"/><path fill="black" stroke="none" paint-order="stroke fill markers" d=" M 169.53201054678175 161.10825043696227 A 0.5 0.5 0 1 1 169.53201029678178 161.1077504370456"/><path fill="black" stroke="none" paint-order="stroke fill markers" d=" M 169.81599738450285 161.03407868594863 A 0.5 0.5 0 1 1 169.81599713450288 161.03357868603197"/><path fill="black" stroke="none" paint-order="stroke fill markers" d=" M 170.35979364546867 162.1927709050269 A 0.5 0.5 0 1 1 170.3597933954687 162.19227090511023"/><path fill="black" stroke="none" paint-order="stroke fill markers" d=" M 170.69092437849932 160.44835572036007 A 0.5 0.5 0 1 1 170.69092412849935 160.4478557204434"/><path fill="black" stroke="none" paint-order="stroke fill markers" d=" M 170.68750034500547 161.8944622898775 A 0.5 0.5 0 1 1 170.6875000950055 161.89396228996085"/><path fill="black" stroke="none" paint-order="stroke fill markers" d=" M 171.84305986990236 157.85113244719292 A 0.5 0.5 0 1 1 171.8430596199024 157.85063244727627"/><path fill="black" stroke="none" paint-order="stroke fill markers" d=" M 173.2583665178804 154.47611103916887 A 0.5 0.5 0 1 1 173.25836626788043 154.47561103925221"/><path fill="black" stroke="none" paint-order="stroke fill markers" d=" M 174.24105257826503 151.69396782610835 A 0.5 0.5 0 1 1 174.24105232826506 151.6934678261917"/><path fill="black" stroke="none" paint-order="stroke fill markers" d=" M 172.78694736881042 149.6752619377601 A 0.5 0.5 0 1 1 172.78694711881045 149.67476193784344"/><path fill="black" stroke="none" paint-order="stroke fill markers" d=" M 172.59695497458057 148.17620495299704 A 0.5 0.5 0 1 1 172.5969547245806 148.17570495308038"/><path fill="black" stroke="none" paint-order="stroke fill markers" d=" M 167.9751149152766 153.25150943676647 A 0.5 0.5 0 1 1 167.97511466527664 153.2510094368498"/><path fill="black" stroke="none" paint-order="stroke fill markers" d=" M 165.78434116367714 157.34636267693327 A 0.5 0.5 0 1 1 165.78434091367717 157.3458626770166"/><path fill="black" stroke="none" paint-order="stroke fill markers" d=" M 162.89340042231515 160.14107241337817 A 0.5 0.5 0 1 1 162.89340017231518 160.1405724134615"/><path fill="black" stroke="none" paint-order="stroke fill markers" d=" M 159.90473738752468 162.45475246980638 A 0.5 0.5 0 1 1 159.9047371375247 162.45425246988972"/><path fill="black" stroke="none" paint-order="stroke fill markers" d=" M 151.1357669806003 169.91818835935072 A 0.5 0.5 0 1 1 151.13576673060032 169.91768835943407"/><path fill="black" stroke="none" paint-order="stroke fill markers" d=" M 151.06304989959986 170.12559641686647 A 0.5 0.5 0 1 1 151.0630496495999 170.12509641694982"/><path fill="black" stroke="none" paint-order="stroke fill markers" d=" M 152.0927172972513 167.0778189415239 A 0.5 0.5 0 1 1 152.09271704725134 167.07731894160725"/><path fill="black" stroke="none" paint-order="stroke fill markers" d=" M 154.48268277394075 162.15034245035517 A 0.5 0.5 0 1 1 154.48268252394078 162.1498424504385"/><path fill="black" stroke="none" paint-order="stroke fill markers" d=" M 157.41617798241938 159.42606957617411 A 0.5 0.5 0 1 1 157.4161777324194 159.42556957625746"/><path fill="black" stroke="none" paint-order="stroke fill markers" d=" M 161.72291897678065 157.04400788294083 A 0.5 0.5 0 1 1 161.72291872678068 157.04350788302418"/><path fill="black" stroke="none" paint-order="stroke fill markers" d=" M 165.3681034046136 153.8404146105016 A 0.5 0.5 0 1 1 165.36810315461364 153.83991461058494"/><path fill="black" stroke="none" paint-order="stroke fill markers" d=" M 167.49239138089544 151.4672408269911 A 0.5 0.5 0 1 1 167.49239113089547 151.46674082707443"/><path fill="black" stroke="none" paint-order="stroke fill markers" d=" M 171.24551919695816 148.27991460926376 A 0.5 0.5 0 1 1 171.24551894695819 148.2794146093471"/><path fill="black" stroke="none" paint-order="stroke fill markers" d=" M 171.8285633232293 145.6891848889079 A 0.5 0.5 0 1 1 171.82856307322933 145.68868488899125"/><path fill="black" stroke="none" paint-order="stroke fill markers" d=" M 168.0292668569674 135.2156303687813 A 0.5 0.5 0 1 1 168.02926660696744 135.21513036886464"/><path fill="black" stroke="none" paint-order="stroke fill markers" d=" M 165.44166504478528 132.33615376313415 A 0.5 0.5 0 1 1 165.4416647947853 132.3356537632175"/><path fill="black" stroke="none" paint-order="stroke fill markers" d=" M 162.67285578031417 129.97086560040674 A 0.5 0.5 0 1 1 162.6728555303142 129.97036560049008"/><path fill="black" stroke="none" paint-order="stroke fill markers" d=" M 163.9814397725724 126.10137631748356 A 0.5 0.5 0 1 1 163.98143952257243 126.10087631756689"/><path fill="black" stroke="none" paint-order="stroke fill markers" d=" M 167.71277243339404 130.56015462948045 A 0.5 0.5 0 1 1 167.71277218339407 130.5596546295638"/><path fill="black" stroke="none" paint-order="stroke fill markers" d=" M 180.40649543582657 137.0271858802809 A 0.5 0.5 0 1 1 180.4064951858266 137.02668588036425"/><path fill="black" stroke="none" paint-order="stroke fill markers" d=" M 186.3252676033174 141.91162659010214 A 0.5 0.5 0 1 1 186.32526735331743 141.9111265901855"/><path fill="black" stroke="none" paint-order="stroke fill markers" d=" M 195.16922884092105 149.47336113808842 A 0.5 0.5 0 1 1 195.16922859092108 149.47286113817177"/><path fill="black" stroke="none" paint-order="stroke fill markers" d=" M 200.6185243041773 154.94163278579532 A 0.5 0.5 0 1 1 200.61852405417733 154.94113278587866"/><path fill="black" stroke="none" paint-order="stroke fill markers" d=" M 197.38481739749497 155.15895414437816 A 0.5 0.5 0 1 1 197.384817147495 155.1584541444615"/><path fill="black" stroke="none" paint-order="stroke fill markers" d=" M 207.64379441145195 138.6146978258174 A 0.5 0.5 0 1 1 207.64379416145198 138.61419782590073"/><path fill="black" stroke="none" paint-order="stroke fill markers" d=" M 189.5814355755986 150.89893470502216 A 0.5 0.5 0 1 1 189.58143532559862 150.8984347051055"/><path fill="black" stroke="none" paint-order="stroke fill markers" d=" M 188.41709420313978 150.76922714273618 A 0.5 0.5 0 1 1 188.4170939531398 150.76872714281953"/><path fill="black" stroke="none" paint-order="stroke fill markers" d=" M 187.63959476297342 152.4328348549341 A 0.5 0.5 0 1 1 187.63959451297345 152.43233485501744"/><path fill="black" stroke="none" paint-order="stroke fill markers" d=" M 195.5069996986715 148.4270093967019 A 0.5 0.5 0 1 1 195.50699944867154 148.42650939678524"/><path fill="black" stroke="none" paint-order="stroke fill markers" d=" M 186.44609856429352 157.09523953851829 A 0.5 0.5 0 1 1 186.44609831429355 157.09473953860163"/><path fill="black" stroke="none" paint-order="stroke fill markers" d=" M 180.72953127343015 158.7460609583031 A 0.5 0.5 0 1 1 180.72953102343018 158.74556095838645"/><path fill="black" stroke="none" paint-order="stroke fill markers" d=" M 173.52885484929735 160.44224720762605 A 0.5 0.5 0 1 1 173.52885459929738 160.4417472077094"/><path fill="black" stroke="none" paint-order="stroke fill markers" d=" M 171.45274109338138 162.04168206724844 A 0.5 0.5 0 1 1 171.4527408433814 162.0411820673318"/><path fill="black" stroke="none" paint-order="stroke fill markers" d=" M 167.04145588610638 163.5354577830743 A 0.5 0.5 0 1 1 167.0414556361064 163.53495778315764"/><path fill="black" stroke="none" paint-order="stroke fill markers" d=" M 164.00970733719228 164.73883656878527 A 0.5 0.5 0 1 1 164.0097070871923 164.73833656886862"/><path fill="black" stroke="none" paint-order="stroke fill markers" d=" M 151.88001711227147 168.7435125342944 A 0.5 0.5 0 1 1 151.8800168622715 168.74301253437775"/><path fill="black" stroke="none" paint-order="stroke fill markers" d=" M 149.13777185364256 171.98837766025008 A 0.5 0.5 0 1 1 149.1377716036426 171.98787766033342"/><path fill="black" stroke="none" paint-order="stroke fill markers" d=" M 138.1651336757495 187.01871622417207 A 0.5 0.5 0 1 1 138.16513342574953 187.0182162242554"/><path fill="black" stroke="none" paint-order="stroke fill markers" d=" M 141.4714602936402 196.39159873354538 A 0.5 0.5 0 1 1 141.47146004364023 196.39109873362872"/><path fill="black" stroke="none" paint-order="stroke fill markers" d=" M 141.64433788399108 199.2819488709755 A 0.5 0.5 0 1 1 141.6443376339911 199.28144887105884"/><path fill="black" stroke="none" paint-order="stroke fill markers" d=" M 144.547825867984 203.27058732489573 A 0.5 0.5 0 1 1 144.54782561798402 203.27008732497907"/><path fill="black" stroke="none" paint-order="stroke fill markers" d=" M 147.57237585991726 202.50754451817033 A 0.5 0.5 0 1 1 147.5723756099173 202.50704451825368"/><path fill="black" stroke="none" paint-order="stroke fill markers" d=" M 163.8153370155732 197.45642292073273 A 0.5 0.5 0 1 1 163.81533676557322 197.45592292081608"/><path fill="black" stroke="none" paint-order="stroke fill markers" d=" M 171.07171865650173 193.52616602044074 A 0.5 0.5 0 1 1 171.07171840650176 193.52566602052408"/><path fill="black" stroke="none" paint-order="stroke fill markers" d=" M 184.69789656209517 207.2389785944435 A 0.5 0.5 0 1 1 184.6978963120952 207.23847859452684"/><path fill="black" stroke="none" paint-order="stroke fill markers" d=" M 180.09861462874423 185.49198848234622 A 0.5 0.5 0 1 1 180.09861437874426 185.49148848242956"/><path fill="black" stroke="none" paint-order="stroke fill markers" d=" M 177.61326553869083 182.14313617508353 A 0.5 0.5 0 1 1 177.61326528869085 182.14263617516687"/><path fill="black" stroke="none" paint-order="stroke fill markers" d=" M 176.63722249111308 183.4318451732483 A 0.5 0.5 0 1 1 176.6372222411131 183.43134517333164"/><path fill="black" stroke="none" paint-order="stroke fill markers" d=" M 174.17578676186258 181.4290017513461 A 0.5 0.5 0 1 1 174.1757865118626 181.42850175142945"/></g></g></g><g/><g/><g/></g></g></svg>