<svg version="1.1" xmlns="http://www.w3.org/2000/svg" xmlns:xlink="http://www.w3.org/1999/xlink" width="300" height="300" style="width: 300px; height: 300px;"><defs><clipPath id="xfWpKuoMggkS"><path fill="none" stroke="none" d=" M 5 5 L 295 5 L 295 295 L 5 295 L 5 5 Z"/></clipPath><clipPath id="ehWzqxMobfNU"><path fill="none" stroke="none" d=" M 5 5 L 295 5 L 295 295 L 5 295 L 5 5 Z"/></clipPath><clipPath id="RwhqQWywNfQV"><path fill="none" stroke="none" d=" M 5 5 L 295 5 L 295 295 L 5 295 L 5 5 Z"/></clipPath></defs><g><g transform="scale(1,1) translate(0.5,0.5)"><rect fill="#FFFFFF" stroke="none" x="0" y="0" width="300" height="300"/><g clip-path="url(#xfWpKuoMggkS)"><g><g/></g></g><g clip-path="url(#ehWzqxMobfNU)"><g><g/></g></g><g clip-path="url(#RwhqQWywNfQV)"><g><g><path fill="none" stroke="none"/><path fill="black" stroke="none" paint-order="stroke fill markers" d=" M 175.16939789897282 159.71308258766834 A 0.5 0.5 0 1 1 175.16939764897285 159.71258258775168"/><path fill="black" stroke="none" paint-order="stroke fill markers" d=" M 180.30024375363573 179.6690152652379 A 0.5 0.5 0 1 1 180.30024350363576 179.66851526532125"/><path fill="black" stroke="none" paint-order="stroke fill markers" d=" M 177.64186226244342 166.76497430237694 A 0.5 0.5 0 1 1 177.64186201244345 166.7644743024603"/><path fill="black" stroke="none" paint-order="stroke fill markers" d=" M 202.40376439734007 166.3607521198346 A 0.5 0.5 0 1 1 202.4037641473401 166.36025211991793"/><path fill="black" stroke="none" paint-order="stroke fill markers" d=" M 177.91648838616257 167.19113712118838 A 0.5 0.5 0 1 1 177.9164881361626 167.19063712127172"/><path fill="black" stroke="none" paint-order="stroke fill markers" d=" M 177.45697560642785 167.6986396079246 A 0.5 0.5 0 1 1 177.45697535642788 167.69813960800795"/><path fill="black" stroke="none" paint-order="stroke fill markers" d=" M 175.9009949120623 167.6746187416991 A 0.5 0.5 0 1 1 175.90099466206232 167.67411874178245"/><path fill="black" stroke="none" paint-order="stroke fill markers" d=" M 173.88333582316804 169.74381795564864 A 0.5 0.5 0 1 1 173.88333557316807 169.74331795573198"/><path fill="black" stroke="none" paint-order="stroke fill markers" d=" M 172.4703971441316 173.1892327410845 A 0.5 0.5 0 1 1 172.47039689413162 173.18873274116785"/><path fill="black" stroke="none" paint-order="stroke fill markers" d=" M 172.17689137110662 177.36158172481458 A 0.5 0.5 0 1 1 172.17689112110665 177.36108172489793"/><path fill="black" stroke="none" paint-order="stroke fill markers" d=" M 161.92919810557495 160.03971733039654 A 0.5 0.5 0 1 1 161.92919785557498 160.0392173304799"/><path fill="black" stroke="none" paint-order="stroke fill markers" d=" M 176.59073871224007 179.9575805282109 A 0.5 0.5 0 1 1 176.5907384622401 179.95708052829426"/><path fill="black" stroke="none" paint-order="stroke fill markers" d=" M 183.68749809497464 227.74311801466644 A 0.5 0.5 0 1 1 183.68749784497467 227.74261801474978"/><path fill="black" stroke="none" paint-order="stroke fill markers" d=" M 185.72161495396344 228.82492912732616 A 0.5 0.5 0 1 1 185.72161470396347 228.8244291274095"/><path fill="black" stroke="none" paint-order="stroke fill markers" d=" M 188.06087415613678 175.66716646195582 A 0.5 0.5 0 1 1 188.0608739061368 175.66666646203916"/><path fill="black" stroke="none" paint-order="stroke fill markers" d=" M 202.08433982458945 194.5742137818033 A 0.5 0.5 0 1 1 202.08433957458948 194.57371378188665"/><path fill="black" stroke="none" paint-order="stroke fill markers" d=" M 205.93853500440633 195.16463056538672 A 0.5 0.5 0 1 1 205.93853475440636 195.16413056547006"/><path fill="black" stroke="none" paint-order="stroke fill markers" d=" M 190.29045218771216 121.41678724641125 A 0.5 0.5 0 1 1 190.2904519377122 121.41628724649458"/><path fill="black" stroke="none" paint-order="stroke fill markers" d=" M 219.40961911204343 144.88550863036897 A 0.5 0.5 0 1 1 219.40961886204346 144.88500863045232"/><path fill="black" stroke="none" paint-order="stroke fill markers" d=" M 194.43995240551203 150.78811198504454 A 0.5 0.5 0 1 1 194.43995215551206 150.78761198512788"/><path fill="black" stroke="none" paint-order="stroke fill markers" d=" M 199.46369326884232 118.20268034292485 A 0.5 0.5 0 1 1 199.46369301884235 118.20218034300818"/><path fill="black" stroke="none" paint-order="stroke fill markers" d=" M 199.41031447352927 117.82432306428029 A 0.5 0.5 0 1 1 199.4103142235293 117.82382306436362"/><path fill="black" stroke="none" paint-order="stroke fill markers" d=" M 189.61243970334115 119.3468235401981 A 0.5 0.5 0 1 1 189.61243945334118 119.34632354028143"/><path fill="black" stroke="none" paint-order="stroke fill markers" d=" M 189.46767015904413 145.498192319316 A 0.5 0.5 0 1 1 189.46766990904416 145.49769231939933"/><path fill="black" stroke="none" paint-order="stroke fill markers" d=" M 180.2390118976761 113.39779847988464 A 0.5 0.5 0 1 1 180.23901164767614 113.39729847996797"/><path fill="black" stroke="none" paint-order="stroke fill markers" d=" M 189.37730807708726 132.11733878880744 A 0.5 0.5 0 1 1 189.3773078270873 132.1168387888908"/><path fill="black" stroke="none" paint-order="stroke fill markers" d=" M 190.253597033277 134.0351691919052 A 0.5 0.5 0 1 1 190.25359678327703 134.03466919198854"/><path fill="black" stroke="none" paint-order="stroke fill markers" d=" M 192.07662961361984 137.13489543172952 A 0.5 0.5 0 1 1 192.07662936361987 137.13439543181286"/><path fill="black" stroke="none" paint-order="stroke fill markers" d=" M 221.77740126573215 141.37774466934894 A 0.5 0.5 0 1 1 221.77740101573218 141.3772446694323"/><path fill="black" stroke="none" paint-order="stroke fill markers" d=" M 191.85345037634963 141.3590971056908 A 0.5 0.5 0 1 1 191.85345012634966 141.35859710577415"/><path fill="black" stroke="none" paint-order="stroke fill markers" d=" M 193.14149308735136 143.32877362556954 A 0.5 0.5 0 1 1 193.1414928373514 143.32827362565288"/><path fill="black" stroke="none" paint-order="stroke fill markers" d=" M 194.4708846034857 145.05640124579668 A 0.5 0.5 0 1 1 194.47088435348573 145.05590124588002"/><path fill="black" stroke="none" paint-order="stroke fill markers" d=" M 197.71610348920495 145.2779961976625 A 0.5 0.5 0 1 1 197.71610323920498 145.27749619774585"/><path fill="black" stroke="none" paint-order="stroke fill markers" d=" M 182.16732493888765 130.80929844185837 A 0.5 0.5 0 1 1 182.16732468888767 130.80879844194172"/><path fill="black" stroke="none" paint-order="stroke fill markers" d=" M 231.05555555555554 145.123162521186 A 0.5 0.5 0 1 1 231.05555530555557 145.12266252126935"/><path fill="black" stroke="none" paint-order="stroke fill markers" d=" M 229.30610695655338 140.0111322513271 A 0.5 0.5 0 1 1 229.3061067065534 140.01063225141044"/><path fill="black" stroke="none" paint-order="stroke fill markers" d=" M 202.5236023013217 144.2992357498207 A 0.5 0.5 0 1 1 202.52360205132172 144.29873574990404"/><path fill="black" stroke="none" paint-order="stroke fill markers" d=" M 213.17614236398188 151.89438816483016 A 0.5 0.5 0 1 1 213.1761421139819 151.8938881649135"/><path fill="black" stroke="none" paint-order="stroke fill markers" d=" M 195.27397397496068 144.18982461454468 A 0.5 0.5 0 1 1 195.2739737249607 144.18932461462802"/><path fill="black" stroke="none" paint-order="stroke fill markers" d=" M 191.79706859518896 144.21979954766684 A 0.5 0.5 0 1 1 191.797068345189 144.21929954775018"/><path fill="black" stroke="none" paint-order="stroke fill markers" d=" M 186.390123998747 144.41431056982873 A 0.5 0.5 0 1 1 186.39012374874702 144.41381056991207"/><path fill="black" stroke="none" paint-order="stroke fill markers" d=" M 180.168809884772 134.59385461646067 A 0.5 0.5 0 1 1 180.16880963477203 134.59335461654402"/><path fill="black" stroke="none" paint-order="stroke fill markers" d=" M 176.32653100035884 147.66385231421174 A 0.5 0.5 0 1 1 176.32653075035887 147.66335231429508"/><path fill="black" stroke="none" paint-order="stroke fill markers" d=" M 171.81242787584839 146.74420690443299 A 0.5 0.5 0 1 1 171.81242762584841 146.74370690451633"/><path fill="black" stroke="none" paint-order="stroke fill markers" d=" M 166.02348174448647 152.94328995617784 A 0.5 0.5 0 1 1 166.0234814944865 152.94278995626118"/><path fill="black" stroke="none" paint-order="stroke fill markers" d=" M 165.52636718077864 156.24436031969492 A 0.5 0.5 0 1 1 165.52636693077866 156.24386031977826"/><path fill="black" stroke="none" paint-order="stroke fill markers" d=" M 165.71632182658183 161.69678717904472 A 0.5 0.5 0 1 1 165.71632157658186 161.69628717912806"/><path fill="black" stroke="none" paint-order="stroke fill markers" d=" M 139.8599699721329 171.01949654969118 A 0.5 0.5 0 1 1 139.85996972213292 171.01899654977453"/><path fill="black" stroke="none" paint-order="stroke fill markers" d=" M 167.79957479335897 176.3043112739586 A 0.5 0.5 0 1 1 167.799574543359 176.30381127404195"/><path fill="black" stroke="none" paint-order="stroke fill markers" d=" M 181.03777635593966 217.32785947171075 A 0.5 0.5 0 1 1 181.03777610593968 217.3273594717941"/><path fill="black" stroke="none" paint-order="stroke fill markers" d=" M 174.95532597425066 191.82273315973623 A 0.5 0.5 0 1 1 174.95532572425068 191.82223315981958"/><path fill="black" stroke="none" paint-order="stroke fill markers" d=" M 175.616376280748 192.95617740938894 A 0.5 0.5 0 1 1 175.61637603074803 192.9556774094723"/><path fill="black" stroke="none" paint-order="stroke fill markers" d=" M 154.51704670530398 191.23746470238555 A 0.5 0.5 0 1 1 154.517046455304 191.2369647024689"/><path fill="black" stroke="none" paint-order="stroke fill markers" d=" M 172.4615442913218 192.5416898188118 A 0.5 0.5 0 1 1 172.46154404132182 192.54118981889513"/><path fill="black" stroke="none" paint-order="stroke fill markers" d=" M 169.99218081753426 188.48445903986138 A 0.5 0.5 0 1 1 169.9921805675343 188.48395903994472"/><path fill="black" stroke="none" paint-order="stroke fill markers" d=" M 163.32529845283378 174.8986874007613 A 0.5 0.5 0 1 1 163.3252982028338 174.89818740084465"/><path fill="black" stroke="none" paint-order="stroke fill markers" d=" M 160.83642662469555 171.23005204921373 A 0.5 0.5 0 1 1 160.83642637469558 171.22955204929707"/><path fill="black" stroke="none" paint-order="stroke fill markers" d=" M 109.65347492994081 164.53915873332824 A 0.5 0.5 0 1 1 109.65347467994083 164.53865873341158"/><path fill="black" stroke="none" paint-order="stroke fill markers" d=" M 160.90081621772663 166.9154766092341 A 0.5 0.5 0 1 1 160.90081596772666 166.91497660931745"/><path fill="black" stroke="none" paint-order="stroke fill markers" d=" M 162.6329502752814 166.3369676923976 A 0.5 0.5 0 1 1 162.63295002528142 166.33646769248094"/><path fill="black" stroke="none" paint-order="stroke fill markers" d=" M 163.70986539534127 168.75720289210776 A 0.5 0.5 0 1 1 163.7098651453413 168.7567028921911"/><path fill="black" stroke="none" paint-order="stroke fill markers" d=" M 164.64345584222445 169.4332362357664 A 0.5 0.5 0 1 1 164.64345559222448 169.43273623584975"/><path fill="black" stroke="none" paint-order="stroke fill markers" d=" M 168.65696244409494 171.74670617555068 A 0.5 0.5 0 1 1 168.65696219409497 171.74620617563403"/><path fill="black" stroke="none" paint-order="stroke fill markers" d=" M 175.53212123251012 176.23308794054222 A 0.5 0.5 0 1 1 175.53212098251015 176.23258794062556"/><path fill="black" stroke="none" paint-order="stroke fill markers" d=" M 176.83259457242917 178.9468008042204 A 0.5 0.5 0 1 1 176.8325943224292 178.94630080430375"/><path fill="black" stroke="none" paint-order="stroke fill markers" d=" M 178.30080380153515 178.0851634634833 A 0.5 0.5 0 1 1 178.30080355153518 178.08466346356664"/><path fill="black" stroke="none" paint-order="stroke fill markers" d=" M 179.17781372698335 179.68777326286016 A 0.5 0.5 0 1 1 179.17781347698337 179.6872732629435"/><path fill="black" stroke="none" paint-order="stroke fill markers" d=" M 194.03482362729054 203.79069586780042 A 0.5 0.5 0 1 1 194.03482337729056 203.79019586788377"/><path fill="black" stroke="none" paint-order="stroke fill markers" d=" M 179.6793583828503 184.86971086139616 A 0.5 0.5 0 1 1 179.67935813285033 184.8692108614795"/><path fill="black" stroke="none" paint-order="stroke fill markers" d=" M 180.112365842186 186.56305925328 A 0.5 0.5 0 1 1 180.11236559218602 186.56255925336333"/><path fill="black" stroke="none" paint-order="stroke fill markers" d=" M 181.68959933873575 187.63702823979614 A 0.5 0.5 0 1 1 181.68959908873578 187.63652823987948"/><path fill="black" stroke="none" paint-order="stroke fill markers" d=" M 183.5761981273182 188.3643752507658 A 0.5 0.5 0 1 1 183.57619787731824 188.36387525084913"/><path fill="black" stroke="none" paint-order="stroke fill markers" d=" M 184.7057250541183 186.81095852365058 A 0.5 0.5 0 1 1 184.70572480411832 186.81045852373393"/><path fill="black" stroke="none" paint-order="stroke fill markers" d=" M 185.55872101852 185.52205217567786 A 0.5 0.5 0 1 1 185.55872076852003 185.5215521757612"/><path fill="black" stroke="none" paint-order="stroke fill markers" d=" M 199.56786294978963 187.9892678859229 A 0.5 0.5 0 1 1 199.56786269978966 187.98876788600626"/><path fill="black" stroke="none" paint-order="stroke fill markers" d=" M 185.01961828574937 196.2159408689046 A 0.5 0.5 0 1 1 185.0196180357494 196.21544086898794"/><path fill="black" stroke="none" paint-order="stroke fill markers" d=" M 182.2984709614517 201.63431758465217 A 0.5 0.5 0 1 1 182.29847071145173 201.6338175847355"/><path fill="black" stroke="none" paint-order="stroke fill markers" d=" M 175.13228377310188 208.9380492299017 A 0.5 0.5 0 1 1 175.1322835231019 208.93754922998505"/><path fill="black" stroke="none" paint-order="stroke fill markers" d=" M 202.85551525271748 210.69362321650507 A 0.5 0.5 0 1 1 202.8555150027175 210.69312321658842"/><path fill="black" stroke="none" paint-order="stroke fill markers" d=" M 154.2985163211248 263.815688760314 A 0.5 0.5 0 1 1 154.29851607112482 263.81518876039735"/><path fill="black" stroke="none" paint-order="stroke fill markers" d=" M 184.94579428210238 226.6983075387519 A 0.5 0.5 0 1 1 184.9457940321024 226.69780753883524"/><path fill="black" stroke="none" paint-order="stroke fill markers" d=" M 173.17298394237702 217.20915873654695 A 0.5 0.5 0 1 1 173.17298369237704 217.2086587366303"/><path fill="black" stroke="none" paint-order="stroke fill markers" d=" M 149.3024294563738 255.89116836196402 A 0.5 0.5 0 1 1 149.30242920637383 255.89066836204736"/><path fill="black" stroke="none" paint-order="stroke fill markers" d=" M 175.121667748914 239.9423005204468 A 0.5 0.5 0 1 1 175.12166749891404 239.94180052053014"/><path fill="black" stroke="none" paint-order="stroke fill markers" d=" M 188.52934175304452 212.79837888018073 A 0.5 0.5 0 1 1 188.52934150304455 212.79787888026408"/><path fill="black" stroke="none" paint-order="stroke fill markers" d=" M 176.588612800384 204.09919314660962 A 0.5 0.5 0 1 1 176.58861255038403 204.09869314669297"/><path fill="black" stroke="none" paint-order="stroke fill markers" d=" M 184.24853850560805 243.23818640375475 A 0.5 0.5 0 1 1 184.24853825560808 243.2376864038381"/><path fill="black" stroke="none" paint-order="stroke fill markers" d=" M 182.95533621735973 197.87521380940274 A 0.5 0.5 0 1 1 182.95533596735976 197.87471380948608"/><path fill="black" stroke="none" paint-order="stroke fill markers" d=" M 186.49297987338596 195.33406781892995 A 0.5 0.5 0 1 1 186.492979623386 195.3335678190133"/><path fill="black" stroke="none" paint-order="stroke fill markers" d=" M 188.55900887104272 191.93432405111383 A 0.5 0.5 0 1 1 188.55900862104275 191.93382405119718"/><path fill="black" stroke="none" paint-order="stroke fill markers" d=" M 189.80368334111648 188.22361927533632 A 0.5 0.5 0 1 1 189.8036830911165 188.22311927541966"/><path fill="black" stroke="none" paint-order="stroke fill markers" d=" M 191.51034300114807 186.41448350143776 A 0.5 0.5 0 1 1 191.5103427511481 186.4139835015211"/><path fill="black" stroke="none" paint-order="stroke fill markers" d=" M 216.61944462086737 176.24232232344792 A 0.5 0.5 0 1 1 216.6194443708674 176.24182232353127"/><path fill="black" stroke="none" paint-order="stroke fill markers" d=" M 209.3140823931049 191.80348609741566 A 0.5 0.5 0 1 1 209.31408214310494 191.802986097499"/><path fill="black" stroke="none" paint-order="stroke fill markers" d=" M 197.6598660823639 170.92169774294737 A 0.5 0.5 0 1 1 197.65986583236392 170.92119774303072"/><path fill="black" stroke="none" paint-order="stroke fill markers" d=" M 196.99960261590834 166.25207609144536 A 0.5 0.5 0 1 1 196.99960236590837 166.2515760915287"/><path fill="black" stroke="none" paint-order="stroke fill markers" d=" M 196.76784934873305 162.71179461756103 A 0.5 0.5 0 1 1 196.76784909873308 162.71129461764437"/><path fill="black" stroke="none" paint-order="stroke fill markers" d=" M 215.31200882938577 148.25117168803916 A 0.5 0.5 0 1 1 215.3120085793858 148.2506716881225"/><path fill="black" stroke="none" paint-order="stroke fill markers" d=" M 190.07575313703927 158.84762738702833 A 0.5 0.5 0 1 1 190.0757528870393 158.84712738711167"/><path fill="black" stroke="none" paint-order="stroke fill markers" d=" M 186.5225729995454 161.89482419991862 A 0.5 0.5 0 1 1 186.52257274954542 161.89432420000196"/><path fill="black" stroke="none" paint-order="stroke fill markers" d=" M 184.63584427407528 162.3149695591226 A 0.5 0.5 0 1 1 184.6358440240753 162.31446955920595"/><path fill="black" stroke="none" paint-order="stroke fill markers" d=" M 180.2177293182885 163.64284611387052 A 0.5 0.5 0 1 1 180.21772906828852 163.64234611395386"/><path fill="black" stroke="none" paint-order="stroke fill markers" d=" M 176.89864943300284 167.13860851593563 A 0.5 0.5 0 1 1 176.89864918300287 167.13810851601897"/><path fill="black" stroke="none" paint-order="stroke fill markers" d=" M 176.2962990178352 171.38275855719058 A 0.5 0.5 0 1 1 176.29629876783522 171.38225855727393"/><path fill="black" stroke="none" paint-order="stroke fill markers" d=" M 171.3271343543311 168.29130500450097 A 0.5 0.5 0 1 1 171.32713410433112 168.2908050045843"/><path fill="black" stroke="none" paint-order="stroke fill markers" d=" M 170.85856569539965 166.27652317402223 A 0.5 0.5 0 1 1 170.85856544539968 166.27602317410557"/><path fill="black" stroke="none" paint-order="stroke fill markers" d=" M 171.12694988564496 163.14599762878876 A 0.5 0.5 0 1 1 171.126949635645 163.1454976288721"/><path fill="black" stroke="none" paint-order="stroke fill markers" d=" M 169.69172545128455 161.47803688777287 A 0.5 0.5 0 1 1 169.69172520128458 161.47753688785622"/><path fill="black" stroke="none" paint-order="stroke fill markers" d=" M 168.89934820315395 156.7444118827453 A 0.5 0.5 0 1 1 168.89934795315398 156.74391188282866"/><path fill="black" stroke="none" paint-order="stroke fill markers" d=" M 167.7193115822655 155.212467988204 A 0.5 0.5 0 1 1 167.71931133226553 155.21196798828734"/><path fill="black" stroke="none" paint-order="stroke fill markers" d=" M 166.33360333800863 153.08530934874463 A 0.5 0.5 0 1 1 166.33360308800866 153.08480934882797"/><path fill="black" stroke="none" paint-order="stroke fill markers" d=" M 166.1241653495777 150.34378224504016 A 0.5 0.5 0 1 1 166.12416509957774 150.3432822451235"/><path fill="black" stroke="none" paint-order="stroke fill markers" d=" M 165.95144612132728 148.9076122058943 A 0.5 0.5 0 1 1 165.9514458713273 148.90711220597765"/><path fill="black" stroke="none" paint-order="stroke fill markers" d=" M 161.67410131559978 133.34410762629392 A 0.5 0.5 0 1 1 161.6741010655998 133.34360762637726"/><path fill="black" stroke="none" paint-order="stroke fill markers" d=" M 139.060076687158 120.31322064281707 A 0.5 0.5 0 1 1 139.06007643715802 120.3127206429004"/><path fill="black" stroke="none" paint-order="stroke fill markers" d=" M 164.4361607127133 146.14521308296847 A 0.5 0.5 0 1 1 164.43616046271333 146.1447130830518"/><path fill="black" stroke="none" paint-order="stroke fill markers" d=" M 165.9885557355007 145.77584434019042 A 0.5 0.5 0 1 1 165.98855548550074 145.77534434027376"/><path fill="black" stroke="none" paint-order="stroke fill markers" d=" M 165.5149052133119 144.84765738916192 A 0.5 0.5 0 1 1 165.51490496331192 144.84715738924527"/><path fill="black" stroke="none" paint-order="stroke fill markers" d=" M 165.66853618264392 146.12126600372198 A 0.5 0.5 0 1 1 165.66853593264395 146.12076600380533"/><path fill="black" stroke="none" paint-order="stroke fill markers" d=" M 166.34776259562014 145.9272387874982 A 0.5 0.5 0 1 1 166.34776234562017 145.92673878758154"/><path fill="black" stroke="none" paint-order="stroke fill markers" d=" M 169.6177771503718 148.28271767577016 A 0.5 0.5 0 1 1 169.61777690037184 148.2822176758535"/><path fill="black" stroke="none" paint-order="stroke fill markers" d=" M 170.42842406630794 148.84161608011362 A 0.5 0.5 0 1 1 170.42842381630797 148.84111608019697"/><path fill="black" stroke="none" paint-order="stroke fill markers" d=" M 159.32391162392372 135.93231689114864 A 0.5 0.5 0 1 1 159.32391137392375 135.931816891232"/><path fill="black" stroke="none" paint-order="stroke fill markers" d=" M 176.3066578752663 149.9261367689648 A 0.5 0.5 0 1 1 176.30665762526633 149.92563676904814"/><path fill="black" stroke="none" paint-order="stroke fill markers" d=" M 177.02205608969697 149.7084569640655 A 0.5 0.5 0 1 1 177.022055839697 149.70795696414885"/><path fill="black" stroke="none" paint-order="stroke fill markers" d=" M 208.9094300501381 146.86601293749302 A 0.5 0.5 0 1 1 208.90942980013813 146.86551293757637"/><path fill="black" stroke="none" paint-order="stroke fill markers" d=" M 179.76044170775455 151.69541639933124 A 0.5 0.5 0 1 1 179.76044145775458 151.69491639941458"/><path fill="black" stroke="none" paint-order="stroke fill markers" d=" M 181.3055663556259 154.5073845958728 A 0.5 0.5 0 1 1 181.30556610562593 154.50688459595614"/><path fill="black" stroke="none" paint-order="stroke fill markers" d=" M 183.12599388183952 159.35682524875114 A 0.5 0.5 0 1 1 183.12599363183955 159.35632524883448"/><path fill="black" stroke="none" paint-order="stroke fill markers" d=" M 182.2914850490622 160.4785148546738 A 0.5 0.5 0 1 1 182.29148479906223 160.47801485475713"/><path fill="black" stroke="none" paint-order="stroke fill markers" d=" M 182.3833666707328 161.5207606989748 A 0.5 0.5 0 1 1 182.38336642073284 161.52026069905816"/><path fill="black" stroke="none" paint-order="stroke fill markers" d=" M 195.81055196181737 159.33937142365772 A 0.5 0.5 0 1 1 195.8105517118174 159.33887142374107"/><path fill="black" stroke="none" paint-order="stroke fill markers" d=" M 197.50498853101607 168.38282172918082 A 0.5 0.5 0 1 1 197.5049882810161 168.38232172926416"/><path fill="black" stroke="none" paint-order="stroke fill markers" d=" M 185.62357396288303 158.8283441707314 A 0.5 0.5 0 1 1 185.62357371288306 158.82784417081476"/><path fill="black" stroke="none" paint-order="stroke fill markers" d=" M 189.1250771173561 157.21273274411283 A 0.5 0.5 0 1 1 189.12507686735614 157.21223274419617"/><path fill="black" stroke="none" paint-order="stroke fill markers" d=" M 190.11601191605894 157.87461344939163 A 0.5 0.5 0 1 1 190.11601166605897 157.87411344947498"/><path fill="black" stroke="none" paint-order="stroke fill markers" d=" M 213.91917923722045 157.44716498696425 A 0.5 0.5 0 1 1 213.91917898722048 157.4466649870476"/><path fill="black" stroke="none" paint-order="stroke fill markers" d=" M 191.72478759208266 162.9837415409669 A 0.5 0.5 0 1 1 191.7247873420827 162.98324154105023"/><path fill="black" stroke="none" paint-order="stroke fill markers" d=" M 210.56912835336271 155.0619892225155 A 0.5 0.5 0 1 1 210.56912810336274 155.06148922259885"/><path fill="black" stroke="none" paint-order="stroke fill markers" d=" M 192.29533866101954 156.30877684538146 A 0.5 0.5 0 1 1 192.29533841101957 156.3082768454648"/><path fill="black" stroke="none" paint-order="stroke fill markers" d=" M 193.87730943993108 155.43278637603203 A 0.5 0.5 0 1 1 193.8773091899311 155.43228637611537"/><path fill="black" stroke="none" paint-order="stroke fill markers" d=" M 194.37417907486156 152.4891946984879 A 0.5 0.5 0 1 1 194.3741788248616 152.48869469857124"/><path fill="black" stroke="none" paint-order="stroke fill markers" d=" M 196.17011079073703 151.4230560059049 A 0.5 0.5 0 1 1 196.17011054073706 151.42255600598824"/><path fill="black" stroke="none" paint-order="stroke fill markers" d=" M 194.1992172509788 151.20909940322503 A 0.5 0.5 0 1 1 194.19921700097882 151.20859940330837"/><path fill="black" stroke="none" paint-order="stroke fill markers" d=" M 188.81600959735758 150.9570969852108 A 0.5 0.5 0 1 1 188.8160093473576 150.95659698529414"/><path fill="black" stroke="none" paint-order="stroke fill markers" d=" M 183.9093021668507 152.7777573320808 A 0.5 0.5 0 1 1 183.90930191685072 152.77725733216414"/><path fill="black" stroke="none" paint-order="stroke fill markers" d=" M 179.11223530166436 155.87193755193252 A 0.5 0.5 0 1 1 179.11223505166438 155.87143755201586"/><path fill="black" stroke="none" paint-order="stroke fill markers" d=" M 172.6776830246629 160.17956091093188 A 0.5 0.5 0 1 1 172.67768277466294 160.17906091101523"/><path fill="black" stroke="none" paint-order="stroke fill markers" d=" M 169.1077455403613 164.97646383789524 A 0.5 0.5 0 1 1 169.10774529036132 164.97596383797858"/><path fill="black" stroke="none" paint-order="stroke fill markers" d=" M 136.28549101314044 170.13736549179436 A 0.5 0.5 0 1 1 136.28549076314047 170.1368654918777"/><path fill="black" stroke="none" paint-order="stroke fill markers" d=" M 182.5977318557916 181.52743351032143 A 0.5 0.5 0 1 1 182.59773160579164 181.52693351040477"/><path fill="black" stroke="none" paint-order="stroke fill markers" d=" M 166.87099861886517 180.09655378393364 A 0.5 0.5 0 1 1 166.8709983688652 180.096053784017"/><path fill="black" stroke="none" paint-order="stroke fill markers" d=" M 141.58005824856602 227.94220941695983 A 0.5 0.5 0 1 1 141.58005799856605 227.94170941704317"/><path fill="black" stroke="none" paint-order="stroke fill markers" d=" M 171.60722369253776 187.72234110647 A 0.5 0.5 0 1 1 171.6072234425378 187.72184110655334"/><path fill="black" stroke="none" paint-order="stroke fill markers" d=" M 176.86730215886033 186.26745251040336 A 0.5 0.5 0 1 1 176.86730190886036 186.2669525104867"/><path fill="black" stroke="none" paint-order="stroke fill markers" d=" M 184.0973677649159 186.92592948314476 A 0.5 0.5 0 1 1 184.09736751491593 186.9254294832281"/><path fill="black" stroke="none" paint-order="stroke fill markers" d=" M 187.64429649437122 166.94903686645677 A 0.5 0.5 0 1 1 187.64429624437125 166.9485368665401"/><path fill="black" stroke="none" paint-order="stroke fill markers" d=" M 186.4844383277028 162.7045046612381 A 0.5 0.5 0 1 1 186.48443807770283 162.70400466132145"/><path fill="black" stroke="none" paint-order="stroke fill markers" d=" M 184.39519393945483 161.84337249015243 A 0.5 0.5 0 1 1 184.39519368945486 161.84287249023578"/><path fill="black" stroke="none" paint-order="stroke fill markers" d=" M 183.4344658577697 163.24464605397685 A 0.5 0.5 0 1 1 183.43446560776974 163.2441460540602"/><path fill="black" stroke="none" paint-order="stroke fill markers" d=" M 191.07057521429724 176.11737483851527 A 0.5 0.5 0 1 1 191.07057496429726 176.11687483859862"/><path fill="black" stroke="none" paint-order="stroke fill markers" d=" M 181.65128961303066 174.84777274188022 A 0.5 0.5 0 1 1 181.65128936303068 174.84727274196356"/><path fill="black" stroke="none" paint-order="stroke fill markers" d=" M 182.04286344732097 178.6668664814205 A 0.5 0.5 0 1 1 182.042863197321 178.66636648150384"/><path fill="black" stroke="none" paint-order="stroke fill markers" d=" M 181.72435835851826 183.20127584594502 A 0.5 0.5 0 1 1 181.7243581085183 183.20077584602836"/><path fill="black" stroke="none" paint-order="stroke fill markers" d=" M 183.48164558073506 183.85919933417568 A 0.5 0.5 0 1 1 183.4816453307351 183.85869933425903"/><path fill="black" stroke="none" paint-order="stroke fill markers" d=" M 184.4534688288812 179.66821987775813 A 0.5 0.5 0 1 1 184.45346857888123 179.66771987784148"/><path fill="black" stroke="none" paint-order="stroke fill markers" d=" M 185.46080815964822 175.16757766980274 A 0.5 0.5 0 1 1 185.46080790964825 175.16707766988608"/><path fill="black" stroke="none" paint-order="stroke fill markers" d=" M 185.68130022989496 170.42930359208864 A 0.5 0.5 0 1 1 185.681299979895 170.428803592172"/><path fill="black" stroke="none" paint-order="stroke fill markers" d=" M 185.9711659653871 167.6641288297964 A 0.5 0.5 0 1 1 185.97116571538712 167.66362882987974"/><path fill="black" stroke="none" paint-order="stroke fill markers" d=" M 184.96328342624255 164.6178996287823 A 0.5 0.5 0 1 1 184.96328317624258 164.61739962886566"/><path fill="black" stroke="none" paint-order="stroke fill markers" d=" M 185.171337648856 162.61895252097528 A 0.5 0.5 0 1 1 185.17133739885602 162.61845252105863"/><path fill="black" stroke="none" paint-order="stroke fill markers" d=" M 185.06474789337642 169.77401507138913 A 0.5 0.5 0 1 1 185.06474764337645 169.77351507147247"/><path fill="black" stroke="none" paint-order="stroke fill markers" d=" M 190.61204778929374 154.86718633916269 A 0.5 0.5 0 1 1 190.61204753929377 154.86668633924603"/><path fill="black" stroke="none" paint-order="stroke fill markers" d=" M 182.49604902249936 179.09564475283264 A 0.5 0.5 0 1 1 182.4960487724994 179.09514475291599"/><path fill="black" stroke="none" paint-order="stroke fill markers" d=" M 179.61547996514454 179.77734966936362 A 0.5 0.5 0 1 1 179.61547971514457 179.77684966944696"/><path fill="black" stroke="none" paint-order="stroke fill markers" d=" M 178.37752972900606 178.48806600534675 A 0.5 0.5 0 1 1 178.37752947900609 178.4875660054301"/><path fill="black" stroke="none" paint-order="stroke fill markers" d=" M 179.40959225966458 173.53036194160535 A 0.5 0.5 0 1 1 179.4095920096646 173.5298619416887"/><path fill="black" stroke="none" paint-order="stroke fill markers" d=" M 175.21077377429035 173.38739860158324 A 0.5 0.5 0 1 1 175.21077352429037 173.3868986016666"/><path fill="black" stroke="none" paint-order="stroke fill markers" d=" M 174.8551175636973 168.1861733496714 A 0.5 0.5 0 1 1 174.85511731369732 168.18567334975475"/><path fill="black" stroke="none" paint-order="stroke fill markers" d=" M 173.01433731894824 162.20779569763783 A 0.5 0.5 0 1 1 173.01433706894827 162.20729569772118"/><path fill="black" stroke="none" paint-order="stroke fill markers" d=" M 172.11583231316075 158.46730136003507 A 0.5 0.5 0 1 1 172.11583206316078 158.4668013601184"/><path fill="black" stroke="none" paint-order="stroke fill markers" d=" M 169.95339758917788 155.26219285259054 A 0.5 0.5 0 1 1 169.9533973391779 155.2616928526739"/><path fill="black" stroke="none" paint-order="stroke fill markers" d=" M 168.40195295546616 150.056067586529 A 0.5 0.5 0 1 1 168.4019527054662 150.05556758661234"/><path fill="black" stroke="none" paint-order="stroke fill markers" d=" M 164.7764294406482 145.77086955304418 A 0.5 0.5 0 1 1 164.77642919064823 145.77036955312752"/><path fill="black" stroke="none" paint-order="stroke fill markers" d=" M 161.80608425804775 140.40381439274793 A 0.5 0.5 0 1 1 161.80608400804778 140.40331439283128"/><path fill="black" stroke="none" paint-order="stroke fill markers" d=" M 159.69690854380963 137.33945594462764 A 0.5 0.5 0 1 1 159.69690829380966 137.338955944711"/><path fill="black" stroke="none" paint-order="stroke fill markers" d=" M 155.1476078625209 134.83171359892538 A 0.5 0.5 0 1 1 155.14760761252094 134.83121359900872"/><path fill="black" stroke="none" paint-order="stroke fill markers" d=" M 130.8037496910732 101.66666666666667 A 0.5 0.5 0 1 1 130.80374944107322 101.66616666675"/><path fill="black" stroke="none" paint-order="stroke fill markers" d=" M 133.21405730059925 107.83384087622696 A 0.5 0.5 0 1 1 133.21405705059928 107.83334087631029"/><path fill="black" stroke="none" paint-order="stroke fill markers" d=" M 90.97365772923665 122.83241393884802 A 0.5 0.5 0 1 1 90.97365747923666 122.83191393893135"/><path fill="black" stroke="none" paint-order="stroke fill markers" d=" M 146.0729979025025 128.52521379670918 A 0.5 0.5 0 1 1 146.07299765250252 128.52471379679253"/><path fill="black" stroke="none" paint-order="stroke fill markers" d=" M 146.88137859279072 129.79994778595136 A 0.5 0.5 0 1 1 146.88137834279075 129.7994477860347"/><path fill="black" stroke="none" paint-order="stroke fill markers" d=" M 147.0071069690119 132.48772904575372 A 0.5 0.5 0 1 1 147.00710671901192 132.48722904583707"/><path fill="black" stroke="none" paint-order="stroke fill markers" d=" M 148.66728170749118 134.55135331654955 A 0.5 0.5 0 1 1 148.6672814574912 134.5508533166329"/><path fill="black" stroke="none" paint-order="stroke fill markers" d=" M 148.91402463839864 139.45308313675542 A 0.5 0.5 0 1 1 148.91402438839867 139.45258313683877"/><path fill="black" stroke="none" paint-order="stroke fill markers" d=" M 149.91270511934783 145.60469273082305 A 0.5 0.5 0 1 1 149.91270486934786 145.6041927309064"/><path fill="black" stroke="none" paint-order="stroke fill markers" d=" M 149.39609410089145 147.81275936794634 A 0.5 0.5 0 1 1 149.39609385089148 147.8122593680297"/><path fill="black" stroke="none" paint-order="stroke fill markers" d=" M 147.89173173747935 148.0860492472375 A 0.5 0.5 0 1 1 147.89173148747938 148.08554924732084"/><path fill="black" stroke="none" paint-order="stroke fill markers" d=" M 148.49277285803615 148.3697422688881 A 0.5 0.5 0 1 1 148.49277260803618 148.36924226897145"/><path fill="black" stroke="none" paint-order="stroke fill markers" d=" M 116.71948980131717 193.04548956319252 A 0.5 0.5 0 1 1 116.71948955131718 193.04498956327586"/><path fill="black" stroke="none" paint-order="stroke fill markers" d=" M 148.6764187972427 147.23364234533597 A 0.5 0.5 0 1 1 148.67641854724272 147.2331423454193"/><path fill="black" stroke="none" paint-order="stroke fill markers" d=" M 150.09255581862797 117.57696150213982 A 0.5 0.5 0 1 1 150.092555568628 117.57646150222315"/><path fill="black" stroke="none" paint-order="stroke fill markers" d=" M 143.18616299967718 137.29872684690287 A 0.5 0.5 0 1 1 143.1861627496772 137.2982268469862"/><path fill="black" stroke="none" paint-order="stroke fill markers" d=" M 139.8761669661127 130.7396277573901 A 0.5 0.5 0 1 1 139.87616671611272 130.73912775747345"/><path fill="black" stroke="none" paint-order="stroke fill markers" d=" M 138.21625751544565 132.50588754471352 A 0.5 0.5 0 1 1 138.21625726544568 132.50538754479686"/><path fill="black" stroke="none" paint-order="stroke fill markers" d=" M 76.950543973188 106.95505471848787 A 0.5 0.5 0 1 1 76.95054372318802 106.9545547185712"/><path fill="black" stroke="none" paint-order="stroke fill markers" d=" M 136.42856054982423 138.19886620042138 A 0.5 0.5 0 1 1 136.42856029982426 138.19836620050472"/><path fill="black" stroke="none" paint-order="stroke fill markers" d=" M 136.64682564619113 145.52584156574108 A 0.5 0.5 0 1 1 136.64682539619116 145.52534156582442"/><path fill="black" stroke="none" paint-order="stroke fill markers" d=" M 138.21705337888244 156.83756095945753 A 0.5 0.5 0 1 1 138.21705312888247 156.83706095954088"/><path fill="black" stroke="none" paint-order="stroke fill markers" d=" M 139.25528881404324 165.27323687518177 A 0.5 0.5 0 1 1 139.25528856404327 165.2727368752651"/><path fill="black" stroke="none" paint-order="stroke fill markers" d=" M 141.90231616733877 175.47764928994587 A 0.5 0.5 0 1 1 141.9023159173388 175.47714929002922"/><path fill="black" stroke="none" paint-order="stroke fill markers" d=" M 145.62248325223666 183.45084082860797 A 0.5 0.5 0 1 1 145.6224830022367 183.4503408286913"/><path fill="black" stroke="none" paint-order="stroke fill markers" d=" M 130.2790356639294 173.7177769242266 A 0.5 0.5 0 1 1 130.27903541392942 173.71727692430994"/><path fill="black" stroke="none" paint-order="stroke fill markers" d=" M 108.23196537918753 249.7615522177298 A 0.5 0.5 0 1 1 108.23196512918754 249.76105221781313"/><path fill="black" stroke="none" paint-order="stroke fill markers" d=" M 147.0932912190954 187.96104543463636 A 0.5 0.5 0 1 1 147.09329096909542 187.9605454347197"/><path fill="black" stroke="none" paint-order="stroke fill markers" d=" M 146.0494594743712 188.14983755508416 A 0.5 0.5 0 1 1 146.04945922437122 188.1493375551675"/><path fill="black" stroke="none" paint-order="stroke fill markers" d=" M 129.36252582697892 161.5976940599475 A 0.5 0.5 0 1 1 129.36252557697895 161.59719406003083"/><path fill="black" stroke="none" paint-order="stroke fill markers" d=" M 149.07213797918445 182.0565594438103 A 0.5 0.5 0 1 1 149.07213772918448 182.05605944389364"/><path fill="black" stroke="none" paint-order="stroke fill markers" d=" M 154.08690868557028 176.35761866872926 A 0.5 0.5 0 1 1 154.0869084355703 176.3571186688126"/><path fill="black" stroke="none" paint-order="stroke fill markers" d=" M 142.97397786684428 212.99912679193613 A 0.5 0.5 0 1 1 142.9739776168443 212.99862679201948"/><path fill="black" stroke="none" paint-order="stroke fill markers" d=" M 158.9870434751775 149.3568260194315 A 0.5 0.5 0 1 1 158.98704322517753 149.35632601951485"/><path fill="black" stroke="none" paint-order="stroke fill markers" d=" M 167.30126666008084 167.72754914909814 A 0.5 0.5 0 1 1 167.30126641008087 167.72704914918148"/><path fill="black" stroke="none" paint-order="stroke fill markers" d=" M 179.53467275612655 171.3462867545177 A 0.5 0.5 0 1 1 179.53467250612658 171.34578675460105"/><path fill="black" stroke="none" paint-order="stroke fill markers" d=" M 176.24069234630286 166.93478825570332 A 0.5 0.5 0 1 1 176.2406920963029 166.93428825578667"/><path fill="black" stroke="none" paint-order="stroke fill markers" d=" M 179.64391448738922 167.80707097044146 A 0.5 0.5 0 1 1 179.64391423738925 167.8065709705248"/><path fill="black" stroke="none" paint-order="stroke fill markers" d=" M 182.37948661089362 174.93820106753557 A 0.5 0.5 0 1 1 182.37948636089365 174.93770106761892"/><path fill="black" stroke="none" paint-order="stroke fill markers" d=" M 182.04685539725784 180.2529782353697 A 0.5 0.5 0 1 1 182.04685514725787 180.25247823545305"/><path fill="black" stroke="none" paint-order="stroke fill markers" d=" M 181.54196215951572 183.29569294120972 A 0.5 0.5 0 1 1 181.54196190951575 183.29519294129307"/><path fill="black" stroke="none" paint-order="stroke fill markers" d=" M 194.47799684340487 200.3713185187893 A 0.5 0.5 0 1 1 194.4779965934049 200.37081851887265"/><path fill="black" stroke="none" paint-order="stroke fill markers" d=" M 184.15685900798488 255.45656338425374 A 0.5 0.5 0 1 1 184.1568587579849 255.45606338433709"/><path fill="black" stroke="none" paint-order="stroke fill markers" d=" M 180.30036827648638 186.5206526110524 A 0.5 0.5 0 1 1 180.3003680264864 186.52015261113576"/><path fill="black" stroke="none" paint-order="stroke fill markers" d=" M 186.94792320590545 198.0329845034492 A 0.5 0.5 0 1 1 186.94792295590548 198.03248450353254"/><path fill="black" stroke="none" paint-order="stroke fill markers" d=" M 187.89600048783586 170.01617374765982 A 0.5 0.5 0 1 1 187.8960002378359 170.01567374774316"/><path fill="black" stroke="none" paint-order="stroke fill markers" d=" M 177.91514390031134 177.02640083942143 A 0.5 0.5 0 1 1 177.91514365031136 177.02590083950477"/><path fill="black" stroke="none" paint-order="stroke fill markers" d=" M 178.53115122377338 175.25306736228822 A 0.5 0.5 0 1 1 178.5311509737734 175.25256736237156"/><path fill="black" stroke="none" paint-order="stroke fill markers" d=" M 179.29284667314087 174.09981862173407 A 0.5 0.5 0 1 1 179.2928464231409 174.09931862181742"/><path fill="black" stroke="none" paint-order="stroke fill markers" d=" M 179.3440445138885 179.12535017449474 A 0.5 0.5 0 1 1 179.34404426388852 179.12485017457809"/><path fill="black" stroke="none" paint-order="stroke fill markers" d=" M 180.61523152307726 180.12913969149358 A 0.5 0.5 0 1 1 180.61523127307728 180.12863969157692"/><path fill="black" stroke="none" paint-order="stroke fill markers" d=" M 185.26036607303556 183.88652122277853 A 0.5 0.5 0 1 1 185.26036582303558 183.88602122286187"/><path fill="black" stroke="none" paint-order="stroke fill markers" d=" M 185.09730971648256 185.37872466651208 A 0.5 0.5 0 1 1 185.09730946648259 185.37822466659543"/><path fill="black" stroke="none" paint-order="stroke fill markers" d=" M 196.3265096864776 175.8288910863253 A 0.5 0.5 0 1 1 196.32650943647764 175.82839108640866"/><path fill="black" stroke="none" paint-order="stroke fill markers" d=" M 203.57016813472325 168.20434762491178 A 0.5 0.5 0 1 1 203.57016788472328 168.20384762499512"/><path fill="black" stroke="none" paint-order="stroke fill markers" d=" M 177.71661116407535 185.63112412092116 A 0.5 0.5 0 1 1 177.71661091407537 185.6306241210045"/><path fill="black" stroke="none" paint-order="stroke fill markers" d=" M 175.52268366370598 186.11403475510988 A 0.5 0.5 0 1 1 175.522683413706 186.11353475519323"/><path fill="black" stroke="none" paint-order="stroke fill markers" d=" M 133.9837673293834 230.96850495877513 A 0.5 0.5 0 1 1 133.98376707938343 230.96800495885847"/><path fill="black" stroke="none" paint-order="stroke fill markers" d=" M 171.63858450177275 183.0952973663875 A 0.5 0.5 0 1 1 171.63858425177278 183.09479736647086"/><path fill="black" stroke="none" paint-order="stroke fill markers" d=" M 170.1756174139774 181.22176150042802 A 0.5 0.5 0 1 1 170.17561716397742 181.22126150051136"/><path fill="black" stroke="none" paint-order="stroke fill markers" d=" M 171.00791416147663 177.01400396960233 A 0.5 0.5 0 1 1 171.00791391147666 177.01350396968567"/><path fill="black" stroke="none" paint-order="stroke fill markers" d=" M 172.05100869483138 174.345055644755 A 0.5 0.5 0 1 1 172.0510084448314 174.34455564483835"/><path fill="black" stroke="none" paint-order="stroke fill markers" d=" M 175.4775188648385 170.12364505776821 A 0.5 0.5 0 1 1 175.47751861483852 170.12314505785156"/><path fill="black" stroke="none" paint-order="stroke fill markers" d=" M 177.70802269673828 167.81969018721514 A 0.5 0.5 0 1 1 177.7080224467383 167.8191901872985"/><path fill="black" stroke="none" paint-order="stroke fill markers" d=" M 182.95931733922262 161.15827238656937 A 0.5 0.5 0 1 1 182.95931708922265 161.1577723866527"/><path fill="black" stroke="none" paint-order="stroke fill markers" d=" M 183.51693427380258 157.60681634512613 A 0.5 0.5 0 1 1 183.5169340238026 157.60631634520948"/><path fill="black" stroke="none" paint-order="stroke fill markers" d=" M 184.25916084617242 153.99415457976903 A 0.5 0.5 0 1 1 184.25916059617245 153.99365457985238"/><path fill="black" stroke="none" paint-order="stroke fill markers" d=" M 207.7867933877408 122.31929304201833 A 0.5 0.5 0 1 1 207.78679313774083 122.31879304210166"/><path fill="black" stroke="none" paint-order="stroke fill markers" d=" M 186.73214856655156 145.1975858101822 A 0.5 0.5 0 1 1 186.7321483165516 145.19708581026555"/><path fill="black" stroke="none" paint-order="stroke fill markers" d=" M 204.16010326074505 123.62717036740129 A 0.5 0.5 0 1 1 204.16010301074508 123.62667036748462"/><path fill="black" stroke="none" paint-order="stroke fill markers" d=" M 211.63566115516457 121.37168811896288 A 0.5 0.5 0 1 1 211.6356609051646 121.37118811904621"/><path fill="black" stroke="none" paint-order="stroke fill markers" d=" M 174.77735575048328 133.96326616373335 A 0.5 0.5 0 1 1 174.7773555004833 133.9627661638167"/><path fill="black" stroke="none" paint-order="stroke fill markers" d=" M 168.77667176469814 135.84288115648044 A 0.5 0.5 0 1 1 168.77667151469817 135.8423811565638"/><path fill="black" stroke="none" paint-order="stroke fill markers" d=" M 163.06086944219078 134.27782942242965 A 0.5 0.5 0 1 1 163.0608691921908 134.277329422513"/><path fill="black" stroke="none" paint-order="stroke fill markers" d=" M 158.3429255693504 130.20313430086543 A 0.5 0.5 0 1 1 158.34292531935043 130.20263430094877"/><path fill="black" stroke="none" paint-order="stroke fill markers" d=" M 149.7531444260081 130.10742486528235 A 0.5 0.5 0 1 1 149.75314417600813 130.1069248653657"/><path fill="black" stroke="none" paint-order="stroke fill markers" d=" M 105.77678984048866 130.7145934294729 A 0.5 0.5 0 1 1 105.77678959048868 130.71409342955624"/><path fill="black" stroke="none" paint-order="stroke fill markers" d=" M 135.9217399149155 132.80782452017712 A 0.5 0.5 0 1 1 135.92173966491552 132.80732452026047"/><path fill="black" stroke="none" paint-order="stroke fill markers" d=" M 110.44084554736966 104.8217176931422 A 0.5 0.5 0 1 1 110.44084529736968 104.82121769322553"/><path fill="black" stroke="none" paint-order="stroke fill markers" d=" M 136.03211047288949 139.032845091903 A 0.5 0.5 0 1 1 136.03211022288951 139.03234509198634"/><path fill="black" stroke="none" paint-order="stroke fill markers" d=" M 138.23207552683652 143.75902960859702 A 0.5 0.5 0 1 1 138.23207527683655 143.75852960868036"/><path fill="black" stroke="none" paint-order="stroke fill markers" d=" M 142.2031760072682 148.21386998727272 A 0.5 0.5 0 1 1 142.20317575726824 148.21336998735606"/><path fill="black" stroke="none" paint-order="stroke fill markers" d=" M 146.70077173301172 154.4092968859907 A 0.5 0.5 0 1 1 146.70077148301175 154.40879688607404"/><path fill="black" stroke="none" paint-order="stroke fill markers" d=" M 152.63387500213295 163.30934951076665 A 0.5 0.5 0 1 1 152.63387475213298 163.30884951085"/><path fill="black" stroke="none" paint-order="stroke fill markers" d=" M 155.2435770821151 169.725823792945 A 0.5 0.5 0 1 1 155.24357683211514 169.72532379302834"/><path fill="black" stroke="none" paint-order="stroke fill markers" d=" M 157.9456462424175 175.35996612488017 A 0.5 0.5 0 1 1 157.94564599241752 175.35946612496352"/><path fill="black" stroke="none" paint-order="stroke fill markers" d=" M 159.37058197624273 185.48878525867244 A 0.5 0.5 0 1 1 159.37058172624276 185.48828525875578"/><path fill="black" stroke="none" paint-order="stroke fill markers" d=" M 161.3834983687382 193.5043321666502 A 0.5 0.5 0 1 1 161.38349811873823 193.50383216673353"/><path fill="black" stroke="none" paint-order="stroke fill markers" d=" M 153.18399981186533 234.89570500371758 A 0.5 0.5 0 1 1 153.18399956186536 234.89520500380092"/><path fill="black" stroke="none" paint-order="stroke fill markers" d=" M 166.7346685007985 205.98963329722199 A 0.5 0.5 0 1 1 166.73466825079853 205.98913329730533"/><path fill="black" stroke="none" paint-order="stroke fill markers" d=" M 171.18847184375304 211.6485246693337 A 0.5 0.5 0 1 1 171.18847159375306 211.64802466941705"/><path fill="black" stroke="none" paint-order="stroke fill markers" d=" M 146.27516887159234 254.02226809311807 A 0.5 0.5 0 1 1 146.27516862159237 254.02176809320142"/><path fill="black" stroke="none" paint-order="stroke fill markers" d=" M 159.24802442101574 239.7987258495518 A 0.5 0.5 0 1 1 159.24802417101577 239.79822584963514"/><path fill="black" stroke="none" paint-order="stroke fill markers" d=" M 179.0568614337224 199.74776365782532 A 0.5 0.5 0 1 1 179.05686118372242 199.74726365790866"/><path fill="black" stroke="none" paint-order="stroke fill markers" d=" M 178.57377774163442 192.36754071613217 A 0.5 0.5 0 1 1 178.57377749163444 192.3670407162155"/><path fill="black" stroke="none" paint-order="stroke fill markers" d=" M 179.28864538044058 210.08555803370098 A 0.5 0.5 0 1 1 179.2886451304406 210.08505803378432"/><path fill="black" stroke="none" paint-order="stroke fill markers" d=" M 170.82422897050196 185.20221963926429 A 0.5 0.5 0 1 1 170.824228720502 185.20171963934763"/><path fill="black" stroke="none" paint-order="stroke fill markers" d=" M 166.84871241237147 194.1133728494708 A 0.5 0.5 0 1 1 166.8487121623715 194.11287284955415"/><path fill="black" stroke="none" paint-order="stroke fill markers" d=" M 165.48537874748283 202.7867538467559 A 0.5 0.5 0 1 1 165.48537849748286 202.78625384683923"/><path fill="black" stroke="none" paint-order="stroke fill markers" d=" M 162.6561435585549 218.25290694290172 A 0.5 0.5 0 1 1 162.65614330855493 218.25240694298506"/><path fill="black" stroke="none" paint-order="stroke fill markers" d=" M 148.60039128054285 261.5318092068125 A 0.5 0.5 0 1 1 148.60039103054288 261.53130920689586"/><path fill="black" stroke="none" paint-order="stroke fill markers" d=" M 139.94323244692356 282.659015025511 A 0.5 0.5 0 1 1 139.9432321969236 282.65851502559434"/><path fill="black" stroke="none" paint-order="stroke fill markers" d=" M 166.5343391502268 221.42853549802763 A 0.5 0.5 0 1 1 166.53433890022683 221.42803549811097"/><path fill="black" stroke="none" paint-order="stroke fill markers" d=" M 172.6024500178906 247.32068815483126 A 0.5 0.5 0 1 1 172.60244976789062 247.3201881549146"/><path fill="black" stroke="none" paint-order="stroke fill markers" d=" M 172.69096681557508 198.201769670728 A 0.5 0.5 0 1 1 172.6909665655751 198.20126967081134"/><path fill="black" stroke="none" paint-order="stroke fill markers" d=" M 161.4754796989233 181.28357954123229 A 0.5 0.5 0 1 1 161.47547944892332 181.28307954131563"/><path fill="black" stroke="none" paint-order="stroke fill markers" d=" M 162.62548837880695 168.1193732909256 A 0.5 0.5 0 1 1 162.62548812880698 168.11887329100895"/><path fill="black" stroke="none" paint-order="stroke fill markers" d=" M 153.0895546436824 161.51507959459963 A 0.5 0.5 0 1 1 153.08955439368242 161.51457959468297"/><path fill="black" stroke="none" paint-order="stroke fill markers" d=" M 148.88466792518756 158.5770411678234 A 0.5 0.5 0 1 1 148.8846676751876 158.57654116790675"/><path fill="black" stroke="none" paint-order="stroke fill markers" d=" M 130.9805252173459 155.3569373056775 A 0.5 0.5 0 1 1 130.98052496734593 155.35643730576083"/><path fill="black" stroke="none" paint-order="stroke fill markers" d=" M 144.95920777653853 154.07635031633617 A 0.5 0.5 0 1 1 144.95920752653856 154.07585031641952"/><path fill="black" stroke="none" paint-order="stroke fill markers" d=" M 149.00784087595184 156.50164713436195 A 0.5 0.5 0 1 1 149.00784062595187 156.5011471344453"/><path fill="black" stroke="none" paint-order="stroke fill markers" d=" M 159.58048734833525 169.34844267166199 A 0.5 0.5 0 1 1 159.58048709833528 169.34794267174533"/><path fill="black" stroke="none" paint-order="stroke fill markers" d=" M 161.83421108252375 174.51262275170322 A 0.5 0.5 0 1 1 161.83421083252378 174.51212275178656"/><path fill="black" stroke="none" paint-order="stroke fill markers" d=" M 163.7084683482143 178.61324684776315 A 0.5 0.5 0 1 1 163.70846809821433 178.6127468478465"/><path fill="black" stroke="none" paint-order="stroke fill markers" d=" M 164.8350489109702 183.12447296795975 A 0.5 0.5 0 1 1 164.83504866097022 183.1239729680431"/><path fill="black" stroke="none" paint-order="stroke fill markers" d=" M 167.97606732340677 186.9948494795949 A 0.5 0.5 0 1 1 167.9760670734068 186.99434947967825"/><path fill="black" stroke="none" paint-order="stroke fill markers" d=" M 169.68062577312605 183.10810507684698 A 0.5 0.5 0 1 1 169.68062552312608 183.10760507693033"/><path fill="black" stroke="none" paint-order="stroke fill markers" d=" M 170.64400199565137 183.32469763307557 A 0.5 0.5 0 1 1 170.6440017456514 183.32419763315892"/><path fill="black" stroke="none" paint-order="stroke fill markers" d=" M 172.88924870143077 184.40055582919243 A 0.5 0.5 0 1 1 172.8892484514308 184.40005582927577"/><path fill="black" stroke="none" paint-order="stroke fill markers" d=" M 172.8000055204508 176.30995523833988 A 0.5 0.5 0 1 1 172.80000527045084 176.30945523842323"/><path fill="black" stroke="none" paint-order="stroke fill markers" d=" M 171.99490573657545 169.6384077508649 A 0.5 0.5 0 1 1 171.99490548657548 169.63790775094824"/><path fill="black" stroke="none" paint-order="stroke fill markers" d=" M 172.4765028243413 163.6927080346947 A 0.5 0.5 0 1 1 172.47650257434134 163.69220803477805"/><path fill="black" stroke="none" paint-order="stroke fill markers" d=" M 170.7664210417655 159.4542621870589 A 0.5 0.5 0 1 1 170.76642079176554 159.45376218714225"/><path fill="black" stroke="none" paint-order="stroke fill markers" d=" M 169.7438157057952 155.27411577664688 A 0.5 0.5 0 1 1 169.74381545579524 155.27361577673022"/><path fill="black" stroke="none" paint-order="stroke fill markers" d=" M 167.5564184363691 152.42474070413493 A 0.5 0.5 0 1 1 167.55641818636914 152.42424070421828"/><path fill="black" stroke="none" paint-order="stroke fill markers" d=" M 165.34962662016147 147.80952128635514 A 0.5 0.5 0 1 1 165.3496263701615 147.80902128643848"/><path fill="black" stroke="none" paint-order="stroke fill markers" d=" M 160.36467541435647 143.41787017020505 A 0.5 0.5 0 1 1 160.3646751643565 143.4173701702884"/><path fill="black" stroke="none" paint-order="stroke fill markers" d=" M 156.7828744215117 142.7244500506455 A 0.5 0.5 0 1 1 156.78287417151174 142.72395005072883"/><path fill="black" stroke="none" paint-order="stroke fill markers" d=" M 150.77603106631673 139.3275644189964 A 0.5 0.5 0 1 1 150.77603081631676 139.32706441907973"/><path fill="black" stroke="none" paint-order="stroke fill markers" d=" M 146.58553576046728 136.38145182328287 A 0.5 0.5 0 1 1 146.5855355104673 136.38095182336622"/><path fill="black" stroke="none" paint-order="stroke fill markers" d=" M 144.19202790770532 135.45751920925366 A 0.5 0.5 0 1 1 144.19202765770535 135.457019209337"/><path fill="black" stroke="none" paint-order="stroke fill markers" d=" M 152.46857362491022 136.8052658250692 A 0.5 0.5 0 1 1 152.46857337491025 136.80476582515254"/><path fill="black" stroke="none" paint-order="stroke fill markers" d=" M 155.66861688368803 139.0286144193246 A 0.5 0.5 0 1 1 155.66861663368806 139.02811441940796"/><path fill="black" stroke="none" paint-order="stroke fill markers" d=" M 157.75365546753827 136.76202041059022 A 0.5 0.5 0 1 1 157.7536552175383 136.76152041067357"/><path fill="black" stroke="none" paint-order="stroke fill markers" d=" M 161.93827789676837 139.36088129422367 A 0.5 0.5 0 1 1 161.9382776467684 139.36038129430702"/><path fill="black" stroke="none" paint-order="stroke fill markers" d=" M 162.07022609914566 144.40853776582262 A 0.5 0.5 0 1 1 162.0702258491457 144.40803776590596"/><path fill="black" stroke="none" paint-order="stroke fill markers" d=" M 161.5847024810565 148.38984519443068 A 0.5 0.5 0 1 1 161.58470223105653 148.38934519451402"/><path fill="black" stroke="none" paint-order="stroke fill markers" d=" M 160.04641395721808 151.1282670002389 A 0.5 0.5 0 1 1 160.0464137072181 151.12776700032225"/><path fill="black" stroke="none" paint-order="stroke fill markers" d=" M 156.57108812273668 154.7567826128995 A 0.5 0.5 0 1 1 156.5710878727367 154.75628261298286"/><path fill="black" stroke="none" paint-order="stroke fill markers" d=" M 141.96606825751485 167.2922348961063 A 0.5 0.5 0 1 1 141.96606800751488 167.29173489618964"/><path fill="black" stroke="none" paint-order="stroke fill markers" d=" M 147.4166012657222 159.00265037887192 A 0.5 0.5 0 1 1 147.41660101572222 159.00215037895526"/><path fill="black" stroke="none" paint-order="stroke fill markers" d=" M 120.64493009849727 192.21620937394678 A 0.5 0.5 0 1 1 120.64492984849728 192.21570937403013"/><path fill="black" stroke="none" paint-order="stroke fill markers" d=" M 141.16680480550917 158.95633516312802 A 0.5 0.5 0 1 1 141.1668045555092 158.95583516321136"/><path fill="black" stroke="none" paint-order="stroke fill markers" d=" M 138.08391499070797 160.43003434441883 A 0.5 0.5 0 1 1 138.083914740708 160.42953434450217"/><path fill="black" stroke="none" paint-order="stroke fill markers" d=" M 111.37596523411622 189.10588936170583 A 0.5 0.5 0 1 1 111.37596498411624 189.10538936178918"/><path fill="black" stroke="none" paint-order="stroke fill markers" d=" M 136.35339386500496 178.9806632758181 A 0.5 0.5 0 1 1 136.353393615005 178.98016327590145"/><path fill="black" stroke="none" paint-order="stroke fill markers" d=" M 138.64034264183024 196.63973120627003 A 0.5 0.5 0 1 1 138.64034239183027 196.63923120635337"/><path fill="black" stroke="none" paint-order="stroke fill markers" d=" M 105.96479407946804 226.14166777191298 A 0.5 0.5 0 1 1 105.96479382946805 226.14116777199632"/><path fill="black" stroke="none" paint-order="stroke fill markers" d=" M 119.38652743530884 249.8835817480982 A 0.5 0.5 0 1 1 119.38652718530885 249.88308174818155"/><path fill="black" stroke="none" paint-order="stroke fill markers" d=" M 142.31518701844863 222.1318157929563 A 0.5 0.5 0 1 1 142.31518676844865 222.13131579303965"/><path fill="black" stroke="none" paint-order="stroke fill markers" d=" M 154.07258946008474 211.5372545623281 A 0.5 0.5 0 1 1 154.07258921008477 211.53675456241143"/><path fill="black" stroke="none" paint-order="stroke fill markers" d=" M 158.65676466061163 200.44737333813657 A 0.5 0.5 0 1 1 158.65676441061166 200.44687333821992"/><path fill="black" stroke="none" paint-order="stroke fill markers" d=" M 159.43885704314997 195.58872328146347 A 0.5 0.5 0 1 1 159.43885679315 195.58822328154682"/><path fill="black" stroke="none" paint-order="stroke fill markers" d=" M 158.06022531180778 192.59622053267324 A 0.5 0.5 0 1 1 158.0602250618078 192.5957205327566"/><path fill="black" stroke="none" paint-order="stroke fill markers" d=" M 154.50889045858622 188.95878869209884 A 0.5 0.5 0 1 1 154.50889020858625 188.95828869218218"/><path fill="black" stroke="none" paint-order="stroke fill markers" d=" M 149.84364366356857 189.5697908924729 A 0.5 0.5 0 1 1 149.8436434135686 189.56929089255624"/><path fill="black" stroke="none" paint-order="stroke fill markers" d=" M 146.37675064286088 185.96496205042905 A 0.5 0.5 0 1 1 146.3767503928609 185.9644620505124"/><path fill="black" stroke="none" paint-order="stroke fill markers" d=" M 142.96174033857943 184.38186356607264 A 0.5 0.5 0 1 1 142.96174008857946 184.38136356615598"/><path fill="black" stroke="none" paint-order="stroke fill markers" d=" M 86.5003421546914 168.60083776606018 A 0.5 0.5 0 1 1 86.50034190469141 168.60033776614353"/><path fill="black" stroke="none" paint-order="stroke fill markers" d=" M 139.49181184780224 177.3655165921319 A 0.5 0.5 0 1 1 139.49181159780227 177.36501659221526"/><path fill="black" stroke="none" paint-order="stroke fill markers" d=" M 141.02574568122583 173.27052199886273 A 0.5 0.5 0 1 1 141.02574543122586 173.27002199894608"/><path fill="black" stroke="none" paint-order="stroke fill markers" d=" M 145.7835905554751 170.30558337031692 A 0.5 0.5 0 1 1 145.78359030547512 170.30508337040027"/><path fill="black" stroke="none" paint-order="stroke fill markers" d=" M 149.67703569875349 165.45858311084245 A 0.5 0.5 0 1 1 149.67703544875351 165.4580831109258"/><path fill="black" stroke="none" paint-order="stroke fill markers" d=" M 156.85621116183006 164.64078148041642 A 0.5 0.5 0 1 1 156.8562109118301 164.64028148049977"/><path fill="black" stroke="none" paint-order="stroke fill markers" d=" M 163.99944734506144 164.33036212475528 A 0.5 0.5 0 1 1 163.99944709506147 164.32986212483863"/><path fill="black" stroke="none" paint-order="stroke fill markers" d=" M 167.13353607213844 162.3233388759759 A 0.5 0.5 0 1 1 167.13353582213847 162.32283887605925"/><path fill="black" stroke="none" paint-order="stroke fill markers" d=" M 176.73645571300943 159.57257245927806 A 0.5 0.5 0 1 1 176.73645546300946 159.5720724593614"/><path fill="black" stroke="none" paint-order="stroke fill markers" d=" M 179.16968725746904 160.65085658720827 A 0.5 0.5 0 1 1 179.16968700746907 160.6503565872916"/><path fill="black" stroke="none" paint-order="stroke fill markers" d=" M 182.51565685977965 162.0580925990784 A 0.5 0.5 0 1 1 182.51565660977968 162.05759259916175"/><path fill="black" stroke="none" paint-order="stroke fill markers" d=" M 184.21139460253372 160.9436995229289 A 0.5 0.5 0 1 1 184.21139435253374 160.94319952301225"/><path fill="black" stroke="none" paint-order="stroke fill markers" d=" M 188.64948284309727 165.57876624120487 A 0.5 0.5 0 1 1 188.6494825930973 165.57826624128822"/><path fill="black" stroke="none" paint-order="stroke fill markers" d=" M 190.62050812442214 169.82448930910374 A 0.5 0.5 0 1 1 190.62050787442217 169.82398930918708"/><path fill="black" stroke="none" paint-order="stroke fill markers" d=" M 193.59592028167827 172.4661505846345 A 0.5 0.5 0 1 1 193.5959200316783 172.46565058471785"/><path fill="black" stroke="none" paint-order="stroke fill markers" d=" M 195.5963094949302 171.80964236024184 A 0.5 0.5 0 1 1 195.59630924493024 171.80914236032518"/><path fill="black" stroke="none" paint-order="stroke fill markers" d=" M 196.76003328400586 169.54325705855274 A 0.5 0.5 0 1 1 196.7600330340059 169.54275705863608"/><path fill="black" stroke="none" paint-order="stroke fill markers" d=" M 193.93966651324405 160.5930749735276 A 0.5 0.5 0 1 1 193.93966626324408 160.59257497361094"/><path fill="black" stroke="none" paint-order="stroke fill markers" d=" M 188.5823108862257 157.57757566639646 A 0.5 0.5 0 1 1 188.58231063622574 157.5770756664798"/><path fill="black" stroke="none" paint-order="stroke fill markers" d=" M 177.2724327417608 134.7903587087372 A 0.5 0.5 0 1 1 177.27243249176084 134.78985870882053"/><path fill="black" stroke="none" paint-order="stroke fill markers" d=" M 179.62036974288142 156.40754227798394 A 0.5 0.5 0 1 1 179.62036949288145 156.40704227806728"/><path fill="black" stroke="none" paint-order="stroke fill markers" d=" M 172.77688713135558 158.2069979890501 A 0.5 0.5 0 1 1 172.7768868813556 158.20649798913345"/><path fill="black" stroke="none" paint-order="stroke fill markers" d=" M 165.70975082117252 166.88140206169786 A 0.5 0.5 0 1 1 165.70975057117255 166.8809020617812"/><path fill="black" stroke="none" paint-order="stroke fill markers" d=" M 162.7674570613038 173.77520850168167 A 0.5 0.5 0 1 1 162.76745681130382 173.77470850176502"/><path fill="black" stroke="none" paint-order="stroke fill markers" d=" M 160.26815125597133 177.52871301201148 A 0.5 0.5 0 1 1 160.26815100597136 177.52821301209482"/><path fill="black" stroke="none" paint-order="stroke fill markers" d=" M 153.74003404296673 164.46964531865711 A 0.5 0.5 0 1 1 153.74003379296676 164.46914531874046"/><path fill="black" stroke="none" paint-order="stroke fill markers" d=" M 152.51120014277126 183.06688822911394 A 0.5 0.5 0 1 1 152.5111998927713 183.0663882291973"/><path fill="black" stroke="none" paint-order="stroke fill markers" d=" M 149.74143205933078 185.33812440841214 A 0.5 0.5 0 1 1 149.7414318093308 185.3376244084955"/><path fill="black" stroke="none" paint-order="stroke fill markers" d=" M 128.87961538407447 226.72025234505344 A 0.5 0.5 0 1 1 128.8796151340745 226.71975234513678"/><path fill="black" stroke="none" paint-order="stroke fill markers" d=" M 139.37189092858688 261.4196188167724 A 0.5 0.5 0 1 1 139.3718906785869 261.41911881685576"/><path fill="black" stroke="none" paint-order="stroke fill markers" d=" M 143.52042022908745 242.23472030050806 A 0.5 0.5 0 1 1 143.52041997908748 242.2342203005914"/><path fill="black" stroke="none" paint-order="stroke fill markers" d=" M 146.20398511331499 236.50679981267209 A 0.5 0.5 0 1 1 146.20398486331501 236.50629981275543"/><path fill="black" stroke="none" paint-order="stroke fill markers" d=" M 105.9502555854846 198.74129743188627 A 0.5 0.5 0 1 1 105.95025533548461 198.7407974319696"/><path fill="black" stroke="none" paint-order="stroke fill markers" d=" M 150.67746491364878 253.2660005304457 A 0.5 0.5 0 1 1 150.6774646636488 253.26550053052904"/><path fill="black" stroke="none" paint-order="stroke fill markers" d=" M 154.05917347643617 204.0412494973804 A 0.5 0.5 0 1 1 154.0591732264362 204.04074949746374"/><path fill="black" stroke="none" paint-order="stroke fill markers" d=" M 148.28572745098091 245.58438226558923 A 0.5 0.5 0 1 1 148.28572720098094 245.58388226567257"/><path fill="black" stroke="none" paint-order="stroke fill markers" d=" M 159.93656179328536 215.0206836105371 A 0.5 0.5 0 1 1 159.9365615432854 215.02018361062045"/><path fill="black" stroke="none" paint-order="stroke fill markers" d=" M 153.41713817016927 249.78196146605387 A 0.5 0.5 0 1 1 153.4171379201693 249.78146146613722"/><path fill="black" stroke="none" paint-order="stroke fill markers" d=" M 159.36686253283412 211.80862236476727 A 0.5 0.5 0 1 1 159.36686228283415 211.80812236485062"/><path fill="black" stroke="none" paint-order="stroke fill markers" d=" M 172.21615938135804 196.8233434479239 A 0.5 0.5 0 1 1 172.21615913135807 196.82284344800723"/><path fill="black" stroke="none" paint-order="stroke fill markers" d=" M 176.73438213684423 188.61278067680536 A 0.5 0.5 0 1 1 176.73438188684426 188.6122806768887"/><path fill="black" stroke="none" paint-order="stroke fill markers" d=" M 178.656882307013 180.3987379211265 A 0.5 0.5 0 1 1 178.65688205701304 180.39823792120984"/><path fill="black" stroke="none" paint-order="stroke fill markers" d=" M 179.8839133328925 176.83609748276206 A 0.5 0.5 0 1 1 179.88391308289252 176.8355974828454"/><path fill="black" stroke="none" paint-order="stroke fill markers" d=" M 178.2928966005187 170.92184137283525 A 0.5 0.5 0 1 1 178.29289635051873 170.9213413729186"/><path fill="black" stroke="none" paint-order="stroke fill markers" d=" M 175.54149834456797 167.82559100916478 A 0.5 0.5 0 1 1 175.541498094568 167.82509100924813"/><path fill="black" stroke="none" paint-order="stroke fill markers" d=" M 171.29335301939412 152.06877917047882 A 0.5 0.5 0 1 1 171.29335276939415 152.06827917056216"/><path fill="black" stroke="none" paint-order="stroke fill markers" d=" M 172.2678332061906 159.97698492266304 A 0.5 0.5 0 1 1 172.26783295619063 159.97648492274638"/><path fill="black" stroke="none" paint-order="stroke fill markers" d=" M 170.8685374491863 156.6594099402681 A 0.5 0.5 0 1 1 170.86853719918633 156.65890994035144"/><path fill="black" stroke="none" paint-order="stroke fill markers" d=" M 160.36999019399664 149.1255247109323 A 0.5 0.5 0 1 1 160.36998994399667 149.12502471101564"/><path fill="black" stroke="none" paint-order="stroke fill markers" d=" M 150.71955905120632 146.7661214728634 A 0.5 0.5 0 1 1 150.71955880120635 146.76562147294675"/><path fill="black" stroke="none" paint-order="stroke fill markers" d=" M 144.76274139775177 146.46709259178868 A 0.5 0.5 0 1 1 144.7627411477518 146.46659259187203"/><path fill="black" stroke="none" paint-order="stroke fill markers" d=" M 117.0392428256449 131.15778070382447 A 0.5 0.5 0 1 1 117.03924257564492 131.15728070390782"/><path fill="black" stroke="none" paint-order="stroke fill markers" d=" M 140.6319069747968 152.37594072419802 A 0.5 0.5 0 1 1 140.63190672479683 152.37544072428136"/><path fill="black" stroke="none" paint-order="stroke fill markers" d=" M 138.77324822641438 154.50348128111668 A 0.5 0.5 0 1 1 138.7732479764144 154.50298128120002"/><path fill="black" stroke="none" paint-order="stroke fill markers" d=" M 139.15834867714977 160.55077942260917 A 0.5 0.5 0 1 1 139.1583484271498 160.5502794226925"/><path fill="black" stroke="none" paint-order="stroke fill markers" d=" M 136.95206002800438 172.96298904520464 A 0.5 0.5 0 1 1 136.9520597780044 172.96248904528798"/><path fill="black" stroke="none" paint-order="stroke fill markers" d=" M 93.66912627611497 160.9663213946058 A 0.5 0.5 0 1 1 93.66912602611498 160.96582139468916"/><path fill="black" stroke="none" paint-order="stroke fill markers" d=" M 133.84936927527042 177.68477197961386 A 0.5 0.5 0 1 1 133.84936902527045 177.6842719796972"/><path fill="black" stroke="none" paint-order="stroke fill markers" d=" M 130.61568409300799 176.0146725665604 A 0.5 0.5 0 1 1 130.61568384300801 176.01417256664374"/><path fill="black" stroke="none" paint-order="stroke fill markers" d=" M 88.13177918485488 137.19851328321118 A 0.5 0.5 0 1 1 88.13177893485489 137.19801328329453"/><path fill="black" stroke="none" paint-order="stroke fill markers" d=" M 83.36090091890397 144.12108736001136 A 0.5 0.5 0 1 1 83.36090066890398 144.1205873600947"/><path fill="black" stroke="none" paint-order="stroke fill markers" d=" M 106.48584099889406 146.4732505999792 A 0.5 0.5 0 1 1 106.48584074889408 146.47275060006254"/><path fill="black" stroke="none" paint-order="stroke fill markers" d=" M 97.34684550637233 133.63628960159235 A 0.5 0.5 0 1 1 97.34684525637235 133.6357896016757"/><path fill="black" stroke="none" paint-order="stroke fill markers" d=" M 121.41602612074954 120.68045564364523 A 0.5 0.5 0 1 1 121.41602587074955 120.67995564372856"/><path fill="black" stroke="none" paint-order="stroke fill markers" d=" M 134.03846354036276 140.48567225397244 A 0.5 0.5 0 1 1 134.03846329036278 140.48517225405578"/><path fill="black" stroke="none" paint-order="stroke fill markers" d=" M 103.4329232928412 123.59104005546868 A 0.5 0.5 0 1 1 103.43292304284121 123.59054005555201"/><path fill="black" stroke="none" paint-order="stroke fill markers" d=" M 130.87492623063457 147.85126663948796 A 0.5 0.5 0 1 1 130.8749259806346 147.8507666395713"/><path fill="black" stroke="none" paint-order="stroke fill markers" d=" M 126.156961152816 170.4876038509937 A 0.5 0.5 0 1 1 126.15696090281601 170.48710385107705"/><path fill="black" stroke="none" paint-order="stroke fill markers" d=" M 131.6775752604348 174.8548694387659 A 0.5 0.5 0 1 1 131.67757501043482 174.85436943884923"/><path fill="black" stroke="none" paint-order="stroke fill markers" d=" M 133.86488590526912 172.13381403116284 A 0.5 0.5 0 1 1 133.86488565526915 172.1333140312462"/><path fill="black" stroke="none" paint-order="stroke fill markers" d=" M 139.57157505002166 171.90596970014803 A 0.5 0.5 0 1 1 139.5715748000217 171.90546970023138"/><path fill="black" stroke="none" paint-order="stroke fill markers" d=" M 145.84621291660034 169.99018725547447 A 0.5 0.5 0 1 1 145.84621266660037 169.9896872555578"/><path fill="black" stroke="none" paint-order="stroke fill markers" d=" M 148.75391532264445 168.79789830090002 A 0.5 0.5 0 1 1 148.75391507264447 168.79739830098336"/><path fill="black" stroke="none" paint-order="stroke fill markers" d=" M 151.99473620565297 169.74736597541897 A 0.5 0.5 0 1 1 151.994735955653 169.74686597550232"/><path fill="black" stroke="none" paint-order="stroke fill markers" d=" M 156.2760158883441 169.74253613285066 A 0.5 0.5 0 1 1 156.27601563834412 169.742036132934"/><path fill="black" stroke="none" paint-order="stroke fill markers" d=" M 159.71618477132458 169.40696905725554 A 0.5 0.5 0 1 1 159.7161845213246 169.40646905733888"/><path fill="black" stroke="none" paint-order="stroke fill markers" d=" M 161.80363260163307 170.96367086613122 A 0.5 0.5 0 1 1 161.8036323516331 170.96317086621457"/><path fill="black" stroke="none" paint-order="stroke fill markers" d=" M 163.26981765766132 172.25477866259138 A 0.5 0.5 0 1 1 163.26981740766135 172.25427866267472"/><path fill="black" stroke="none" paint-order="stroke fill markers" d=" M 167.31414958667125 172.210079858263 A 0.5 0.5 0 1 1 167.31414933667128 172.20957985834633"/><path fill="black" stroke="none" paint-order="stroke fill markers" d=" M 168.49757082661853 171.37419499488252 A 0.5 0.5 0 1 1 168.49757057661856 171.37369499496586"/><path fill="black" stroke="none" paint-order="stroke fill markers" d=" M 168.85220931105084 172.32134930792358 A 0.5 0.5 0 1 1 168.85220906105087 172.32084930800693"/><path fill="black" stroke="none" paint-order="stroke fill markers" d=" M 170.01324886570637 170.3042443585018 A 0.5 0.5 0 1 1 170.0132486157064 170.30374435858513"/><path fill="black" stroke="none" paint-order="stroke fill markers" d=" M 172.67304229262737 168.6358208465886 A 0.5 0.5 0 1 1 172.6730420426274 168.63532084667193"/><path fill="black" stroke="none" paint-order="stroke fill markers" d=" M 172.0097573423645 166.69234897527528 A 0.5 0.5 0 1 1 172.00975709236454 166.69184897535862"/><path fill="black" stroke="none" paint-order="stroke fill markers" d=" M 176.94730809040456 144.39752197790023 A 0.5 0.5 0 1 1 176.9473078404046 144.39702197798357"/><path fill="black" stroke="none" paint-order="stroke fill markers" d=" M 171.52850991115392 165.38489637694633 A 0.5 0.5 0 1 1 171.52850966115395 165.38439637702967"/><path fill="black" stroke="none" paint-order="stroke fill markers" d=" M 171.51255519532918 164.829830704937 A 0.5 0.5 0 1 1 171.5125549453292 164.82933070502034"/><path fill="black" stroke="none" paint-order="stroke fill markers" d=" M 170.21429529419746 162.68404874141729 A 0.5 0.5 0 1 1 170.21429504419748 162.68354874150063"/><path fill="black" stroke="none" paint-order="stroke fill markers" d=" M 169.69994260591838 163.0447990335777 A 0.5 0.5 0 1 1 169.6999423559184 163.04429903366105"/><path fill="black" stroke="none" paint-order="stroke fill markers" d=" M 169.6512142427905 162.5305406011829 A 0.5 0.5 0 1 1 169.65121399279053 162.53004060126625"/><path fill="black" stroke="none" paint-order="stroke fill markers" d=" M 168.95185330824856 163.2517118556464 A 0.5 0.5 0 1 1 168.9518530582486 163.25121185572974"/><path fill="black" stroke="none" paint-order="stroke fill markers" d=" M 168.63762057138155 162.4831917103878 A 0.5 0.5 0 1 1 168.63762032138158 162.48269171047116"/><path fill="black" stroke="none" paint-order="stroke fill markers" d=" M 168.51087819115008 161.04002324743746 A 0.5 0.5 0 1 1 168.5108779411501 161.0395232475208"/><path fill="black" stroke="none" paint-order="stroke fill markers" d=" M 169.4399873945039 152.56337739920508 A 0.5 0.5 0 1 1 169.43998714450393 152.56287739928842"/><path fill="black" stroke="none" paint-order="stroke fill markers" d=" M 167.1528285981606 158.77098753060915 A 0.5 0.5 0 1 1 167.15282834816063 158.7704875306925"/><path fill="black" stroke="none" paint-order="stroke fill markers" d=" M 163.93727570251517 157.42564548289363 A 0.5 0.5 0 1 1 163.9372754525152 157.42514548297697"/><path fill="black" stroke="none" paint-order="stroke fill markers" d=" M 159.64216405766715 152.1810550153721 A 0.5 0.5 0 1 1 159.64216380766717 152.18055501545544"/><path fill="black" stroke="none" paint-order="stroke fill markers" d=" M 155.80906241711313 150.46176384474705 A 0.5 0.5 0 1 1 155.80906216711315 150.4612638448304"/><path fill="black" stroke="none" paint-order="stroke fill markers" d=" M 155.04728305017235 142.01718887424778 A 0.5 0.5 0 1 1 155.04728280017238 142.01668887433112"/><path fill="black" stroke="none" paint-order="stroke fill markers" d=" M 149.62687825544646 113.72274778996976 A 0.5 0.5 0 1 1 149.62687800544649 113.72224779005309"/><path fill="black" stroke="none" paint-order="stroke fill markers" d=" M 157.76867310379484 131.97551528505798 A 0.5 0.5 0 1 1 157.76867285379487 131.97501528514132"/><path fill="black" stroke="none" paint-order="stroke fill markers" d=" M 158.08303104026714 129.05068752124131 A 0.5 0.5 0 1 1 158.08303079026717 129.05018752132466"/><path fill="black" stroke="none" paint-order="stroke fill markers" d=" M 157.63553200860187 127.78117811025473 A 0.5 0.5 0 1 1 157.6355317586019 127.78067811033806"/><path fill="black" stroke="none" paint-order="stroke fill markers" d=" M 154.78124900314822 130.07124722450797 A 0.5 0.5 0 1 1 154.78124875314825 130.07074722459132"/><path fill="black" stroke="none" paint-order="stroke fill markers" d=" M 153.46205211865643 130.58562233564462 A 0.5 0.5 0 1 1 153.46205186865646 130.58512233572796"/><path fill="black" stroke="none" paint-order="stroke fill markers" d=" M 150.0683189797256 133.22239625091743 A 0.5 0.5 0 1 1 150.06831872972563 133.22189625100077"/><path fill="black" stroke="none" paint-order="stroke fill markers" d=" M 148.49667998806024 141.5786924139918 A 0.5 0.5 0 1 1 148.49667973806027 141.57819241407515"/><path fill="black" stroke="none" paint-order="stroke fill markers" d=" M 159.68837872853993 148.5906522672383 A 0.5 0.5 0 1 1 159.68837847853996 148.59015226732166"/><path fill="black" stroke="none" paint-order="stroke fill markers" d=" M 164.83924681989737 151.94007758811063 A 0.5 0.5 0 1 1 164.8392465698974 151.93957758819397"/><path fill="black" stroke="none" paint-order="stroke fill markers" d=" M 175.23763822580938 158.78915786177942 A 0.5 0.5 0 1 1 175.2376379758094 158.78865786186276"/><path fill="black" stroke="none" paint-order="stroke fill markers" d=" M 181.62889625372165 159.0115258513942 A 0.5 0.5 0 1 1 181.62889600372168 159.01102585147754"/><path fill="black" stroke="none" paint-order="stroke fill markers" d=" M 183.60281894717292 161.394393348789 A 0.5 0.5 0 1 1 183.60281869717295 161.39389334887235"/><path fill="black" stroke="none" paint-order="stroke fill markers" d=" M 184.6984142995097 157.94948241831452 A 0.5 0.5 0 1 1 184.69841404950972 157.94898241839786"/><path fill="black" stroke="none" paint-order="stroke fill markers" d=" M 183.97527040283262 155.98523030957887 A 0.5 0.5 0 1 1 183.97527015283265 155.9847303096622"/><path fill="black" stroke="none" paint-order="stroke fill markers" d=" M 180.91525128493456 147.5986463171506 A 0.5 0.5 0 1 1 180.91525103493458 147.59814631723395"/><path fill="black" stroke="none" paint-order="stroke fill markers" d=" M 167.42196556513167 138.4002136108392 A 0.5 0.5 0 1 1 167.4219653151317 138.39971361092253"/><path fill="black" stroke="none" paint-order="stroke fill markers" d=" M 156.15150025640756 133.0413792074207 A 0.5 0.5 0 1 1 156.1515000064076 133.04087920750405"/><path fill="black" stroke="none" paint-order="stroke fill markers" d=" M 152.29732312338058 128.5866887034106 A 0.5 0.5 0 1 1 152.2973228733806 128.58618870349395"/><path fill="black" stroke="none" paint-order="stroke fill markers" d=" M 155.33038845814934 125.44492656395256 A 0.5 0.5 0 1 1 155.33038820814937 125.4444265640359"/><path fill="black" stroke="none" paint-order="stroke fill markers" d=" M 157.30662655475118 127.52279418674162 A 0.5 0.5 0 1 1 157.3066263047512 127.52229418682495"/><path fill="black" stroke="none" paint-order="stroke fill markers" d=" M 163.0777447698878 130.35879097331275 A 0.5 0.5 0 1 1 163.07774451988783 130.3582909733961"/><path fill="black" stroke="none" paint-order="stroke fill markers" d=" M 166.45910291477097 133.42516352658842 A 0.5 0.5 0 1 1 166.459102664771 133.42466352667176"/><path fill="black" stroke="none" paint-order="stroke fill markers" d=" M 177.65198470692616 136.4560894067571 A 0.5 0.5 0 1 1 177.6519844569262 136.45558940684043"/><path fill="black" stroke="none" paint-order="stroke fill markers" d=" M 178.3960331027414 142.2078163020043 A 0.5 0.5 0 1 1 178.39603285274143 142.20731630208763"/><path fill="black" stroke="none" paint-order="stroke fill markers" d=" M 178.94217679061092 141.73651569564024 A 0.5 0.5 0 1 1 178.94217654061094 141.73601569572358"/><path fill="black" stroke="none" paint-order="stroke fill markers" d=" M 176.0419033456496 142.4759631138229 A 0.5 0.5 0 1 1 176.04190309564962 142.47546311390624"/><path fill="black" stroke="none" paint-order="stroke fill markers" d=" M 172.89401079812876 143.1109321137942 A 0.5 0.5 0 1 1 172.8940105481288 143.11043211387755"/><path fill="black" stroke="none" paint-order="stroke fill markers" d=" M 170.87521882199542 142.61576988303682 A 0.5 0.5 0 1 1 170.87521857199545 142.61526988312016"/><path fill="black" stroke="none" paint-order="stroke fill markers" d=" M 169.35131968053847 143.56985359865484 A 0.5 0.5 0 1 1 169.3513194305385 143.5693535987382"/><path fill="black" stroke="none" paint-order="stroke fill markers" d=" M 167.34957126202224 147.08090034072777 A 0.5 0.5 0 1 1 167.34957101202227 147.0804003408111"/><path fill="black" stroke="none" paint-order="stroke fill markers" d=" M 161.35662895435195 125.54510857508308 A 0.5 0.5 0 1 1 161.35662870435198 125.54460857516641"/><path fill="black" stroke="none" paint-order="stroke fill markers" d=" M 167.402046477121 146.97431841843766 A 0.5 0.5 0 1 1 167.40204622712102 146.973818418521"/><path fill="black" stroke="none" paint-order="stroke fill markers" d=" M 164.9196880174567 147.74663571723087 A 0.5 0.5 0 1 1 164.91968776745674 147.74613571731422"/><path fill="black" stroke="none" paint-order="stroke fill markers" d=" M 166.24286991515046 144.5662203756358 A 0.5 0.5 0 1 1 166.2428696651505 144.56572037571914"/><path fill="black" stroke="none" paint-order="stroke fill markers" d=" M 158.20365397961154 133.21291733566255 A 0.5 0.5 0 1 1 158.20365372961157 133.2124173357459"/><path fill="black" stroke="none" paint-order="stroke fill markers" d=" M 155.75952217402235 130.70002666372756 A 0.5 0.5 0 1 1 155.75952192402238 130.6995266638109"/><path fill="black" stroke="none" paint-order="stroke fill markers" d=" M 152.6675737730059 129.08866102862294 A 0.5 0.5 0 1 1 152.66757352300593 129.08816102870628"/><path fill="black" stroke="none" paint-order="stroke fill markers" d=" M 149.8064257686554 127.50122801117425 A 0.5 0.5 0 1 1 149.80642551865543 127.50072801125758"/><path fill="black" stroke="none" paint-order="stroke fill markers" d=" M 134.38145000207166 105.69139567822032 A 0.5 0.5 0 1 1 134.3814497520717 105.69089567830365"/><path fill="black" stroke="none" paint-order="stroke fill markers" d=" M 148.2897861740406 115.99007802513172 A 0.5 0.5 0 1 1 148.28978592404061 115.98957802521505"/><path fill="black" stroke="none" paint-order="stroke fill markers" d=" M 155.77266835816118 136.87769209988062 A 0.5 0.5 0 1 1 155.7726681081612 136.87719209996396"/><path fill="black" stroke="none" paint-order="stroke fill markers" d=" M 159.84259892556383 137.99863101778516 A 0.5 0.5 0 1 1 159.84259867556386 137.9981310178685"/><path fill="black" stroke="none" paint-order="stroke fill markers" d=" M 163.55365621648002 139.75515158122397 A 0.5 0.5 0 1 1 163.55365596648005 139.75465158130731"/><path fill="black" stroke="none" paint-order="stroke fill markers" d=" M 164.54235952960556 139.22008324871263 A 0.5 0.5 0 1 1 164.5423592796056 139.21958324879597"/><path fill="black" stroke="none" paint-order="stroke fill markers" d=" M 167.0251983158636 130.3596718156457 A 0.5 0.5 0 1 1 167.02519806586363 130.35917181572904"/><path fill="black" stroke="none" paint-order="stroke fill markers" d=" M 168.21628791884157 138.61249398370634 A 0.5 0.5 0 1 1 168.2162876688416 138.6119939837897"/><path fill="black" stroke="none" paint-order="stroke fill markers" d=" M 171.48847355882037 139.34338539904869 A 0.5 0.5 0 1 1 171.4884733088204 139.34288539913203"/><path fill="black" stroke="none" paint-order="stroke fill markers" d=" M 170.94687901552746 139.17451872098684 A 0.5 0.5 0 1 1 170.9468787655275 139.17401872107018"/><path fill="black" stroke="none" paint-order="stroke fill markers" d=" M 158.85005751138576 143.7775457032502 A 0.5 0.5 0 1 1 158.85005726138579 143.77704570333356"/><path fill="black" stroke="none" paint-order="stroke fill markers" d=" M 155.01209993082603 147.74991192483353 A 0.5 0.5 0 1 1 155.01209968082605 147.74941192491687"/><path fill="black" stroke="none" paint-order="stroke fill markers" d=" M 147.75688612297563 151.6533279120956 A 0.5 0.5 0 1 1 147.75688587297566 151.65282791217894"/><path fill="black" stroke="none" paint-order="stroke fill markers" d=" M 140.78659683952915 156.86798157250638 A 0.5 0.5 0 1 1 140.78659658952918 156.86748157258972"/><path fill="black" stroke="none" paint-order="stroke fill markers" d=" M 131.23261360743646 160.96735342629444 A 0.5 0.5 0 1 1 131.2326133574365 160.96685342637778"/><path fill="black" stroke="none" paint-order="stroke fill markers" d=" M 143.95868832769347 147.30780532570242 A 0.5 0.5 0 1 1 143.9586880776935 147.30730532578576"/><path fill="black" stroke="none" paint-order="stroke fill markers" d=" M 151.93627994598756 143.22283590140356 A 0.5 0.5 0 1 1 151.9362796959876 143.2223359014869"/><path fill="black" stroke="none" paint-order="stroke fill markers" d=" M 161.73752901472653 141.57440652443134 A 0.5 0.5 0 1 1 161.73752876472656 141.57390652451468"/><path fill="black" stroke="none" paint-order="stroke fill markers" d=" M 166.33451269883534 145.05866777144152 A 0.5 0.5 0 1 1 166.33451244883537 145.05816777152486"/><path fill="black" stroke="none" paint-order="stroke fill markers" d=" M 168.2001022041055 147.31825316752355 A 0.5 0.5 0 1 1 168.20010195410552 147.3177531676069"/><path fill="black" stroke="none" paint-order="stroke fill markers" d=" M 169.14605639399076 149.40387351753284 A 0.5 0.5 0 1 1 169.1460561439908 149.4033735176162"/><path fill="black" stroke="none" paint-order="stroke fill markers" d=" M 166.8896665567664 150.9635455399022 A 0.5 0.5 0 1 1 166.88966630676643 150.96304553998556"/><path fill="black" stroke="none" paint-order="stroke fill markers" d=" M 167.90419203469705 153.40690619920423 A 0.5 0.5 0 1 1 167.90419178469708 153.40640619928757"/><path fill="black" stroke="none" paint-order="stroke fill markers" d=" M 168.83052631851123 155.51167106571023 A 0.5 0.5 0 1 1 168.83052606851126 155.51117106579358"/><path fill="black" stroke="none" paint-order="stroke fill markers" d=" M 169.870259411653 156.30515355960583 A 0.5 0.5 0 1 1 169.87025916165302 156.30465355968917"/><path fill="black" stroke="none" paint-order="stroke fill markers" d=" M 169.56452174998503 158.34534413761935 A 0.5 0.5 0 1 1 169.56452149998506 158.3448441377027"/><path fill="black" stroke="none" paint-order="stroke fill markers" d=" M 170.70770581066435 157.96561235052835 A 0.5 0.5 0 1 1 170.70770556066438 157.9651123506117"/><path fill="black" stroke="none" paint-order="stroke fill markers" d=" M 171.78868371431165 160.26021517341633 A 0.5 0.5 0 1 1 171.78868346431167 160.25971517349967"/><path fill="black" stroke="none" paint-order="stroke fill markers" d=" M 173.45106061233454 158.83045030419026 A 0.5 0.5 0 1 1 173.45106036233457 158.8299503042736"/><path fill="black" stroke="none" paint-order="stroke fill markers" d=" M 175.12057050408507 155.93897556957722 A 0.5 0.5 0 1 1 175.1205702540851 155.93847556966057"/><path fill="black" stroke="none" paint-order="stroke fill markers" d=" M 175.32913274383557 157.47548209593438 A 0.5 0.5 0 1 1 175.3291324938356 157.47498209601773"/><path fill="black" stroke="none" paint-order="stroke fill markers" d=" M 175.50749277826586 160.08979650375136 A 0.5 0.5 0 1 1 175.50749252826589 160.0892965038347"/><path fill="black" stroke="none" paint-order="stroke fill markers" d=" M 175.26251031171796 163.55997922803323 A 0.5 0.5 0 1 1 175.262510061718 163.55947922811657"/><path fill="black" stroke="none" paint-order="stroke fill markers" d=" M 172.26663760635643 182.34152508542857 A 0.5 0.5 0 1 1 172.26663735635645 182.34102508551192"/><path fill="black" stroke="none" paint-order="stroke fill markers" d=" M 169.39951949830572 191.4846842780007 A 0.5 0.5 0 1 1 169.39951924830575 191.48418427808406"/><path fill="black" stroke="none" paint-order="stroke fill markers" d=" M 165.94436546329052 199.49624504574922 A 0.5 0.5 0 1 1 165.94436521329055 199.49574504583256"/><path fill="black" stroke="none" paint-order="stroke fill markers" d=" M 160.94301186847764 205.25608094922 A 0.5 0.5 0 1 1 160.94301161847767 205.25558094930335"/><path fill="black" stroke="none" paint-order="stroke fill markers" d=" M 152.31882858062409 209.1741228632796 A 0.5 0.5 0 1 1 152.31882833062411 209.17362286336294"/><path fill="black" stroke="none" paint-order="stroke fill markers" d=" M 151.23279892930015 207.095813504634 A 0.5 0.5 0 1 1 151.23279867930017 207.09531350471735"/><path fill="black" stroke="none" paint-order="stroke fill markers" d=" M 151.95356155204337 195.97577329071345 A 0.5 0.5 0 1 1 151.9535613020434 195.9752732907968"/><path fill="black" stroke="none" paint-order="stroke fill markers" d=" M 153.0719897030244 181.27092827888868 A 0.5 0.5 0 1 1 153.07198945302443 181.27042827897202"/><path fill="black" stroke="none" paint-order="stroke fill markers" d=" M 155.83756461482008 175.83378896410366 A 0.5 0.5 0 1 1 155.8375643648201 175.833288964187"/><path fill="black" stroke="none" paint-order="stroke fill markers" d=" M 159.98216738499735 171.64652810849032 A 0.5 0.5 0 1 1 159.98216713499738 171.64602810857366"/><path fill="black" stroke="none" paint-order="stroke fill markers" d=" M 164.0344479662444 167.27893417687838 A 0.5 0.5 0 1 1 164.03444771624442 167.27843417696172"/><path fill="black" stroke="none" paint-order="stroke fill markers" d=" M 167.5132624144117 163.3032763000843 A 0.5 0.5 0 1 1 167.51326216441174 163.30277630016764"/><path fill="black" stroke="none" paint-order="stroke fill markers" d=" M 169.96129373653545 159.91316526625883 A 0.5 0.5 0 1 1 169.96129348653548 159.91266526634217"/><path fill="black" stroke="none" paint-order="stroke fill markers" d=" M 170.89585667981208 157.2003378463288 A 0.5 0.5 0 1 1 170.8958564298121 157.19983784641215"/><path fill="black" stroke="none" paint-order="stroke fill markers" d=" M 164.70393627496756 148.2016065584936 A 0.5 0.5 0 1 1 164.7039360249676 148.20110655857695"/><path fill="black" stroke="none" paint-order="stroke fill markers" d=" M 163.31552498815165 145.81962220413934 A 0.5 0.5 0 1 1 163.31552473815168 145.81912220422268"/><path fill="black" stroke="none" paint-order="stroke fill markers" d=" M 159.2748243552607 143.6864192771787 A 0.5 0.5 0 1 1 159.27482410526073 143.68591927726203"/><path fill="black" stroke="none" paint-order="stroke fill markers" d=" M 159.18426150276565 137.31055642796574 A 0.5 0.5 0 1 1 159.18426125276568 137.31005642804908"/><path fill="black" stroke="none" paint-order="stroke fill markers" d=" M 163.38575362007094 135.1099361952812 A 0.5 0.5 0 1 1 163.38575337007097 135.10943619536454"/><path fill="black" stroke="none" paint-order="stroke fill markers" d=" M 177.46660266652648 134.44748228514092 A 0.5 0.5 0 1 1 177.4666024165265 134.44698228522427"/><path fill="black" stroke="none" paint-order="stroke fill markers" d=" M 183.2155871705445 136.08047720093532 A 0.5 0.5 0 1 1 183.21558692054452 136.07997720101866"/><path fill="black" stroke="none" paint-order="stroke fill markers" d=" M 193.575233246359 141.89820679541344 A 0.5 0.5 0 1 1 193.57523299635903 141.8977067954968"/><path fill="black" stroke="none" paint-order="stroke fill markers" d=" M 201.0335690891296 143.70265569928654 A 0.5 0.5 0 1 1 201.03356883912963 143.70215569936988"/><path fill="black" stroke="none" paint-order="stroke fill markers" d=" M 196.0845852484867 146.35478387964417 A 0.5 0.5 0 1 1 196.08458499848672 146.35428387972752"/><path fill="black" stroke="none" paint-order="stroke fill markers" d=" M 205.925393331965 142.43591239616353 A 0.5 0.5 0 1 1 205.92539308196504 142.43541239624687"/><path fill="black" stroke="none" paint-order="stroke fill markers" d=" M 189.62143241877305 148.9557456379763 A 0.5 0.5 0 1 1 189.62143216877308 148.95524563805964"/><path fill="black" stroke="none" paint-order="stroke fill markers" d=" M 190.2086605263024 160.83918856613883 A 0.5 0.5 0 1 1 190.20866027630242 160.83868856622217"/><path fill="black" stroke="none" paint-order="stroke fill markers" d=" M 189.3058445935657 162.00908917085636 A 0.5 0.5 0 1 1 189.30584434356572 162.0085891709397"/><path fill="black" stroke="none" paint-order="stroke fill markers" d=" M 191.97968767204736 197.6667854783798 A 0.5 0.5 0 1 1 191.9796874220474 197.66628547846315"/><path fill="black" stroke="none" paint-order="stroke fill markers" d=" M 185.31135005932228 171.363950930019 A 0.5 0.5 0 1 1 185.3113498093223 171.36345093010235"/><path fill="black" stroke="none" paint-order="stroke fill markers" d=" M 178.6248925671483 185.96138872287528 A 0.5 0.5 0 1 1 178.62489231714832 185.96088872295863"/><path fill="black" stroke="none" paint-order="stroke fill markers" d=" M 172.32045132930725 199.13611725932714 A 0.5 0.5 0 1 1 172.32045107930728 199.13561725941048"/><path fill="black" stroke="none" paint-order="stroke fill markers" d=" M 172.10040185658406 200.670960045427 A 0.5 0.5 0 1 1 172.1004016065841 200.67046004551034"/><path fill="black" stroke="none" paint-order="stroke fill markers" d=" M 170.2743660648087 203.67583139820024 A 0.5 0.5 0 1 1 170.27436581480873 203.6753313982836"/><path fill="black" stroke="none" paint-order="stroke fill markers" d=" M 167.13652016525285 205.1009054533307 A 0.5 0.5 0 1 1 167.13651991525288 205.10040545341406"/><path fill="black" stroke="none" paint-order="stroke fill markers" d=" M 152.8887272581043 194.80634860379374 A 0.5 0.5 0 1 1 152.88872700810433 194.80584860387708"/><path fill="black" stroke="none" paint-order="stroke fill markers" d=" M 148.84476286325093 192.51632418900218 A 0.5 0.5 0 1 1 148.84476261325096 192.51582418908552"/><path fill="black" stroke="none" paint-order="stroke fill markers" d=" M 136.0071698091791 195.18815299974733 A 0.5 0.5 0 1 1 136.00716955917912 195.18765299983068"/><path fill="black" stroke="none" paint-order="stroke fill markers" d=" M 139.75026534070804 194.72258970075805 A 0.5 0.5 0 1 1 139.75026509070807 194.7220897008414"/><path fill="black" stroke="none" paint-order="stroke fill markers" d=" M 141.51604989397262 191.43066103449823 A 0.5 0.5 0 1 1 141.51604964397265 191.43016103458157"/><path fill="black" stroke="none" paint-order="stroke fill markers" d=" M 146.40934134083093 188.0016456927363 A 0.5 0.5 0 1 1 146.40934109083096 188.00114569281965"/><path fill="black" stroke="none" paint-order="stroke fill markers" d=" M 150.00451635853764 182.1653290103423 A 0.5 0.5 0 1 1 150.00451610853767 182.16482901042565"/><path fill="black" stroke="none" paint-order="stroke fill markers" d=" M 166.168577005144 168.92916993797817 A 0.5 0.5 0 1 1 166.16857675514402 168.92866993806152"/><path fill="black" stroke="none" paint-order="stroke fill markers" d=" M 174.57791255369435 165.16258713754314 A 0.5 0.5 0 1 1 174.57791230369438 165.1620871376265"/><path fill="black" stroke="none" paint-order="stroke fill markers" d=" M 190.91041717221015 159.13826788824403 A 0.5 0.5 0 1 1 190.91041692221017 159.13776788832737"/><path fill="black" stroke="none" paint-order="stroke fill markers" d=" M 181.7257407426284 159.1553489987085 A 0.5 0.5 0 1 1 181.72574049262843 159.15484899879183"/><path fill="black" stroke="none" paint-order="stroke fill markers" d=" M 180.23359425133322 158.76614749919295 A 0.5 0.5 0 1 1 180.23359400133324 158.7656474992763"/><path fill="black" stroke="none" paint-order="stroke fill markers" d=" M 179.21588433272163 160.56557494442308 A 0.5 0.5 0 1 1 179.21588408272166 160.56507494450642"/><path fill="black" stroke="none" paint-order="stroke fill markers" d=" M 175.8288943768555 163.0020131032709 A 0.5 0.5 0 1 1 175.82889412685552 163.00151310335426"/></g></g></g><g/><g/><g/></g></g></svg>