<svg version="1.1" xmlns="http://www.w3.org/2000/svg" xmlns:xlink="http://www.w3.org/1999/xlink" width="300" height="300" style="width: 300px; height: 300px;"><defs><clipPath id="OSQTzqSaqldT"><path fill="none" stroke="none" d=" M 5 5 L 295 5 L 295 295 L 5 295 L 5 5 Z"/></clipPath><clipPath id="DKSNpxGJeIAR"><path fill="none" stroke="none" d=" M 5 5 L 295 5 L 295 295 L 5 295 L 5 5 Z"/></clipPath><clipPath id="HCPkWOatHMgs"><path fill="none" stroke="none" d=" M 5 5 L 295 5 L 295 295 L 5 295 L 5 5 Z"/></clipPath></defs><g><g transform="scale(1,1) translate(0.5,0.5)"><rect fill="#FFFFFF" stroke="none" x="0" y="0" width="300" height="300"/><g clip-path="url(#OSQTzqSaqldT)"><g><g/></g></g><g clip-path="url(#DKSNpxGJeIAR)"><g><g/></g></g><g clip-path="url(#HCPkWOatHMgs)"><g><g><path fill="none" stroke="none"/><path fill="black" stroke="none" paint-order="stroke fill markers" d=" M 195.4903461076069 158.25118195374117 A 0.5 0.5 0 1 1 195.49034585760694 158.2506819538245"/><path fill="black" stroke="none" paint-order="stroke fill markers" d=" M 222.80472730071955 157.25785686688863 A 0.5 0.5 0 1 1 222.80472705071958 157.25735686697197"/><path fill="black" stroke="none" paint-order="stroke fill markers" d=" M 177.38551657420928 193.98070350354868 A 0.5 0.5 0 1 1 177.3855163242093 193.98020350363203"/><path fill="black" stroke="none" paint-order="stroke fill markers" d=" M 176.92408186541533 179.06637199393293 A 0.5 0.5 0 1 1 176.92408161541536 179.06587199401628"/><path fill="black" stroke="none" paint-order="stroke fill markers" d=" M 130.79540700433083 190.26736733930522 A 0.5 0.5 0 1 1 130.79540675433086 190.26686733938857"/><path fill="black" stroke="none" paint-order="stroke fill markers" d=" M 164.26677935329403 129.09766659068111 A 0.5 0.5 0 1 1 164.26677910329406 129.09716659076446"/><path fill="black" stroke="none" paint-order="stroke fill markers" d=" M 160.60606350406184 144.0300216066368 A 0.5 0.5 0 1 1 160.60606325406187 144.02952160672015"/><path fill="black" stroke="none" paint-order="stroke fill markers" d=" M 156.97571261777978 136.62827404732136 A 0.5 0.5 0 1 1 156.9757123677798 136.6277740474047"/><path fill="black" stroke="none" paint-order="stroke fill markers" d=" M 155.1800740079709 179.3623229066168 A 0.5 0.5 0 1 1 155.18007375797092 179.36182290670016"/><path fill="black" stroke="none" paint-order="stroke fill markers" d=" M 154.75927591250775 143.23332164767413 A 0.5 0.5 0 1 1 154.75927566250778 143.23282164775748"/><path fill="black" stroke="none" paint-order="stroke fill markers" d=" M 171.07883781651952 118.31400578385765 A 0.5 0.5 0 1 1 171.07883756651955 118.31350578394098"/><path fill="black" stroke="none" paint-order="stroke fill markers" d=" M 161.27902223106713 136.7750612297842 A 0.5 0.5 0 1 1 161.27902198106716 136.77456122986754"/><path fill="black" stroke="none" paint-order="stroke fill markers" d=" M 133.69385948847082 167.8914579560039 A 0.5 0.5 0 1 1 133.69385923847085 167.89095795608725"/><path fill="black" stroke="none" paint-order="stroke fill markers" d=" M 147.04041870854823 221.85933837038334 A 0.5 0.5 0 1 1 147.04041845854826 221.85883837046669"/><path fill="black" stroke="none" paint-order="stroke fill markers" d=" M 166.9176871364855 109.52297245817405 A 0.5 0.5 0 1 1 166.91768688648554 109.52247245825738"/><path fill="black" stroke="none" paint-order="stroke fill markers" d=" M 157.4189981108334 168.1318330095392 A 0.5 0.5 0 1 1 157.41899786083343 168.13133300962255"/><path fill="black" stroke="none" paint-order="stroke fill markers" d=" M 162.60196995928155 110.76749052802806 A 0.5 0.5 0 1 1 162.60196970928158 110.76699052811139"/><path fill="black" stroke="none" paint-order="stroke fill markers" d=" M 114.98625552600029 168.08517876863948 A 0.5 0.5 0 1 1 114.9862552760003 168.08467876872282"/><path fill="black" stroke="none" paint-order="stroke fill markers" d=" M 192.98208605387725 199.64946084466274 A 0.5 0.5 0 1 1 192.98208580387728 199.64896084474609"/><path fill="black" stroke="none" paint-order="stroke fill markers" d=" M 154.75148474118495 152.33742050777548 A 0.5 0.5 0 1 1 154.75148449118498 152.33692050785882"/><path fill="black" stroke="none" paint-order="stroke fill markers" d=" M 155.1065217286021 179.8820379632977 A 0.5 0.5 0 1 1 155.10652147860213 179.88153796338105"/><path fill="black" stroke="none" paint-order="stroke fill markers" d=" M 185.82144520798738 165.7890344756249 A 0.5 0.5 0 1 1 185.8214449579874 165.78853447570825"/><path fill="black" stroke="none" paint-order="stroke fill markers" d=" M 98.80949973089285 209.64679967083154 A 0.5 0.5 0 1 1 98.80949948089287 209.64629967091489"/><path fill="black" stroke="none" paint-order="stroke fill markers" d=" M 160.56178771517898 145.0758486909887 A 0.5 0.5 0 1 1 160.561787465179 145.07534869107204"/><path fill="black" stroke="none" paint-order="stroke fill markers" d=" M 196.38676693791496 180.36343611436672 A 0.5 0.5 0 1 1 196.38676668791499 180.36293611445006"/><path fill="black" stroke="none" paint-order="stroke fill markers" d=" M 170.28147722045898 200.29368149945876 A 0.5 0.5 0 1 1 170.281476970459 200.2931814995421"/><path fill="black" stroke="none" paint-order="stroke fill markers" d=" M 120.59335602933197 183.20538148112757 A 0.5 0.5 0 1 1 120.59335577933199 183.20488148121092"/><path fill="black" stroke="none" paint-order="stroke fill markers" d=" M 114.07724981032501 125.07522619138078 A 0.5 0.5 0 1 1 114.07724956032503 125.07472619146411"/><path fill="black" stroke="none" paint-order="stroke fill markers" d=" M 186.58575615795283 173.36328686956605 A 0.5 0.5 0 1 1 186.58575590795286 173.3627868696494"/><path fill="black" stroke="none" paint-order="stroke fill markers" d=" M 153.83395881787595 142.64480031658096 A 0.5 0.5 0 1 1 153.83395856787598 142.6443003166643"/><path fill="black" stroke="none" paint-order="stroke fill markers" d=" M 135.44127359371282 161.72682943288478 A 0.5 0.5 0 1 1 135.44127334371285 161.72632943296813"/><path fill="black" stroke="none" paint-order="stroke fill markers" d=" M 171.95708771707797 232.35677008379136 A 0.5 0.5 0 1 1 171.957087467078 232.3562700838747"/><path fill="black" stroke="none" paint-order="stroke fill markers" d=" M 183.73699456700513 213.89162001997116 A 0.5 0.5 0 1 1 183.73699431700516 213.8911200200545"/><path fill="black" stroke="none" paint-order="stroke fill markers" d=" M 151.35942293052906 178.28160114542487 A 0.5 0.5 0 1 1 151.3594226805291 178.28110114550822"/><path fill="black" stroke="none" paint-order="stroke fill markers" d=" M 127.41301116179731 192.6116241895832 A 0.5 0.5 0 1 1 127.41301091179733 192.61112418966655"/><path fill="black" stroke="none" paint-order="stroke fill markers" d=" M 171.77653064807348 166.76653074002763 A 0.5 0.5 0 1 1 171.7765303980735 166.76603074011098"/><path fill="black" stroke="none" paint-order="stroke fill markers" d=" M 89.92511027785393 188.205400309622 A 0.5 0.5 0 1 1 89.92511002785395 188.20490030970535"/><path fill="black" stroke="none" paint-order="stroke fill markers" d=" M 127.52824879494418 154.71204500123702 A 0.5 0.5 0 1 1 127.52824854494419 154.71154500132036"/><path fill="black" stroke="none" paint-order="stroke fill markers" d=" M 53.954950265200864 174.91923239482205 A 0.5 0.5 0 1 1 53.954950015200886 174.9187323949054"/><path fill="black" stroke="none" paint-order="stroke fill markers" d=" M 200.00581591337695 216.61368304347525 A 0.5 0.5 0 1 1 200.00581566337698 216.6131830435586"/><path fill="black" stroke="none" paint-order="stroke fill markers" d=" M 142.02945369145806 136.3019589693287 A 0.5 0.5 0 1 1 142.0294534414581 136.30145896941204"/><path fill="black" stroke="none" paint-order="stroke fill markers" d=" M 166.22937337093154 138.2726920695117 A 0.5 0.5 0 1 1 166.22937312093157 138.27219206959504"/><path fill="black" stroke="none" paint-order="stroke fill markers" d=" M 163.58545495772094 165.0894732254172 A 0.5 0.5 0 1 1 163.58545470772097 165.08897322550055"/><path fill="black" stroke="none" paint-order="stroke fill markers" d=" M 161.31151747692581 187.51151792172055 A 0.5 0.5 0 1 1 161.31151722692584 187.5110179218039"/><path fill="black" stroke="none" paint-order="stroke fill markers" d=" M 167.86204848561434 132.13049859196443 A 0.5 0.5 0 1 1 167.86204823561437 132.12999859204777"/><path fill="black" stroke="none" paint-order="stroke fill markers" d=" M 179.2947638044703 187.2002179883934 A 0.5 0.5 0 1 1 179.29476355447034 187.19971798847675"/><path fill="black" stroke="none" paint-order="stroke fill markers" d=" M 170.71482924727616 158.88391460853234 A 0.5 0.5 0 1 1 170.7148289972762 158.88341460861568"/><path fill="black" stroke="none" paint-order="stroke fill markers" d=" M 146.73188943296583 164.8420924278959 A 0.5 0.5 0 1 1 146.73188918296586 164.84159242797924"/><path fill="black" stroke="none" paint-order="stroke fill markers" d=" M 168.94979283751854 156.31726621549916 A 0.5 0.5 0 1 1 168.94979258751857 156.3167662155825"/><path fill="black" stroke="none" paint-order="stroke fill markers" d=" M 176.3045137291802 155.6183142454774 A 0.5 0.5 0 1 1 176.30451347918023 155.61781424556074"/><path fill="black" stroke="none" paint-order="stroke fill markers" d=" M 188.54783403474522 177.09346638131143 A 0.5 0.5 0 1 1 188.54783378474525 177.09296638139477"/><path fill="black" stroke="none" paint-order="stroke fill markers" d=" M 179.3564546907804 187.7553192615482 A 0.5 0.5 0 1 1 179.35645444078042 187.75481926163155"/><path fill="black" stroke="none" paint-order="stroke fill markers" d=" M 168.16765295344936 155.67217725130268 A 0.5 0.5 0 1 1 168.1676527034494 155.67167725138603"/><path fill="black" stroke="none" paint-order="stroke fill markers" d=" M 167.27223010131698 188.3892291769484 A 0.5 0.5 0 1 1 167.272229851317 188.38872917703173"/><path fill="black" stroke="none" paint-order="stroke fill markers" d=" M 183.15515706286146 181.10071426433308 A 0.5 0.5 0 1 1 183.1551568128615 181.10021426441642"/><path fill="black" stroke="none" paint-order="stroke fill markers" d=" M 167.65726204727645 212.05668401798377 A 0.5 0.5 0 1 1 167.65726179727648 212.0561840180671"/><path fill="black" stroke="none" paint-order="stroke fill markers" d=" M 130.0059262836309 168.30031676883144 A 0.5 0.5 0 1 1 130.00592603363094 168.29981676891478"/><path fill="black" stroke="none" paint-order="stroke fill markers" d=" M 177.69850692369425 189.41503993271823 A 0.5 0.5 0 1 1 177.69850667369428 189.41453993280157"/><path fill="black" stroke="none" paint-order="stroke fill markers" d=" M 129.42530661200664 155.06961458047908 A 0.5 0.5 0 1 1 129.42530636200667 155.06911458056243"/><path fill="black" stroke="none" paint-order="stroke fill markers" d=" M 179.528610748202 181.73977143439004 A 0.5 0.5 0 1 1 179.52861049820203 181.73927143447338"/><path fill="black" stroke="none" paint-order="stroke fill markers" d=" M 168.3534239256775 122.997919415387 A 0.5 0.5 0 1 1 168.35342367567753 122.99741941547033"/><path fill="black" stroke="none" paint-order="stroke fill markers" d=" M 173.23737711909934 202.14761829059591 A 0.5 0.5 0 1 1 173.23737686909936 202.14711829067926"/><path fill="black" stroke="none" paint-order="stroke fill markers" d=" M 178.5816951443588 169.8039095553802 A 0.5 0.5 0 1 1 178.58169489435883 169.80340955546353"/><path fill="black" stroke="none" paint-order="stroke fill markers" d=" M 194.61249583721892 170.52631950088997 A 0.5 0.5 0 1 1 194.61249558721894 170.5258195009733"/><path fill="black" stroke="none" paint-order="stroke fill markers" d=" M 168.80578067709985 142.28840394042732 A 0.5 0.5 0 1 1 168.80578042709988 142.28790394051066"/><path fill="black" stroke="none" paint-order="stroke fill markers" d=" M 141.4284912271579 182.68416630113003 A 0.5 0.5 0 1 1 141.42849097715794 182.68366630121338"/><path fill="black" stroke="none" paint-order="stroke fill markers" d=" M 170.99299355990843 202.69740768968825 A 0.5 0.5 0 1 1 170.99299330990846 202.6969076897716"/><path fill="black" stroke="none" paint-order="stroke fill markers" d=" M 177.17839541787566 188.59226286874429 A 0.5 0.5 0 1 1 177.1783951678757 188.59176286882763"/><path fill="black" stroke="none" paint-order="stroke fill markers" d=" M 156.86368219000073 157.9713898268757 A 0.5 0.5 0 1 1 156.86368194000076 157.97088982695905"/><path fill="black" stroke="none" paint-order="stroke fill markers" d=" M 189.52516218755883 191.13465656314466 A 0.5 0.5 0 1 1 189.52516193755886 191.134156563228"/><path fill="black" stroke="none" paint-order="stroke fill markers" d=" M 192.14612072135245 120.52327240288622 A 0.5 0.5 0 1 1 192.14612047135248 120.52277240296955"/><path fill="black" stroke="none" paint-order="stroke fill markers" d=" M 164.90722169793165 133.57919109653827 A 0.5 0.5 0 1 1 164.90722144793168 133.5786910966216"/><path fill="black" stroke="none" paint-order="stroke fill markers" d=" M 125.73794628741103 125.4133127161719 A 0.5 0.5 0 1 1 125.73794603741105 125.41281271625523"/><path fill="black" stroke="none" paint-order="stroke fill markers" d=" M 186.1949372552753 146.22004166669865 A 0.5 0.5 0 1 1 186.19493700527534 146.219541666782"/><path fill="black" stroke="none" paint-order="stroke fill markers" d=" M 179.56541091189663 160.00425863766577 A 0.5 0.5 0 1 1 179.56541066189666 160.00375863774912"/><path fill="black" stroke="none" paint-order="stroke fill markers" d=" M 157.46580427479543 128.2349125155393 A 0.5 0.5 0 1 1 157.46580402479546 128.23441251562264"/><path fill="black" stroke="none" paint-order="stroke fill markers" d=" M 132.32618736918226 150.52460726718803 A 0.5 0.5 0 1 1 132.3261871191823 150.52410726727138"/><path fill="black" stroke="none" paint-order="stroke fill markers" d=" M 198.36906379133038 155.12289330334335 A 0.5 0.5 0 1 1 198.3690635413304 155.1223933034267"/><path fill="black" stroke="none" paint-order="stroke fill markers" d=" M 158.32565039750497 166.9001923506599 A 0.5 0.5 0 1 1 158.325650147505 166.89969235074324"/><path fill="black" stroke="none" paint-order="stroke fill markers" d=" M 176.33545388237565 124.71243748140337 A 0.5 0.5 0 1 1 176.33545363237567 124.7119374814867"/><path fill="black" stroke="none" paint-order="stroke fill markers" d=" M 137.46781158599634 182.77660821246639 A 0.5 0.5 0 1 1 137.46781133599637 182.77610821254973"/><path fill="black" stroke="none" paint-order="stroke fill markers" d=" M 167.04378064813721 153.61120257521995 A 0.5 0.5 0 1 1 167.04378039813724 153.6107025753033"/><path fill="black" stroke="none" paint-order="stroke fill markers" d=" M 159.05621870107976 195.54036108047384 A 0.5 0.5 0 1 1 159.0562184510798 195.5398610805572"/><path fill="black" stroke="none" paint-order="stroke fill markers" d=" M 177.61399322765064 136.0964397563652 A 0.5 0.5 0 1 1 177.61399297765067 136.09593975644856"/><path fill="black" stroke="none" paint-order="stroke fill markers" d=" M 195.20517740998739 155.79778069855297 A 0.5 0.5 0 1 1 195.20517715998741 155.7972806986363"/><path fill="black" stroke="none" paint-order="stroke fill markers" d=" M 178.74043194405732 200.91077704964673 A 0.5 0.5 0 1 1 178.74043169405735 200.91027704973007"/><path fill="black" stroke="none" paint-order="stroke fill markers" d=" M 175.5643053294941 149.0681451903822 A 0.5 0.5 0 1 1 175.56430507949412 149.06764519046556"/><path fill="black" stroke="none" paint-order="stroke fill markers" d=" M 180.37993666327782 182.3403667873865 A 0.5 0.5 0 1 1 180.37993641327785 182.33986678746984"/><path fill="black" stroke="none" paint-order="stroke fill markers" d=" M 169.57407198976284 183.25862774382733 A 0.5 0.5 0 1 1 169.57407173976287 183.25812774391068"/><path fill="black" stroke="none" paint-order="stroke fill markers" d=" M 178.95128975798454 157.08438800885065 A 0.5 0.5 0 1 1 178.95128950798457 157.083888008934"/><path fill="black" stroke="none" paint-order="stroke fill markers" d=" M 171.92821455276405 176.06878477554963 A 0.5 0.5 0 1 1 171.92821430276408 176.06828477563297"/><path fill="black" stroke="none" paint-order="stroke fill markers" d=" M 206.97551762183457 174.22278855215387 A 0.5 0.5 0 1 1 206.9755173718346 174.22228855223722"/><path fill="black" stroke="none" paint-order="stroke fill markers" d=" M 161.78718872179138 142.08112260424798 A 0.5 0.5 0 1 1 161.7871884717914 142.08062260433132"/><path fill="black" stroke="none" paint-order="stroke fill markers" d=" M 161.37214252878135 142.18121584007417 A 0.5 0.5 0 1 1 161.37214227878138 142.18071584015752"/><path fill="black" stroke="none" paint-order="stroke fill markers" d=" M 185.24249982507718 170.01508727059138 A 0.5 0.5 0 1 1 185.2424995750772 170.01458727067472"/><path fill="black" stroke="none" paint-order="stroke fill markers" d=" M 170.8742932352848 206.9985186012413 A 0.5 0.5 0 1 1 170.87429298528482 206.99801860132465"/><path fill="black" stroke="none" paint-order="stroke fill markers" d=" M 164.20944697684277 161.30024258816118 A 0.5 0.5 0 1 1 164.2094467268428 161.29974258824453"/><path fill="black" stroke="none" paint-order="stroke fill markers" d=" M 136.63445008658204 149.52076160916198 A 0.5 0.5 0 1 1 136.63444983658206 149.52026160924532"/><path fill="black" stroke="none" paint-order="stroke fill markers" d=" M 178.0263542755155 171.6921164550136 A 0.5 0.5 0 1 1 178.02635402551553 171.69161645509695"/><path fill="black" stroke="none" paint-order="stroke fill markers" d=" M 153.72231647026243 147.1979122373733 A 0.5 0.5 0 1 1 153.72231622026246 147.19741223745663"/><path fill="black" stroke="none" paint-order="stroke fill markers" d=" M 173.73814744866922 211.54252428659913 A 0.5 0.5 0 1 1 173.73814719866925 211.54202428668248"/><path fill="black" stroke="none" paint-order="stroke fill markers" d=" M 176.95806475190844 158.31238443461876 A 0.5 0.5 0 1 1 176.95806450190847 158.3118844347021"/><path fill="black" stroke="none" paint-order="stroke fill markers" d=" M 155.0158920739501 168.21326454900552 A 0.5 0.5 0 1 1 155.01589182395014 168.21276454908886"/><path fill="black" stroke="none" paint-order="stroke fill markers" d=" M 183.60706163159097 101.66666666666667 A 0.5 0.5 0 1 1 183.607061381591 101.66616666675"/><path fill="black" stroke="none" paint-order="stroke fill markers" d=" M 173.81660108812835 186.04181441638096 A 0.5 0.5 0 1 1 173.81660083812838 186.0413144164643"/><path fill="black" stroke="none" paint-order="stroke fill markers" d=" M 173.72796773632777 150.87193450523802 A 0.5 0.5 0 1 1 173.7279674863278 150.87143450532136"/><path fill="black" stroke="none" paint-order="stroke fill markers" d=" M 151.87663399911068 182.003500996639 A 0.5 0.5 0 1 1 151.8766337491107 182.00300099672234"/><path fill="black" stroke="none" paint-order="stroke fill markers" d=" M 171.24831889280028 128.2589168071888 A 0.5 0.5 0 1 1 171.2483186428003 128.25841680727214"/><path fill="black" stroke="none" paint-order="stroke fill markers" d=" M 146.5966527352897 178.75369482219762 A 0.5 0.5 0 1 1 146.59665248528972 178.75319482228096"/><path fill="black" stroke="none" paint-order="stroke fill markers" d=" M 215.84055850662165 125.15299147119572 A 0.5 0.5 0 1 1 215.84055825662168 125.15249147127905"/><path fill="black" stroke="none" paint-order="stroke fill markers" d=" M 166.38510257822236 146.58553848182885 A 0.5 0.5 0 1 1 166.3851023282224 146.5850384819122"/><path fill="black" stroke="none" paint-order="stroke fill markers" d=" M 178.77485188273684 177.07697545845267 A 0.5 0.5 0 1 1 178.77485163273687 177.076475458536"/><path fill="black" stroke="none" paint-order="stroke fill markers" d=" M 174.78043329118617 150.02565396358116 A 0.5 0.5 0 1 1 174.7804330411862 150.0251539636645"/><path fill="black" stroke="none" paint-order="stroke fill markers" d=" M 202.6236679578457 130.69235332227066 A 0.5 0.5 0 1 1 202.62366770784573 130.691853322354"/><path fill="black" stroke="none" paint-order="stroke fill markers" d=" M 177.64029027886588 150.07861040338358 A 0.5 0.5 0 1 1 177.6402900288659 150.07811040346692"/><path fill="black" stroke="none" paint-order="stroke fill markers" d=" M 178.41130669969107 135.17260492596267 A 0.5 0.5 0 1 1 178.4113064496911 135.17210492604602"/><path fill="black" stroke="none" paint-order="stroke fill markers" d=" M 181.12534810918294 192.29918351333214 A 0.5 0.5 0 1 1 181.12534785918297 192.29868351341548"/><path fill="black" stroke="none" paint-order="stroke fill markers" d=" M 190.44185743451354 164.67537963141788 A 0.5 0.5 0 1 1 190.44185718451357 164.67487963150123"/><path fill="black" stroke="none" paint-order="stroke fill markers" d=" M 182.93191117565095 187.46915972562815 A 0.5 0.5 0 1 1 182.93191092565098 187.4686597257115"/><path fill="black" stroke="none" paint-order="stroke fill markers" d=" M 171.23933021696678 162.7458168881825 A 0.5 0.5 0 1 1 171.2393299669668 162.74531688826585"/><path fill="black" stroke="none" paint-order="stroke fill markers" d=" M 187.85590557964966 208.6212068618805 A 0.5 0.5 0 1 1 187.8559053296497 208.62070686196384"/><path fill="black" stroke="none" paint-order="stroke fill markers" d=" M 188.0456804765854 163.91980090442175 A 0.5 0.5 0 1 1 188.04568022658543 163.9193009045051"/><path fill="black" stroke="none" paint-order="stroke fill markers" d=" M 139.98402728311896 213.69461464443998 A 0.5 0.5 0 1 1 139.984027033119 213.69411464452332"/><path fill="black" stroke="none" paint-order="stroke fill markers" d=" M 170.20346687018892 198.05013230954933 A 0.5 0.5 0 1 1 170.20346662018895 198.04963230963267"/><path fill="black" stroke="none" paint-order="stroke fill markers" d=" M 172.59664013383605 149.97956168927942 A 0.5 0.5 0 1 1 172.59663988383608 149.97906168936277"/><path fill="black" stroke="none" paint-order="stroke fill markers" d=" M 149.02202071366733 161.61830351003752 A 0.5 0.5 0 1 1 149.02202046366736 161.61780351012086"/><path fill="black" stroke="none" paint-order="stroke fill markers" d=" M 185.38092062811126 175.62592669372341 A 0.5 0.5 0 1 1 185.38092037811128 175.62542669380676"/><path fill="black" stroke="none" paint-order="stroke fill markers" d=" M 137.53576442297705 177.86919939258877 A 0.5 0.5 0 1 1 137.53576417297708 177.8686993926721"/><path fill="black" stroke="none" paint-order="stroke fill markers" d=" M 194.42727995822753 175.79693959252933 A 0.5 0.5 0 1 1 194.42727970822756 175.79643959261267"/><path fill="black" stroke="none" paint-order="stroke fill markers" d=" M 132.76339478764368 145.110409491851 A 0.5 0.5 0 1 1 132.7633945376437 145.10990949193433"/><path fill="black" stroke="none" paint-order="stroke fill markers" d=" M 167.45515936808314 198.66571382492157 A 0.5 0.5 0 1 1 167.45515911808317 198.6652138250049"/><path fill="black" stroke="none" paint-order="stroke fill markers" d=" M 125.60556290295179 138.95036756099378 A 0.5 0.5 0 1 1 125.6055626529518 138.94986756107713"/><path fill="black" stroke="none" paint-order="stroke fill markers" d=" M 133.76653396746525 165.26756193289455 A 0.5 0.5 0 1 1 133.76653371746528 165.2670619329779"/><path fill="black" stroke="none" paint-order="stroke fill markers" d=" M 188.01923188930553 147.10627603369153 A 0.5 0.5 0 1 1 188.01923163930556 147.10577603377487"/><path fill="black" stroke="none" paint-order="stroke fill markers" d=" M 179.2713099024676 181.86466307660444 A 0.5 0.5 0 1 1 179.27130965246764 181.8641630766878"/><path fill="black" stroke="none" paint-order="stroke fill markers" d=" M 181.43992127134297 164.7749471285083 A 0.5 0.5 0 1 1 181.439921021343 164.77444712859165"/><path fill="black" stroke="none" paint-order="stroke fill markers" d=" M 164.41288067860373 138.946089775029 A 0.5 0.5 0 1 1 164.41288042860376 138.94558977511235"/><path fill="black" stroke="none" paint-order="stroke fill markers" d=" M 194.64961662905029 159.93264397937824 A 0.5 0.5 0 1 1 194.64961637905031 159.93214397946159"/><path fill="black" stroke="none" paint-order="stroke fill markers" d=" M 170.3413395099892 166.84782287468033 A 0.5 0.5 0 1 1 170.34133925998924 166.84732287476368"/><path fill="black" stroke="none" paint-order="stroke fill markers" d=" M 160.2601704245444 182.8385526399612 A 0.5 0.5 0 1 1 160.26017017454444 182.83805264004454"/><path fill="black" stroke="none" paint-order="stroke fill markers" d=" M 183.15403717438386 134.778044670687 A 0.5 0.5 0 1 1 183.1540369243839 134.77754467077034"/><path fill="black" stroke="none" paint-order="stroke fill markers" d=" M 142.28514677650674 156.5429339162859 A 0.5 0.5 0 1 1 142.28514652650676 156.54243391636925"/><path fill="black" stroke="none" paint-order="stroke fill markers" d=" M 177.35322738043848 181.73717809910463 A 0.5 0.5 0 1 1 177.3532271304385 181.73667809918797"/><path fill="black" stroke="none" paint-order="stroke fill markers" d=" M 160.97952090133498 204.58169937180148 A 0.5 0.5 0 1 1 160.979520651335 204.58119937188482"/><path fill="black" stroke="none" paint-order="stroke fill markers" d=" M 169.1613817667576 156.55477086305916 A 0.5 0.5 0 1 1 169.16138151675761 156.5542708631425"/><path fill="black" stroke="none" paint-order="stroke fill markers" d=" M 194.8229073589558 172.6794688715977 A 0.5 0.5 0 1 1 194.82290710895583 172.67896887168104"/><path fill="black" stroke="none" paint-order="stroke fill markers" d=" M 166.8978364028945 181.35975796997778 A 0.5 0.5 0 1 1 166.89783615289454 181.35925797006112"/><path fill="black" stroke="none" paint-order="stroke fill markers" d=" M 231.05555555555554 171.61288061381757 A 0.5 0.5 0 1 1 231.05555530555557 171.6123806139009"/><path fill="black" stroke="none" paint-order="stroke fill markers" d=" M 221.28340869990342 179.05229239758003 A 0.5 0.5 0 1 1 221.28340844990345 179.05179239766338"/></g></g></g><g/><g/><g/></g></g></svg>