<svg version="1.1" xmlns="http://www.w3.org/2000/svg" xmlns:xlink="http://www.w3.org/1999/xlink" width="300" height="300" style="width: 300px; height: 300px;"><defs><clipPath id="HygiTdItdfrx"><path fill="none" stroke="none" d=" M 5 5 L 295 5 L 295 295 L 5 295 L 5 5 Z"/></clipPath><clipPath id="AFsQRRlvxRzJ"><path fill="none" stroke="none" d=" M 5 5 L 295 5 L 295 295 L 5 295 L 5 5 Z"/></clipPath><clipPath id="CNgZwkCAuWPl"><path fill="none" stroke="none" d=" M 5 5 L 295 5 L 295 295 L 5 295 L 5 5 Z"/></clipPath></defs><g><g transform="scale(1,1) translate(0.5,0.5)"><rect fill="#FFFFFF" stroke="none" x="0" y="0" width="300" height="300"/><g clip-path="url(#HygiTdItdfrx)"><g><g/></g></g><g clip-path="url(#AFsQRRlvxRzJ)"><g><g/></g></g><g clip-path="url(#CNgZwkCAuWPl)"><g><g><path fill="none" stroke="none"/><path fill="black" stroke="none" paint-order="stroke fill markers" d=" M 220.0971164658383 157.79049262211163 A 0.5 0.5 0 1 1 220.09711621583833 157.78999262219497"/><path fill="black" stroke="none" paint-order="stroke fill markers" d=" M 188.54204257819012 193.19556168008913 A 0.5 0.5 0 1 1 188.54204232819015 193.19506168017247"/><path fill="black" stroke="none" paint-order="stroke fill markers" d=" M 197.03082692008525 185.1984162171061 A 0.5 0.5 0 1 1 197.03082667008528 185.19791621718943"/><path fill="black" stroke="none" paint-order="stroke fill markers" d=" M 168.92384879107968 222.60706797966304 A 0.5 0.5 0 1 1 168.9238485410797 222.6065679797464"/><path fill="black" stroke="none" paint-order="stroke fill markers" d=" M 101.83854780606185 170.91989365311895 A 0.5 0.5 0 1 1 101.83854755606187 170.9193936532023"/><path fill="black" stroke="none" paint-order="stroke fill markers" d=" M 156.3019005000785 179.65296099046233 A 0.5 0.5 0 1 1 156.30190025007852 179.65246099054568"/><path fill="black" stroke="none" paint-order="stroke fill markers" d=" M 173.2243396990759 200.77962183567644 A 0.5 0.5 0 1 1 173.22433944907593 200.77912183575978"/><path fill="black" stroke="none" paint-order="stroke fill markers" d=" M 128.51949745749647 191.33267069930514 A 0.5 0.5 0 1 1 128.5194972074965 191.33217069938848"/><path fill="black" stroke="none" paint-order="stroke fill markers" d=" M 152.91647377328684 166.85874798006014 A 0.5 0.5 0 1 1 152.91647352328687 166.8582479801435"/><path fill="black" stroke="none" paint-order="stroke fill markers" d=" M 166.35581790295052 146.08735084206637 A 0.5 0.5 0 1 1 166.35581765295055 146.08685084214972"/><path fill="black" stroke="none" paint-order="stroke fill markers" d=" M 160.03512129922262 209.03877830364542 A 0.5 0.5 0 1 1 160.03512104922265 209.03827830372876"/><path fill="black" stroke="none" paint-order="stroke fill markers" d=" M 151.1314339121353 180.52895030140522 A 0.5 0.5 0 1 1 151.13143366213532 180.52845030148856"/><path fill="black" stroke="none" paint-order="stroke fill markers" d=" M 142.2826741547929 206.77609750732492 A 0.5 0.5 0 1 1 142.28267390479292 206.77559750740826"/><path fill="black" stroke="none" paint-order="stroke fill markers" d=" M 130.26465267532765 146.23650455641635 A 0.5 0.5 0 1 1 130.26465242532768 146.2360045564997"/><path fill="black" stroke="none" paint-order="stroke fill markers" d=" M 154.0875019010917 181.2040530200179 A 0.5 0.5 0 1 1 154.08750165109174 181.20355302010125"/><path fill="black" stroke="none" paint-order="stroke fill markers" d=" M 179.62726751953906 202.7465807581367 A 0.5 0.5 0 1 1 179.6272672695391 202.74608075822005"/><path fill="black" stroke="none" paint-order="stroke fill markers" d=" M 164.38371374309213 169.48579669881525 A 0.5 0.5 0 1 1 164.38371349309216 169.4852966988986"/><path fill="black" stroke="none" paint-order="stroke fill markers" d=" M 138.59206260708322 123.73898714766028 A 0.5 0.5 0 1 1 138.59206235708325 123.73848714774361"/><path fill="black" stroke="none" paint-order="stroke fill markers" d=" M 146.10448626324197 174.3554986540862 A 0.5 0.5 0 1 1 146.104486013242 174.35499865416955"/><path fill="black" stroke="none" paint-order="stroke fill markers" d=" M 146.7209480992389 163.34910368477838 A 0.5 0.5 0 1 1 146.72094784923894 163.34860368486173"/><path fill="black" stroke="none" paint-order="stroke fill markers" d=" M 175.71373839376977 140.6982999020412 A 0.5 0.5 0 1 1 175.7137381437698 140.69779990212456"/><path fill="black" stroke="none" paint-order="stroke fill markers" d=" M 166.9175809906402 124.24884626209277 A 0.5 0.5 0 1 1 166.91758074064023 124.2483462621761"/><path fill="black" stroke="none" paint-order="stroke fill markers" d=" M 92.16532676677981 155.42179190552298 A 0.5 0.5 0 1 1 92.16532651677983 155.42129190560632"/><path fill="black" stroke="none" paint-order="stroke fill markers" d=" M 163.756592959992 125.73267286593666 A 0.5 0.5 0 1 1 163.75659270999202 125.73217286602"/><path fill="black" stroke="none" paint-order="stroke fill markers" d=" M 205.01265926972326 172.02914824952566 A 0.5 0.5 0 1 1 205.0126590197233 172.028648249609"/><path fill="black" stroke="none" paint-order="stroke fill markers" d=" M 165.5081642536288 147.60256925915525 A 0.5 0.5 0 1 1 165.50816400362882 147.6020692592386"/><path fill="black" stroke="none" paint-order="stroke fill markers" d=" M 116.35650577079221 146.69211826906255 A 0.5 0.5 0 1 1 116.35650552079223 146.6916182691459"/><path fill="black" stroke="none" paint-order="stroke fill markers" d=" M 112.13438029978259 199.71000419214923 A 0.5 0.5 0 1 1 112.1343800497826 199.70950419223257"/><path fill="black" stroke="none" paint-order="stroke fill markers" d=" M 163.90456402093864 143.4407484644463 A 0.5 0.5 0 1 1 163.90456377093867 143.44024846452965"/><path fill="black" stroke="none" paint-order="stroke fill markers" d=" M 146.47465535860766 138.61764575392755 A 0.5 0.5 0 1 1 146.4746551086077 138.6171457540109"/><path fill="black" stroke="none" paint-order="stroke fill markers" d=" M 175.1818329412821 103.64061606841615 A 0.5 0.5 0 1 1 175.18183269128212 103.64011606849948"/><path fill="black" stroke="none" paint-order="stroke fill markers" d=" M 163.55561102219048 174.06743030442578 A 0.5 0.5 0 1 1 163.5556107721905 174.06693030450913"/><path fill="black" stroke="none" paint-order="stroke fill markers" d=" M 201.13948897262395 191.26921057481945 A 0.5 0.5 0 1 1 201.13948872262398 191.2687105749028"/><path fill="black" stroke="none" paint-order="stroke fill markers" d=" M 164.70436983986284 133.94810552594686 A 0.5 0.5 0 1 1 164.70436958986286 133.9476055260302"/><path fill="black" stroke="none" paint-order="stroke fill markers" d=" M 141.87022860780226 172.51695711678676 A 0.5 0.5 0 1 1 141.8702283578023 172.5164571168701"/><path fill="black" stroke="none" paint-order="stroke fill markers" d=" M 183.60119828812998 144.50407518911172 A 0.5 0.5 0 1 1 183.60119803813 144.50357518919506"/><path fill="black" stroke="none" paint-order="stroke fill markers" d=" M 126.4074254467522 107.17971533307184 A 0.5 0.5 0 1 1 126.40742519675221 107.17921533315517"/><path fill="black" stroke="none" paint-order="stroke fill markers" d=" M 128.37416530327502 147.2066654633556 A 0.5 0.5 0 1 1 128.37416505327505 147.20616546343894"/><path fill="black" stroke="none" paint-order="stroke fill markers" d=" M 33.94023820287754 179.39334335338555 A 0.5 0.5 0 1 1 33.94023795287756 179.3928433534689"/><path fill="black" stroke="none" paint-order="stroke fill markers" d=" M 187.44468719254084 101.66666666666667 A 0.5 0.5 0 1 1 187.44468694254087 101.66616666675"/><path fill="black" stroke="none" paint-order="stroke fill markers" d=" M 153.6230647582316 119.39441964437783 A 0.5 0.5 0 1 1 153.62306450823164 119.39391964446116"/><path fill="black" stroke="none" paint-order="stroke fill markers" d=" M 186.232967001224 198.52686557245238 A 0.5 0.5 0 1 1 186.23296675122404 198.52636557253572"/><path fill="black" stroke="none" paint-order="stroke fill markers" d=" M 187.8147240380476 198.05158985555911 A 0.5 0.5 0 1 1 187.81472378804762 198.05108985564246"/><path fill="black" stroke="none" paint-order="stroke fill markers" d=" M 174.76809447790714 151.07951142671476 A 0.5 0.5 0 1 1 174.76809422790717 151.0790114267981"/><path fill="black" stroke="none" paint-order="stroke fill markers" d=" M 161.73079114301814 108.48544871455529 A 0.5 0.5 0 1 1 161.73079089301817 108.48494871463862"/><path fill="black" stroke="none" paint-order="stroke fill markers" d=" M 185.73833860766652 169.08286815039042 A 0.5 0.5 0 1 1 185.73833835766655 169.08236815047377"/><path fill="black" stroke="none" paint-order="stroke fill markers" d=" M 159.4554497208658 178.31315414742886 A 0.5 0.5 0 1 1 159.45544947086583 178.3126541475122"/><path fill="black" stroke="none" paint-order="stroke fill markers" d=" M 161.47098237979446 136.9410710336415 A 0.5 0.5 0 1 1 161.4709821297945 136.94057103372484"/><path fill="black" stroke="none" paint-order="stroke fill markers" d=" M 192.74968668964334 161.69920451046025 A 0.5 0.5 0 1 1 192.74968643964337 161.6987045105436"/><path fill="black" stroke="none" paint-order="stroke fill markers" d=" M 162.59564344602762 137.23103242456838 A 0.5 0.5 0 1 1 162.59564319602765 137.23053242465173"/><path fill="black" stroke="none" paint-order="stroke fill markers" d=" M 167.42422288634273 181.5323646723239 A 0.5 0.5 0 1 1 167.42422263634276 181.53186467240724"/><path fill="black" stroke="none" paint-order="stroke fill markers" d=" M 161.2301967147047 137.51046453419053 A 0.5 0.5 0 1 1 161.23019646470473 137.50996453427388"/><path fill="black" stroke="none" paint-order="stroke fill markers" d=" M 185.1652355839823 130.63353953356295 A 0.5 0.5 0 1 1 185.16523533398234 130.6330395336463"/><path fill="black" stroke="none" paint-order="stroke fill markers" d=" M 171.94471616570073 193.503821829302 A 0.5 0.5 0 1 1 171.94471591570075 193.50332182938536"/><path fill="black" stroke="none" paint-order="stroke fill markers" d=" M 159.4185950784259 174.48496409864194 A 0.5 0.5 0 1 1 159.41859482842594 174.48446409872528"/><path fill="black" stroke="none" paint-order="stroke fill markers" d=" M 206.60529211731676 153.04272398527445 A 0.5 0.5 0 1 1 206.6052918673168 153.0422239853578"/><path fill="black" stroke="none" paint-order="stroke fill markers" d=" M 122.25522882879874 161.12858485729396 A 0.5 0.5 0 1 1 122.25522857879875 161.1280848573773"/><path fill="black" stroke="none" paint-order="stroke fill markers" d=" M 161.16290981360078 132.94216581876003 A 0.5 0.5 0 1 1 161.1629095636008 132.94166581884338"/><path fill="black" stroke="none" paint-order="stroke fill markers" d=" M 138.15108589315116 150.94877818904013 A 0.5 0.5 0 1 1 138.1510856431512 150.94827818912347"/><path fill="black" stroke="none" paint-order="stroke fill markers" d=" M 194.18539463879955 161.41022391350256 A 0.5 0.5 0 1 1 194.18539438879958 161.4097239135859"/><path fill="black" stroke="none" paint-order="stroke fill markers" d=" M 162.2139929747483 201.9735690483505 A 0.5 0.5 0 1 1 162.21399272474832 201.97306904843384"/><path fill="black" stroke="none" paint-order="stroke fill markers" d=" M 160.97574320070413 161.54458820291939 A 0.5 0.5 0 1 1 160.97574295070416 161.54408820300273"/><path fill="black" stroke="none" paint-order="stroke fill markers" d=" M 184.76208406984324 195.82265964674522 A 0.5 0.5 0 1 1 184.76208381984327 195.82215964682857"/><path fill="black" stroke="none" paint-order="stroke fill markers" d=" M 167.8086768697433 154.1428609133817 A 0.5 0.5 0 1 1 167.80867661974332 154.14236091346504"/><path fill="black" stroke="none" paint-order="stroke fill markers" d=" M 191.2437801673239 190.15157694854994 A 0.5 0.5 0 1 1 191.24377991732393 190.1510769486333"/><path fill="black" stroke="none" paint-order="stroke fill markers" d=" M 142.32095178831392 155.46756378553894 A 0.5 0.5 0 1 1 142.32095153831395 155.4670637856223"/><path fill="black" stroke="none" paint-order="stroke fill markers" d=" M 156.01462857453097 170.1698908829763 A 0.5 0.5 0 1 1 156.014628324531 170.16939088305963"/><path fill="black" stroke="none" paint-order="stroke fill markers" d=" M 196.9450141629158 144.09616996011889 A 0.5 0.5 0 1 1 196.94501391291584 144.09566996020223"/><path fill="black" stroke="none" paint-order="stroke fill markers" d=" M 144.81057278457996 173.47010243351332 A 0.5 0.5 0 1 1 144.81057253458 173.46960243359666"/><path fill="black" stroke="none" paint-order="stroke fill markers" d=" M 150.7961300559034 155.6641889529945 A 0.5 0.5 0 1 1 150.79612980590343 155.66368895307784"/><path fill="black" stroke="none" paint-order="stroke fill markers" d=" M 170.93852008579535 153.35299953476624 A 0.5 0.5 0 1 1 170.93851983579538 153.35249953484958"/><path fill="black" stroke="none" paint-order="stroke fill markers" d=" M 165.14371996753616 187.20393680656912 A 0.5 0.5 0 1 1 165.1437197175362 187.20343680665246"/><path fill="black" stroke="none" paint-order="stroke fill markers" d=" M 132.13668771179553 135.6164520831106 A 0.5 0.5 0 1 1 132.13668746179556 135.61595208319395"/><path fill="black" stroke="none" paint-order="stroke fill markers" d=" M 156.60583416772553 120.33386523606781 A 0.5 0.5 0 1 1 156.60583391772556 120.33336523615114"/><path fill="black" stroke="none" paint-order="stroke fill markers" d=" M 177.28817296471817 165.70268313366702 A 0.5 0.5 0 1 1 177.2881727147182 165.70218313375037"/><path fill="black" stroke="none" paint-order="stroke fill markers" d=" M 180.41282472125732 171.4404905716759 A 0.5 0.5 0 1 1 180.41282447125735 171.43999057175924"/><path fill="black" stroke="none" paint-order="stroke fill markers" d=" M 144.2150847321366 124.42492792791288 A 0.5 0.5 0 1 1 144.21508448213663 124.4244279279962"/><path fill="black" stroke="none" paint-order="stroke fill markers" d=" M 196.85019797455863 219.79600868303203 A 0.5 0.5 0 1 1 196.85019772455865 219.79550868311537"/><path fill="black" stroke="none" paint-order="stroke fill markers" d=" M 146.0452261455187 150.45947410745893 A 0.5 0.5 0 1 1 146.04522589551874 150.45897410754228"/><path fill="black" stroke="none" paint-order="stroke fill markers" d=" M 202.68266037296547 146.80696789754575 A 0.5 0.5 0 1 1 202.6826601229655 146.8064678976291"/><path fill="black" stroke="none" paint-order="stroke fill markers" d=" M 174.73146735742856 158.85440231379988 A 0.5 0.5 0 1 1 174.73146710742859 158.85390231388322"/><path fill="black" stroke="none" paint-order="stroke fill markers" d=" M 174.22978708816785 137.30516532993366 A 0.5 0.5 0 1 1 174.22978683816788 137.304665330017"/><path fill="black" stroke="none" paint-order="stroke fill markers" d=" M 166.06482631417208 157.98201971092135 A 0.5 0.5 0 1 1 166.0648260641721 157.9815197110047"/><path fill="black" stroke="none" paint-order="stroke fill markers" d=" M 162.77763099783564 192.21825782556243 A 0.5 0.5 0 1 1 162.77763074783567 192.21775782564578"/><path fill="black" stroke="none" paint-order="stroke fill markers" d=" M 161.64090213197213 143.19566400306184 A 0.5 0.5 0 1 1 161.64090188197216 143.19516400314518"/><path fill="black" stroke="none" paint-order="stroke fill markers" d=" M 156.91676750718412 208.8480135563271 A 0.5 0.5 0 1 1 156.91676725718415 208.84751355641043"/><path fill="black" stroke="none" paint-order="stroke fill markers" d=" M 171.0776556380725 160.68497001534854 A 0.5 0.5 0 1 1 171.07765538807254 160.68447001543188"/><path fill="black" stroke="none" paint-order="stroke fill markers" d=" M 204.06802636922978 135.91396770165647 A 0.5 0.5 0 1 1 204.0680261192298 135.91346770173982"/><path fill="black" stroke="none" paint-order="stroke fill markers" d=" M 182.04599911114175 147.979622079555 A 0.5 0.5 0 1 1 182.04599886114178 147.97912207963836"/><path fill="black" stroke="none" paint-order="stroke fill markers" d=" M 171.14446182834038 165.15585766391158 A 0.5 0.5 0 1 1 171.1444615783404 165.15535766399492"/><path fill="black" stroke="none" paint-order="stroke fill markers" d=" M 176.81027591844918 145.77053324945678 A 0.5 0.5 0 1 1 176.8102756684492 145.77003324954012"/><path fill="black" stroke="none" paint-order="stroke fill markers" d=" M 182.11449757756543 207.6235496215654 A 0.5 0.5 0 1 1 182.11449732756546 207.62304962164873"/><path fill="black" stroke="none" paint-order="stroke fill markers" d=" M 169.7724065193612 145.04950810439917 A 0.5 0.5 0 1 1 169.77240626936123 145.0490081044825"/><path fill="black" stroke="none" paint-order="stroke fill markers" d=" M 173.56257175859946 141.75571495672122 A 0.5 0.5 0 1 1 173.5625715085995 141.75521495680456"/><path fill="black" stroke="none" paint-order="stroke fill markers" d=" M 189.47378807795363 202.36987899919686 A 0.5 0.5 0 1 1 189.47378782795366 202.3693789992802"/><path fill="black" stroke="none" paint-order="stroke fill markers" d=" M 174.8803110934314 128.48523558587638 A 0.5 0.5 0 1 1 174.88031084343143 128.48473558595973"/><path fill="black" stroke="none" paint-order="stroke fill markers" d=" M 168.5006955733536 193.60805889547723 A 0.5 0.5 0 1 1 168.50069532335363 193.60755889556057"/><path fill="black" stroke="none" paint-order="stroke fill markers" d=" M 151.0161416173253 167.16306333236656 A 0.5 0.5 0 1 1 151.01614136732533 167.1625633324499"/><path fill="black" stroke="none" paint-order="stroke fill markers" d=" M 173.34267852599876 124.95720628842352 A 0.5 0.5 0 1 1 173.3426782759988 124.95670628850685"/><path fill="black" stroke="none" paint-order="stroke fill markers" d=" M 149.72620433508078 144.2527766836377 A 0.5 0.5 0 1 1 149.7262040850808 144.25227668372105"/><path fill="black" stroke="none" paint-order="stroke fill markers" d=" M 160.92623346485234 183.3555088333664 A 0.5 0.5 0 1 1 160.92623321485237 183.35500883344974"/><path fill="black" stroke="none" paint-order="stroke fill markers" d=" M 182.99499451685125 147.08923924875606 A 0.5 0.5 0 1 1 182.99499426685128 147.0887392488394"/><path fill="black" stroke="none" paint-order="stroke fill markers" d=" M 185.3665929547716 117.75235400935117 A 0.5 0.5 0 1 1 185.36659270477162 117.7518540094345"/><path fill="black" stroke="none" paint-order="stroke fill markers" d=" M 187.19792287675463 127.72771414269693 A 0.5 0.5 0 1 1 187.19792262675466 127.72721414278026"/><path fill="black" stroke="none" paint-order="stroke fill markers" d=" M 183.4983775030461 120.32697213149012 A 0.5 0.5 0 1 1 183.49837725304613 120.32647213157345"/><path fill="black" stroke="none" paint-order="stroke fill markers" d=" M 175.40089352181027 199.82688459586583 A 0.5 0.5 0 1 1 175.4008932718103 199.82638459594918"/><path fill="black" stroke="none" paint-order="stroke fill markers" d=" M 172.9606308701101 165.3594134123963 A 0.5 0.5 0 1 1 172.96063062011012 165.35891341247964"/><path fill="black" stroke="none" paint-order="stroke fill markers" d=" M 179.76112090804145 179.05965943574606 A 0.5 0.5 0 1 1 179.76112065804148 179.0591594358294"/><path fill="black" stroke="none" paint-order="stroke fill markers" d=" M 166.00323279124814 228.29139363862322 A 0.5 0.5 0 1 1 166.00323254124817 228.29089363870656"/><path fill="black" stroke="none" paint-order="stroke fill markers" d=" M 192.29905921626647 120.28728424907402 A 0.5 0.5 0 1 1 192.2990589662665 120.28678424915735"/><path fill="black" stroke="none" paint-order="stroke fill markers" d=" M 151.2543131725384 155.26829732903377 A 0.5 0.5 0 1 1 151.25431292253842 155.26779732911712"/><path fill="black" stroke="none" paint-order="stroke fill markers" d=" M 188.51500096229174 176.35431832590214 A 0.5 0.5 0 1 1 188.51500071229177 176.3538183259855"/><path fill="black" stroke="none" paint-order="stroke fill markers" d=" M 162.6697768875274 152.11816775572152 A 0.5 0.5 0 1 1 162.66977663752743 152.11766775580486"/><path fill="black" stroke="none" paint-order="stroke fill markers" d=" M 179.8583332550275 155.33007517725358 A 0.5 0.5 0 1 1 179.85833300502753 155.32957517733692"/><path fill="black" stroke="none" paint-order="stroke fill markers" d=" M 156.69443113245205 190.11322924966325 A 0.5 0.5 0 1 1 156.69443088245208 190.1127292497466"/><path fill="black" stroke="none" paint-order="stroke fill markers" d=" M 190.9293021836192 159.00154639347883 A 0.5 0.5 0 1 1 190.92930193361923 159.00104639356218"/><path fill="black" stroke="none" paint-order="stroke fill markers" d=" M 169.9729886623588 172.81540356069985 A 0.5 0.5 0 1 1 169.97298841235883 172.8149035607832"/><path fill="black" stroke="none" paint-order="stroke fill markers" d=" M 197.35393072682783 168.177254505341 A 0.5 0.5 0 1 1 197.35393047682786 168.17675450542436"/><path fill="black" stroke="none" paint-order="stroke fill markers" d=" M 183.945094904935 175.1575139341931 A 0.5 0.5 0 1 1 183.94509465493502 175.15701393427645"/><path fill="black" stroke="none" paint-order="stroke fill markers" d=" M 218.18248653400613 185.58392141871386 A 0.5 0.5 0 1 1 218.18248628400616 185.5834214187972"/><path fill="black" stroke="none" paint-order="stroke fill markers" d=" M 143.33003039310574 233.08283419294793 A 0.5 0.5 0 1 1 143.33003014310577 233.08233419303127"/><path fill="black" stroke="none" paint-order="stroke fill markers" d=" M 161.64526855248005 169.37842250130947 A 0.5 0.5 0 1 1 161.64526830248008 169.37792250139282"/><path fill="black" stroke="none" paint-order="stroke fill markers" d=" M 137.9249299336767 234.72336233252975 A 0.5 0.5 0 1 1 137.92492968367674 234.7228623326131"/><path fill="black" stroke="none" paint-order="stroke fill markers" d=" M 107.80027400082622 191.7874823518276 A 0.5 0.5 0 1 1 107.80027375082624 191.78698235191095"/><path fill="black" stroke="none" paint-order="stroke fill markers" d=" M 176.91552070423745 199.54774204788578 A 0.5 0.5 0 1 1 176.91552045423748 199.54724204796912"/><path fill="black" stroke="none" paint-order="stroke fill markers" d=" M 161.8263821241346 175.9992901277497 A 0.5 0.5 0 1 1 161.82638187413463 175.99879012783305"/><path fill="black" stroke="none" paint-order="stroke fill markers" d=" M 171.55988952264414 190.1251627768076 A 0.5 0.5 0 1 1 171.55988927264417 190.12466277689094"/><path fill="black" stroke="none" paint-order="stroke fill markers" d=" M 159.1388705305203 162.71797589838047 A 0.5 0.5 0 1 1 159.13887028052034 162.71747589846382"/><path fill="black" stroke="none" paint-order="stroke fill markers" d=" M 190.43738839242988 172.52842939529765 A 0.5 0.5 0 1 1 190.4373881424299 172.527929395381"/><path fill="black" stroke="none" paint-order="stroke fill markers" d=" M 149.35547317781447 225.4979130399115 A 0.5 0.5 0 1 1 149.3554729278145 225.49741303999485"/><path fill="black" stroke="none" paint-order="stroke fill markers" d=" M 146.8997064053131 215.62549591407492 A 0.5 0.5 0 1 1 146.89970615531314 215.62499591415826"/><path fill="black" stroke="none" paint-order="stroke fill markers" d=" M 144.0359053146694 167.97129706084684 A 0.5 0.5 0 1 1 144.03590506466944 167.97079706093018"/><path fill="black" stroke="none" paint-order="stroke fill markers" d=" M 166.88232816480004 145.4868025588201 A 0.5 0.5 0 1 1 166.88232791480007 145.48630255890345"/><path fill="black" stroke="none" paint-order="stroke fill markers" d=" M 180.13086628181958 198.7033982369363 A 0.5 0.5 0 1 1 180.1308660318196 198.70289823701964"/><path fill="black" stroke="none" paint-order="stroke fill markers" d=" M 194.61364230380647 142.52620004899308 A 0.5 0.5 0 1 1 194.6136420538065 142.52570004907642"/><path fill="black" stroke="none" paint-order="stroke fill markers" d=" M 186.50661110084434 200.8225743334204 A 0.5 0.5 0 1 1 186.50661085084437 200.82207433350374"/><path fill="black" stroke="none" paint-order="stroke fill markers" d=" M 163.97143742371708 171.95275330398715 A 0.5 0.5 0 1 1 163.9714371737171 171.9522533040705"/><path fill="black" stroke="none" paint-order="stroke fill markers" d=" M 182.5311194358917 165.22708438257456 A 0.5 0.5 0 1 1 182.53111918589173 165.2265843826579"/><path fill="black" stroke="none" paint-order="stroke fill markers" d=" M 180.41330064673662 148.5808366108274 A 0.5 0.5 0 1 1 180.41330039673664 148.58033661091073"/><path fill="black" stroke="none" paint-order="stroke fill markers" d=" M 160.34838858767245 160.51137717027976 A 0.5 0.5 0 1 1 160.34838833767247 160.5108771703631"/><path fill="black" stroke="none" paint-order="stroke fill markers" d=" M 176.24272042832249 188.26098286234236 A 0.5 0.5 0 1 1 176.24272017832251 188.2604828624257"/><path fill="black" stroke="none" paint-order="stroke fill markers" d=" M 189.64638632480774 187.60941535525154 A 0.5 0.5 0 1 1 189.64638607480776 187.6089153553349"/><path fill="black" stroke="none" paint-order="stroke fill markers" d=" M 174.58567493889535 240.17877541969273 A 0.5 0.5 0 1 1 174.58567468889538 240.17827541977607"/><path fill="black" stroke="none" paint-order="stroke fill markers" d=" M 172.09973170679928 201.77482213718105 A 0.5 0.5 0 1 1 172.0997314567993 201.7743221372644"/><path fill="black" stroke="none" paint-order="stroke fill markers" d=" M 179.90835415398547 145.98532905057792 A 0.5 0.5 0 1 1 179.9083539039855 145.98482905066126"/><path fill="black" stroke="none" paint-order="stroke fill markers" d=" M 153.3492770979091 162.4609607926556 A 0.5 0.5 0 1 1 153.34927684790912 162.46046079273896"/><path fill="black" stroke="none" paint-order="stroke fill markers" d=" M 146.7960138152379 165.98930796929363 A 0.5 0.5 0 1 1 146.79601356523793 165.98880796937698"/><path fill="black" stroke="none" paint-order="stroke fill markers" d=" M 210.34593065443843 172.2330432079429 A 0.5 0.5 0 1 1 210.34593040443846 172.23254320802624"/><path fill="black" stroke="none" paint-order="stroke fill markers" d=" M 231.05555555555554 190.0432117071053 A 0.5 0.5 0 1 1 231.05555530555557 190.04271170718866"/></g></g></g><g/><g/><g/></g></g></svg>